<svg width="434" height="102" viewBox="0 0 434 102" fill="none" xmlns="http://www.w3.org/2000/svg">
<path d="M225.326 98.2008H221.764V94.6994H225.326V98.2008Z" fill="#FE5694"/>
<path d="M228.888 101.702H225.326L225.326 98.2008L228.888 98.2007V101.702Z" fill="#FE5694"/>
<path d="M232.45 101.702H228.888V98.2007H232.45V101.702Z" fill="#FE5694"/>
<path d="M236.012 98.2008L232.45 98.2007L232.45 94.6994H236.012V98.2008Z" fill="#FE5694"/>
<path d="M225.326 94.6994H221.764V91.1982H225.326V94.6994Z" fill="#FE5694"/>
<path d="M228.888 91.1982L225.326 91.1982L225.326 87.6969H228.888V91.1982Z" fill="#FE5694"/>
<path d="M366.07 91.1982H228.888V87.6969H366.07V91.1982Z" fill="#FE5694"/>
<path d="M203.954 91.1982H67.7583V87.6969H203.954V91.1982Z" fill="#FE5694"/>
<path d="M207.516 98.2008H211.078V94.6994H207.516V98.2008Z" fill="#FE5694"/>
<path d="M203.954 101.702H207.516L207.516 98.2008L203.954 98.2007V101.702Z" fill="#FE5694"/>
<path d="M200.392 101.702H203.954V98.2007H200.392V101.702Z" fill="#FE5694"/>
<path d="M196.83 98.2008L200.392 98.2007L200.392 94.6994H196.83V98.2008Z" fill="#FE5694"/>
<path d="M207.516 94.6994H211.078V91.1982H207.516V94.6994Z" fill="#FE5694"/>
<path d="M203.954 91.1982L207.516 91.1982L207.516 87.6969H203.954V91.1982Z" fill="#FE5694"/>
<path d="M218.202 87.697H214.64V91.1983H218.202V87.697Z" fill="#FE5694"/>
<path d="M218.122 10.6677H214.56V14.1691H218.122V10.6677Z" fill="#FE5694"/>
<path d="M221.684 7.16532H218.122V10.6667H221.684V7.16532Z" fill="#FE5694"/>
<path d="M218.122 3.66405H214.56V7.16541L218.122 7.16532L218.122 3.66405Z" fill="#FE5694"/>
<path d="M214.56 7.16541L210.998 7.16532V10.6667H214.56L214.56 7.16541Z" fill="#FE5694"/>
<path d="M225.246 17.6703H221.684V21.1717H225.246V17.6703Z" fill="#FE5694"/>
<path d="M228.808 14.169H225.246L225.246 17.6703L228.808 17.6704V14.169Z" fill="#FE5694"/>
<path d="M232.37 14.169H228.808V17.6704H232.37V14.169Z" fill="#FE5694"/>
<path d="M235.933 17.6703L232.37 17.6704L232.37 21.1717H235.933V17.6703Z" fill="#FE5694"/>
<path d="M225.246 21.1717H221.684V24.6729H225.246V21.1717Z" fill="#FE5694"/>
<path d="M228.808 24.6728L225.246 24.6729L225.246 28.1742H228.808V24.6728Z" fill="#FE5694"/>
<path d="M426.545 24.6728H228.808V28.1742H426.545V24.6728Z" fill="#FE5694"/>
<path d="M207.436 17.6703H210.998V21.1717H207.436V17.6703Z" fill="#FE5694"/>
<path d="M203.874 14.169H207.436L207.436 17.6703L203.874 17.6704V14.169Z" fill="#FE5694"/>
<path d="M200.312 14.169H203.874V17.6704H200.312V14.169Z" fill="#FE5694"/>
<path d="M196.75 17.6703L200.312 17.6704L200.312 21.1717H196.75V17.6703Z" fill="#FE5694"/>
<path d="M207.436 21.1717H210.998V24.6729H207.436V21.1717Z" fill="#FE5694"/>
<path d="M203.874 24.6728L207.436 24.6729L207.436 28.1742H203.874V24.6728Z" fill="#FE5694"/>
<path d="M7.12372 24.6728H203.874V28.1742H7.12372V24.6728Z" fill="#FE5694"/>
<path d="M222.086 6.76466H217.851V10.4071H222.086V6.76466Z" fill="#FE5694"/>
<path d="M217.851 3.12224H214.675V6.76466H217.851L217.851 3.12224Z" fill="#FE5694"/>
<path d="M217.851 0H214.675V3.12224H217.851V0Z" fill="#FE5694"/>
<path d="M224.733 6.76466H222.086V10.4071H224.733V6.76466Z" fill="#FE5694"/>
<path d="M217.851 14.5697H214.675V17.6918H217.851V14.5697Z" fill="#FE5694"/>
<path d="M210.44 6.76466H206.205V10.4071H210.44V6.76466Z" fill="#FE5694"/>
<path d="M214.675 6.76466H210.44V10.4071H214.675L214.675 6.76466Z" fill="#FE5694"/>
<path d="M217.851 10.4071H214.675L214.675 14.5697H217.851L217.851 10.4071Z" fill="#FE5694"/>
<path d="M217.851 24.9768H214.675V28.0988H217.851V24.9768Z" fill="#FE5694"/>
<path d="M217.851 24.9768H214.675V28.0988H217.851V24.9768Z" fill="#FE5694"/>
<path d="M4.23489 24.9768H0V28.0988H4.23489V24.9768Z" fill="#FE5694"/>
<path d="M433.513 24.9768H429.278V28.0988H433.513V24.9768Z" fill="#FE5694"/>
<path d="M222.086 3.12224H217.851L217.851 6.76466H222.086V3.12224Z" fill="#FE5694"/>
<path d="M222.086 10.4071H217.851L217.851 14.5697L222.086 14.5698V10.4071Z" fill="#FE5694"/>
<path d="M214.675 10.4071H210.44L210.44 14.5698L214.675 14.5697L214.675 10.4071Z" fill="#FE5694"/>
<path d="M214.675 3.12224H210.44L210.44 6.76466H214.675V3.12224Z" fill="#FE5694"/>
<path d="M414.455 32.2616H19.5862V35.904H414.455V32.2616Z" fill="#FE5694"/>
<path d="M16.4101 80.6534H12.7045V84.2959H16.4101V80.6534Z" fill="#FE5694"/>
<path d="M420.808 80.6534H418.161V84.2959H420.808V80.6534Z" fill="#FE5694"/>
<path d="M414.455 80.6534H19.5862V84.2959H414.455V80.6534Z" fill="#FE5694"/>
</svg>
