<?xml version="1.0" encoding="UTF-8"?>
<svg id="Layer_1" data-name="Layer 1" xmlns="http://www.w3.org/2000/svg" viewBox="0 0 288 144">
  <defs>
    <style>
      .cls-1 {
        stroke-width: .39px;
      }

      .cls-1, .cls-2 {
        fill: none;
        stroke: #d6af26;
        stroke-miterlimit: 10;
      }

      .cls-3 {
        fill: #d6af26;
      }

      .cls-2 {
        stroke-width: .5px;
      }
    </style>
  </defs>
  <g>
    <line class="cls-2" x1="36.45" y1="58.97" x2="233.83" y2="58.97"/>
    <path class="cls-3" d="m135.44,32.02c-1.75,4.22-3.16,5.63-7.38,7.38,4.22,1.75,5.63,3.16,7.38,7.38,1.75-4.22,3.16-5.63,7.38-7.38-4.22-1.75-5.63-3.16-7.38-7.38Zm0,10.42c0-1.74-1.3-3.04-3.04-3.04,1.74,0,3.04-1.3,3.04-3.04,0,1.74,1.3,3.04,3.04,3.04-1.74,0-3.04,1.3-3.04,3.04Z"/>
    <path class="cls-3" d="m137.46,53.87c-1.15.48-1.54.86-2.02,2.02-.48-1.15-.86-1.54-2.02-2.02,1.15-.48,1.54-.86,2.02-2.02.48,1.15.86,1.54,2.02,2.02Z"/>
    <path class="cls-3" d="m147.52,54.68c-.42,0-.85,0-1.27,0-1.12,0-3.97-.33-5.64-2.69-1.31-1.86-1.4-4.32-.52-6.24.23-.49.94-2.02,2.61-2.76,2.23-.97,5.17-.1,6.4,1.9.09.15,1.39,2.34.22,3.93-.62.85-1.92,1.49-3.06,1.02-.97-.39-1.59-1.5-1.52-2.72.11.12.27.19.45.19.35,0,.63-.28.63-.63s-.28-.63-.63-.63c-.32,0-.58.25-.62.56-.21.29-.42.68-.47,1.19-.13,1.26.81,2.27,1.61,2.71,1.73.98,3.63-.22,3.77-.31,1.14-.75,1.54-1.88,1.65-2.21.06-.17.3-.95.18-1.96-.15-1.25-.77-2.1-.98-2.38-1.53-2.05-4.11-2.26-4.8-2.29-.13,0-.22,0-.29,0-.35,0-2.25.02-4.11,1.33-2.15,1.51-2.76,3.7-2.91,4.29-.13.52-.41,1.73-.06,3.22.74,3.19,3.7,4.65,4.16,4.88,1.68.83,3.45.92,4.13.96.66.04,1.16,0,1.25,0h95.3v-.85c-26.98-.17-68.51-.33-95.48-.5Z"/>
    <path class="cls-3" d="m245.46,55.57c-1.15.48-1.54.86-2.02,2.02-.48-1.15-.86-1.54-2.02-2.02,1.15-.48,1.54-.86,2.02-2.02.48,1.15.86,1.54,2.02,2.02Z"/>
    <path class="cls-3" d="m237.86,58.97c-.82.34-1.1.62-1.44,1.44-.34-.82-.62-1.1-1.44-1.44.82-.34,1.1-.62,1.44-1.44.34.82.62,1.1,1.44,1.44Z"/>
    <g>
      <path class="cls-3" d="m123.38,54.68c.42,0,.85,0,1.27,0,1.12,0,3.97-.33,5.64-2.69,1.31-1.86,1.4-4.32.52-6.24-.23-.49-.94-2.02-2.61-2.76-2.23-.97-5.17-.1-6.4,1.9-.09.15-1.39,2.34-.22,3.93.62.85,1.92,1.49,3.06,1.02.97-.39,1.59-1.5,1.52-2.72-.11.12-.27.19-.45.19-.35,0-.63-.28-.63-.63,0-.35.28-.63.63-.63.32,0,.58.25.62.56.21.29.42.68.47,1.19.13,1.26-.81,2.27-1.61,2.71-1.73.98-3.63-.22-3.77-.31-1.14-.75-1.54-1.88-1.65-2.21-.06-.17-.3-.95-.18-1.96.15-1.25.77-2.1.98-2.38,1.53-2.05,4.11-2.26,4.8-2.29.13,0,.22,0,.29,0,.35,0,2.25.02,4.11,1.33,2.15,1.51,2.76,3.7,2.91,4.29.13.52.41,1.73.06,3.22-.74,3.19-3.7,4.65-4.16,4.88-1.68.83-3.45.92-4.13.96-.66.04-1.16,0-1.25,0-26.92,0-68.38,0-95.3,0v-.85c26.98-.17,68.51-.33,95.48-.5Z"/>
      <path class="cls-3" d="m25.44,55.57c1.15.48,1.54.86,2.02,2.02.48-1.15.86-1.54,2.02-2.02-1.15-.48-1.54-.86-2.02-2.02-.48,1.15-.86,1.54-2.02,2.02Z"/>
    </g>
    <path class="cls-3" d="m35.05,58.97c-.82.34-1.1.62-1.44,1.44-.34-.82-.62-1.1-1.44-1.44.82-.34,1.1-.62,1.44-1.44.34.82.62,1.1,1.44,1.44Z"/>
  </g>
  <g>
    <line class="cls-1" x1="58.43" y1="85.99" x2="211.99" y2="85.99"/>
    <path class="cls-3" d="m137.02,89.95c-.9-.37-1.2-.67-1.57-1.57-.37.9-.67,1.2-1.57,1.57.9.37,1.2.67,1.57,1.57.37-.9.67-1.2,1.57-1.57Z"/>
    <path class="cls-3" d="m144.84,89.32c-.33,0-.66,0-.99,0-.87,0-3.09.25-4.39,2.1-1.02,1.44-1.09,3.36-.4,4.85.18.38.73,1.57,2.03,2.14,1.73.76,4.02.08,4.98-1.48.07-.12,1.08-1.82.17-3.06-.48-.66-1.49-1.16-2.38-.8-.75.31-1.24,1.17-1.18,2.12.09-.09.21-.15.35-.15.27,0,.49.22.49.49s-.22.49-.49.49c-.25,0-.45-.19-.48-.44-.16-.23-.32-.53-.36-.93-.1-.98.63-1.76,1.25-2.11,1.35-.76,2.82.17,2.93.24.89.58,1.2,1.46,1.28,1.72.05.14.23.74.14,1.53-.12.98-.6,1.63-.76,1.86-1.19,1.59-3.19,1.76-3.73,1.78-.1,0-.17,0-.22,0-.27,0-1.75-.01-3.19-1.03-1.67-1.18-2.15-2.88-2.26-3.34-.1-.4-.32-1.35-.05-2.51.58-2.48,2.88-3.62,3.23-3.79,1.31-.65,2.68-.72,3.21-.75.52-.03.9,0,.98,0h74.14v.66c-20.99.13-53.3.26-74.29.39Z"/>
    <path class="cls-3" d="m221.04,88.63c-.9-.37-1.2-.67-1.57-1.57-.37.9-.67,1.2-1.57,1.57.9.37,1.2.67,1.57,1.57.37-.9.67-1.2,1.57-1.57Z"/>
    <path class="cls-3" d="m215.13,85.99c-.64-.27-.86-.48-1.12-1.12-.27.64-.48.86-1.12,1.12.64.27.86.48,1.12,1.12.27-.64.48-.86,1.12-1.12Z"/>
    <g>
      <path class="cls-3" d="m126.06,89.32c.33,0,.66,0,.99,0,.87,0,3.09.25,4.39,2.1,1.02,1.44,1.09,3.36.4,4.85-.18.38-.73,1.57-2.03,2.14-1.73.76-4.02.08-4.98-1.48-.07-.12-1.08-1.82-.17-3.06.48-.66,1.49-1.16,2.38-.8.75.31,1.24,1.17,1.18,2.12-.09-.09-.21-.15-.35-.15-.27,0-.49.22-.49.49,0,.27.22.49.49.49.25,0,.45-.19.48-.44.16-.23.32-.53.36-.93.1-.98-.63-1.76-1.25-2.11-1.35-.76-2.82.17-2.93.24-.89.58-1.2,1.46-1.28,1.72-.05.14-.23.74-.14,1.53.12.98.6,1.63.76,1.86,1.19,1.59,3.19,1.76,3.73,1.78.1,0,.17,0,.22,0,.27,0,1.75-.01,3.19-1.03,1.67-1.18,2.15-2.88,2.26-3.34.1-.4.32-1.35.05-2.51-.58-2.48-2.88-3.62-3.23-3.79-1.31-.65-2.68-.72-3.21-.75-.52-.03-.9,0-.98,0-20.94,0-53.2,0-74.14,0v.66c20.99.13,53.3.26,74.29.39Z"/>
      <path class="cls-3" d="m49.86,88.63c.9-.37,1.2-.67,1.57-1.57.37.9.67,1.2,1.57,1.57-.9.37-1.2.67-1.57,1.57-.37-.9-.67-1.2-1.57-1.57Z"/>
    </g>
    <path class="cls-3" d="m57.34,85.99c-.64-.27-.86-.48-1.12-1.12-.27.64-.48.86-1.12,1.12.64.27.86.48,1.12,1.12.27-.64.48-.86,1.12-1.12Z"/>
  </g>
</svg>