<svg width="403" height="117" viewBox="0 0 403 117" fill="none" xmlns="http://www.w3.org/2000/svg">
<path d="M209.467 112.972H206.155V108.944H209.467V112.972Z" fill="#B28B00"/>
<path d="M212.778 117H209.467L209.467 112.972L212.778 112.972V117Z" fill="#B28B00"/>
<path d="M216.089 117H212.778V112.972H216.089V117Z" fill="#B28B00"/>
<path d="M219.4 112.972L216.089 112.972L216.089 108.944H219.4V112.972Z" fill="#B28B00"/>
<path d="M209.467 108.944H206.155V104.916H209.467V108.944Z" fill="#B28B00"/>
<path d="M212.778 104.916L209.467 104.916L209.467 100.888H212.778V104.916Z" fill="#B28B00"/>
<path d="M340.304 104.916H212.778V100.888H340.304V104.916Z" fill="#B28B00"/>
<path d="M189.599 104.916H62.9892V100.888H189.599V104.916Z" fill="#B28B00"/>
<path d="M192.91 112.972H196.222V108.944H192.91V112.972Z" fill="#B28B00"/>
<path d="M189.599 117H192.91L192.91 112.972L189.599 112.972V117Z" fill="#B28B00"/>
<path d="M186.287 117H189.599V112.972H186.287V117Z" fill="#B28B00"/>
<path d="M182.976 112.972L186.287 112.972L186.287 108.944H182.976V112.972Z" fill="#B28B00"/>
<path d="M192.91 108.944H196.222V104.916H192.91V108.944Z" fill="#B28B00"/>
<path d="M189.599 104.916L192.91 104.916L192.91 100.888H189.599V104.916Z" fill="#B28B00"/>
<path d="M202.844 100.888H199.533V104.916H202.844V100.888Z" fill="#B28B00"/>
<path d="M202.77 12.2724H199.459V16.3004H202.77V12.2724Z" fill="#B28B00"/>
<path d="M206.081 8.24313H202.77V12.2712H206.081V8.24313Z" fill="#B28B00"/>
<path d="M202.77 4.21519H199.459V8.24323L202.77 8.24313L202.77 4.21519Z" fill="#B28B00"/>
<path d="M199.459 8.24323L196.147 8.24313V12.2712H199.459L199.459 8.24323Z" fill="#B28B00"/>
<path d="M209.392 20.3282H206.081V24.3563H209.392V20.3282Z" fill="#B28B00"/>
<path d="M212.704 16.3003H209.392L209.392 20.3282L212.704 20.3283V16.3003Z" fill="#B28B00"/>
<path d="M216.015 16.3003H212.704V20.3283H216.015V16.3003Z" fill="#B28B00"/>
<path d="M219.326 20.3282L216.015 20.3283L216.015 24.3563H219.326V20.3282Z" fill="#B28B00"/>
<path d="M209.392 24.3563H206.081V28.3842H209.392V24.3563Z" fill="#B28B00"/>
<path d="M212.704 28.3841L209.392 28.3842L209.392 32.4122H212.704V28.3841Z" fill="#B28B00"/>
<path d="M396.523 28.3841H212.704V32.4122H396.523V28.3841Z" fill="#B28B00"/>
<path d="M192.836 20.3282H196.147V24.3563H192.836V20.3282Z" fill="#B28B00"/>
<path d="M189.525 16.3003H192.836L192.836 20.3282L189.525 20.3283V16.3003Z" fill="#B28B00"/>
<path d="M186.213 16.3003H189.525V20.3283H186.213V16.3003Z" fill="#B28B00"/>
<path d="M182.902 20.3282L186.213 20.3283L186.213 24.3563H182.902V20.3282Z" fill="#B28B00"/>
<path d="M192.836 24.3563H196.147V28.3842H192.836V24.3563Z" fill="#B28B00"/>
<path d="M189.525 28.3841L192.836 28.3842L192.836 32.4122H189.525V28.3841Z" fill="#B28B00"/>
<path d="M6.62232 28.3841H189.525V32.4122H6.62232V28.3841Z" fill="#B28B00"/>
<path d="M206.455 7.78219H202.518V11.9725H206.455V7.78219Z" fill="#B28B00"/>
<path d="M202.518 3.59188H199.565V7.78219H202.518L202.518 3.59188Z" fill="#B28B00"/>
<path d="M202.518 0H199.565V3.59188H202.518V0Z" fill="#B28B00"/>
<path d="M208.915 7.78219H206.455V11.9725H208.915V7.78219Z" fill="#B28B00"/>
<path d="M202.518 16.7612H199.565V20.3529H202.518V16.7612Z" fill="#B28B00"/>
<path d="M195.628 7.78219H191.692V11.9725H195.628V7.78219Z" fill="#B28B00"/>
<path d="M199.565 7.78219H195.628V11.9725H199.565L199.565 7.78219Z" fill="#B28B00"/>
<path d="M202.518 11.9725H199.565L199.565 16.7612H202.518L202.518 11.9725Z" fill="#B28B00"/>
<path d="M202.518 28.7337H199.565V32.3254H202.518V28.7337Z" fill="#B28B00"/>
<path d="M202.518 28.7337H199.565V32.3254H202.518V28.7337Z" fill="#B28B00"/>
<path d="M3.93682 28.7337H0V32.3254H3.93682V28.7337Z" fill="#B28B00"/>
<path d="M403 28.7337H399.063V32.3254H403V28.7337Z" fill="#B28B00"/>
<path d="M206.455 3.59188H202.518L202.518 7.78219H206.455V3.59188Z" fill="#B28B00"/>
<path d="M206.455 11.9725H202.518L202.518 16.7612L206.455 16.7614V11.9725Z" fill="#B28B00"/>
<path d="M199.565 11.9725H195.628L195.629 16.7614L199.565 16.7612L199.565 11.9725Z" fill="#B28B00"/>
<path d="M199.565 3.59188H195.629L195.628 7.78219H199.565V3.59188Z" fill="#B28B00"/>
<path d="M385.284 37.1144H18.2077V41.3047H385.284V37.1144Z" fill="#B28B00"/>
<path d="M15.2551 92.7853H11.8103V96.9756H15.2551V92.7853Z" fill="#B28B00"/>
<path d="M391.189 92.7853H388.729V96.9756H391.189V92.7853Z" fill="#B28B00"/>
<path d="M385.284 92.7853H18.2077V96.9756H385.284V92.7853Z" fill="#B28B00"/>
</svg>
