<svg width="461" height="175" viewBox="0 0 461 175" fill="none" xmlns="http://www.w3.org/2000/svg">
<path d="M238.056 128.972H234.232V124.944H238.056V128.972Z" fill="#B28B00"/>
<path d="M241.881 133H238.057L238.056 128.972L241.881 128.972V133Z" fill="#B28B00"/>
<path d="M245.705 133H241.881V128.972H245.705V133Z" fill="#B28B00"/>
<path d="M249.529 128.972L245.705 128.972L245.705 124.944H249.529V128.972Z" fill="#B28B00"/>
<path d="M238.056 124.944H234.232V120.916H238.056V124.944Z" fill="#B28B00"/>
<path d="M241.881 120.916L238.056 120.916L238.057 116.888H241.881V120.916Z" fill="#B28B00"/>
<path d="M304.594 120.916H241.881V116.888H304.594V120.916Z" fill="#B28B00"/>
<path d="M215.112 120.916H155.744V116.888H215.112V120.916Z" fill="#B28B00"/>
<path d="M218.936 128.972H222.76V124.944H218.936V128.972Z" fill="#B28B00"/>
<path d="M215.112 133H218.936L218.936 128.972L215.112 128.972V133Z" fill="#B28B00"/>
<path d="M211.287 133H215.112V128.972H211.287V133Z" fill="#B28B00"/>
<path d="M207.463 128.972L211.287 128.972L211.287 124.944H207.463V128.972Z" fill="#B28B00"/>
<path d="M218.936 124.944H222.76V120.916H218.936V124.944Z" fill="#B28B00"/>
<path d="M215.112 120.916L218.936 120.916L218.936 116.888H215.112V120.916Z" fill="#B28B00"/>
<path d="M230.408 116.888H226.584V120.916H230.408V116.888Z" fill="#B28B00"/>
<path d="M230.323 28.2724H226.498V32.3004H230.323V28.2724Z" fill="#B28B00"/>
<path d="M234.147 24.2431H230.323V28.2712H234.147V24.2431Z" fill="#B28B00"/>
<path d="M230.323 20.2152H226.498V24.2432L230.323 24.2431L230.323 20.2152Z" fill="#B28B00"/>
<path d="M226.498 24.2432L222.674 24.2431V28.2712H226.498L226.498 24.2432Z" fill="#B28B00"/>
<path d="M237.971 36.3282H234.146V40.3563H237.971V36.3282Z" fill="#B28B00"/>
<path d="M241.795 32.3003H237.971L237.971 36.3282L241.795 36.3283V32.3003Z" fill="#B28B00"/>
<path d="M245.619 32.3003H241.795V36.3283H245.619V32.3003Z" fill="#B28B00"/>
<path d="M249.443 36.3282L245.619 36.3283L245.619 40.3563H249.443V36.3282Z" fill="#B28B00"/>
<path d="M237.971 40.3563H234.146V44.3842H237.971V40.3563Z" fill="#B28B00"/>
<path d="M241.795 44.3841L237.971 44.3842L237.971 48.4122H241.795V44.3841Z" fill="#B28B00"/>
<path d="M369.52 44.3841H241.795V48.4122H369.52V44.3841Z" fill="#B28B00"/>
<path d="M218.85 36.3282H222.674V40.3563H218.85V36.3282Z" fill="#B28B00"/>
<path d="M215.026 32.3003H218.85L218.85 36.3282L215.026 36.3283V32.3003Z" fill="#B28B00"/>
<path d="M211.202 32.3003H215.026V36.3283H211.202V32.3003Z" fill="#B28B00"/>
<path d="M207.377 36.3282L211.202 36.3283L211.202 40.3563H207.377V36.3282Z" fill="#B28B00"/>
<path d="M218.85 40.3563H222.674V44.3842H218.85V40.3563Z" fill="#B28B00"/>
<path d="M215.026 44.3841L218.85 44.3842L218.85 48.4122H215.026V44.3841Z" fill="#B28B00"/>
<path d="M90.6479 44.3841H215.026V48.4122H90.6479V44.3841Z" fill="#B28B00"/>
<path d="M234.578 23.7822H230.031V27.9725H234.578V23.7822Z" fill="#B28B00"/>
<path d="M230.031 19.5919H226.622V23.7822H230.031L230.031 19.5919Z" fill="#B28B00"/>
<path d="M230.031 16H226.622V19.5919H230.031V16Z" fill="#B28B00"/>
<path d="M237.419 23.7822H234.578V27.9725H237.419V23.7822Z" fill="#B28B00"/>
<path d="M230.031 32.7612H226.622V36.3529H230.031V32.7612Z" fill="#B28B00"/>
<path d="M222.075 23.7822H217.528V27.9725H222.075V23.7822Z" fill="#B28B00"/>
<path d="M226.622 23.7822H222.075V27.9725H226.622L226.622 23.7822Z" fill="#B28B00"/>
<path d="M230.031 27.9725H226.622L226.622 32.7612H230.031L230.031 27.9725Z" fill="#B28B00"/>
<path d="M230.031 44.7337H226.622V48.3254H230.031V44.7337Z" fill="#B28B00"/>
<path d="M230.031 44.7337H226.622V48.3254H230.031V44.7337Z" fill="#B28B00"/>
<path d="M87.5465 44.7337H83V48.3254H87.5465V44.7337Z" fill="#B28B00"/>
<path d="M377 44.7337H372.453V48.3254H377V44.7337Z" fill="#B28B00"/>
<path d="M234.578 19.5919H230.031L230.031 23.7822H234.578V19.5919Z" fill="#B28B00"/>
<path d="M234.578 27.9725H230.031L230.031 32.7612L234.578 32.7614V27.9725Z" fill="#B28B00"/>
<path d="M226.622 27.9725H222.075L222.075 32.7614L226.622 32.7612L226.622 27.9725Z" fill="#B28B00"/>
<path d="M226.622 19.5919H222.075L222.075 23.7822H226.622V19.5919Z" fill="#B28B00"/>
<path d="M356.54 53.1144H104.028V57.3047H356.54V53.1144Z" fill="#B28B00"/>
<path d="M100.618 108.785H96.6394V112.976H100.618V108.785Z" fill="#B28B00"/>
<path d="M363.36 108.785H360.519V112.976H363.36V108.785Z" fill="#B28B00"/>
<path d="M356.54 108.785H104.028V112.976H356.54V108.785Z" fill="#B28B00"/>
</svg>
