<svg width="216" height="219" viewBox="0 0 216 219" fill="none" xmlns="http://www.w3.org/2000/svg">
<ellipse cx="108" cy="109.5" rx="108" ry="109.5" fill="#D26B89"/>
<circle cx="109" cy="109" r="85" fill="#EA8CA4"/>
<g filter="url(#filter0_f_720_1109)">
<ellipse cx="109.302" cy="105.785" rx="72.927" ry="52.5762" transform="rotate(6.75141 109.302 105.785)" fill="#AF7BAF"/>
</g>
<path d="M95.1383 106.253C81.673 109.787 59.426 116.647 57.644 105.543C57.1119 102.227 62.0155 98.3882 64.0446 96.5697C66.5809 94.2966 78.0482 90.3813 88.3132 88.009C98.5781 85.6367 110.039 84.6749 112.103 85.4632C114.167 86.2515 118.438 89.5596 119.096 93.6249C119.754 97.6903 108.604 102.72 95.1383 106.253Z" fill="url(#paint0_linear_720_1109)"/>
<path d="M89.433 89.0304C87.3631 89.421 66.4924 91.2311 57.6379 105.698C57.2979 99.8626 57.0721 87.4589 58.1216 82.8071C59.4335 76.9925 65.7067 67.5447 67.9537 65.2412C71.1477 61.967 83.0113 50.8934 85.2935 51.373C87.3899 51.8135 106.724 60.5081 114.037 70.1793C121.35 79.8505 120.209 88.6677 119.086 94.4535C114.157 92.3092 101.008 88.1757 89.433 89.0304Z" fill="url(#paint1_linear_720_1109)"/>
<path d="M106.861 170.426C110.069 167.011 117.779 155.956 104.135 101.867C102.321 100.743 100.409 97.2877 93.475 96.178C83.4696 94.5769 80.2371 100.994 79.4006 102.938C80.0009 126.014 83.9696 167.606 94.1607 171.933C96.7085 173.014 103.654 173.841 106.861 170.426Z" fill="url(#paint2_linear_720_1109)"/>
<path d="M133.662 129.917C118.333 125.684 92.527 119.591 95.9444 108.82C96.9649 105.604 103.748 104.894 106.663 104.397C110.307 103.776 123.787 106.582 135.321 110.093C146.855 113.604 158.94 119.013 160.663 120.835C162.387 122.657 165.165 127.908 163.919 131.854C162.674 135.801 148.99 134.151 133.662 129.917Z" fill="url(#paint3_linear_720_1109)"/>
<path d="M135.977 111.605C133.693 110.82 111.66 101.023 95.8652 108.954C98.2665 103.619 103.875 92.5512 107.129 89.0197C111.197 84.6053 122.01 79.6938 125.374 78.8881C130.157 77.7428 147.408 74.4488 149.499 76.1179C151.419 77.6512 166.949 95.8784 169.819 108.405C172.69 120.931 167.382 128.088 163.519 132.58C159.525 127.996 148.127 117.171 135.977 111.605Z" fill="url(#paint4_linear_720_1109)"/>
<path d="M113.985 174.796C117.86 173.565 128.356 168.596 140.258 125.332C139.33 123.868 139.292 120.721 134.425 117.379C127.404 112.556 122.267 115.899 120.82 116.965C111.733 133.497 97.5715 164.358 103.608 171.176C105.117 172.88 110.109 176.026 113.985 174.796Z" fill="url(#paint5_linear_720_1109)"/>
<path d="M163.979 120.972C168.642 120.721 165.349 113.521 162.285 110.466C159.371 107.561 154.697 107.802 151.578 107.769C147.679 107.726 152.238 112.777 154.37 116.193C156.502 119.609 159.317 121.223 163.979 120.972Z" fill="#6F3F6F"/>
<path d="M162.227 106.32C164.521 106.197 162.716 99.2284 161.128 96.2303C159.617 93.3782 157.317 93.4926 155.777 93.3823C153.852 93.2444 156.227 98.1891 157.365 101.51C158.503 104.83 159.932 106.444 162.227 106.32Z" fill="#865785"/>
<path d="M138.5 103.191C141.872 100.405 136.697 97.2145 133.5 96.0001C130.175 94.7373 127.069 96.661 124.71 98.3832C121.761 100.536 124.084 104.487 127.438 105.685C130.791 106.883 135.128 105.976 138.5 103.191Z" fill="#6F3F6F"/>
<path d="M122.312 92.9006C124.953 88.7349 115.797 88.9719 115.797 88.9719C115.797 88.9719 109.006 92.9404 107.125 95.641C104.772 99.0167 107.459 101.689 110.673 101.293C113.886 100.897 119.67 97.0663 122.312 92.9006Z" fill="#6F3F6F"/>
<path d="M121.742 85.1197C119.666 84.5306 123.643 81.7145 123.643 81.7145C123.643 81.7145 127.199 80.3802 128.607 80.6871C130.367 81.0706 130.081 83.3917 128.789 84.6495C127.498 85.9072 123.817 85.7088 121.742 85.1197Z" fill="#7E4F7D"/>
<path d="M146.57 98.0967C146.311 95.9545 150.445 98.5339 150.445 98.5339C150.445 98.5339 153.05 101.298 153.311 102.715C153.638 104.487 151.386 105.12 149.727 104.415C148.068 103.71 146.829 100.239 146.57 98.0967Z" fill="#805180"/>
<path d="M127.813 90.3511C125.537 89.0964 130.431 87.845 130.431 87.845C130.431 87.845 134.648 87.8229 136.205 88.5881C138.152 89.5446 137.513 91.5974 135.877 92.3219C134.241 93.0463 130.09 91.6058 127.813 90.3511Z" fill="#805180"/>
<ellipse cx="146.023" cy="86.5502" rx="9" ry="4.5" transform="rotate(31.617 146.023 86.5502)" fill="#8A5B89"/>
<ellipse cx="68.2408" cy="80.7284" rx="9" ry="4.5" transform="rotate(101.766 68.2408 80.7284)" fill="#7D4E7D"/>
<path d="M111.227 83.3204C113.521 83.1968 111.716 76.2284 110.128 73.2303C108.617 70.3782 106.317 70.4926 104.777 70.3823C102.852 70.2444 105.228 75.1891 106.365 78.5095C107.503 81.83 108.932 83.4439 111.227 83.3204Z" fill="#865785"/>
<path d="M92.5001 82.3283C95.8719 79.5427 90.6975 76.352 87.5 75.1376C84.1752 73.8747 81.0695 75.7984 78.7102 77.5207C75.7612 79.6735 78.084 83.6245 81.4376 84.8226C84.7912 86.0208 89.1283 85.1138 92.5001 82.3283Z" fill="#7D4E7D"/>
<path d="M95.5697 75.0967C95.3107 72.9545 99.445 75.5339 99.445 75.5339C99.445 75.5339 102.05 78.298 102.311 79.7154C102.638 81.4871 100.386 82.1199 98.7272 81.4148C97.068 80.7098 95.8286 77.2388 95.5697 75.0967Z" fill="#805180"/>
<path d="M76.8135 67.3511C74.5368 66.0964 79.4313 64.845 79.4313 64.845C79.4313 64.845 83.6483 64.8229 85.2053 65.5881C87.1516 66.5446 86.5127 68.5974 84.8767 69.3219C83.2408 70.0463 79.0901 68.6058 76.8135 67.3511Z" fill="#805180"/>
<ellipse cx="95.0233" cy="63.5502" rx="9" ry="4.5" transform="rotate(31.617 95.0233 63.5502)" fill="#8A5B89"/>
<defs>
<filter id="filter0_f_720_1109" x="16.6135" y="32.8662" width="185.378" height="145.838" filterUnits="userSpaceOnUse" color-interpolation-filters="sRGB">
<feFlood flood-opacity="0" result="BackgroundImageFix"/>
<feBlend mode="normal" in="SourceGraphic" in2="BackgroundImageFix" result="shape"/>
<feGaussianBlur stdDeviation="10" result="effect1_foregroundBlur_720_1109"/>
</filter>
<linearGradient id="paint0_linear_720_1109" x1="96.8007" y1="111.587" x2="85.5439" y2="88.4013" gradientUnits="userSpaceOnUse">
<stop stop-color="#EDDFCF"/>
<stop offset="1" stop-color="#CCAAA7"/>
</linearGradient>
<linearGradient id="paint1_linear_720_1109" x1="89.1233" y1="51.4077" x2="88.4385" y2="106.084" gradientUnits="userSpaceOnUse">
<stop stop-color="#A678A6"/>
<stop offset="1" stop-color="#653564"/>
</linearGradient>
<linearGradient id="paint2_linear_720_1109" x1="89.2643" y1="92.9867" x2="94.9539" y2="172.933" gradientUnits="userSpaceOnUse">
<stop offset="0.376162" stop-color="#DBB4B1"/>
<stop offset="1" stop-color="#EDE3D1"/>
</linearGradient>
<linearGradient id="paint3_linear_720_1109" x1="132.839" y1="135.531" x2="135.327" y2="109.211" gradientUnits="userSpaceOnUse">
<stop stop-color="#EDDFCF"/>
<stop offset="1" stop-color="#CCAAA7"/>
</linearGradient>
<linearGradient id="paint4_linear_720_1109" x1="153.369" y1="78.2395" x2="126.942" y2="126.11" gradientUnits="userSpaceOnUse">
<stop stop-color="#A678A6"/>
<stop offset="1" stop-color="#653564"/>
</linearGradient>
<linearGradient id="paint5_linear_720_1109" x1="132.512" y1="113.57" x2="108.37" y2="174" gradientUnits="userSpaceOnUse">
<stop offset="0.376162" stop-color="#DBB4B1"/>
<stop offset="1" stop-color="#FEF8EC"/>
</linearGradient>
</defs>
</svg>
