<svg width="216" height="219" viewBox="0 0 216 219" fill="none" xmlns="http://www.w3.org/2000/svg">
<ellipse cx="108" cy="109.5" rx="108" ry="109.5" fill="#00473E"/>
<path d="M194 110C194 156.944 155.944 195 109 195C62.0558 195 24 156.944 24 110C24 63.0558 62.0558 25 109 25C155.944 25 194 63.0558 194 110Z" fill="#09665B"/>
<g filter="url(#filter0_f_720_1094)">
<ellipse cx="108.236" cy="93.463" rx="61.3578" ry="53.6215" transform="rotate(6.75141 108.236 93.463)" fill="#AF96A8"/>
</g>
<path d="M118.032 114.607C98.8769 119.075 67.2478 127.691 64.506 114.316C63.6872 110.322 70.6172 105.615 73.4807 103.39C77.0601 100.608 93.3566 95.7089 107.965 92.6906C122.573 89.6723 138.914 88.3382 141.873 89.2584C144.833 90.1786 150.988 94.1067 152 99.0033C153.012 103.9 137.187 110.139 118.032 114.607Z" fill="url(#paint0_linear_720_1094)"/>
<path d="M109.581 93.9061C106.634 94.4088 76.879 96.909 64.5 114.503C63.9105 107.466 63.3664 92.4986 64.7812 86.8685C66.5496 79.8308 75.3342 68.3332 78.5 65.5191C83 61.5191 99.7343 47.9748 103 48.5191C106 49.0191 133.75 59.2205 144.36 70.7824C154.971 82.3443 153.5 93.0032 152 100.003C144.926 97.4897 126.087 92.6997 109.581 93.9061Z" fill="#DF759B"/>
<path d="M122.56 180.024C126.026 176.463 134.432 165.089 121.44 112.43C119.557 111.424 117.631 108.121 110.354 107.428C99.8546 106.428 96.2851 112.957 95.3542 114.928C95.3968 137.698 98.5149 178.57 109.141 182.253C111.797 183.173 119.093 183.586 122.56 180.024Z" fill="url(#paint1_linear_720_1094)"/>
<path d="M93 115.519C93.5 109.019 97.5 103.019 103 100.519C107.5 99.6858 115.4 99.3191 117 100.519C119 102.019 121.5 102.519 122.5 106.019C123.5 109.519 126.5 117.019 130 121.519C133.5 126.019 132 133.519 126.5 133.519C125 133.519 125.5 130.519 122.5 129.019C119.5 127.519 122.405 134.519 118.5 134.519C113 134.519 116.5 131.519 113 129.519C109.5 127.519 111.781 134.105 107.5 134.519C102.5 135.003 105 131.519 101 130.519C97 129.519 99 133.519 94.5 134.519C90 135.519 88.5001 133.247 88.5001 128.503C88.5 123.987 92.5 122.019 93 115.519Z" fill="url(#paint2_linear_720_1094)"/>
<path d="M135.537 70.6335C133.2 74.4296 127.431 75.1221 122.653 72.1803C117.874 69.2384 115.894 63.7763 118.231 59.9802C120.568 56.1841 125.721 57.0384 130.5 59.9802C135.279 62.9221 137.873 66.8375 135.537 70.6335Z" fill="#DD6791"/>
<path d="M128.043 91.0624C129.242 86.7688 134.595 84.5116 140 86.0207C145.405 87.5299 149.199 90.7097 148 95.0033C146.801 99.2968 147.5 98.5032 138.096 96.5033C133 95.0032 126.844 95.3559 128.043 91.0624Z" fill="#D25E88"/>
<path d="M82.3718 68.6335C84.7087 72.4296 90.477 73.1221 95.2557 70.1803C100.034 67.2384 102.014 61.7763 99.677 57.9802C97.3401 54.1841 92.187 55.0384 87.4083 57.9802C82.6296 60.9221 80.0348 64.8375 82.3718 68.6335Z" fill="#DD6791"/>
<path d="M72.1603 94.7164C68.5493 92.1025 68.2896 86.2986 71.5801 81.7529C74.8706 77.2073 80.4654 75.6413 84.0763 78.2552C87.6873 80.8691 86.4505 85.944 83.16 90.4896C79.8695 95.0352 75.7712 97.3303 72.1603 94.7164Z" fill="#D25E88"/>
<ellipse cx="109.5" cy="81.5032" rx="11.5" ry="8" fill="#D25E88"/>
<defs>
<filter id="filter0_f_720_1094" x="26.9738" y="19.7207" width="162.525" height="147.485" filterUnits="userSpaceOnUse" color-interpolation-filters="sRGB">
<feFlood flood-opacity="0" result="BackgroundImageFix"/>
<feBlend mode="normal" in="SourceGraphic" in2="BackgroundImageFix" result="shape"/>
<feGaussianBlur stdDeviation="10" result="effect1_foregroundBlur_720_1094"/>
</filter>
<linearGradient id="paint0_linear_720_1094" x1="120.5" y1="121.019" x2="108" y2="91.5192" gradientUnits="userSpaceOnUse">
<stop stop-color="#EDDFCF"/>
<stop offset="1" stop-color="#CCAAA7"/>
</linearGradient>
<linearGradient id="paint1_linear_720_1094" x1="106" y1="104.519" x2="115.5" y2="182.519" gradientUnits="userSpaceOnUse">
<stop stop-color="#DBB4B1"/>
<stop offset="1" stop-color="#EDE3D1"/>
</linearGradient>
<linearGradient id="paint2_linear_720_1094" x1="94.5001" y1="106.519" x2="113.5" y2="130.519" gradientUnits="userSpaceOnUse">
<stop stop-color="#DAB2B0"/>
<stop offset="1" stop-color="#F9E3DD"/>
</linearGradient>
</defs>
</svg>
