<svg width="216" height="219" viewBox="0 0 216 219" fill="none" xmlns="http://www.w3.org/2000/svg">
<ellipse cx="108" cy="109.5" rx="108" ry="109.5" fill="#F0B54F"/>
<circle cx="110" cy="109" r="85" fill="#FFCE64"/>
<g filter="url(#filter0_f_720_1108)">
<ellipse cx="107.963" cy="97.7114" rx="61.3578" ry="42.7948" transform="rotate(6.75141 107.963 97.7114)" fill="#A6BEBB"/>
</g>
<path d="M75.2919 100.63C79.7019 105.048 84.0611 118.819 79.5515 154.944C83.672 156.822 93.7001 161.358 101.652 162.575C111.591 164.095 116.687 162.497 121.936 161.428C125.863 146.846 134.84 116.978 139.338 114.172C142.88 110.97 142.693 112.19 143.967 110.513C145.241 108.835 131.387 102.288 116.575 98.09C101.062 93.6933 70.8819 96.2112 75.2919 100.63Z" fill="url(#paint0_linear_720_1108)"/>
<path d="M112.072 108.267C106.839 107.216 92.1216 107.055 77.9795 106.29C67.8001 105.738 55.3905 105.159 52.1755 102.342C48.1612 98.8236 55.1451 88.4652 56.7813 86.1511C62.5905 77.9351 82.995 66.8939 92.1964 64.2919C104.143 60.9137 121.919 63.7443 132.682 69.4374C146.278 76.6291 167.115 105.56 167.345 114.299C167.557 122.353 158.6 121.455 148.047 119.841C139.605 118.549 136.249 117.253 133.215 115.548C125.296 111.099 119.649 109.789 112.072 108.267Z" fill="url(#paint1_linear_720_1108)"/>
<path d="M91 73.0001C91 67.0001 74 75.5001 74 75.5001C74 75.5001 63.9 84.0001 63.5 88.0001C63 93.0001 73.5 87.5001 80.5 85.0001C87.5 82.5001 91 79.0001 91 73.0001Z" fill="#84A7A9"/>
<path d="M73.0863 95.8795C70.0458 100.065 82.3294 99.9301 82.3294 99.9301C82.3294 99.9301 91.3756 97.4437 93.5902 94.7898C96.3586 91.4725 88.645 91.7301 84.0938 91.0879C79.5426 90.4458 76.1268 91.6942 73.0863 95.8795Z" fill="#78989A"/>
<path d="M134.157 77.0473C136.57 75.0543 126.857 70.2571 126.857 70.2571C126.857 70.2571 119.699 68.553 117.942 69.7024C115.747 71.1391 119.18 76.111 122.778 78.4184C126.375 80.7259 131.745 79.0403 134.157 77.0473Z" fill="#8BAFB1"/>
<path d="M136.5 88.5001C139.667 85.8834 132.207 83.5275 132.207 83.5275C132.207 83.5275 125.735 84.8315 123.545 86.4808C120.807 88.5425 122.317 91.4398 125.012 92.0149C127.708 92.5901 133.333 91.1168 136.5 88.5001Z" fill="#78989A"/>
<path d="M98.5943 69.2266C96.9308 67.8523 101.704 66.8736 101.704 66.8736C101.704 66.8736 105.497 67.0823 106.663 67.9297C108.12 68.9888 106.924 70.9986 105.236 71.6307C103.548 72.2627 100.258 70.6009 98.5943 69.2266Z" fill="#93BABC"/>
<path d="M152.751 111.885C158.743 111.562 154.459 101.346 150.5 96.9999C146.734 92.8653 140.728 93.1748 136.718 93.105C131.707 93.0177 137.601 100.2 140.366 105.052C143.131 109.903 146.76 112.207 152.751 111.885Z" fill="#78989A"/>
<ellipse cx="106.5" cy="83.5" rx="12.5" ry="6.5" fill="#84A6A8"/>
<ellipse cx="119.133" cy="103.247" rx="13" ry="5.8607" transform="rotate(21.6715 119.133 103.247)" fill="#78989A"/>
<path d="M90.5 152.5C92 141.167 94.1 116.2 90.5 107H98L90.5 152.5Z" fill="#A6CDC9"/>
<path d="M109.692 154.985C113.47 144.195 124.134 121.084 131.5 114.5L127.5 112.5L123.542 111L109.692 154.985Z" fill="#A6CDC9"/>
<path d="M117.969 109.626C117.272 109.483 112.428 108.731 105.385 107.51C105.5 110.5 105 117 105 121C105 126.125 104.065 132.815 104 133.5C103.951 134.016 106.374 133.893 107.5 134C109.698 130.295 112.947 118.673 115 115C117.053 111.327 117.525 109.814 117.969 109.626Z" fill="#D2F2EE"/>
<defs>
<filter id="filter0_f_720_1108" x="26.8203" y="34.5986" width="162.286" height="126.226" filterUnits="userSpaceOnUse" color-interpolation-filters="sRGB">
<feFlood flood-opacity="0" result="BackgroundImageFix"/>
<feBlend mode="normal" in="SourceGraphic" in2="BackgroundImageFix" result="shape"/>
<feGaussianBlur stdDeviation="10" result="effect1_foregroundBlur_720_1108"/>
</filter>
<linearGradient id="paint0_linear_720_1108" x1="110.702" y1="96.837" x2="97.9346" y2="177.767" gradientUnits="userSpaceOnUse">
<stop stop-color="#E2FFFC"/>
<stop offset="1" stop-color="#8EB9B4"/>
</linearGradient>
<linearGradient id="paint1_linear_720_1108" x1="115.737" y1="63.8906" x2="104.966" y2="115.859" gradientUnits="userSpaceOnUse">
<stop stop-color="#C1F4F7"/>
<stop offset="1" stop-color="#718F91"/>
</linearGradient>
</defs>
</svg>
