<svg width="546" height="476" viewBox="0 0 546 476" fill="none" xmlns="http://www.w3.org/2000/svg">
<path d="M238.203 210.035C225.881 210.872 205.539 211.682 199.658 212.081C196.287 181.12 222.322 79.3975 283.696 75.2295C345.07 71.0616 367.423 145.428 372.084 192.338C367.347 191.7 363.557 189.519 358.549 189.859C352.906 190.242 346.815 190.022 341.821 192.742C335.834 196.002 327.745 195.437 321.031 195.837C316.64 196.098 310.771 196.276 306.536 194.979C303.138 193.939 300.245 192.277 296.587 191.908C290.781 191.322 284.564 191.856 278.827 192.828C269.256 194.45 258.921 197.738 252.089 204.456C250.781 205.741 250.139 208.624 248.44 209.213C245.496 210.233 241.29 209.825 238.203 210.035Z" fill="url(#paint0_radial_301_248)" style="mix-blend-mode:lighten"/>
<path d="M310.67 140.231L309.889 182.899L283.782 195.544L267.214 152.882L291.813 113.974L310.67 140.231Z" fill="#61CFF0"/>
<path d="M294.553 134.005L267.234 153.226L283.782 195.544L309.89 182.899L310.67 140.231L294.553 134.005Z" fill="#A5EAFF"/>
<path d="M300.674 187.331L294.553 134.005L267.229 153.133L283.782 195.544L300.674 187.331Z" fill="#2BB1DA"/>
<path d="M262.814 153.342L277.73 186.437L260.253 201.281L245.672 203.4L231.135 159.656L262.814 153.342Z" fill="#2BB1DA"/>
<path d="M249.958 163.118L231.135 159.656L262.815 153.342L249.958 163.118Z" fill="#B3ECFF"/>
<path d="M260.251 201.281L249.956 163.117L262.813 153.341L277.728 186.436L260.251 201.281Z" fill="#61CFF0"/>
<path d="M310.67 140.231L294.552 134.004L291.861 113.971L310.67 140.231Z" fill="#E0F7FF"/>
<path d="M353.574 164.472L339.087 195.055L323.018 189.366L308.558 180.279L323.045 149.696L349.836 145.955L353.574 164.472Z" fill="#AEE2F2"/>
<path d="M349.836 145.955L338.309 157.084L353.573 164.472L349.836 145.955Z" fill="#E8FAFF"/>
<path d="M338.309 157.084L349.836 145.955L323.045 149.696L308.558 180.279L323.018 189.366L338.309 157.084Z" fill="#2BB1DA"/>
<path d="M323.045 149.696L349.836 145.955L338.309 157.084L323.045 149.696Z" fill="#61CFF0"/>
<path d="M296.825 166.761L291.741 169.759L302.602 174.383L310.142 168.56L304.712 166.248L296.825 166.761Z" fill="#C6F1FF"/>
<path d="M289.458 175.239L291.741 169.758L302.602 174.383L302.948 179.692L289.458 175.239Z" fill="#61CFF0"/>
<path d="M302.602 174.383L310.142 168.559L312.944 171.043L302.948 179.692L302.602 174.383Z" fill="#2BB1DA"/>
<path d="M304.332 200.93L302.948 179.693L312.944 171.043L311.699 192.452L304.332 200.93Z" fill="#61CFF0"/>
<path d="M302.948 179.693L289.458 175.24L290.842 196.477L304.332 200.93L302.948 179.693Z" fill="#2BB1DA"/>
<path d="M287.464 188.478C305.109 177.645 333.77 159.123 342.192 153.952C321.527 116.234 202.547 27.7459 114.661 81.7069C26.7756 135.668 56.7908 239.878 88.7166 296.6C94.7162 291.366 98.1495 285.317 105.321 280.914C113.402 275.952 121.606 269.89 130.703 268.152C141.61 266.068 152.281 257.715 161.849 251.749C168.106 247.847 176.33 242.441 181.101 236.952C184.928 232.548 187.55 227.935 192.284 224.03C199.797 217.833 208.791 212.491 217.482 208.097C231.983 200.765 248.896 194.56 263.791 195.521C266.641 195.705 269.881 198.303 272.702 197.337C277.588 195.664 283.043 191.193 287.464 188.478Z" fill="url(#paint1_radial_301_248)" style="mix-blend-mode:lighten"/>
<path d="M187.212 196.246L204.301 227.054L179.738 227.052L150.287 211.657L133.018 195.407L187.212 196.246Z" fill="#D31F62"/>
<path d="M152.716 191.932L204.042 228.564L235.925 216.566L195.705 165.979L133.622 151.943L152.716 191.932Z" fill="#FF7AAC"/>
<path d="M152.717 191.932L157.883 173.677L133.622 151.943L152.717 191.932Z" fill="#FB99BD"/>
<path d="M150.254 210.146L133.017 195.408L147.612 213L179.737 227.053L204.3 227.055L173.785 220.29L150.254 210.146Z" fill="#FF97BD"/>
<path d="M157.881 173.677L196.394 166.538L232.433 218.015L201.287 229.618L152.716 191.931L157.881 173.677Z" fill="#F85894"/>
<path d="M210.495 226.249L157.882 173.678L196.422 166.561L232.434 218.016L210.495 226.249Z" fill="#FF97BD"/>
<path d="M186.5 179.5L229.181 212.41L237.5 210.5L255.645 200.413L199.212 146.46L186.5 179.5Z" fill="#D31F62"/>
<path d="M200.709 172.667L199.142 144.989L185.568 180.056L200.709 172.667Z" fill="#FFBCD5"/>
<path d="M240.5 210L200.607 171.435L185.725 179.572L223.722 224.332L240.5 210Z" fill="#FF80AF"/>
<path d="M429.929 203.707L393.975 242.385L377 225L388.449 184.5L438.265 166.183L429.929 203.707Z" fill="#9C73F5"/>
<path d="M423.602 186.543L388.177 184.829L374 223L393.976 242.384L429.929 203.707L423.602 186.543Z" fill="#8458E1"/>
<path d="M388.25 236.5L423.602 186.543L388.25 184.74L364 221.5L388.25 236.5Z" fill="#6B49B5"/>
<path d="M395.184 188.745L367.5 222L354.5 208.902L334.5 206.5L377.503 160.522L395.184 188.745Z" fill="#8458E1"/>
<path d="M379.641 182.771L377.503 160.522L395.184 188.745L379.641 182.771Z" fill="#EBD3FF"/>
<path d="M352.5 214.5L379.641 182.771L395.184 188.745L368 222L352.5 214.5Z" fill="#9E79EC"/>
<path d="M429.929 203.707L423.602 186.544L439.14 165.196L429.929 203.707Z" fill="#EBD3FF"/>
<path d="M426.493 247.545C438.828 254.034 459.375 264.198 465.262 267.296C478.659 239.195 484.712 129.741 423.272 97.4204C361.833 65.1001 315.075 126.016 295.234 168.798C300.284 170.375 304.862 170.034 309.875 172.671C315.524 175.643 321.826 178.244 326.06 183.154C331.137 189.041 339.591 192.233 346.331 195.714C350.739 197.991 356.685 200.87 361.434 201.583C365.244 202.156 368.736 201.898 372.597 203.233C378.724 205.352 384.912 208.733 390.467 212.312C399.737 218.284 409.252 226.204 414.081 235.791C415.006 237.626 414.737 240.683 416.286 242.032C418.969 244.369 423.402 245.919 426.493 247.545Z" fill="url(#paint2_radial_301_248)" style="mix-blend-mode:lighten"/>
<path d="M432.995 328.981C432.995 404.168 372.044 465.119 296.858 465.119C221.671 465.119 160.72 404.168 160.72 328.981C160.72 253.794 221.671 192.843 296.858 192.843C372.044 192.843 432.995 253.794 432.995 328.981Z" stroke="#DEB62A" stroke-width="20"/>
<path d="M160.5 314.5C155.3 313.7 152 317.5 151 319.5C152.333 310.667 154.6 288.5 159 276.5C163.4 264.5 176 246.667 181 238.5C185.167 236.833 194.1 234 196.5 236C198.9 238 199.5 244.833 199.5 248C196.333 252.667 189.2 265.2 182 278C174.8 290.8 171.333 314.667 171 325C169.667 321.833 165.7 315.3 160.5 314.5Z" fill="#FFD953"/>
<path d="M434 314.5C439.2 313.7 442.5 317.5 443.5 319.5C442.167 310.667 439.9 288.5 435.5 276.5C431.1 264.5 418.5 246.667 413.5 238.5C409.333 236.833 400.4 234 398 236C395.6 238 395 244.833 395 248C398.167 252.667 405.3 265.2 412.5 278C419.7 290.8 423.167 314.667 423.5 325C424.833 321.833 428.8 315.3 434 314.5Z" fill="#FFD953"/>
<defs>
<radialGradient id="paint0_radial_301_248" cx="0" cy="0" r="1" gradientUnits="userSpaceOnUse" gradientTransform="translate(284.262 168.517) rotate(-95.339) scale(81.8316 66.086)">
<stop stop-color="#2BB1DA"/>
<stop offset="0.9999" stop-color="#2BB1DA" stop-opacity="0"/>
<stop offset="1" stop-color="white" stop-opacity="0"/>
</radialGradient>
<radialGradient id="paint1_radial_301_248" cx="0" cy="0" r="1" gradientUnits="userSpaceOnUse" gradientTransform="translate(190.131 186.197) rotate(-119.78) scale(112.98 110.775)">
<stop stop-color="#D31F62"/>
<stop offset="1" stop-color="#D31F62" stop-opacity="0"/>
</radialGradient>
<radialGradient id="paint2_radial_301_248" cx="0" cy="0" r="1" gradientUnits="userSpaceOnUse" gradientTransform="translate(392.719 186.517) rotate(-65.4984) scale(81.9052 74.484)">
<stop stop-color="#6B49B5"/>
<stop offset="1" stop-color="#6B49B5" stop-opacity="0"/>
</radialGradient>
</defs>
</svg>
