<svg width="470" height="403" viewBox="15 50 470 310" fill="none" xmlns="http://www.w3.org/2000/svg">
<path d="M200.811 170.022C190.016 170.755 172.195 171.463 167.042 171.813C164.087 144.702 186.894 55.6308 240.663 51.9832C294.432 48.3357 314.018 113.454 318.103 154.53C313.953 153.972 310.632 152.062 306.245 152.36C301.301 152.695 295.965 152.502 291.589 154.883C286.344 157.738 279.258 157.243 273.376 157.592C269.529 157.821 264.387 157.976 260.676 156.841C257.699 155.93 255.165 154.475 251.96 154.151C246.874 153.638 241.427 154.105 236.401 154.957C228.016 156.377 218.961 159.256 212.976 165.137C211.831 166.263 211.268 168.787 209.779 169.303C207.2 170.196 203.516 169.839 200.811 170.022Z" fill="url(#paint0_radial_2118_2221)" style="mix-blend-mode:lighten"/>
<path d="M264.294 108.901L263.613 146.263L240.743 157.333L226.227 119.976L247.773 85.9095L264.294 108.901Z" fill="#61CFF0"/>
<path d="M250.174 103.448L226.243 120.278L240.743 157.334L263.613 146.263L264.294 108.901L250.174 103.448Z" fill="#A5EAFF"/>
<path d="M255.539 150.143L250.173 103.449L226.239 120.197L240.742 157.334L255.539 150.143Z" fill="#2BB1DA"/>
<path d="M222.368 120.381L235.438 149.36L220.127 162.357L207.353 164.211L194.616 125.907L222.368 120.381Z" fill="#2BB1DA"/>
<path d="M211.107 128.941L194.616 125.908L222.37 120.381L211.107 128.941Z" fill="#B3ECFF"/>
<path d="M220.126 162.356L211.105 128.939L222.367 120.38L235.436 149.359L220.126 162.356Z" fill="#61CFF0"/>
<path d="M264.297 108.902L250.177 103.449L247.818 85.9066L264.297 108.902Z" fill="#E0F7FF"/>
<path d="M301.885 130.125L289.191 156.904L275.114 151.924L262.447 143.969L275.141 117.189L298.612 113.911L301.885 130.125Z" fill="#AEE2F2"/>
<path d="M298.612 113.912L288.512 123.659L301.884 130.127L298.612 113.912Z" fill="#E8FAFF"/>
<path d="M288.512 123.657L298.611 113.911L275.141 117.189L262.447 143.968L275.113 151.924L288.512 123.657Z" fill="#2BB1DA"/>
<path d="M275.139 117.19L298.611 113.911L288.512 123.658L275.139 117.19Z" fill="#61CFF0"/>
<path d="M252.168 132.13L247.713 134.755L257.229 138.805L263.834 133.706L259.077 131.681L252.168 132.13Z" fill="#C6F1FF"/>
<path d="M245.713 139.554L247.713 134.754L257.228 138.804L257.532 143.454L245.713 139.554Z" fill="#61CFF0"/>
<path d="M257.229 138.804L263.834 133.705L266.289 135.88L257.533 143.453L257.229 138.804Z" fill="#2BB1DA"/>
<path d="M258.746 162.049L257.532 143.453L266.288 135.88L265.199 154.626L258.746 162.049Z" fill="#61CFF0"/>
<path d="M257.531 143.454L245.713 139.554L246.927 158.15L258.744 162.05L257.531 143.454Z" fill="#2BB1DA"/>
<path d="M251.855 166.045C267.312 156.56 292.421 140.345 299.799 135.818C281.69 102.787 177.441 25.291 100.449 72.5328C23.4567 119.775 49.7642 211.029 77.7407 260.701C82.9964 256.119 86.0038 250.822 92.2863 246.967C99.3653 242.624 106.553 237.316 114.523 235.795C124.078 233.971 133.426 226.658 141.808 221.435C147.29 218.019 154.494 213.286 158.673 208.48C162.026 204.624 164.323 200.585 168.47 197.166C175.051 191.74 182.93 187.064 190.544 183.217C203.248 176.798 218.065 171.366 231.115 172.21C233.612 172.371 236.451 174.647 238.922 173.801C243.202 172.336 247.982 168.421 251.855 166.045Z" fill="url(#paint1_radial_2118_2221)" style="mix-blend-mode:lighten"/>
<path d="M164.018 172.835L178.992 199.81L157.473 199.806L131.67 186.324L116.539 172.094L164.018 172.835Z" fill="#D31F62"/>
<path d="M133.798 169.052L178.767 201.129L206.698 190.628L171.457 146.334L117.066 134.038L133.798 169.052Z" fill="#FF7AAC"/>
<path d="M133.799 169.055L138.323 153.073L117.066 134.042L133.799 169.055Z" fill="#FB99BD"/>
<path d="M131.64 185.002L116.537 172.097L129.325 187.5L157.471 199.808L178.99 199.812L152.256 193.885L131.64 185.002Z" fill="#FF97BD"/>
<path d="M138.32 153.068L172.061 146.821L203.639 191.897L176.353 202.053L133.796 169.051L138.32 153.068Z" fill="#F85894"/>
<path d="M184.421 199.103L138.322 153.069L172.086 146.842L203.64 191.897L184.421 199.103Z" fill="#FF97BD"/>
<path d="M163.606 156.884L205.803 191.042L220.246 194.278L229.832 181.225L174.529 129.24L163.606 156.884Z" fill="#D31F62"/>
<path d="M175.845 152.187L174.469 127.952L162.58 158.656L175.845 152.187Z" fill="#FFBCD5"/>
<path d="M219.183 194.071L175.752 151.109L162.715 158.231L196.008 197.424L219.183 194.071Z" fill="#FF80AF"/>
<path d="M368.78 164.479L337.28 198.346L311.781 192.304L332.441 147.663L376.085 131.623L368.78 164.479Z" fill="#9C73F5"/>
<path d="M363.238 149.451L332.202 147.952L311.781 192.304L337.28 198.346L368.78 164.478L363.238 149.451Z" fill="#8458E1"/>
<path d="M328.302 196.187L363.238 149.451L332.267 147.874L311.781 192.304L328.302 196.187Z" fill="#6B49B5"/>
<path d="M338.34 151.378L308.976 187.004L288.884 180.928L282.555 169.03L322.851 126.667L338.34 151.378Z" fill="#8458E1"/>
<path d="M324.722 146.149L322.851 126.668L338.34 151.38L324.722 146.149Z" fill="#EBD3FF"/>
<path d="M288.885 180.929L324.723 146.148L338.341 151.379L308.977 187.004L288.885 180.929Z" fill="#9E79EC"/>
<path d="M368.78 164.48L363.238 149.453L376.852 130.76L368.78 164.48Z" fill="#EBD3FF"/>
<path d="M365.766 202.866C376.572 208.547 394.573 217.446 399.731 220.158C411.469 195.552 416.778 99.7107 362.952 71.4132C309.126 43.1157 268.158 96.4575 250.773 133.92C255.198 135.3 259.208 135.001 263.6 137.31C268.549 139.912 274.07 142.189 277.779 146.488C282.227 151.643 289.634 154.437 295.538 157.485C299.4 159.479 304.609 162 308.77 162.624C312.107 163.125 315.167 162.899 318.549 164.068C323.917 165.923 329.338 168.883 334.205 172.017C342.326 177.246 350.662 184.18 354.893 192.575C355.703 194.181 355.467 196.858 356.824 198.039C359.174 200.085 363.058 201.442 365.766 202.866Z" fill="url(#paint2_radial_2118_2221)" style="mix-blend-mode:lighten"/>
<path d="M360.229 274.17C360.229 333.782 311.872 382.128 252.196 382.128C192.52 382.128 144.163 333.782 144.163 274.17C144.163 214.557 192.52 166.212 252.196 166.212C311.872 166.212 360.229 214.557 360.229 274.17Z" stroke="#A6871B" stroke-width="40"/>
<path d="M328.297 177.945C320.861 179.028 314.152 197.805 311.728 207.058L363.052 258.175C363.052 253.097 363.905 247.243 369.113 246.665C375.217 245.988 377.061 253.774 378.408 258.175C378.543 255.805 380.833 242.941 365.072 213.828C354.544 194.381 348.368 188.101 341.633 182.346C340.286 180.427 335.733 176.862 328.297 177.945Z" fill="#FFD953"/>
<path d="M174.465 177.945C181.901 179.028 188.609 197.805 191.034 207.058L139.71 258.175C139.71 253.097 138.856 247.243 133.648 246.665C127.545 245.988 125.7 253.774 124.353 258.175C124.218 255.805 121.928 242.941 137.689 213.828C148.217 194.381 154.393 188.101 161.129 182.346C162.476 180.427 167.029 176.862 174.465 177.945Z" fill="#FFD953"/>
<ellipse cx="252.857" cy="274.904" rx="115.908" ry="118.686" fill="#332C43"/>
<path d="M258.062 206.858C272.328 206.858 283.728 210.592 292.262 218.058C300.928 225.525 305.262 236.058 305.262 249.658C305.262 262.192 301.128 271.992 292.862 279.058C284.728 285.992 273.928 289.525 260.462 289.658L259.462 304.658H229.462L228.462 267.458H240.462C250.728 267.458 258.528 266.192 263.862 263.658C269.328 261.125 272.062 256.525 272.062 249.858C272.062 245.192 270.795 241.525 268.262 238.858C265.728 236.192 262.195 234.858 257.662 234.858C252.862 234.858 249.128 236.258 246.462 239.058C243.795 241.725 242.462 245.392 242.462 250.058H210.262C209.995 241.925 211.662 234.592 215.262 228.058C218.995 221.525 224.462 216.392 231.662 212.658C238.995 208.792 247.795 206.858 258.062 206.858ZM244.862 356.658C238.862 356.658 233.928 354.925 230.062 351.458C226.328 347.858 224.462 343.458 224.462 338.258C224.462 332.925 226.328 328.458 230.062 324.858C233.928 321.258 238.862 319.458 244.862 319.458C250.728 319.458 255.528 321.258 259.262 324.858C263.128 328.458 265.062 332.925 265.062 338.258C265.062 343.458 263.128 347.858 259.262 351.458C255.528 354.925 250.728 356.658 244.862 356.658Z" fill="#8E54BD"/>
<g style="mix-blend-mode:overlay">
<path d="M143.417 235.712L348.178 342.447C346.566 344.828 344.87 347.145 343.097 349.395L140.618 245.163C141.426 241.958 142.361 238.806 143.417 235.712C146.301 227.268 150.09 219.26 154.666 211.808C160.929 201.612 168.664 192.459 177.566 184.664L368.156 287.134C366.955 299.152 364.003 310.638 359.564 321.322L154.666 211.808C150.09 219.26 146.301 227.268 143.417 235.712Z" fill="white" fill-opacity="0.45"/>
</g>
<defs>
<radialGradient id="paint0_radial_2118_2221" cx="0" cy="0" r="1" gradientUnits="userSpaceOnUse" gradientTransform="translate(241.162 133.669) rotate(-95.3439) scale(71.6556 57.8967)">
<stop stop-color="#2BB1DA"/>
<stop offset="0.9999" stop-color="#2BB1DA" stop-opacity="0"/>
<stop offset="1" stop-color="white" stop-opacity="0"/>
</radialGradient>
<radialGradient id="paint1_radial_2118_2221" cx="0" cy="0" r="1" gradientUnits="userSpaceOnUse" gradientTransform="translate(166.579 164.037) rotate(-119.797) scale(98.9536 97.0285)">
<stop stop-color="#D31F62"/>
<stop offset="1" stop-color="#D31F62" stop-opacity="0"/>
</radialGradient>
<radialGradient id="paint2_radial_2118_2221" cx="0" cy="0" r="1" gradientUnits="userSpaceOnUse" gradientTransform="translate(336.18 149.43) rotate(-65.4845) scale(71.7281 65.2471)">
<stop stop-color="#6B49B5"/>
<stop offset="1" stop-color="#6B49B5" stop-opacity="0"/>
</radialGradient>
</defs>
</svg>
