<svg width="240" height="100" viewBox="0 0 240 100" fill="none" xmlns="http://www.w3.org/2000/svg">
<g clip-path="url(#clip0_967_443)">
<path d="M195.087 12.5421H46.9465C27.6167 12.5421 11.9469 28.212 11.9469 47.5417C11.9469 66.8714 27.6167 82.5413 46.9465 82.5413H195.087C214.416 82.5413 230.086 66.8714 230.086 47.5417C230.086 28.212 214.416 12.5421 195.087 12.5421Z" fill="#89DDEC"/>
<path d="M205.27 73.0793L36.6166 73.2993C35.4185 67.1869 28.9272 64.253 24.783 63.7273V31.6005C31.3843 31.1971 36.1642 26.5517 36.5799 22.0285L205.233 21.8085C205.319 27.6152 211.174 31.4049 217.067 31.3805V63.5072C211.358 62.8716 205.71 66.7835 205.27 73.0793Z" stroke="#C1F4F7" stroke-width="1.75" stroke-miterlimit="10"/>
<path d="M13.2305 58.165C13.2305 58.165 5.54112 57.6149 3.71963 54.7299C1.89813 51.8448 3.58515 43.4708 8.20612 41.6738C12.8271 39.8767 20.651 42.6518 22.9737 49.0942C25.2964 55.5489 31.0298 61.7347 34.3916 63.8007C37.7535 65.8667 48.389 69.3018 49.9293 70.4021C51.4697 71.5023 56.2251 72.8837 59.0368 79.9007C61.8485 86.9177 64.4035 88.9715 70.1003 89.9495C75.797 90.9275 79.6234 83.3481 79.6234 83.3481H89.99C89.99 83.3481 89.8555 87.749 85.369 91.881C83.0585 94.0081 79.4889 96.6976 70.247 96.9788C61.005 97.2599 57.1909 93.7392 53.988 90.1329C50.7851 86.5266 52.0442 83.4948 47.7044 79.4973C43.3646 75.4998 42.2644 75.1208 31.4577 71.38C30.0518 70.891 26.3355 68.715 24.734 67.1136C23.3282 65.7077 19.8319 63.3361 17.3136 57.8716L15.7733 53.6663C14.8564 49.7421 14.0985 47.3705 12.277 47.2238C12.277 47.2238 10.0643 46.6982 9.33081 50.0233C8.71957 52.7983 12.008 53.2629 12.008 53.2629L13.2305 58.1528V58.165Z" fill="#09665B" stroke="white" stroke-width="0.88" stroke-miterlimit="10"/>
<path d="M141.505 11.723C141.505 11.723 164.329 0.525054 175.808 4.86486C186.529 8.92349 197.055 20.3903 201.297 22.3708C205.539 24.3512 218.106 22.3708 224.255 24.0456C231.871 26.1238 241.993 32.0895 239.658 44.4854C238.252 51.9059 228.387 59.3752 228.387 59.3752L229.609 47.1504C229.609 46.9304 233.778 44.4854 233.778 41.2581C233.778 37.0772 233.362 36.3559 226.773 33.1408C222.764 31.1848 218.913 30.0235 215.013 30.6225C208.571 31.6005 207.03 32.5785 201.847 31.7472C197.079 30.977 189.243 23.7644 187.287 21.8084C181.542 16.0628 179.17 14.9503 176.517 12.9821C169.17 7.55431 158.314 11.723 157.19 11.723C145.087 11.723 140.32 11.8819 141.505 11.723Z" fill="#09665B" stroke="white" stroke-width="0.88" stroke-miterlimit="10"/>
<path d="M176.065 83.3846H185.282C185.282 83.3846 184.536 88.3112 186.113 90.5606C187.69 92.81 192.947 92.5777 193.253 92.4188C193.558 92.2598 195.771 92.2598 193.998 89.1058C192.8 86.9787 193.571 87.2477 196.725 89.5093C199.879 91.7709 197.825 94.8393 197.825 94.8393C197.825 94.8393 195.918 97.0642 190.209 96.5385C185.93 96.1473 183.424 94.5703 182.299 93.6657C181.871 93.3112 181.334 93.1156 180.93 92.7244C180.307 92.1009 178.876 91.0496 177.74 87.9934C176.444 84.5216 176.444 83.7147 176.444 83.7147" fill="#09665B"/>
<path d="M176.065 83.3846H185.282C185.282 83.3846 184.536 88.3112 186.113 90.5606C187.69 92.81 192.947 92.5777 193.253 92.4188C193.558 92.2598 195.771 92.2598 193.998 89.1058C192.8 86.9787 193.571 87.2477 196.725 89.5093C199.879 91.7709 197.825 94.8393 197.825 94.8393C197.825 94.8393 195.918 97.0642 190.209 96.5385C185.93 96.1473 183.424 94.5703 182.299 93.6657C181.871 93.3112 181.334 93.1156 180.93 92.7244C180.307 92.1009 178.876 91.0496 177.74 87.9934C176.444 84.5216 176.444 83.7147 176.444 83.7147" stroke="white" stroke-width="0.88" stroke-miterlimit="10"/>
<path d="M90.5683 11.723C90.5683 11.723 107.928 2.93339 114.37 25.2314C120.812 47.5294 118.221 52.5538 129.052 62.9082C139.883 73.2626 145.727 74.1061 146.533 80.9765C146.961 84.6195 146.277 87.4556 138.282 86.9789C137.023 86.9055 135.8 86.5387 134.712 85.9153C134.284 85.6708 133.905 85.353 133.575 84.974L132.169 83.3481L123.832 83.4092C123.832 83.4092 131.766 99.3503 148.037 92.7856C156.362 89.4238 157.328 84.0816 157.059 79.9496C156.79 75.8176 155.005 72.3702 152.108 69.7052C148.514 66.4045 143.587 62.3337 140.531 59.5464C135.629 55.0966 134.309 53.9597 128.795 37.7985C127.854 35.0357 126.656 30.4269 126.13 27.5541C125.128 22.1019 121.485 14.7181 117.157 8.94799C114.59 5.51282 106.717 -0.709598 91.6441 1.44197C90.1405 1.66201 87.3777 2.55442 86.4852 3.03119C83.8814 4.40037 78.8448 7.59104 79.0037 11.7352H90.5805L90.5683 11.723Z" fill="#09665B" stroke="white" stroke-width="0.88" stroke-miterlimit="10"/>
</g>
<defs>
<clipPath id="clip0_967_443">
<rect width="240" height="100" fill="white"/>
</clipPath>
</defs>
</svg>
