<svg width="240" height="100" viewBox="0 0 240 100" fill="none" xmlns="http://www.w3.org/2000/svg">
<path d="M198.439 16.3032H52.1784C33.0906 16.3032 17.6169 31.774 17.6169 50.8582C17.6169 69.9424 33.0906 85.4132 52.1784 85.4132H198.439C217.526 85.4132 233 69.9424 233 50.8582C233 31.774 217.526 16.3032 198.439 16.3032Z" fill="#65385D" stroke="#C1F4F7" stroke-width="0.16" stroke-miterlimit="10"/>
<path d="M208.505 76.0824L41.9831 76.2889C40.7958 70.2491 34.3946 67.3582 30.3035 66.842V35.1198C36.8208 34.7326 41.5314 30.1253 41.9573 25.6728L208.479 25.4663C208.57 31.1964 214.339 34.9391 220.159 34.9133V66.6355C214.519 66.016 208.944 69.8619 208.505 76.0824Z" stroke="#4F1244" stroke-width="1.64" stroke-miterlimit="10"/>
<path d="M20.0303 64.2865C17.7202 63.9381 8.01511 61.8861 11.9126 51.9229C12.8031 49.6515 14.6357 47.7931 16.9975 47.1736C19.3592 46.5541 22.8696 46.9542 26.6767 51.2647C26.6767 51.2647 32.5101 57.8595 37.6982 59.5114C38.0208 59.6147 37.9821 60.0922 37.6466 60.1051C34.8331 60.2341 29.6967 60.0018 24.3924 57.3691C23.5536 56.9561 22.6502 56.698 21.721 56.6722L19.0882 56.6205C18.5203 56.6205 18.1203 57.1626 18.3009 57.6917L20.3659 63.8864C20.4433 64.1058 20.2626 64.3123 20.0432 64.2865H20.0303Z" fill="#09665B" stroke="white" stroke-width="0.82" stroke-miterlimit="10"/>
<path d="M146.984 15.3094C146.984 15.3094 161.464 1.11319 179.39 15.3094C179.39 15.3094 184.41 20.4717 190.863 21.7623C190.863 21.7623 176.667 27.3117 168.923 20.02C168.923 20.02 162.47 11.4377 158.599 15.3094H146.984Z" fill="#09665B" stroke="white" stroke-width="0.82" stroke-miterlimit="10"/>
</svg>
