<svg width="247" height="85" viewBox="0 0 247 85" fill="none" xmlns="http://www.w3.org/2000/svg">
<path d="M210.952 17H41.0483C28.8714 17 19 27.0779 19 39.5097V48.4903C19 60.9221 28.8714 71 41.0483 71H210.952C223.129 71 233 60.9221 233 48.4903V39.5097C233 27.0779 223.129 17 210.952 17Z" fill="#320F7C"/>
<path d="M207.232 22H44.7681C33.8505 22 25 30.7672 25 41.582V46.418C25 57.2328 33.8505 66 44.7681 66H207.232C218.15 66 227 57.2328 227 46.418V41.582C227 30.7672 218.15 22 207.232 22Z" stroke="#180541" stroke-width="2" stroke-miterlimit="10"/>
</svg>
