<svg width="240" height="100" viewBox="0 0 240 100" fill="none" xmlns="http://www.w3.org/2000/svg">
<path d="M192.376 14.548H44.5534C25.2617 14.548 9.62268 30.0188 9.62268 49.103C9.62268 68.1872 25.2617 83.658 44.5534 83.658H192.376C211.668 83.658 227.307 68.1872 227.307 49.103C227.307 30.0188 211.668 14.548 192.376 14.548Z" fill="#F0B54F"/>
<path d="M203.206 74.2278L36.6799 74.4343C35.4926 68.3947 29.0912 65.504 25 64.9878V33.2672C31.5175 32.8801 36.2282 28.273 36.6541 23.8207L203.18 23.6143C203.27 29.3441 209.039 33.0865 214.86 33.0607V64.7813C209.22 64.1619 203.645 68.0076 203.206 74.2278Z" stroke="#FFCE64" stroke-width="1.64" stroke-miterlimit="10"/>
<path d="M10.6618 61.8767C10.6618 61.8767 3.39096 59.6196 1.67801 56.8788C-0.0349401 54.1381 1.54245 46.1886 5.90493 44.502C10.2674 42.8154 17.6368 45.4321 19.8304 51.5461C22.0239 57.6601 27.4339 63.5385 30.601 65.4979C33.7681 67.4574 43.7993 70.719 45.2535 71.7732C46.7076 72.8273 51.1934 74.1295 53.8306 80.7891C56.4678 87.4488 58.8955 89.3959 64.2561 90.326C69.5429 91.2437 73.2276 84.0508 73.2276 84.0508H83C83 84.0508 82.8644 88.2301 78.6375 92.149C76.4563 94.1705 73.092 96.7252 64.3794 96.9856C55.6667 97.2461 52.0683 93.9224 49.0491 90.4872C46.0299 87.0519 47.2129 84.1872 43.1215 80.3923C39.0302 76.5974 37.995 76.2501 27.8036 72.6909C26.485 72.232 22.9728 70.161 21.4694 68.648C20.1508 67.321 16.8481 65.0639 14.4697 59.88L13.0155 55.8991C12.1529 52.1786 11.4258 49.9215 9.71286 49.7851C9.71286 49.7851 7.6302 49.289 6.94009 52.439C6.37322 55.0682 9.40477 55.6883 9.40477 55.6883L10.6371 61.8891L10.6618 61.8767Z" fill="#09665B" stroke="white" stroke-width="0.82" stroke-miterlimit="10"/>
<path d="M174 84H181.814C181.814 84 181.183 88.0974 182.511 89.9668C183.839 91.8362 188.289 91.6406 188.565 91.5102C188.842 91.3797 190.701 91.3797 189.196 88.7604C188.178 86.9889 188.831 87.2171 191.509 89.0973C194.188 90.9776 192.439 93.5209 192.439 93.5209C192.439 93.5209 190.823 95.3685 185.987 94.9338C182.367 94.6077 180.242 93.3035 179.29 92.5427C178.925 92.2492 178.471 92.0862 178.139 91.7601C177.608 91.2493 176.402 90.369 175.439 87.8257C174.343 84.9456 174.343 84.2717 174.343 84.2717" fill="#09665B"/>
<path d="M174 84H181.814C181.814 84 181.183 88.0974 182.511 89.9668C183.839 91.8362 188.289 91.6406 188.565 91.5102C188.842 91.3797 190.701 91.3797 189.196 88.7604C188.178 86.9889 188.831 87.2171 191.509 89.0973C194.188 90.9776 192.439 93.5209 192.439 93.5209C192.439 93.5209 190.823 95.3685 185.987 94.9338C182.367 94.6077 180.242 93.3035 179.29 92.5427C178.925 92.2492 178.471 92.0862 178.139 91.7601C177.608 91.2493 176.402 90.369 175.439 87.8257C174.343 84.9456 174.343 84.2717 174.343 84.2717" stroke="white" stroke-width="0.82" stroke-miterlimit="10"/>
<path d="M141.159 13.6798C141.159 13.6798 163.595 2.73672 174.89 6.97605C185.44 10.9345 195.784 22.1457 199.948 24.0738C204.111 26.002 216.473 24.0738 222.525 25.7211C230.017 27.7513 239.963 33.574 237.663 45.6919C236.288 52.9447 225.815 62.1129 225.815 62.1129L228.385 49.3438C228.385 49.1268 231.88 45.6919 231.88 42.5507C231.88 38.4646 231.469 37.7623 224.992 34.6211C221.047 32.7057 217.257 31.5821 213.427 32.1567C207.092 33.1144 205.576 34.072 200.487 33.2548C195.797 32.5014 188.1 25.4529 186.173 23.5375C180.531 17.9319 178.193 16.8338 175.584 14.9184C168.362 9.61925 157.684 13.6926 156.579 13.6926C144.68 13.6926 140.002 13.8458 141.159 13.6926V13.6798Z" fill="#09665B" stroke="white" stroke-width="0.82" stroke-miterlimit="10"/>
</svg>
