<svg width="268" height="150" viewBox="0 0 268 150" fill="none" xmlns="http://www.w3.org/2000/svg">
<rect x="28" y="23" width="196" height="127" fill="#D7316E"/>
<rect x="14.3307" y="34.1553" width="222.721" height="104.453" fill="#D7316E"/>
<rect y="45.4043" width="249.59" height="82.4911" fill="#D7316E"/>
<rect x="28" y="22" width="196" height="11" fill="#8E1E4D"/>
<rect width="196" height="11" transform="matrix(1 0 0 -1 28 150)" fill="#8E1E4D"/>
<rect x="14" y="33" width="14" height="12" fill="#8E1E4D"/>
<rect width="14" height="12" transform="matrix(1 0 0 -1 14 139)" fill="#8E1E4D"/>
<rect y="44" width="14" height="84" fill="#8E1E4D"/>
<rect x="237" y="44" width="14" height="84" fill="#8E1E4D"/>
<rect x="224" y="33" width="14" height="11" fill="#8E1E4D"/>
<rect width="14" height="11" transform="matrix(1 0 0 -1 224 139)" fill="#8E1E4D"/>
<circle cx="232.5" cy="35.5" r="35.5" fill="#8E1E4D"/>
<rect x="224.796" y="25" width="18.1769" height="3.49555" fill="white"/>
<rect x="226.894" y="28.4956" width="13.2831" height="9.08843" fill="white"/>
<rect x="228.991" y="32.6904" width="9.78754" height="6.29199" fill="white"/>
<rect x="230.389" y="38.9824" width="6.9911" height="1.39822" fill="white"/>
<rect x="232.487" y="40.3799" width="2.79644" height="9.08843" fill="white"/>
<rect x="228.991" y="43.1772" width="9.78754" height="6.29199" fill="white"/>
<rect x="227.593" y="45.9736" width="12.584" height="3.49555" fill="white"/>
<rect x="224.796" y="29.1948" width="18.1769" height="2.09733" fill="white"/>
<rect x="224.796" y="35.4868" width="18.1769" height="2.09733" fill="white"/>
<rect x="241.575" y="30.5933" width="3.49555" height="5.59288" fill="white"/>
<rect x="222" y="30.5933" width="3.49555" height="5.59288" fill="white"/>
<rect x="220.021" y="12.0337" width="4.70895" height="4.70895" fill="white"/>
<rect x="216.097" y="13.604" width="4.70895" height="5.49377" fill="white"/>
<rect x="212.958" y="15.1729" width="4.70895" height="5.49377" fill="white"/>
<rect x="210.604" y="19.0972" width="5.49377" height="4.70895" fill="white"/>
<rect x="209.034" y="23.8062" width="5.49377" height="3.92412" fill="white"/>
<rect x="209.034" y="26.9458" width="3.92412" height="2.35447" fill="white"/>
<rect width="4.70895" height="4.70895" transform="matrix(1 0 0 -1 220.021 59.6812)" fill="white"/>
<rect width="4.70895" height="5.49377" transform="matrix(1 0 0 -1 216.097 58.1113)" fill="white"/>
<rect width="4.70895" height="5.49377" transform="matrix(1 0 0 -1 212.958 56.5425)" fill="white"/>
<rect width="5.49377" height="4.70895" transform="matrix(1 0 0 -1 210.604 52.6177)" fill="white"/>
<rect width="5.49377" height="3.92412" transform="matrix(1 0 0 -1 209.034 47.9087)" fill="white"/>
<rect width="3.92412" height="2.35447" transform="matrix(1 0 0 -1 209.034 44.769)" fill="white"/>
<rect width="4.70895" height="4.70895" transform="matrix(-1 0 0 1 245.031 10.8306)" fill="white"/>
<rect width="4.70895" height="5.49377" transform="matrix(-1 0 0 1 248.955 12.4004)" fill="white"/>
<rect width="4.70895" height="5.49377" transform="matrix(-1 0 0 1 252.094 13.9692)" fill="white"/>
<rect width="5.49377" height="4.70895" transform="matrix(-1 0 0 1 254.449 17.894)" fill="white"/>
<rect width="5.49377" height="3.92412" transform="matrix(-1 0 0 1 256.019 22.603)" fill="white"/>
<rect width="3.92412" height="2.35447" transform="matrix(-1 0 0 1 256.019 25.7427)" fill="white"/>
<rect x="246.234" y="60.5884" width="4.70895" height="4.70895" transform="rotate(180 246.234 60.5884)" fill="white"/>
<rect x="250.159" y="59.0186" width="4.70895" height="5.49377" transform="rotate(180 250.159 59.0186)" fill="white"/>
<rect x="253.298" y="57.4497" width="4.70895" height="5.49377" transform="rotate(180 253.298 57.4497)" fill="white"/>
<rect x="255.652" y="53.5249" width="5.49377" height="4.70895" transform="rotate(180 255.652 53.5249)" fill="white"/>
<rect x="257.222" y="48.8159" width="5.49377" height="3.92412" transform="rotate(180 257.222 48.8159)" fill="white"/>
<rect x="257.222" y="45.6768" width="3.92412" height="2.35447" transform="rotate(180 257.222 45.6768)" fill="white"/>
</svg>
