<svg width="623" height="334" viewBox="0 0 623 334" fill="none" xmlns="http://www.w3.org/2000/svg">
<path d="M248.347 157.536H238.915L237.403 162H230.959L240.103 136.728H247.231L256.375 162H249.859L248.347 157.536ZM246.763 152.784L243.631 143.532L240.535 152.784H246.763ZM266.79 141.624C268.206 141.624 269.442 141.912 270.498 142.488C271.578 143.064 272.406 143.82 272.982 144.756V141.912H279.138V161.964C279.138 163.812 278.766 165.48 278.022 166.968C277.302 168.48 276.186 169.68 274.674 170.568C273.186 171.456 271.326 171.9 269.094 171.9C266.118 171.9 263.706 171.192 261.858 169.776C260.01 168.384 258.954 166.488 258.69 164.088H264.774C264.966 164.856 265.422 165.456 266.142 165.888C266.862 166.344 267.75 166.572 268.806 166.572C270.078 166.572 271.086 166.2 271.83 165.456C272.598 164.736 272.982 163.572 272.982 161.964V159.12C272.382 160.056 271.554 160.824 270.498 161.424C269.442 162 268.206 162.288 266.79 162.288C265.134 162.288 263.634 161.868 262.29 161.028C260.946 160.164 259.878 158.952 259.086 157.392C258.318 155.808 257.934 153.984 257.934 151.92C257.934 149.856 258.318 148.044 259.086 146.484C259.878 144.924 260.946 143.724 262.29 142.884C263.634 142.044 265.134 141.624 266.79 141.624ZM272.982 151.956C272.982 150.42 272.55 149.208 271.686 148.32C270.846 147.432 269.814 146.988 268.59 146.988C267.366 146.988 266.322 147.432 265.458 148.32C264.618 149.184 264.198 150.384 264.198 151.92C264.198 153.456 264.618 154.68 265.458 155.592C266.322 156.48 267.366 156.924 268.59 156.924C269.814 156.924 270.846 156.48 271.686 155.592C272.55 154.704 272.982 153.492 272.982 151.956ZM302.527 151.632C302.527 152.208 302.491 152.808 302.419 153.432H288.487C288.583 154.68 288.979 155.64 289.675 156.312C290.395 156.96 291.271 157.284 292.303 157.284C293.839 157.284 294.907 156.636 295.507 155.34H302.059C301.723 156.66 301.111 157.848 300.223 158.904C299.359 159.96 298.267 160.788 296.947 161.388C295.627 161.988 294.151 162.288 292.519 162.288C290.551 162.288 288.799 161.868 287.263 161.028C285.727 160.188 284.527 158.988 283.663 157.428C282.799 155.868 282.367 154.044 282.367 151.956C282.367 149.868 282.787 148.044 283.627 146.484C284.491 144.924 285.691 143.724 287.227 142.884C288.763 142.044 290.527 141.624 292.519 141.624C294.463 141.624 296.191 142.032 297.703 142.848C299.215 143.664 300.391 144.828 301.231 146.34C302.095 147.852 302.527 149.616 302.527 151.632ZM296.227 150.012C296.227 148.956 295.867 148.116 295.147 147.492C294.427 146.868 293.527 146.556 292.447 146.556C291.415 146.556 290.539 146.856 289.819 147.456C289.123 148.056 288.691 148.908 288.523 150.012H296.227ZM313.947 162.288C312.195 162.288 310.635 161.988 309.267 161.388C307.899 160.788 306.819 159.972 306.027 158.94C305.235 157.884 304.791 156.708 304.695 155.412H310.779C310.851 156.108 311.175 156.672 311.751 157.104C312.327 157.536 313.035 157.752 313.875 157.752C314.643 157.752 315.231 157.608 315.639 157.32C316.071 157.008 316.287 156.612 316.287 156.132C316.287 155.556 315.987 155.136 315.387 154.872C314.787 154.584 313.815 154.272 312.471 153.936C311.031 153.6 309.831 153.252 308.871 152.892C307.911 152.508 307.083 151.92 306.387 151.128C305.691 150.312 305.343 149.22 305.343 147.852C305.343 146.7 305.655 145.656 306.279 144.72C306.927 143.76 307.863 143.004 309.087 142.452C310.335 141.9 311.811 141.624 313.515 141.624C316.035 141.624 318.015 142.248 319.455 143.496C320.919 144.744 321.759 146.4 321.975 148.464H316.287C316.191 147.768 315.879 147.216 315.351 146.808C314.847 146.4 314.175 146.196 313.335 146.196C312.615 146.196 312.063 146.34 311.679 146.628C311.295 146.892 311.103 147.264 311.103 147.744C311.103 148.32 311.403 148.752 312.003 149.04C312.627 149.328 313.587 149.616 314.883 149.904C316.371 150.288 317.583 150.672 318.519 151.056C319.455 151.416 320.271 152.016 320.967 152.856C321.687 153.672 322.059 154.776 322.083 156.168C322.083 157.344 321.747 158.4 321.075 159.336C320.427 160.248 319.479 160.968 318.231 161.496C317.007 162.024 315.579 162.288 313.947 162.288Z" fill="white"/>
<g style="mix-blend-mode:screen">
<path d="M3.66 244.38C2.27333 243.687 1.58 242.593 1.58 241.1C1.58 240.38 1.76 239.72 2.12 239.12C2.48 238.52 3.02 238.047 3.74 237.7C4.46 237.34 5.34 237.16 6.38 237.16C7.40667 237.16 8.28 237.34 9 237.7C9.73333 238.047 10.28 238.52 10.64 239.12C11 239.72 11.18 240.38 11.18 241.1C11.18 241.847 10.9867 242.507 10.6 243.08C10.2267 243.64 9.72667 244.073 9.1 244.38C9.86 244.66 10.46 245.12 10.9 245.76C11.34 246.387 11.56 247.127 11.56 247.98C11.56 248.847 11.34 249.613 10.9 250.28C10.46 250.947 9.84667 251.46 9.06 251.82C8.27333 252.18 7.38 252.36 6.38 252.36C5.38 252.36 4.48667 252.18 3.7 251.82C2.92667 251.46 2.32 250.947 1.88 250.28C1.44 249.613 1.22 248.847 1.22 247.98C1.22 247.113 1.44 246.367 1.88 245.74C2.32 245.113 2.91333 244.66 3.66 244.38ZM9 241.38C9 240.633 8.76667 240.06 8.3 239.66C7.83333 239.26 7.19333 239.06 6.38 239.06C5.58 239.06 4.94667 239.26 4.48 239.66C4.01333 240.06 3.78 240.64 3.78 241.4C3.78 242.067 4.02 242.613 4.5 243.04C4.99333 243.453 5.62 243.66 6.38 243.66C7.14 243.66 7.76667 243.447 8.26 243.02C8.75333 242.593 9 242.047 9 241.38ZM6.38 245.38C5.5 245.38 4.78 245.6 4.22 246.04C3.67333 246.467 3.4 247.087 3.4 247.9C3.4 248.66 3.66667 249.28 4.2 249.76C4.73333 250.227 5.46 250.46 6.38 250.46C7.28667 250.46 8 250.22 8.52 249.74C9.05333 249.26 9.32 248.647 9.32 247.9C9.32 247.1 9.04667 246.48 8.5 246.04C7.96667 245.6 7.26 245.38 6.38 245.38ZM16.7939 248.04C16.9272 248.707 17.2139 249.213 17.6539 249.56C18.0939 249.907 18.6872 250.08 19.4339 250.08C20.3806 250.08 21.0739 249.707 21.5139 248.96C21.9539 248.213 22.1739 246.94 22.1739 245.14C21.8539 245.593 21.4006 245.947 20.8139 246.2C20.2406 246.44 19.6139 246.56 18.9339 246.56C18.0672 246.56 17.2806 246.387 16.5739 246.04C15.8672 245.68 15.3072 245.153 14.8939 244.46C14.4939 243.753 14.2939 242.9 14.2939 241.9C14.2939 240.433 14.7206 239.267 15.5739 238.4C16.4406 237.52 17.6272 237.08 19.1339 237.08C20.9472 237.08 22.2339 237.687 22.9939 238.9C23.7672 240.1 24.1539 241.947 24.1539 244.44C24.1539 246.16 24.0072 247.567 23.7139 248.66C23.4339 249.753 22.9406 250.58 22.2339 251.14C21.5272 251.7 20.5472 251.98 19.2939 251.98C17.8672 251.98 16.7672 251.607 15.9939 250.86C15.2206 250.113 14.7872 249.173 14.6939 248.04H16.7939ZM19.3339 244.64C20.1339 244.64 20.7606 244.393 21.2139 243.9C21.6806 243.393 21.9139 242.727 21.9139 241.9C21.9139 240.98 21.6672 240.267 21.1739 239.76C20.6939 239.24 20.0339 238.98 19.1939 238.98C18.3539 238.98 17.6872 239.247 17.1939 239.78C16.7139 240.3 16.4739 240.987 16.4739 241.84C16.4739 242.653 16.7072 243.327 17.1739 243.86C17.6539 244.38 18.3739 244.64 19.3339 244.64ZM27.8692 252.14C27.4559 252.14 27.1092 252 26.8292 251.72C26.5492 251.44 26.4092 251.093 26.4092 250.68C26.4092 250.267 26.5492 249.92 26.8292 249.64C27.1092 249.36 27.4559 249.22 27.8692 249.22C28.2692 249.22 28.6092 249.36 28.8892 249.64C29.1692 249.92 29.3092 250.267 29.3092 250.68C29.3092 251.093 29.1692 251.44 28.8892 251.72C28.6092 252 28.2692 252.14 27.8692 252.14ZM40.8734 239.38H34.1734V243.36C34.4534 242.987 34.8668 242.673 35.4134 242.42C35.9734 242.167 36.5668 242.04 37.1934 242.04C38.3134 242.04 39.2201 242.28 39.9134 242.76C40.6201 243.24 41.1201 243.847 41.4134 244.58C41.7201 245.313 41.8734 246.087 41.8734 246.9C41.8734 247.887 41.6801 248.767 41.2934 249.54C40.9201 250.3 40.3534 250.9 39.5934 251.34C38.8468 251.78 37.9268 252 36.8334 252C35.3801 252 34.2134 251.64 33.3334 250.92C32.4534 250.2 31.9268 249.247 31.7534 248.06H33.9734C34.1201 248.687 34.4468 249.187 34.9534 249.56C35.4601 249.92 36.0934 250.1 36.8534 250.1C37.8001 250.1 38.5068 249.813 38.9734 249.24C39.4534 248.667 39.6934 247.907 39.6934 246.96C39.6934 246 39.4534 245.267 38.9734 244.76C38.4934 244.24 37.7868 243.98 36.8534 243.98C36.2001 243.98 35.6468 244.147 35.1934 244.48C34.7534 244.8 34.4334 245.24 34.2334 245.8H32.0734V237.38H40.8734V239.38ZM44.2069 241.02C44.2869 239.78 44.7602 238.813 45.6269 238.12C46.5069 237.427 47.6269 237.08 48.9869 237.08C49.9202 237.08 50.7269 237.247 51.4069 237.58C52.0869 237.913 52.6002 238.367 52.9469 238.94C53.2935 239.513 53.4669 240.16 53.4669 240.88C53.4669 241.707 53.2469 242.413 52.8069 243C52.3669 243.587 51.8402 243.98 51.2269 244.18V244.26C52.0135 244.5 52.6269 244.94 53.0669 245.58C53.5069 246.207 53.7269 247.013 53.7269 248C53.7269 248.787 53.5469 249.487 53.1869 250.1C52.8269 250.713 52.2935 251.2 51.5869 251.56C50.8802 251.907 50.0335 252.08 49.0469 252.08C47.6069 252.08 46.4202 251.713 45.4869 250.98C44.5669 250.233 44.0735 249.167 44.0069 247.78H46.2069C46.2602 248.487 46.5335 249.067 47.0269 249.52C47.5202 249.96 48.1869 250.18 49.0269 250.18C49.8402 250.18 50.4669 249.96 50.9069 249.52C51.3469 249.067 51.5669 248.487 51.5669 247.78C51.5669 246.847 51.2669 246.187 50.6669 245.8C50.0802 245.4 49.1735 245.2 47.9469 245.2H47.4269V243.32H47.9669C49.0469 243.307 49.8669 243.127 50.4269 242.78C51.0002 242.433 51.2869 241.887 51.2869 241.14C51.2869 240.5 51.0802 239.993 50.6669 239.62C50.2535 239.233 49.6669 239.04 48.9069 239.04C48.1602 239.04 47.5802 239.233 47.1669 239.62C46.7535 239.993 46.5069 240.46 46.4269 241.02H44.2069ZM55.7619 240.94C55.7619 239.967 56.0419 239.207 56.6019 238.66C57.1752 238.1 57.9085 237.82 58.8019 237.82C59.6952 237.82 60.4219 238.1 60.9819 238.66C61.5552 239.207 61.8419 239.967 61.8419 240.94C61.8419 241.913 61.5552 242.68 60.9819 243.24C60.4219 243.8 59.6952 244.08 58.8019 244.08C57.9085 244.08 57.1752 243.8 56.6019 243.24C56.0419 242.68 55.7619 241.913 55.7619 240.94ZM67.9619 238.08L59.9819 252H57.7419L65.7219 238.08H67.9619ZM58.8019 239.2C57.9619 239.2 57.5419 239.78 57.5419 240.94C57.5419 242.113 57.9619 242.7 58.8019 242.7C59.2019 242.7 59.5085 242.56 59.7219 242.28C59.9485 241.987 60.0619 241.54 60.0619 240.94C60.0619 239.78 59.6419 239.2 58.8019 239.2ZM63.9019 249.12C63.9019 248.147 64.1819 247.387 64.7419 246.84C65.3152 246.28 66.0485 246 66.9419 246C67.8219 246 68.5419 246.28 69.1019 246.84C69.6752 247.387 69.9619 248.147 69.9619 249.12C69.9619 250.093 69.6752 250.86 69.1019 251.42C68.5419 251.98 67.8219 252.26 66.9419 252.26C66.0485 252.26 65.3152 251.98 64.7419 251.42C64.1819 250.86 63.9019 250.093 63.9019 249.12ZM66.9219 247.38C66.0819 247.38 65.6619 247.96 65.6619 249.12C65.6619 250.28 66.0819 250.86 66.9219 250.86C67.7619 250.86 68.1819 250.28 68.1819 249.12C68.1819 247.96 67.7619 247.38 66.9219 247.38ZM0.74 276.44C0.74 275.333 0.966667 274.353 1.42 273.5C1.88667 272.647 2.51333 271.987 3.3 271.52C4.1 271.04 4.98 270.8 5.94 270.8C6.80667 270.8 7.56 270.973 8.2 271.32C8.85333 271.653 9.37333 272.073 9.76 272.58V270.98H12.06V282H9.76V280.36C9.37333 280.88 8.84667 281.313 8.18 281.66C7.51333 282.007 6.75333 282.18 5.9 282.18C4.95333 282.18 4.08667 281.94 3.3 281.46C2.51333 280.967 1.88667 280.287 1.42 279.42C0.966667 278.54 0.74 277.547 0.74 276.44ZM9.76 276.48C9.76 275.72 9.6 275.06 9.28 274.5C8.97333 273.94 8.56667 273.513 8.06 273.22C7.55333 272.927 7.00667 272.78 6.42 272.78C5.83333 272.78 5.28667 272.927 4.78 273.22C4.27333 273.5 3.86 273.92 3.54 274.48C3.23333 275.027 3.08 275.68 3.08 276.44C3.08 277.2 3.23333 277.867 3.54 278.44C3.86 279.013 4.27333 279.453 4.78 279.76C5.3 280.053 5.84667 280.2 6.42 280.2C7.00667 280.2 7.55333 280.053 8.06 279.76C8.56667 279.467 8.97333 279.04 9.28 278.48C9.6 277.907 9.76 277.24 9.76 276.48ZM17.3347 272.62C17.7214 272.087 18.248 271.653 18.9147 271.32C19.5947 270.973 20.348 270.8 21.1747 270.8C22.148 270.8 23.028 271.033 23.8147 271.5C24.6014 271.967 25.2214 272.633 25.6747 273.5C26.128 274.353 26.3547 275.333 26.3547 276.44C26.3547 277.547 26.128 278.54 25.6747 279.42C25.2214 280.287 24.5947 280.967 23.7947 281.46C23.008 281.94 22.1347 282.18 21.1747 282.18C20.3214 282.18 19.5614 282.013 18.8947 281.68C18.2414 281.347 17.7214 280.92 17.3347 280.4V282H15.0547V267.2H17.3347V272.62ZM24.0347 276.44C24.0347 275.68 23.8747 275.027 23.5547 274.48C23.248 273.92 22.8347 273.5 22.3147 273.22C21.808 272.927 21.2614 272.78 20.6747 272.78C20.1014 272.78 19.5547 272.927 19.0347 273.22C18.528 273.513 18.1147 273.94 17.7947 274.5C17.488 275.06 17.3347 275.72 17.3347 276.48C17.3347 277.24 17.488 277.907 17.7947 278.48C18.1147 279.04 18.528 279.467 19.0347 279.76C19.5547 280.053 20.1014 280.2 20.6747 280.2C21.2614 280.2 21.808 280.053 22.3147 279.76C22.8347 279.453 23.248 279.013 23.5547 278.44C23.8747 277.867 24.0347 277.2 24.0347 276.44ZM33.3894 282.18C32.3494 282.18 31.4094 281.947 30.5694 281.48C29.7294 281 29.0694 280.333 28.5894 279.48C28.1094 278.613 27.8694 277.613 27.8694 276.48C27.8694 275.36 28.116 274.367 28.6094 273.5C29.1027 272.633 29.776 271.967 30.6294 271.5C31.4827 271.033 32.436 270.8 33.4894 270.8C34.5427 270.8 35.496 271.033 36.3494 271.5C37.2027 271.967 37.876 272.633 38.3694 273.5C38.8627 274.367 39.1094 275.36 39.1094 276.48C39.1094 277.6 38.856 278.593 38.3494 279.46C37.8427 280.327 37.1494 281 36.2694 281.48C35.4027 281.947 34.4427 282.18 33.3894 282.18ZM33.3894 280.2C33.976 280.2 34.5227 280.06 35.0294 279.78C35.5494 279.5 35.9694 279.08 36.2894 278.52C36.6094 277.96 36.7694 277.28 36.7694 276.48C36.7694 275.68 36.616 275.007 36.3094 274.46C36.0027 273.9 35.596 273.48 35.0894 273.2C34.5827 272.92 34.036 272.78 33.4494 272.78C32.8627 272.78 32.316 272.92 31.8094 273.2C31.316 273.48 30.9227 273.9 30.6294 274.46C30.336 275.007 30.1894 275.68 30.1894 276.48C30.1894 277.667 30.4894 278.587 31.0894 279.24C31.7027 279.88 32.4694 280.2 33.3894 280.2ZM45.6233 279.96L48.7433 270.98H51.1633L46.9633 282H44.2433L40.0633 270.98H42.5033L45.6233 279.96ZM62.9867 276.22C62.9867 276.633 62.9601 277.007 62.9067 277.34H54.4867C54.5534 278.22 54.8801 278.927 55.4667 279.46C56.0534 279.993 56.7734 280.26 57.6267 280.26C58.8534 280.26 59.7201 279.747 60.2267 278.72H62.6867C62.3534 279.733 61.7467 280.567 60.8667 281.22C60.0001 281.86 58.9201 282.18 57.6267 282.18C56.5734 282.18 55.6267 281.947 54.7867 281.48C53.9601 281 53.3067 280.333 52.8267 279.48C52.3601 278.613 52.1267 277.613 52.1267 276.48C52.1267 275.347 52.3534 274.353 52.8067 273.5C53.2734 272.633 53.9201 271.967 54.7467 271.5C55.5867 271.033 56.5467 270.8 57.6267 270.8C58.6667 270.8 59.5934 271.027 60.4067 271.48C61.2201 271.933 61.8534 272.573 62.3067 273.4C62.7601 274.213 62.9867 275.153 62.9867 276.22ZM60.6067 275.5C60.5934 274.66 60.2934 273.987 59.7067 273.48C59.1201 272.973 58.3934 272.72 57.5267 272.72C56.7401 272.72 56.0667 272.973 55.5067 273.48C54.9467 273.973 54.6134 274.647 54.5067 275.5H60.6067ZM69.8258 269.5V267.42H73.9858V282H71.6858V269.5H69.8258ZM79.578 274.38C78.1913 273.687 77.498 272.593 77.498 271.1C77.498 270.38 77.678 269.72 78.038 269.12C78.398 268.52 78.938 268.047 79.658 267.7C80.378 267.34 81.258 267.16 82.298 267.16C83.3246 267.16 84.198 267.34 84.918 267.7C85.6513 268.047 86.198 268.52 86.558 269.12C86.918 269.72 87.098 270.38 87.098 271.1C87.098 271.847 86.9046 272.507 86.518 273.08C86.1446 273.64 85.6446 274.073 85.018 274.38C85.778 274.66 86.378 275.12 86.818 275.76C87.258 276.387 87.478 277.127 87.478 277.98C87.478 278.847 87.258 279.613 86.818 280.28C86.378 280.947 85.7646 281.46 84.978 281.82C84.1913 282.18 83.298 282.36 82.298 282.36C81.298 282.36 80.4046 282.18 79.618 281.82C78.8446 281.46 78.238 280.947 77.798 280.28C77.358 279.613 77.138 278.847 77.138 277.98C77.138 277.113 77.358 276.367 77.798 275.74C78.238 275.113 78.8313 274.66 79.578 274.38ZM84.918 271.38C84.918 270.633 84.6846 270.06 84.218 269.66C83.7513 269.26 83.1113 269.06 82.298 269.06C81.498 269.06 80.8646 269.26 80.398 269.66C79.9313 270.06 79.698 270.64 79.698 271.4C79.698 272.067 79.938 272.613 80.418 273.04C80.9113 273.453 81.538 273.66 82.298 273.66C83.058 273.66 83.6846 273.447 84.178 273.02C84.6713 272.593 84.918 272.047 84.918 271.38ZM82.298 275.38C81.418 275.38 80.698 275.6 80.138 276.04C79.5913 276.467 79.318 277.087 79.318 277.9C79.318 278.66 79.5846 279.28 80.118 279.76C80.6513 280.227 81.378 280.46 82.298 280.46C83.2046 280.46 83.918 280.22 84.438 279.74C84.9713 279.26 85.238 278.647 85.238 277.9C85.238 277.1 84.9646 276.48 84.418 276.04C83.8846 275.6 83.178 275.38 82.298 275.38Z" fill="#F27AAA"/>
</g>
<g style="mix-blend-mode:screen">
<path d="M436.9 9.5V7.42H441.06V22H438.76V9.5H436.9ZM444.192 14.52C444.192 12.2133 444.579 10.4133 445.352 9.12C446.139 7.81333 447.486 7.16 449.392 7.16C451.299 7.16 452.639 7.81333 453.412 9.12C454.199 10.4133 454.592 12.2133 454.592 14.52C454.592 16.8533 454.199 18.68 453.412 20C452.639 21.3067 451.299 21.96 449.392 21.96C447.486 21.96 446.139 21.3067 445.352 20C444.579 18.68 444.192 16.8533 444.192 14.52ZM452.352 14.52C452.352 13.44 452.279 12.5267 452.132 11.78C451.999 11.0333 451.719 10.4267 451.292 9.96C450.866 9.48 450.232 9.24 449.392 9.24C448.552 9.24 447.919 9.48 447.492 9.96C447.066 10.4267 446.779 11.0333 446.632 11.78C446.499 12.5267 446.432 13.44 446.432 14.52C446.432 15.64 446.499 16.58 446.632 17.34C446.766 18.1 447.046 18.7133 447.472 19.18C447.912 19.6467 448.552 19.88 449.392 19.88C450.232 19.88 450.866 19.6467 451.292 19.18C451.732 18.7133 452.019 18.1 452.152 17.34C452.286 16.58 452.352 15.64 452.352 14.52ZM458.225 22.14C457.811 22.14 457.465 22 457.185 21.72C456.905 21.44 456.765 21.0933 456.765 20.68C456.765 20.2667 456.905 19.92 457.185 19.64C457.465 19.36 457.811 19.22 458.225 19.22C458.625 19.22 458.965 19.36 459.245 19.64C459.525 19.92 459.665 20.2667 459.665 20.68C459.665 21.0933 459.525 21.44 459.245 21.72C458.965 22 458.625 22.14 458.225 22.14ZM471.229 9.38H464.529V13.36C464.809 12.9867 465.222 12.6733 465.769 12.42C466.329 12.1667 466.922 12.04 467.549 12.04C468.669 12.04 469.576 12.28 470.269 12.76C470.976 13.24 471.476 13.8467 471.769 14.58C472.076 15.3133 472.229 16.0867 472.229 16.9C472.229 17.8867 472.036 18.7667 471.649 19.54C471.276 20.3 470.709 20.9 469.949 21.34C469.202 21.78 468.282 22 467.189 22C465.736 22 464.569 21.64 463.689 20.92C462.809 20.2 462.282 19.2467 462.109 18.06H464.329C464.476 18.6867 464.802 19.1867 465.309 19.56C465.816 19.92 466.449 20.1 467.209 20.1C468.156 20.1 468.862 19.8133 469.329 19.24C469.809 18.6667 470.049 17.9067 470.049 16.96C470.049 16 469.809 15.2667 469.329 14.76C468.849 14.24 468.142 13.98 467.209 13.98C466.556 13.98 466.002 14.1467 465.549 14.48C465.109 14.8 464.789 15.24 464.589 15.8H462.429V7.38H471.229V9.38ZM474.562 11.02C474.642 9.78 475.116 8.81333 475.982 8.12C476.862 7.42667 477.982 7.08 479.342 7.08C480.276 7.08 481.082 7.24667 481.762 7.58C482.442 7.91333 482.956 8.36667 483.302 8.94C483.649 9.51333 483.822 10.16 483.822 10.88C483.822 11.7067 483.602 12.4133 483.162 13C482.722 13.5867 482.196 13.98 481.582 14.18V14.26C482.369 14.5 482.982 14.94 483.422 15.58C483.862 16.2067 484.082 17.0133 484.082 18C484.082 18.7867 483.902 19.4867 483.542 20.1C483.182 20.7133 482.649 21.2 481.942 21.56C481.236 21.9067 480.389 22.08 479.402 22.08C477.962 22.08 476.776 21.7133 475.842 20.98C474.922 20.2333 474.429 19.1667 474.362 17.78H476.562C476.616 18.4867 476.889 19.0667 477.382 19.52C477.876 19.96 478.542 20.18 479.382 20.18C480.196 20.18 480.822 19.96 481.262 19.52C481.702 19.0667 481.922 18.4867 481.922 17.78C481.922 16.8467 481.622 16.1867 481.022 15.8C480.436 15.4 479.529 15.2 478.302 15.2H477.782V13.32H478.322C479.402 13.3067 480.222 13.1267 480.782 12.78C481.356 12.4333 481.642 11.8867 481.642 11.14C481.642 10.5 481.436 9.99333 481.022 9.62C480.609 9.23333 480.022 9.04 479.262 9.04C478.516 9.04 477.936 9.23333 477.522 9.62C477.109 9.99333 476.862 10.46 476.782 11.02H474.562ZM486.117 10.94C486.117 9.96667 486.397 9.20667 486.957 8.66C487.531 8.1 488.264 7.82 489.157 7.82C490.051 7.82 490.777 8.1 491.337 8.66C491.911 9.20667 492.197 9.96667 492.197 10.94C492.197 11.9133 491.911 12.68 491.337 13.24C490.777 13.8 490.051 14.08 489.157 14.08C488.264 14.08 487.531 13.8 486.957 13.24C486.397 12.68 486.117 11.9133 486.117 10.94ZM498.317 8.08L490.337 22H488.097L496.077 8.08H498.317ZM489.157 9.2C488.317 9.2 487.897 9.78 487.897 10.94C487.897 12.1133 488.317 12.7 489.157 12.7C489.557 12.7 489.864 12.56 490.077 12.28C490.304 11.9867 490.417 11.54 490.417 10.94C490.417 9.78 489.997 9.2 489.157 9.2ZM494.257 19.12C494.257 18.1467 494.537 17.3867 495.097 16.84C495.671 16.28 496.404 16 497.297 16C498.177 16 498.897 16.28 499.457 16.84C500.031 17.3867 500.317 18.1467 500.317 19.12C500.317 20.0933 500.031 20.86 499.457 21.42C498.897 21.98 498.177 22.26 497.297 22.26C496.404 22.26 495.671 21.98 495.097 21.42C494.537 20.86 494.257 20.0933 494.257 19.12ZM497.277 17.38C496.437 17.38 496.017 17.96 496.017 19.12C496.017 20.28 496.437 20.86 497.277 20.86C498.117 20.86 498.537 20.28 498.537 19.12C498.537 17.96 498.117 17.38 497.277 17.38ZM450.84 40.8C451.707 40.8 452.48 40.98 453.16 41.34C453.853 41.7 454.393 42.2333 454.78 42.94C455.18 43.6467 455.38 44.5 455.38 45.5V52H453.12V45.84C453.12 44.8533 452.873 44.1 452.38 43.58C451.887 43.0467 451.213 42.78 450.36 42.78C449.507 42.78 448.827 43.0467 448.32 43.58C447.827 44.1 447.58 44.8533 447.58 45.84V52H445.32V45.84C445.32 44.8533 445.073 44.1 444.58 43.58C444.087 43.0467 443.413 42.78 442.56 42.78C441.707 42.78 441.027 43.0467 440.52 43.58C440.027 44.1 439.78 44.8533 439.78 45.84V52H437.5V40.98H439.78V42.24C440.153 41.7867 440.627 41.4333 441.2 41.18C441.773 40.9267 442.387 40.8 443.04 40.8C443.92 40.8 444.707 40.9867 445.4 41.36C446.093 41.7333 446.627 42.2733 447 42.98C447.333 42.3133 447.853 41.7867 448.56 41.4C449.267 41 450.027 40.8 450.84 40.8ZM459.441 39.52C459.028 39.52 458.681 39.38 458.401 39.1C458.121 38.82 457.981 38.4733 457.981 38.06C457.981 37.6467 458.121 37.3 458.401 37.02C458.681 36.74 459.028 36.6 459.441 36.6C459.841 36.6 460.181 36.74 460.461 37.02C460.741 37.3 460.881 37.6467 460.881 38.06C460.881 38.4733 460.741 38.82 460.461 39.1C460.181 39.38 459.841 39.52 459.441 39.52ZM460.561 40.98V52H458.281V40.98H460.561ZM469.115 40.8C469.981 40.8 470.755 40.98 471.435 41.34C472.128 41.7 472.668 42.2333 473.055 42.94C473.441 43.6467 473.635 44.5 473.635 45.5V52H471.375V45.84C471.375 44.8533 471.128 44.1 470.635 43.58C470.141 43.0467 469.468 42.78 468.615 42.78C467.761 42.78 467.081 43.0467 466.575 43.58C466.081 44.1 465.835 44.8533 465.835 45.84V52H463.555V40.98H465.835V42.24C466.208 41.7867 466.681 41.4333 467.255 41.18C467.841 40.9267 468.461 40.8 469.115 40.8ZM481.323 52.18C480.283 52.18 479.343 51.9467 478.503 51.48C477.663 51 477.003 50.3333 476.523 49.48C476.043 48.6133 475.803 47.6133 475.803 46.48C475.803 45.36 476.05 44.3667 476.543 43.5C477.036 42.6333 477.71 41.9667 478.563 41.5C479.416 41.0333 480.37 40.8 481.423 40.8C482.476 40.8 483.43 41.0333 484.283 41.5C485.136 41.9667 485.81 42.6333 486.303 43.5C486.796 44.3667 487.043 45.36 487.043 46.48C487.043 47.6 486.79 48.5933 486.283 49.46C485.776 50.3267 485.083 51 484.203 51.48C483.336 51.9467 482.376 52.18 481.323 52.18ZM481.323 50.2C481.91 50.2 482.456 50.06 482.963 49.78C483.483 49.5 483.903 49.08 484.223 48.52C484.543 47.96 484.703 47.28 484.703 46.48C484.703 45.68 484.55 45.0067 484.243 44.46C483.936 43.9 483.53 43.48 483.023 43.2C482.516 42.92 481.97 42.78 481.383 42.78C480.796 42.78 480.25 42.92 479.743 43.2C479.25 43.48 478.856 43.9 478.563 44.46C478.27 45.0067 478.123 45.68 478.123 46.48C478.123 47.6667 478.423 48.5867 479.023 49.24C479.636 49.88 480.403 50.2 481.323 50.2ZM491.577 42.58C491.91 42.02 492.35 41.5867 492.897 41.28C493.457 40.96 494.117 40.8 494.877 40.8V43.16H494.297C493.404 43.16 492.724 43.3867 492.257 43.84C491.804 44.2933 491.577 45.08 491.577 46.2V52H489.297V40.98H491.577V42.58ZM500.973 52.18C500.106 52.18 499.326 52.0267 498.633 51.72C497.953 51.4 497.413 50.9733 497.013 50.44C496.613 49.8933 496.399 49.2867 496.373 48.62H498.733C498.773 49.0867 498.993 49.48 499.393 49.8C499.806 50.1067 500.319 50.26 500.933 50.26C501.573 50.26 502.066 50.14 502.413 49.9C502.773 49.6467 502.953 49.3267 502.953 48.94C502.953 48.5267 502.753 48.22 502.353 48.02C501.966 47.82 501.346 47.6 500.493 47.36C499.666 47.1333 498.993 46.9133 498.473 46.7C497.953 46.4867 497.499 46.16 497.113 45.72C496.739 45.28 496.553 44.7 496.553 43.98C496.553 43.3933 496.726 42.86 497.073 42.38C497.419 41.8867 497.913 41.5 498.553 41.22C499.206 40.94 499.953 40.8 500.793 40.8C502.046 40.8 503.053 41.12 503.813 41.76C504.586 42.3867 504.999 43.2467 505.053 44.34H502.773C502.733 43.8467 502.533 43.4533 502.173 43.16C501.813 42.8667 501.326 42.72 500.713 42.72C500.113 42.72 499.653 42.8333 499.333 43.06C499.013 43.2867 498.853 43.5867 498.853 43.96C498.853 44.2533 498.959 44.5 499.173 44.7C499.386 44.9 499.646 45.06 499.953 45.18C500.259 45.2867 500.713 45.4267 501.313 45.6C502.113 45.8133 502.766 46.0333 503.273 46.26C503.793 46.4733 504.239 46.7933 504.613 47.22C504.986 47.6467 505.179 48.2133 505.193 48.92C505.193 49.5467 505.019 50.1067 504.673 50.6C504.326 51.0933 503.833 51.48 503.193 51.76C502.566 52.04 501.826 52.18 500.973 52.18Z" fill="#4D9EAD"/>
</g>
<path fill-rule="evenodd" clip-rule="evenodd" d="M278.202 292.301C357.003 292.301 420.884 228.42 420.884 149.618C420.884 70.8173 357.003 6.93633 278.202 6.93633C199.401 6.93633 135.52 70.8173 135.52 149.618C135.52 228.42 199.401 292.301 278.202 292.301ZM278.202 252.537C335.042 252.537 381.12 206.458 381.12 149.618C381.12 92.7781 335.042 46.7 278.202 46.7C221.362 46.7 175.284 92.7781 175.284 149.618C175.284 206.458 221.362 252.537 278.202 252.537Z" fill="#F27AAA"/>
<path fill-rule="evenodd" clip-rule="evenodd" d="M420.884 149.618C420.884 149.618 420.884 149.618 420.884 149.618C420.884 70.8172 357.004 6.93645 278.203 6.93604V46.6998C335.042 46.7003 381.12 92.7782 381.12 149.618C381.12 149.618 381.12 149.618 381.12 149.618H420.884Z" fill="#4D9EAD"/>
<line x1="286.5" y1="14.5" x2="412.5" y2="14.5" stroke="#4D9EAD" stroke-width="15" stroke-linecap="round"/>
<line x1="150.5" y1="284.5" x2="264.5" y2="284.5" stroke="#F27AAA" stroke-width="15" stroke-linecap="round"/>
</svg>
