<svg width="1558" height="835" viewBox="0 0 1558 835" fill="none" xmlns="http://www.w3.org/2000/svg">
<path d="M619.592 398.096H594.44L590.408 410H573.224L597.608 342.608H616.616L641 410H623.624L619.592 398.096ZM615.368 385.424L607.016 360.752L598.76 385.424H615.368ZM668.773 355.664C672.549 355.664 675.845 356.432 678.661 357.968C681.541 359.504 683.749 361.52 685.285 364.016V356.432H701.701V409.904C701.701 414.832 700.709 419.28 698.725 423.248C696.805 427.28 693.829 430.48 689.797 432.848C685.829 435.216 680.869 436.4 674.917 436.4C666.981 436.4 660.549 434.512 655.621 430.736C650.693 427.024 647.877 421.968 647.173 415.568H663.397C663.909 417.616 665.125 419.216 667.045 420.368C668.965 421.584 671.333 422.192 674.149 422.192C677.541 422.192 680.229 421.2 682.213 419.216C684.261 417.296 685.285 414.192 685.285 409.904V402.32C683.685 404.816 681.477 406.864 678.661 408.464C675.845 410 672.549 410.768 668.773 410.768C664.357 410.768 660.357 409.648 656.773 407.408C653.189 405.104 650.341 401.872 648.229 397.712C646.181 393.488 645.157 388.624 645.157 383.12C645.157 377.616 646.181 372.784 648.229 368.624C650.341 364.464 653.189 361.264 656.773 359.024C660.357 356.784 664.357 355.664 668.773 355.664ZM685.285 383.216C685.285 379.12 684.133 375.888 681.829 373.52C679.589 371.152 676.837 369.968 673.573 369.968C670.309 369.968 667.525 371.152 665.221 373.52C662.981 375.824 661.861 379.024 661.861 383.12C661.861 387.216 662.981 390.48 665.221 392.912C667.525 395.28 670.309 396.464 673.573 396.464C676.837 396.464 679.589 395.28 681.829 392.912C684.133 390.544 685.285 387.312 685.285 383.216ZM764.073 382.352C764.073 383.888 763.977 385.488 763.785 387.152H726.633C726.889 390.48 727.945 393.04 729.801 394.832C731.721 396.56 734.057 397.424 736.809 397.424C740.905 397.424 743.753 395.696 745.353 392.24H762.825C761.929 395.76 760.297 398.928 757.929 401.744C755.625 404.56 752.713 406.768 749.193 408.368C745.673 409.968 741.737 410.768 737.385 410.768C732.137 410.768 727.465 409.648 723.369 407.408C719.273 405.168 716.073 401.968 713.769 397.808C711.465 393.648 710.313 388.784 710.313 383.216C710.313 377.648 711.433 372.784 713.673 368.624C715.977 364.464 719.177 361.264 723.273 359.024C727.369 356.784 732.073 355.664 737.385 355.664C742.569 355.664 747.177 356.752 751.209 358.928C755.241 361.104 758.377 364.208 760.617 368.24C762.921 372.272 764.073 376.976 764.073 382.352ZM747.273 378.032C747.273 375.216 746.313 372.976 744.393 371.312C742.473 369.648 740.073 368.816 737.193 368.816C734.441 368.816 732.105 369.616 730.185 371.216C728.329 372.816 727.177 375.088 726.729 378.032H747.273ZM794.525 410.768C789.853 410.768 785.693 409.968 782.045 408.368C778.397 406.768 775.517 404.592 773.405 401.84C771.293 399.024 770.109 395.888 769.853 392.432H786.077C786.269 394.288 787.133 395.792 788.669 396.944C790.205 398.096 792.093 398.672 794.333 398.672C796.381 398.672 797.949 398.288 799.037 397.52C800.189 396.688 800.765 395.632 800.765 394.352C800.765 392.816 799.965 391.696 798.365 390.992C796.765 390.224 794.173 389.392 790.589 388.496C786.749 387.6 783.549 386.672 780.989 385.712C778.429 384.688 776.221 383.12 774.365 381.008C772.509 378.832 771.581 375.92 771.581 372.272C771.581 369.2 772.413 366.416 774.077 363.92C775.805 361.36 778.301 359.344 781.565 357.872C784.893 356.4 788.829 355.664 793.373 355.664C800.093 355.664 805.373 357.328 809.213 360.656C813.117 363.984 815.357 368.4 815.933 373.904H800.765C800.509 372.048 799.677 370.576 798.269 369.488C796.925 368.4 795.133 367.856 792.893 367.856C790.973 367.856 789.501 368.24 788.477 369.008C787.453 369.712 786.941 370.704 786.941 371.984C786.941 373.52 787.741 374.672 789.341 375.44C791.005 376.208 793.565 376.976 797.021 377.744C800.989 378.768 804.221 379.792 806.717 380.816C809.213 381.776 811.389 383.376 813.245 385.616C815.165 387.792 816.157 390.736 816.221 394.448C816.221 397.584 815.325 400.4 813.533 402.896C811.805 405.328 809.277 407.248 805.949 408.656C802.685 410.064 798.877 410.768 794.525 410.768Z" fill="#7937AE"/>
<path d="M8.784 609.712C5.456 608.048 3.792 605.424 3.792 601.84C3.792 600.112 4.224 598.528 5.088 597.088C5.952 595.648 7.248 594.512 8.976 593.68C10.704 592.816 12.816 592.384 15.312 592.384C17.776 592.384 19.872 592.816 21.6 593.68C23.36 594.512 24.672 595.648 25.536 597.088C26.4 598.528 26.832 600.112 26.832 601.84C26.832 603.632 26.368 605.216 25.44 606.592C24.544 607.936 23.344 608.976 21.84 609.712C23.664 610.384 25.104 611.488 26.16 613.024C27.216 614.528 27.744 616.304 27.744 618.352C27.744 620.432 27.216 622.272 26.16 623.872C25.104 625.472 23.632 626.704 21.744 627.568C19.856 628.432 17.712 628.864 15.312 628.864C12.912 628.864 10.768 628.432 8.88 627.568C7.024 626.704 5.568 625.472 4.512 623.872C3.456 622.272 2.928 620.432 2.928 618.352C2.928 616.272 3.456 614.48 4.512 612.976C5.568 611.472 6.992 610.384 8.784 609.712ZM21.6 602.512C21.6 600.72 21.04 599.344 19.92 598.384C18.8 597.424 17.264 596.944 15.312 596.944C13.392 596.944 11.872 597.424 10.752 598.384C9.632 599.344 9.072 600.736 9.072 602.56C9.072 604.16 9.648 605.472 10.8 606.496C11.984 607.488 13.488 607.984 15.312 607.984C17.136 607.984 18.64 607.472 19.824 606.448C21.008 605.424 21.6 604.112 21.6 602.512ZM15.312 612.112C13.2 612.112 11.472 612.64 10.128 613.696C8.816 614.72 8.16 616.208 8.16 618.16C8.16 619.984 8.8 621.472 10.08 622.624C11.36 623.744 13.104 624.304 15.312 624.304C17.488 624.304 19.2 623.728 20.448 622.576C21.728 621.424 22.368 619.952 22.368 618.16C22.368 616.24 21.712 614.752 20.4 613.696C19.12 612.64 17.424 612.112 15.312 612.112ZM40.3054 618.496C40.6254 620.096 41.3134 621.312 42.3694 622.144C43.4254 622.976 44.8494 623.392 46.6414 623.392C48.9134 623.392 50.5774 622.496 51.6334 620.704C52.6894 618.912 53.2174 615.856 53.2174 611.536C52.4494 612.624 51.3614 613.472 49.9534 614.08C48.5774 614.656 47.0734 614.944 45.4414 614.944C43.3614 614.944 41.4734 614.528 39.7774 613.696C38.0814 612.832 36.7374 611.568 35.7454 609.904C34.7854 608.208 34.3054 606.16 34.3054 603.76C34.3054 600.24 35.3294 597.44 37.3774 595.36C39.4574 593.248 42.3054 592.192 45.9214 592.192C50.2734 592.192 53.3614 593.648 55.1854 596.56C57.0414 599.44 57.9694 603.872 57.9694 609.856C57.9694 613.984 57.6174 617.36 56.9134 619.984C56.2414 622.608 55.0574 624.592 53.3614 625.936C51.6654 627.28 49.3134 627.952 46.3054 627.952C42.8814 627.952 40.2414 627.056 38.3854 625.264C36.5294 623.472 35.4894 621.216 35.2654 618.496H40.3054ZM46.4014 610.336C48.3214 610.336 49.8254 609.744 50.9134 608.56C52.0334 607.344 52.5934 605.744 52.5934 603.76C52.5934 601.552 52.0014 599.84 50.8174 598.624C49.6654 597.376 48.0814 596.752 46.0654 596.752C44.0494 596.752 42.4494 597.392 41.2654 598.672C40.1134 599.92 39.5374 601.568 39.5374 603.616C39.5374 605.568 40.0974 607.184 41.2174 608.464C42.3694 609.712 44.0974 610.336 46.4014 610.336ZM66.8861 628.336C65.8941 628.336 65.0621 628 64.3901 627.328C63.7181 626.656 63.3821 625.824 63.3821 624.832C63.3821 623.84 63.7181 623.008 64.3901 622.336C65.0621 621.664 65.8941 621.328 66.8861 621.328C67.8461 621.328 68.6621 621.664 69.3341 622.336C70.0061 623.008 70.3421 623.84 70.3421 624.832C70.3421 625.824 70.0061 626.656 69.3341 627.328C68.6621 628 67.8461 628.336 66.8861 628.336ZM98.0963 597.712H82.0163V607.264C82.6883 606.368 83.6803 605.616 84.9922 605.008C86.3363 604.4 87.7603 604.096 89.2643 604.096C91.9523 604.096 94.1283 604.672 95.7923 605.824C97.4883 606.976 98.6883 608.432 99.3923 610.192C100.128 611.952 100.496 613.808 100.496 615.76C100.496 618.128 100.032 620.24 99.1042 622.096C98.2083 623.92 96.8483 625.36 95.0243 626.416C93.2323 627.472 91.0243 628 88.4003 628C84.9123 628 82.1123 627.136 80.0003 625.408C77.8883 623.68 76.6243 621.392 76.2083 618.544H81.5363C81.8883 620.048 82.6723 621.248 83.8883 622.144C85.1043 623.008 86.6243 623.44 88.4483 623.44C90.7203 623.44 92.4163 622.752 93.5363 621.376C94.6883 620 95.2643 618.176 95.2643 615.904C95.2643 613.6 94.6883 611.84 93.5363 610.624C92.3843 609.376 90.6883 608.752 88.4483 608.752C86.8803 608.752 85.5523 609.152 84.4643 609.952C83.4083 610.72 82.6403 611.776 82.1603 613.12H76.9763V592.912H98.0963V597.712ZM106.097 601.648C106.289 598.672 107.425 596.352 109.505 594.688C111.617 593.024 114.305 592.192 117.569 592.192C119.809 592.192 121.745 592.592 123.377 593.392C125.009 594.192 126.241 595.28 127.073 596.656C127.905 598.032 128.321 599.584 128.321 601.312C128.321 603.296 127.793 604.992 126.737 606.4C125.681 607.808 124.417 608.752 122.945 609.232V609.424C124.833 610 126.305 611.056 127.361 612.592C128.417 614.096 128.945 616.032 128.945 618.4C128.945 620.288 128.513 621.968 127.649 623.44C126.785 624.912 125.505 626.08 123.809 626.944C122.113 627.776 120.081 628.192 117.713 628.192C114.257 628.192 111.409 627.312 109.169 625.552C106.961 623.76 105.777 621.2 105.617 617.872H110.897C111.025 619.568 111.681 620.96 112.865 622.048C114.049 623.104 115.649 623.632 117.665 623.632C119.617 623.632 121.121 623.104 122.177 622.048C123.233 620.96 123.761 619.568 123.761 617.872C123.761 615.632 123.041 614.048 121.601 613.12C120.193 612.16 118.017 611.68 115.073 611.68H113.825V607.168H115.121C117.713 607.136 119.681 606.704 121.025 605.872C122.401 605.04 123.089 603.728 123.089 601.936C123.089 600.4 122.593 599.184 121.601 598.288C120.609 597.36 119.201 596.896 117.377 596.896C115.585 596.896 114.193 597.36 113.201 598.288C112.209 599.184 111.617 600.304 111.425 601.648H106.097ZM133.829 601.456C133.829 599.12 134.501 597.296 135.845 595.984C137.221 594.64 138.981 593.968 141.125 593.968C143.269 593.968 145.013 594.64 146.357 595.984C147.733 597.296 148.421 599.12 148.421 601.456C148.421 603.792 147.733 605.632 146.357 606.976C145.013 608.32 143.269 608.992 141.125 608.992C138.981 608.992 137.221 608.32 135.845 606.976C134.501 605.632 133.829 603.792 133.829 601.456ZM163.109 594.592L143.957 628H138.581L157.733 594.592H163.109ZM141.125 597.28C139.109 597.28 138.101 598.672 138.101 601.456C138.101 604.272 139.109 605.68 141.125 605.68C142.085 605.68 142.821 605.344 143.333 604.672C143.877 603.968 144.148 602.896 144.148 601.456C144.148 598.672 143.141 597.28 141.125 597.28ZM153.365 621.088C153.365 618.752 154.037 616.928 155.381 615.616C156.757 614.272 158.517 613.6 160.661 613.6C162.773 613.6 164.501 614.272 165.845 615.616C167.221 616.928 167.909 618.752 167.909 621.088C167.909 623.424 167.221 625.264 165.845 626.608C164.501 627.952 162.773 628.624 160.661 628.624C158.517 628.624 156.757 627.952 155.381 626.608C154.037 625.264 153.365 623.424 153.365 621.088ZM160.613 616.912C158.597 616.912 157.589 618.304 157.589 621.088C157.589 623.872 158.597 625.264 160.613 625.264C162.629 625.264 163.637 623.872 163.637 621.088C163.637 618.304 162.629 616.912 160.613 616.912ZM1.776 686.656C1.776 684 2.32 681.648 3.408 679.6C4.528 677.552 6.032 675.968 7.92 674.848C9.84 673.696 11.952 673.12 14.256 673.12C16.336 673.12 18.144 673.536 19.68 674.368C21.248 675.168 22.496 676.176 23.424 677.392V673.552H28.944V700H23.424V696.064C22.496 697.312 21.232 698.352 19.632 699.184C18.032 700.016 16.208 700.432 14.16 700.432C11.888 700.432 9.808 699.856 7.92 698.704C6.032 697.52 4.528 695.888 3.408 693.808C2.32 691.696 1.776 689.312 1.776 686.656ZM23.424 686.752C23.424 684.928 23.04 683.344 22.272 682C21.536 680.656 20.56 679.632 19.344 678.928C18.128 678.224 16.816 677.872 15.408 677.872C14 677.872 12.688 678.224 11.472 678.928C10.256 679.6 9.264 680.608 8.496 681.952C7.76 683.264 7.392 684.832 7.392 686.656C7.392 688.48 7.76 690.08 8.496 691.456C9.264 692.832 10.256 693.888 11.472 694.624C12.72 695.328 14.032 695.68 15.408 695.68C16.816 695.68 18.128 695.328 19.344 694.624C20.56 693.92 21.536 692.896 22.272 691.552C23.04 690.176 23.424 688.576 23.424 686.752ZM41.6033 677.488C42.5313 676.208 43.7953 675.168 45.3953 674.368C47.0273 673.536 48.8353 673.12 50.8193 673.12C53.1553 673.12 55.2673 673.68 57.1553 674.8C59.0433 675.92 60.5313 677.52 61.6193 679.6C62.7073 681.648 63.2513 684 63.2513 686.656C63.2513 689.312 62.7073 691.696 61.6193 693.808C60.5313 695.888 59.0273 697.52 57.1073 698.704C55.2193 699.856 53.1233 700.432 50.8193 700.432C48.7713 700.432 46.9473 700.032 45.3473 699.232C43.7793 698.432 42.5313 697.408 41.6033 696.16V700H36.1313V664.48H41.6033V677.488ZM57.6833 686.656C57.6833 684.832 57.2993 683.264 56.5312 681.952C55.7953 680.608 54.8033 679.6 53.5553 678.928C52.3393 678.224 51.0273 677.872 49.6193 677.872C48.2433 677.872 46.9313 678.224 45.6833 678.928C44.4673 679.632 43.4753 680.656 42.7073 682C41.9713 683.344 41.6033 684.928 41.6033 686.752C41.6033 688.576 41.9713 690.176 42.7073 691.552C43.4753 692.896 44.4673 693.92 45.6833 694.624C46.9313 695.328 48.2433 695.68 49.6193 695.68C51.0273 695.68 52.3393 695.328 53.5553 694.624C54.8033 693.888 55.7953 692.832 56.5312 691.456C57.2993 690.08 57.6833 688.48 57.6833 686.656ZM80.1345 700.432C77.6385 700.432 75.3825 699.872 73.3665 698.752C71.3505 697.6 69.7665 696 68.6145 693.952C67.4625 691.872 66.8865 689.472 66.8865 686.752C66.8865 684.064 67.4785 681.68 68.6625 679.6C69.8465 677.52 71.4625 675.92 73.5105 674.8C75.5585 673.68 77.8465 673.12 80.3745 673.12C82.9025 673.12 85.1905 673.68 87.2385 674.8C89.2865 675.92 90.9025 677.52 92.0865 679.6C93.2705 681.68 93.8625 684.064 93.8625 686.752C93.8625 689.44 93.2545 691.824 92.0385 693.904C90.8225 695.984 89.1585 697.6 87.0465 698.752C84.9665 699.872 82.6625 700.432 80.1345 700.432ZM80.1345 695.68C81.5425 695.68 82.8545 695.344 84.0705 694.672C85.3185 694 86.3265 692.992 87.0945 691.648C87.8625 690.304 88.2465 688.672 88.2465 686.752C88.2465 684.832 87.8785 683.216 87.1425 681.904C86.4065 680.56 85.4305 679.552 84.2145 678.88C82.9985 678.208 81.6865 677.872 80.2785 677.872C78.8705 677.872 77.5585 678.208 76.3425 678.88C75.1585 679.552 74.2145 680.56 73.5105 681.904C72.8065 683.216 72.4545 684.832 72.4545 686.752C72.4545 689.6 73.1745 691.808 74.6145 693.376C76.0865 694.912 77.9265 695.68 80.1345 695.68ZM109.496 695.104L116.984 673.552H122.792L112.712 700H106.184L96.1519 673.552H102.008L109.496 695.104ZM151.168 686.128C151.168 687.12 151.104 688.016 150.976 688.816H130.768C130.928 690.928 131.712 692.624 133.12 693.904C134.528 695.184 136.256 695.824 138.304 695.824C141.248 695.824 143.328 694.592 144.544 692.128H150.448C149.648 694.56 148.192 696.56 146.08 698.128C144 699.664 141.408 700.432 138.304 700.432C135.776 700.432 133.504 699.872 131.488 698.752C129.504 697.6 127.936 696 126.784 693.952C125.664 691.872 125.104 689.472 125.104 686.752C125.104 684.032 125.648 681.648 126.736 679.6C127.856 677.52 129.408 675.92 131.392 674.8C133.408 673.68 135.712 673.12 138.304 673.12C140.8 673.12 143.024 673.664 144.976 674.752C146.928 675.84 148.448 677.376 149.536 679.36C150.624 681.312 151.168 683.568 151.168 686.128ZM145.456 684.4C145.424 682.384 144.704 680.768 143.296 679.552C141.888 678.336 140.144 677.728 138.064 677.728C136.176 677.728 134.56 678.336 133.216 679.552C131.872 680.736 131.072 682.352 130.816 684.4H145.456ZM167.582 670V665.008H177.566V700H172.046V670H167.582ZM190.987 681.712C187.659 680.048 185.995 677.424 185.995 673.84C185.995 672.112 186.427 670.528 187.291 669.088C188.155 667.648 189.451 666.512 191.179 665.68C192.907 664.816 195.019 664.384 197.515 664.384C199.979 664.384 202.075 664.816 203.803 665.68C205.563 666.512 206.875 667.648 207.739 669.088C208.603 670.528 209.035 672.112 209.035 673.84C209.035 675.632 208.571 677.216 207.643 678.592C206.747 679.936 205.547 680.976 204.043 681.712C205.867 682.384 207.307 683.488 208.363 685.024C209.419 686.528 209.947 688.304 209.947 690.352C209.947 692.432 209.419 694.272 208.363 695.872C207.307 697.472 205.835 698.704 203.947 699.568C202.059 700.432 199.915 700.864 197.515 700.864C195.115 700.864 192.971 700.432 191.083 699.568C189.227 698.704 187.771 697.472 186.715 695.872C185.659 694.272 185.131 692.432 185.131 690.352C185.131 688.272 185.659 686.48 186.715 684.976C187.771 683.472 189.195 682.384 190.987 681.712ZM203.803 674.512C203.803 672.72 203.243 671.344 202.123 670.384C201.003 669.424 199.467 668.944 197.515 668.944C195.595 668.944 194.075 669.424 192.955 670.384C191.835 671.344 191.275 672.736 191.275 674.56C191.275 676.16 191.851 677.472 193.003 678.496C194.187 679.488 195.691 679.984 197.515 679.984C199.339 679.984 200.843 679.472 202.027 678.448C203.211 677.424 203.803 676.112 203.803 674.512ZM197.515 684.112C195.403 684.112 193.675 684.64 192.331 685.696C191.019 686.72 190.363 688.208 190.363 690.16C190.363 691.984 191.003 693.472 192.283 694.624C193.563 695.744 195.307 696.304 197.515 696.304C199.691 696.304 201.403 695.728 202.651 694.576C203.931 693.424 204.571 691.952 204.571 690.16C204.571 688.24 203.915 686.752 202.603 685.696C201.323 684.64 199.627 684.112 197.515 684.112Z" fill="#7937AE"/>
<path d="M1092.88 30V23.344H1106.19V70H1098.83V30H1092.88ZM1116.22 46.064C1116.22 38.6827 1117.45 32.9227 1119.93 28.784C1122.44 24.6027 1126.75 22.512 1132.86 22.512C1138.96 22.512 1143.24 24.6027 1145.72 28.784C1148.24 32.9227 1149.5 38.6827 1149.5 46.064C1149.5 53.5307 1148.24 59.376 1145.72 63.6C1143.24 67.7813 1138.96 69.872 1132.86 69.872C1126.75 69.872 1122.44 67.7813 1119.93 63.6C1117.45 59.376 1116.22 53.5307 1116.22 46.064ZM1142.33 46.064C1142.33 42.608 1142.09 39.6853 1141.62 37.296C1141.2 34.9067 1140.3 32.9653 1138.94 31.472C1137.57 29.936 1135.54 29.168 1132.86 29.168C1130.17 29.168 1128.14 29.936 1126.78 31.472C1125.41 32.9653 1124.49 34.9067 1124.02 37.296C1123.6 39.6853 1123.38 42.608 1123.38 46.064C1123.38 49.648 1123.6 52.656 1124.02 55.088C1124.45 57.52 1125.35 59.4827 1126.71 60.976C1128.12 62.4693 1130.17 63.216 1132.86 63.216C1135.54 63.216 1137.57 62.4693 1138.94 60.976C1140.34 59.4827 1141.26 57.52 1141.69 55.088C1142.11 52.656 1142.33 49.648 1142.33 46.064ZM1161.12 70.448C1159.8 70.448 1158.69 70 1157.79 69.104C1156.9 68.208 1156.45 67.0987 1156.45 65.776C1156.45 64.4533 1156.9 63.344 1157.79 62.448C1158.69 61.552 1159.8 61.104 1161.12 61.104C1162.4 61.104 1163.49 61.552 1164.38 62.448C1165.28 63.344 1165.73 64.4533 1165.73 65.776C1165.73 67.0987 1165.28 68.208 1164.38 69.104C1163.49 70 1162.4 70.448 1161.12 70.448ZM1202.73 29.616H1181.29V42.352C1182.19 41.1573 1183.51 40.1547 1185.26 39.344C1187.05 38.5333 1188.95 38.128 1190.96 38.128C1194.54 38.128 1197.44 38.896 1199.66 40.432C1201.92 41.968 1203.52 43.9093 1204.46 46.256C1205.44 48.6027 1205.93 51.0773 1205.93 53.68C1205.93 56.8373 1205.31 59.6533 1204.08 62.128C1202.88 64.56 1201.07 66.48 1198.64 67.888C1196.25 69.296 1193.3 70 1189.8 70C1185.15 70 1181.42 68.848 1178.6 66.544C1175.79 64.24 1174.1 61.1893 1173.55 57.392H1180.65C1181.12 59.3973 1182.17 60.9973 1183.79 62.192C1185.41 63.344 1187.44 63.92 1189.87 63.92C1192.9 63.92 1195.16 63.0027 1196.65 61.168C1198.19 59.3333 1198.96 56.9013 1198.96 53.872C1198.96 50.8 1198.19 48.4533 1196.65 46.832C1195.12 45.168 1192.86 44.336 1189.87 44.336C1187.78 44.336 1186.01 44.8693 1184.56 45.936C1183.15 46.96 1182.12 48.368 1181.48 50.16H1174.57V23.216H1202.73V29.616ZM1213.4 34.864C1213.66 30.896 1215.17 27.8027 1217.94 25.584C1220.76 23.3653 1224.34 22.256 1228.7 22.256C1231.68 22.256 1234.26 22.7893 1236.44 23.856C1238.62 24.9227 1240.26 26.3733 1241.37 28.208C1242.48 30.0427 1243.03 32.112 1243.03 34.416C1243.03 37.0613 1242.33 39.3227 1240.92 41.2C1239.51 43.0773 1237.83 44.336 1235.86 44.976V45.232C1238.38 46 1240.34 47.408 1241.75 49.456C1243.16 51.4613 1243.86 54.0427 1243.86 57.2C1243.86 59.7173 1243.29 61.9573 1242.14 63.92C1240.98 65.8827 1239.28 67.44 1237.02 68.592C1234.75 69.7013 1232.04 70.256 1228.89 70.256C1224.28 70.256 1220.48 69.0827 1217.5 66.736C1214.55 64.3467 1212.97 60.9333 1212.76 56.496H1219.8C1219.97 58.7573 1220.84 60.6133 1222.42 62.064C1224 63.472 1226.14 64.176 1228.82 64.176C1231.43 64.176 1233.43 63.472 1234.84 62.064C1236.25 60.6133 1236.95 58.7573 1236.95 56.496C1236.95 53.5093 1235.99 51.3973 1234.07 50.16C1232.19 48.88 1229.29 48.24 1225.37 48.24H1223.7V42.224H1225.43C1228.89 42.1813 1231.51 41.6053 1233.3 40.496C1235.14 39.3867 1236.06 37.6373 1236.06 35.248C1236.06 33.2 1235.39 31.5787 1234.07 30.384C1232.75 29.1467 1230.87 28.528 1228.44 28.528C1226.05 28.528 1224.19 29.1467 1222.87 30.384C1221.55 31.5787 1220.76 33.072 1220.5 34.864H1213.4ZM1250.38 34.608C1250.38 31.4933 1251.27 29.0613 1253.06 27.312C1254.9 25.52 1257.24 24.624 1260.1 24.624C1262.96 24.624 1265.29 25.52 1267.08 27.312C1268.91 29.0613 1269.83 31.4933 1269.83 34.608C1269.83 37.7227 1268.91 40.176 1267.08 41.968C1265.29 43.76 1262.96 44.656 1260.1 44.656C1257.24 44.656 1254.9 43.76 1253.06 41.968C1251.27 40.176 1250.38 37.7227 1250.38 34.608ZM1289.42 25.456L1263.88 70H1256.71L1282.25 25.456H1289.42ZM1260.1 29.04C1257.42 29.04 1256.07 30.896 1256.07 34.608C1256.07 38.3627 1257.42 40.24 1260.1 40.24C1261.38 40.24 1262.36 39.792 1263.05 38.896C1263.77 37.9573 1264.14 36.528 1264.14 34.608C1264.14 30.896 1262.79 29.04 1260.1 29.04ZM1276.42 60.784C1276.42 57.6693 1277.32 55.2373 1279.11 53.488C1280.95 51.696 1283.29 50.8 1286.15 50.8C1288.97 50.8 1291.27 51.696 1293.06 53.488C1294.9 55.2373 1295.82 57.6693 1295.82 60.784C1295.82 63.8987 1294.9 66.352 1293.06 68.144C1291.27 69.936 1288.97 70.832 1286.15 70.832C1283.29 70.832 1280.95 69.936 1279.11 68.144C1277.32 66.352 1276.42 63.8987 1276.42 60.784ZM1286.09 55.216C1283.4 55.216 1282.06 57.072 1282.06 60.784C1282.06 64.496 1283.4 66.352 1286.09 66.352C1288.78 66.352 1290.12 64.496 1290.12 60.784C1290.12 57.072 1288.78 55.216 1286.09 55.216ZM1137.49 130.16C1140.26 130.16 1142.74 130.736 1144.91 131.888C1147.13 133.04 1148.86 134.747 1150.1 137.008C1151.38 139.269 1152.02 142 1152.02 145.2V166H1144.78V146.288C1144.78 143.131 1143.99 140.72 1142.42 139.056C1140.84 137.349 1138.68 136.496 1135.95 136.496C1133.22 136.496 1131.05 137.349 1129.42 139.056C1127.85 140.72 1127.06 143.131 1127.06 146.288V166H1119.82V146.288C1119.82 143.131 1119.03 140.72 1117.46 139.056C1115.88 137.349 1113.72 136.496 1110.99 136.496C1108.26 136.496 1106.09 137.349 1104.46 139.056C1102.89 140.72 1102.1 143.131 1102.1 146.288V166H1094.8V130.736H1102.1V134.768C1103.29 133.317 1104.81 132.187 1106.64 131.376C1108.47 130.565 1110.44 130.16 1112.53 130.16C1115.34 130.16 1117.86 130.757 1120.08 131.952C1122.3 133.147 1124.01 134.875 1125.2 137.136C1126.27 135.003 1127.93 133.317 1130.19 132.08C1132.45 130.8 1134.89 130.16 1137.49 130.16ZM1165.01 126.064C1163.69 126.064 1162.58 125.616 1161.68 124.72C1160.79 123.824 1160.34 122.715 1160.34 121.392C1160.34 120.069 1160.79 118.96 1161.68 118.064C1162.58 117.168 1163.69 116.72 1165.01 116.72C1166.29 116.72 1167.38 117.168 1168.28 118.064C1169.17 118.96 1169.62 120.069 1169.62 121.392C1169.62 122.715 1169.17 123.824 1168.28 124.72C1167.38 125.616 1166.29 126.064 1165.01 126.064ZM1168.6 130.736V166H1161.3V130.736H1168.6ZM1195.97 130.16C1198.74 130.16 1201.22 130.736 1203.39 131.888C1205.61 133.04 1207.34 134.747 1208.58 137.008C1209.81 139.269 1210.43 142 1210.43 145.2V166H1203.2V146.288C1203.2 143.131 1202.41 140.72 1200.83 139.056C1199.25 137.349 1197.1 136.496 1194.37 136.496C1191.64 136.496 1189.46 137.349 1187.84 139.056C1186.26 140.72 1185.47 143.131 1185.47 146.288V166H1178.18V130.736H1185.47V134.768C1186.67 133.317 1188.18 132.187 1190.02 131.376C1191.89 130.565 1193.88 130.16 1195.97 130.16ZM1235.03 166.576C1231.71 166.576 1228.7 165.829 1226.01 164.336C1223.32 162.8 1221.21 160.667 1219.67 157.936C1218.14 155.163 1217.37 151.963 1217.37 148.336C1217.37 144.752 1218.16 141.573 1219.74 138.8C1221.32 136.027 1223.47 133.893 1226.2 132.4C1228.93 130.907 1231.98 130.16 1235.35 130.16C1238.72 130.16 1241.77 130.907 1244.51 132.4C1247.24 133.893 1249.39 136.027 1250.97 138.8C1252.55 141.573 1253.34 144.752 1253.34 148.336C1253.34 151.92 1252.53 155.099 1250.91 157.872C1249.28 160.645 1247.07 162.8 1244.25 164.336C1241.48 165.829 1238.4 166.576 1235.03 166.576ZM1235.03 160.24C1236.91 160.24 1238.66 159.792 1240.28 158.896C1241.95 158 1243.29 156.656 1244.31 154.864C1245.34 153.072 1245.85 150.896 1245.85 148.336C1245.85 145.776 1245.36 143.621 1244.38 141.872C1243.4 140.08 1242.09 138.736 1240.47 137.84C1238.85 136.944 1237.1 136.496 1235.23 136.496C1233.35 136.496 1231.6 136.944 1229.98 137.84C1228.4 138.736 1227.14 140.08 1226.2 141.872C1225.26 143.621 1224.79 145.776 1224.79 148.336C1224.79 152.133 1225.75 155.077 1227.67 157.168C1229.64 159.216 1232.09 160.24 1235.03 160.24ZM1267.85 135.856C1268.91 134.064 1270.32 132.677 1272.07 131.696C1273.86 130.672 1275.97 130.16 1278.41 130.16V137.712H1276.55C1273.69 137.712 1271.52 138.437 1270.02 139.888C1268.57 141.339 1267.85 143.856 1267.85 147.44V166H1260.55V130.736H1267.85V135.856ZM1297.91 166.576C1295.14 166.576 1292.64 166.085 1290.42 165.104C1288.25 164.08 1286.52 162.715 1285.24 161.008C1283.96 159.259 1283.28 157.317 1283.19 155.184H1290.74C1290.87 156.677 1291.58 157.936 1292.86 158.96C1294.18 159.941 1295.82 160.432 1297.78 160.432C1299.83 160.432 1301.41 160.048 1302.52 159.28C1303.67 158.469 1304.25 157.445 1304.25 156.208C1304.25 154.885 1303.61 153.904 1302.33 153.264C1301.09 152.624 1299.11 151.92 1296.38 151.152C1293.73 150.427 1291.58 149.723 1289.91 149.04C1288.25 148.357 1286.8 147.312 1285.56 145.904C1284.37 144.496 1283.77 142.64 1283.77 140.336C1283.77 138.459 1284.32 136.752 1285.43 135.216C1286.54 133.637 1288.12 132.4 1290.17 131.504C1292.26 130.608 1294.65 130.16 1297.34 130.16C1301.35 130.16 1304.57 131.184 1307 133.232C1309.48 135.237 1310.8 137.989 1310.97 141.488H1303.67C1303.54 139.909 1302.9 138.651 1301.75 137.712C1300.6 136.773 1299.04 136.304 1297.08 136.304C1295.16 136.304 1293.69 136.667 1292.66 137.392C1291.64 138.117 1291.13 139.077 1291.13 140.272C1291.13 141.211 1291.47 142 1292.15 142.64C1292.84 143.28 1293.67 143.792 1294.65 144.176C1295.63 144.517 1297.08 144.965 1299 145.52C1301.56 146.203 1303.65 146.907 1305.27 147.632C1306.94 148.315 1308.37 149.339 1309.56 150.704C1310.76 152.069 1311.37 153.883 1311.42 156.144C1311.42 158.149 1310.86 159.941 1309.75 161.52C1308.64 163.099 1307.06 164.336 1305.02 165.232C1303.01 166.128 1300.64 166.576 1297.91 166.576Z" fill="#D7316E"/>
<line x1="697" y1="43" x2="999" y2="43" stroke="#D7316E" stroke-width="50" stroke-linecap="round"/>
<path fill-rule="evenodd" clip-rule="evenodd" d="M695.505 730.751C892.508 730.751 1052.21 571.049 1052.21 374.046C1052.21 177.043 892.508 17.3403 695.505 17.3403C498.502 17.3403 338.8 177.043 338.8 374.046C338.8 571.049 498.502 730.751 695.505 730.751ZM695.505 631.341C837.606 631.341 952.801 516.145 952.801 374.045C952.801 231.945 837.606 116.749 695.505 116.749C553.405 116.749 438.21 231.945 438.21 374.045C438.21 516.145 553.405 631.341 695.505 631.341Z" fill="#F27AAA"/>
<path fill-rule="evenodd" clip-rule="evenodd" d="M695.505 730.751C892.508 730.751 1052.21 571.049 1052.21 374.046C1052.21 177.043 892.508 17.3408 695.505 17.3408C498.502 17.3408 338.8 177.043 338.8 374.046C338.8 571.049 498.502 730.751 695.505 730.751ZM695.505 631.341C837.606 631.341 952.801 516.146 952.801 374.046C952.801 231.945 837.606 116.75 695.505 116.75C553.405 116.75 438.21 231.945 438.21 374.046C438.21 516.146 553.405 631.341 695.505 631.341Z" fill="#7937AE"/>
<path fill-rule="evenodd" clip-rule="evenodd" d="M1052.21 374.046C1052.21 374.046 1052.21 374.045 1052.21 374.045C1052.21 177.043 892.508 17.3408 695.506 17.3398V116.749C837.606 116.75 952.8 231.945 952.8 374.045C952.8 374.045 952.8 374.045 952.8 374.046H1052.21Z" fill="#D7316E"/>
<line x1="383" y1="705" x2="655" y2="705" stroke="#7937AE" stroke-width="50" stroke-linecap="round"/>
</svg>
