<svg width="589" height="465" viewBox="0 0 589 465" fill="none" xmlns="http://www.w3.org/2000/svg">
<g style="mix-blend-mode:screen">
<path d="M26.2736 155.26V169.16H23.9936V163.08H17.4536V169.16H15.1736V155.26H17.4536V161.22H23.9936V155.26H26.2736ZM30.4352 156.68C30.0218 156.68 29.6752 156.54 29.3952 156.26C29.1152 155.98 28.9752 155.633 28.9752 155.22C28.9752 154.807 29.1152 154.46 29.3952 154.18C29.6752 153.9 30.0218 153.76 30.4352 153.76C30.8352 153.76 31.1752 153.9 31.4552 154.18C31.7352 154.46 31.8752 154.807 31.8752 155.22C31.8752 155.633 31.7352 155.98 31.4552 156.26C31.1752 156.54 30.8352 156.68 30.4352 156.68ZM31.5552 158.14V169.16H29.2752V158.14H31.5552ZM38.9886 157.96C39.8419 157.96 40.5953 158.133 41.2486 158.48C41.9153 158.813 42.4353 159.233 42.8086 159.74V158.14H45.1086V169.34C45.1086 170.353 44.8953 171.253 44.4686 172.04C44.0419 172.84 43.4219 173.467 42.6086 173.92C41.8086 174.373 40.8486 174.6 39.7286 174.6C38.2353 174.6 36.9953 174.247 36.0086 173.54C35.0219 172.847 34.4619 171.9 34.3286 170.7H36.5886C36.7619 171.273 37.1286 171.733 37.6886 172.08C38.2619 172.44 38.9419 172.62 39.7286 172.62C40.6486 172.62 41.3886 172.34 41.9486 171.78C42.5219 171.22 42.8086 170.407 42.8086 169.34V167.5C42.4219 168.02 41.8953 168.46 41.2286 168.82C40.5753 169.167 39.8286 169.34 38.9886 169.34C38.0286 169.34 37.1486 169.1 36.3486 168.62C35.5619 168.127 34.9353 167.447 34.4686 166.58C34.0153 165.7 33.7886 164.707 33.7886 163.6C33.7886 162.493 34.0153 161.513 34.4686 160.66C34.9353 159.807 35.5619 159.147 36.3486 158.68C37.1486 158.2 38.0286 157.96 38.9886 157.96ZM42.8086 163.64C42.8086 162.88 42.6486 162.22 42.3286 161.66C42.0219 161.1 41.6153 160.673 41.1086 160.38C40.6019 160.087 40.0553 159.94 39.4686 159.94C38.8819 159.94 38.3353 160.087 37.8286 160.38C37.3219 160.66 36.9086 161.08 36.5886 161.64C36.2819 162.187 36.1286 162.84 36.1286 163.6C36.1286 164.36 36.2819 165.027 36.5886 165.6C36.9086 166.173 37.3219 166.613 37.8286 166.92C38.3486 167.213 38.8953 167.36 39.4686 167.36C40.0553 167.36 40.6019 167.213 41.1086 166.92C41.6153 166.627 42.0219 166.2 42.3286 165.64C42.6486 165.067 42.8086 164.4 42.8086 163.64ZM53.8033 157.96C54.6433 157.96 55.39 158.14 56.0433 158.5C56.71 158.86 57.23 159.393 57.6033 160.1C57.99 160.807 58.1833 161.66 58.1833 162.66V169.16H55.9233V163C55.9233 162.013 55.6766 161.26 55.1833 160.74C54.69 160.207 54.0166 159.94 53.1633 159.94C52.31 159.94 51.63 160.207 51.1233 160.74C50.63 161.26 50.3833 162.013 50.3833 163V169.16H48.1033V154.36H50.3833V159.42C50.77 158.953 51.2566 158.593 51.8433 158.34C52.4433 158.087 53.0966 157.96 53.8033 157.96ZM70.8669 169.3C69.9336 169.3 69.0936 169.14 68.3469 168.82C67.6002 168.487 67.0136 168.02 66.5869 167.42C66.1602 166.82 65.9469 166.12 65.9469 165.32H68.3869C68.4402 165.92 68.6736 166.413 69.0869 166.8C69.5136 167.187 70.1069 167.38 70.8669 167.38C71.6536 167.38 72.2669 167.193 72.7069 166.82C73.1469 166.433 73.3669 165.94 73.3669 165.34C73.3669 164.873 73.2269 164.493 72.9469 164.2C72.6802 163.907 72.3402 163.68 71.9269 163.52C71.5269 163.36 70.9669 163.187 70.2469 163C69.3402 162.76 68.6002 162.52 68.0269 162.28C67.4669 162.027 66.9869 161.64 66.5869 161.12C66.1869 160.6 65.9869 159.907 65.9869 159.04C65.9869 158.24 66.1869 157.54 66.5869 156.94C66.9869 156.34 67.5469 155.88 68.2669 155.56C68.9869 155.24 69.8202 155.08 70.7669 155.08C72.1136 155.08 73.2136 155.42 74.0669 156.1C74.9336 156.767 75.4136 157.687 75.5069 158.86H72.9869C72.9469 158.353 72.7069 157.92 72.2669 157.56C71.8269 157.2 71.2469 157.02 70.5269 157.02C69.8736 157.02 69.3402 157.187 68.9269 157.52C68.5136 157.853 68.3069 158.333 68.3069 158.96C68.3069 159.387 68.4336 159.74 68.6869 160.02C68.9536 160.287 69.2869 160.5 69.6869 160.66C70.0869 160.82 70.6336 160.993 71.3269 161.18C72.2469 161.433 72.9936 161.687 73.5669 161.94C74.1536 162.193 74.6469 162.587 75.0469 163.12C75.4602 163.64 75.6669 164.34 75.6669 165.22C75.6669 165.927 75.4736 166.593 75.0869 167.22C74.7136 167.847 74.1602 168.353 73.4269 168.74C72.7069 169.113 71.8536 169.3 70.8669 169.3ZM77.5972 163.64C77.5972 162.507 77.8239 161.513 78.2772 160.66C78.7439 159.793 79.3839 159.127 80.1972 158.66C81.0105 158.193 81.9439 157.96 82.9972 157.96C84.3305 157.96 85.4305 158.28 86.2972 158.92C87.1772 159.547 87.7705 160.447 88.0772 161.62H85.6172C85.4172 161.073 85.0972 160.647 84.6572 160.34C84.2172 160.033 83.6639 159.88 82.9972 159.88C82.0639 159.88 81.3172 160.213 80.7572 160.88C80.2105 161.533 79.9372 162.453 79.9372 163.64C79.9372 164.827 80.2105 165.753 80.7572 166.42C81.3172 167.087 82.0639 167.42 82.9972 167.42C84.3172 167.42 85.1905 166.84 85.6172 165.68H88.0772C87.7572 166.8 87.1572 167.693 86.2772 168.36C85.3972 169.013 84.3039 169.34 82.9972 169.34C81.9439 169.34 81.0105 169.107 80.1972 168.64C79.3839 168.16 78.7439 167.493 78.2772 166.64C77.8239 165.773 77.5972 164.773 77.5972 163.64ZM96.0494 157.96C96.8894 157.96 97.6361 158.14 98.2894 158.5C98.9561 158.86 99.4761 159.393 99.8494 160.1C100.236 160.807 100.429 161.66 100.429 162.66V169.16H98.1694V163C98.1694 162.013 97.9227 161.26 97.4294 160.74C96.9361 160.207 96.2627 159.94 95.4094 159.94C94.5561 159.94 93.8761 160.207 93.3694 160.74C92.8761 161.26 92.6294 162.013 92.6294 163V169.16H90.3494V154.36H92.6294V159.42C93.0161 158.953 93.5027 158.593 94.0894 158.34C94.6894 158.087 95.3427 157.96 96.0494 157.96ZM108.118 169.34C107.078 169.34 106.138 169.107 105.298 168.64C104.458 168.16 103.798 167.493 103.318 166.64C102.838 165.773 102.598 164.773 102.598 163.64C102.598 162.52 102.844 161.527 103.338 160.66C103.831 159.793 104.504 159.127 105.358 158.66C106.211 158.193 107.164 157.96 108.218 157.96C109.271 157.96 110.224 158.193 111.078 158.66C111.931 159.127 112.604 159.793 113.098 160.66C113.591 161.527 113.838 162.52 113.838 163.64C113.838 164.76 113.584 165.753 113.078 166.62C112.571 167.487 111.878 168.16 110.998 168.64C110.131 169.107 109.171 169.34 108.118 169.34ZM108.118 167.36C108.704 167.36 109.251 167.22 109.758 166.94C110.278 166.66 110.698 166.24 111.018 165.68C111.338 165.12 111.498 164.44 111.498 163.64C111.498 162.84 111.344 162.167 111.038 161.62C110.731 161.06 110.324 160.64 109.818 160.36C109.311 160.08 108.764 159.94 108.178 159.94C107.591 159.94 107.044 160.08 106.538 160.36C106.044 160.64 105.651 161.06 105.358 161.62C105.064 162.167 104.918 162.84 104.918 163.64C104.918 164.827 105.218 165.747 105.818 166.4C106.431 167.04 107.198 167.36 108.118 167.36ZM120.872 169.34C119.832 169.34 118.892 169.107 118.052 168.64C117.212 168.16 116.552 167.493 116.072 166.64C115.592 165.773 115.352 164.773 115.352 163.64C115.352 162.52 115.598 161.527 116.092 160.66C116.585 159.793 117.258 159.127 118.112 158.66C118.965 158.193 119.918 157.96 120.972 157.96C122.025 157.96 122.978 158.193 123.832 158.66C124.685 159.127 125.358 159.793 125.852 160.66C126.345 161.527 126.592 162.52 126.592 163.64C126.592 164.76 126.338 165.753 125.832 166.62C125.325 167.487 124.632 168.16 123.752 168.64C122.885 169.107 121.925 169.34 120.872 169.34ZM120.872 167.36C121.458 167.36 122.005 167.22 122.512 166.94C123.032 166.66 123.452 166.24 123.772 165.68C124.092 165.12 124.252 164.44 124.252 163.64C124.252 162.84 124.098 162.167 123.792 161.62C123.485 161.06 123.078 160.64 122.572 160.36C122.065 160.08 121.518 159.94 120.932 159.94C120.345 159.94 119.798 160.08 119.292 160.36C118.798 160.64 118.405 161.06 118.112 161.62C117.818 162.167 117.672 162.84 117.672 163.64C117.672 164.827 117.972 165.747 118.572 166.4C119.185 167.04 119.952 167.36 120.872 167.36ZM131.125 154.36V169.16H128.845V154.36H131.125ZM136.619 166.42L134.199 171.94H132.719L134.139 166.42H136.619ZM73.1283 186.66V184.58H77.2883V199.16H74.9883V186.66H73.1283ZM81.6805 196.06C82.9605 194.953 83.9672 194.047 84.7005 193.34C85.4472 192.62 86.0672 191.873 86.5605 191.1C87.0538 190.327 87.3005 189.553 87.3005 188.78C87.3005 187.98 87.1072 187.353 86.7205 186.9C86.3472 186.447 85.7538 186.22 84.9405 186.22C84.1538 186.22 83.5405 186.473 83.1005 186.98C82.6738 187.473 82.4472 188.14 82.4205 188.98H80.2205C80.2605 187.46 80.7138 186.3 81.5805 185.5C82.4605 184.687 83.5738 184.28 84.9205 184.28C86.3738 184.28 87.5072 184.68 88.3205 185.48C89.1472 186.28 89.5605 187.347 89.5605 188.68C89.5605 189.64 89.3138 190.567 88.8205 191.46C88.3405 192.34 87.7605 193.133 87.0805 193.84C86.4138 194.533 85.5605 195.34 84.5205 196.26L83.6205 197.06H89.9605V198.96H80.2405V197.3L81.6805 196.06ZM93.1835 199.3C92.7701 199.3 92.4235 199.16 92.1435 198.88C91.8635 198.6 91.7235 198.253 91.7235 197.84C91.7235 197.427 91.8635 197.08 92.1435 196.8C92.4235 196.52 92.7701 196.38 93.1835 196.38C93.5835 196.38 93.9235 196.52 94.2035 196.8C94.4835 197.08 94.6235 197.427 94.6235 197.84C94.6235 198.253 94.4835 198.6 94.2035 198.88C93.9235 199.16 93.5835 199.3 93.1835 199.3ZM96.5077 196.12V194.4L103.228 184.76H105.988V194.14H107.848V196.12H105.988V199.16H103.748V196.12H96.5077ZM103.848 187.08L99.1277 194.14H103.848V187.08ZM112.577 195.2C112.71 195.867 112.997 196.373 113.437 196.72C113.877 197.067 114.47 197.24 115.217 197.24C116.164 197.24 116.857 196.867 117.297 196.12C117.737 195.373 117.957 194.1 117.957 192.3C117.637 192.753 117.184 193.107 116.597 193.36C116.024 193.6 115.397 193.72 114.717 193.72C113.85 193.72 113.064 193.547 112.357 193.2C111.65 192.84 111.09 192.313 110.677 191.62C110.277 190.913 110.077 190.06 110.077 189.06C110.077 187.593 110.504 186.427 111.357 185.56C112.224 184.68 113.41 184.24 114.917 184.24C116.73 184.24 118.017 184.847 118.777 186.06C119.55 187.26 119.937 189.107 119.937 191.6C119.937 193.32 119.79 194.727 119.497 195.82C119.217 196.913 118.724 197.74 118.017 198.3C117.31 198.86 116.33 199.14 115.077 199.14C113.65 199.14 112.55 198.767 111.777 198.02C111.004 197.273 110.57 196.333 110.477 195.2H112.577ZM115.117 191.8C115.917 191.8 116.544 191.553 116.997 191.06C117.464 190.553 117.697 189.887 117.697 189.06C117.697 188.14 117.45 187.427 116.957 186.92C116.477 186.4 115.817 186.14 114.977 186.14C114.137 186.14 113.47 186.407 112.977 186.94C112.497 187.46 112.257 188.147 112.257 189C112.257 189.813 112.49 190.487 112.957 191.02C113.437 191.54 114.157 191.8 115.117 191.8ZM122.072 188.1C122.072 187.127 122.352 186.367 122.912 185.82C123.486 185.26 124.219 184.98 125.112 184.98C126.006 184.98 126.732 185.26 127.292 185.82C127.866 186.367 128.152 187.127 128.152 188.1C128.152 189.073 127.866 189.84 127.292 190.4C126.732 190.96 126.006 191.24 125.112 191.24C124.219 191.24 123.486 190.96 122.912 190.4C122.352 189.84 122.072 189.073 122.072 188.1ZM134.272 185.24L126.292 199.16H124.052L132.032 185.24H134.272ZM125.112 186.36C124.272 186.36 123.852 186.94 123.852 188.1C123.852 189.273 124.272 189.86 125.112 189.86C125.512 189.86 125.819 189.72 126.032 189.44C126.259 189.147 126.372 188.7 126.372 188.1C126.372 186.94 125.952 186.36 125.112 186.36ZM130.212 196.28C130.212 195.307 130.492 194.547 131.052 194C131.626 193.44 132.359 193.16 133.252 193.16C134.132 193.16 134.852 193.44 135.412 194C135.986 194.547 136.272 195.307 136.272 196.28C136.272 197.253 135.986 198.02 135.412 198.58C134.852 199.14 134.132 199.42 133.252 199.42C132.359 199.42 131.626 199.14 131.052 198.58C130.492 198.02 130.212 197.253 130.212 196.28ZM133.232 194.54C132.392 194.54 131.972 195.12 131.972 196.28C131.972 197.44 132.392 198.02 133.232 198.02C134.072 198.02 134.492 197.44 134.492 196.28C134.492 195.12 134.072 194.54 133.232 194.54Z" fill="#4D9EAD"/>
</g>
<path d="M310.13 77.2542C311.267 77.2284 312.404 77.2155 313.541 77.2155V122.594C312.745 122.594 311.949 122.603 311.154 122.621L310.13 77.2542Z" fill="#7BAAF7"/>
<path d="M307.573 77.334C308.425 77.3002 309.278 77.2736 310.13 77.2542L311.154 122.621C310.557 122.635 309.96 122.653 309.364 122.677L307.573 77.334Z" fill="#F9D997"/>
<path d="M294.922 78.3728C299.123 77.8486 303.344 77.502 307.573 77.334L309.363 122.677C306.403 122.795 303.448 123.037 300.508 123.404L294.922 78.3728Z" fill="#9BB1CC"/>
<path d="M278.337 81.3949C283.805 80.0781 289.342 79.0692 294.923 78.3728L300.508 123.404C296.602 123.892 292.726 124.598 288.898 125.52L278.337 81.3949Z" fill="#F27AAA"/>
<path d="M216.325 112.842C234.273 97.6606 255.508 86.8924 278.337 81.3949L288.898 125.52C272.918 129.368 258.054 136.906 245.49 147.533L216.325 112.842Z" fill="#977DAD"/>
<path d="M163.289 215.568C166.7 175.63 185.775 138.683 216.325 112.842L245.49 147.533C224.105 165.621 210.752 191.484 208.365 219.441L163.289 215.568Z" fill="#4D9EAD"/>
<path d="M313.541 77.2155C375.709 77.2155 431.507 115.483 454.065 173.59C476.623 231.698 461.319 297.736 415.522 339.906C369.725 382.077 302.822 391.735 247.027 364.231C191.233 336.727 157.983 277.698 163.289 215.568L208.365 219.441C204.651 262.932 227.925 304.252 266.981 323.505C306.037 342.758 352.87 335.997 384.928 306.478C416.986 276.959 427.699 230.732 411.908 190.056C396.117 149.381 357.059 122.594 313.541 122.594V77.2155Z" fill="#C7A7DC"/>
<path d="M412.842 334.335C412.842 332.995 411.759 331.908 410.423 331.908C409.087 331.908 408.003 332.995 408.003 334.335C408.003 335.676 409.087 336.762 410.423 336.762C411.759 336.762 412.842 335.676 412.842 334.335Z" fill="#9E9E9E"/>
<g style="mix-blend-mode:screen">
<path d="M33.842 387.618V396.478C33.842 397.531 34.1154 398.324 34.662 398.858C35.222 399.391 35.9954 399.658 36.982 399.658C37.982 399.658 38.7554 399.391 39.302 398.858C39.862 398.324 40.142 397.531 40.142 396.478V387.618H42.422V396.438C42.422 397.571 42.1754 398.531 41.682 399.318C41.1887 400.104 40.5287 400.691 39.702 401.078C38.8754 401.464 37.962 401.658 36.962 401.658C35.962 401.658 35.0487 401.464 34.222 401.078C33.4087 400.691 32.762 400.104 32.282 399.318C31.802 398.531 31.562 397.571 31.562 396.438V387.618H33.842ZM50.9506 390.318C51.8173 390.318 52.5906 390.498 53.2706 390.858C53.964 391.218 54.504 391.751 54.8906 392.458C55.2773 393.164 55.4706 394.018 55.4706 395.018V401.518H53.2106V395.358C53.2106 394.371 52.964 393.618 52.4706 393.098C51.9773 392.564 51.304 392.298 50.4506 392.298C49.5973 392.298 48.9173 392.564 48.4106 393.098C47.9173 393.618 47.6706 394.371 47.6706 395.358V401.518H45.3906V390.498H47.6706V391.758C48.044 391.304 48.5173 390.951 49.0906 390.698C49.6773 390.444 50.2973 390.318 50.9506 390.318ZM57.6189 395.958C57.6189 394.851 57.8456 393.871 58.2989 393.018C58.7656 392.164 59.3922 391.504 60.1789 391.038C60.9789 390.558 61.8656 390.318 62.8389 390.318C63.5589 390.318 64.2656 390.478 64.9589 390.798C65.6656 391.104 66.2256 391.518 66.6389 392.038V386.718H68.9389V401.518H66.6389V399.858C66.2656 400.391 65.7456 400.831 65.0789 401.178C64.4256 401.524 63.6722 401.698 62.8189 401.698C61.8589 401.698 60.9789 401.458 60.1789 400.978C59.3922 400.484 58.7656 399.804 58.2989 398.938C57.8456 398.058 57.6189 397.064 57.6189 395.958ZM66.6389 395.998C66.6389 395.238 66.4789 394.578 66.1589 394.018C65.8522 393.458 65.4456 393.031 64.9389 392.738C64.4322 392.444 63.8856 392.298 63.2989 392.298C62.7122 392.298 62.1656 392.444 61.6589 392.738C61.1522 393.018 60.7389 393.438 60.4189 393.998C60.1122 394.544 59.9589 395.198 59.9589 395.958C59.9589 396.718 60.1122 397.384 60.4189 397.958C60.7389 398.531 61.1522 398.971 61.6589 399.278C62.1789 399.571 62.7256 399.718 63.2989 399.718C63.8856 399.718 64.4322 399.571 64.9389 399.278C65.4456 398.984 65.8522 398.558 66.1589 397.998C66.4789 397.424 66.6389 396.758 66.6389 395.998ZM82.0336 395.738C82.0336 396.151 82.0069 396.524 81.9536 396.858H73.5336C73.6003 397.738 73.9269 398.444 74.5136 398.978C75.1003 399.511 75.8203 399.778 76.6736 399.778C77.9003 399.778 78.7669 399.264 79.2736 398.238H81.7336C81.4003 399.251 80.7936 400.084 79.9136 400.738C79.0469 401.378 77.9669 401.698 76.6736 401.698C75.6203 401.698 74.6736 401.464 73.8336 400.998C73.0069 400.518 72.3536 399.851 71.8736 398.998C71.4069 398.131 71.1736 397.131 71.1736 395.998C71.1736 394.864 71.4003 393.871 71.8536 393.018C72.3203 392.151 72.9669 391.484 73.7936 391.018C74.6336 390.551 75.5936 390.318 76.6736 390.318C77.7136 390.318 78.6403 390.544 79.4536 390.998C80.2669 391.451 80.9003 392.091 81.3536 392.918C81.8069 393.731 82.0336 394.671 82.0336 395.738ZM79.6536 395.018C79.6403 394.178 79.3403 393.504 78.7536 392.998C78.1669 392.491 77.4403 392.238 76.5736 392.238C75.7869 392.238 75.1136 392.491 74.5536 392.998C73.9936 393.491 73.6603 394.164 73.5536 395.018H79.6536ZM86.5573 392.098C86.8907 391.538 87.3307 391.104 87.8773 390.798C88.4373 390.478 89.0973 390.318 89.8573 390.318V392.678H89.2773C88.384 392.678 87.704 392.904 87.2373 393.358C86.784 393.811 86.5573 394.598 86.5573 395.718V401.518H84.2773V390.498H86.5573V392.098ZM96.3931 390.318C97.2465 390.318 97.9998 390.491 98.6531 390.838C99.3198 391.171 99.8398 391.591 100.213 392.098V390.498H102.513V401.698C102.513 402.711 102.3 403.611 101.873 404.398C101.446 405.198 100.826 405.824 100.013 406.278C99.2131 406.731 98.2531 406.958 97.1331 406.958C95.6398 406.958 94.3998 406.604 93.4131 405.898C92.4265 405.204 91.8665 404.258 91.7331 403.058H93.9931C94.1665 403.631 94.5331 404.091 95.0931 404.438C95.6665 404.798 96.3465 404.978 97.1331 404.978C98.0531 404.978 98.7931 404.698 99.3531 404.138C99.9265 403.578 100.213 402.764 100.213 401.698V399.858C99.8265 400.378 99.2998 400.818 98.6331 401.178C97.9798 401.524 97.2331 401.698 96.3931 401.698C95.4331 401.698 94.5531 401.458 93.7531 400.978C92.9665 400.484 92.3398 399.804 91.8731 398.938C91.4198 398.058 91.1931 397.064 91.1931 395.958C91.1931 394.851 91.4198 393.871 91.8731 393.018C92.3398 392.164 92.9665 391.504 93.7531 391.038C94.5531 390.558 95.4331 390.318 96.3931 390.318ZM100.213 395.998C100.213 395.238 100.053 394.578 99.7331 394.018C99.4265 393.458 99.0198 393.031 98.5131 392.738C98.0065 392.444 97.4598 392.298 96.8731 392.298C96.2865 392.298 95.7398 392.444 95.2331 392.738C94.7265 393.018 94.3131 393.438 93.9931 393.998C93.6865 394.544 93.5331 395.198 93.5331 395.958C93.5331 396.718 93.6865 397.384 93.9931 397.958C94.3131 398.531 94.7265 398.971 95.2331 399.278C95.7531 399.571 96.2998 399.718 96.8731 399.718C97.4598 399.718 98.0065 399.571 98.5131 399.278C99.0198 398.984 99.4265 398.558 99.7331 397.998C100.053 397.424 100.213 396.758 100.213 395.998ZM107.788 392.098C108.121 391.538 108.561 391.104 109.108 390.798C109.668 390.478 110.328 390.318 111.088 390.318V392.678H110.508C109.614 392.678 108.934 392.904 108.468 393.358C108.014 393.811 107.788 394.598 107.788 395.718V401.518H105.508V390.498H107.788V392.098ZM112.424 395.958C112.424 394.851 112.65 393.871 113.104 393.018C113.57 392.164 114.197 391.504 114.984 391.038C115.784 390.558 116.664 390.318 117.624 390.318C118.49 390.318 119.244 390.491 119.884 390.838C120.537 391.171 121.057 391.591 121.444 392.098V390.498H123.744V401.518H121.444V399.878C121.057 400.398 120.53 400.831 119.864 401.178C119.197 401.524 118.437 401.698 117.584 401.698C116.637 401.698 115.77 401.458 114.984 400.978C114.197 400.484 113.57 399.804 113.104 398.938C112.65 398.058 112.424 397.064 112.424 395.958ZM121.444 395.998C121.444 395.238 121.284 394.578 120.964 394.018C120.657 393.458 120.25 393.031 119.744 392.738C119.237 392.444 118.69 392.298 118.104 392.298C117.517 392.298 116.97 392.444 116.464 392.738C115.957 393.018 115.544 393.438 115.224 393.998C114.917 394.544 114.764 395.198 114.764 395.958C114.764 396.718 114.917 397.384 115.224 397.958C115.544 398.531 115.957 398.971 116.464 399.278C116.984 399.571 117.53 399.718 118.104 399.718C118.69 399.718 119.237 399.571 119.744 399.278C120.25 398.984 120.657 398.558 120.964 397.998C121.284 397.424 121.444 396.758 121.444 395.998ZM125.978 395.958C125.978 394.851 126.205 393.871 126.658 393.018C127.125 392.164 127.752 391.504 128.538 391.038C129.338 390.558 130.225 390.318 131.198 390.318C131.918 390.318 132.625 390.478 133.318 390.798C134.025 391.104 134.585 391.518 134.998 392.038V386.718H137.298V401.518H134.998V399.858C134.625 400.391 134.105 400.831 133.438 401.178C132.785 401.524 132.032 401.698 131.178 401.698C130.218 401.698 129.338 401.458 128.538 400.978C127.752 400.484 127.125 399.804 126.658 398.938C126.205 398.058 125.978 397.064 125.978 395.958ZM134.998 395.998C134.998 395.238 134.838 394.578 134.518 394.018C134.212 393.458 133.805 393.031 133.298 392.738C132.792 392.444 132.245 392.298 131.658 392.298C131.072 392.298 130.525 392.444 130.018 392.738C129.512 393.018 129.098 393.438 128.778 393.998C128.472 394.544 128.318 395.198 128.318 395.958C128.318 396.718 128.472 397.384 128.778 397.958C129.098 398.531 129.512 398.971 130.018 399.278C130.538 399.571 131.085 399.718 131.658 399.718C132.245 399.718 132.792 399.571 133.298 399.278C133.805 398.984 134.212 398.558 134.518 397.998C134.838 397.424 134.998 396.758 134.998 395.998ZM150.273 390.498V401.518H147.993V400.218C147.633 400.671 147.16 401.031 146.573 401.298C146 401.551 145.386 401.678 144.733 401.678C143.866 401.678 143.086 401.498 142.393 401.138C141.713 400.778 141.173 400.244 140.773 399.538C140.386 398.831 140.193 397.978 140.193 396.978V390.498H142.453V396.638C142.453 397.624 142.7 398.384 143.193 398.918C143.686 399.438 144.36 399.698 145.213 399.698C146.066 399.698 146.74 399.438 147.233 398.918C147.74 398.384 147.993 397.624 147.993 396.638V390.498H150.273ZM152.521 395.958C152.521 394.851 152.748 393.871 153.201 393.018C153.668 392.164 154.295 391.504 155.081 391.038C155.881 390.558 156.761 390.318 157.721 390.318C158.588 390.318 159.341 390.491 159.981 390.838C160.635 391.171 161.155 391.591 161.541 392.098V390.498H163.841V401.518H161.541V399.878C161.155 400.398 160.628 400.831 159.961 401.178C159.295 401.524 158.535 401.698 157.681 401.698C156.735 401.698 155.868 401.458 155.081 400.978C154.295 400.484 153.668 399.804 153.201 398.938C152.748 398.058 152.521 397.064 152.521 395.958ZM161.541 395.998C161.541 395.238 161.381 394.578 161.061 394.018C160.755 393.458 160.348 393.031 159.841 392.738C159.335 392.444 158.788 392.298 158.201 392.298C157.615 392.298 157.068 392.444 156.561 392.738C156.055 393.018 155.641 393.438 155.321 393.998C155.015 394.544 154.861 395.198 154.861 395.958C154.861 396.718 155.015 397.384 155.321 397.958C155.641 398.531 156.055 398.971 156.561 399.278C157.081 399.571 157.628 399.718 158.201 399.718C158.788 399.718 159.335 399.571 159.841 399.278C160.348 398.984 160.755 398.558 161.061 397.998C161.381 397.424 161.541 396.758 161.541 395.998ZM169.496 392.358V398.458C169.496 398.871 169.589 399.171 169.776 399.358C169.976 399.531 170.309 399.618 170.776 399.618H172.176V401.518H170.376C169.349 401.518 168.563 401.278 168.016 400.798C167.469 400.318 167.196 399.538 167.196 398.458V392.358H165.896V390.498H167.196V387.758H169.496V390.498H172.176V392.358H169.496ZM184.377 395.738C184.377 396.151 184.351 396.524 184.297 396.858H175.877C175.944 397.738 176.271 398.444 176.857 398.978C177.444 399.511 178.164 399.778 179.017 399.778C180.244 399.778 181.111 399.264 181.617 398.238H184.077C183.744 399.251 183.137 400.084 182.257 400.738C181.391 401.378 180.311 401.698 179.017 401.698C177.964 401.698 177.017 401.464 176.177 400.998C175.351 400.518 174.697 399.851 174.217 398.998C173.751 398.131 173.517 397.131 173.517 395.998C173.517 394.864 173.744 393.871 174.197 393.018C174.664 392.151 175.311 391.484 176.137 391.018C176.977 390.551 177.937 390.318 179.017 390.318C180.057 390.318 180.984 390.544 181.797 390.998C182.611 391.451 183.244 392.091 183.697 392.918C184.151 393.731 184.377 394.671 184.377 395.738ZM181.997 395.018C181.984 394.178 181.684 393.504 181.097 392.998C180.511 392.491 179.784 392.238 178.917 392.238C178.131 392.238 177.457 392.491 176.897 392.998C176.337 393.491 176.004 394.164 175.897 395.018H181.997ZM190.621 401.698C189.754 401.698 188.974 401.544 188.281 401.238C187.601 400.918 187.061 400.491 186.661 399.958C186.261 399.411 186.048 398.804 186.021 398.138H188.381C188.421 398.604 188.641 398.998 189.041 399.318C189.454 399.624 189.968 399.778 190.581 399.778C191.221 399.778 191.714 399.658 192.061 399.418C192.421 399.164 192.601 398.844 192.601 398.458C192.601 398.044 192.401 397.738 192.001 397.538C191.614 397.338 190.994 397.118 190.141 396.878C189.314 396.651 188.641 396.431 188.121 396.218C187.601 396.004 187.148 395.678 186.761 395.238C186.388 394.798 186.201 394.218 186.201 393.498C186.201 392.911 186.374 392.378 186.721 391.898C187.068 391.404 187.561 391.018 188.201 390.738C188.854 390.458 189.601 390.318 190.441 390.318C191.694 390.318 192.701 390.638 193.461 391.278C194.234 391.904 194.648 392.764 194.701 393.858H192.421C192.381 393.364 192.181 392.971 191.821 392.678C191.461 392.384 190.974 392.238 190.361 392.238C189.761 392.238 189.301 392.351 188.981 392.578C188.661 392.804 188.501 393.104 188.501 393.478C188.501 393.771 188.608 394.018 188.821 394.218C189.034 394.418 189.294 394.578 189.601 394.698C189.908 394.804 190.361 394.944 190.961 395.118C191.761 395.331 192.414 395.551 192.921 395.778C193.441 395.991 193.888 396.311 194.261 396.738C194.634 397.164 194.828 397.731 194.841 398.438C194.841 399.064 194.668 399.624 194.321 400.118C193.974 400.611 193.481 400.998 192.841 401.278C192.214 401.558 191.474 401.698 190.621 401.698ZM142.006 418.698L136.446 431.518H134.146L139.766 418.938H132.366V416.998H142.006V418.698ZM151.798 420.318C151.651 419.704 151.384 419.244 150.998 418.938C150.611 418.631 150.071 418.478 149.378 418.478C148.324 418.478 147.538 418.884 147.018 419.698C146.498 420.498 146.224 421.831 146.198 423.698C146.544 423.111 147.051 422.658 147.718 422.338C148.384 422.018 149.104 421.858 149.878 421.858C150.758 421.858 151.531 422.051 152.198 422.438C152.878 422.811 153.404 423.358 153.778 424.078C154.164 424.798 154.358 425.658 154.358 426.658C154.358 427.591 154.171 428.424 153.798 429.158C153.438 429.891 152.898 430.471 152.178 430.898C151.458 431.311 150.591 431.518 149.578 431.518C148.204 431.518 147.124 431.218 146.338 430.618C145.564 430.004 145.018 429.144 144.698 428.038C144.391 426.931 144.238 425.551 144.238 423.898C144.238 419.018 145.958 416.578 149.398 416.578C150.731 416.578 151.778 416.938 152.538 417.658C153.311 418.378 153.764 419.264 153.898 420.318H151.798ZM149.378 423.778C148.564 423.778 147.871 424.024 147.298 424.518C146.738 424.998 146.458 425.698 146.458 426.618C146.458 427.538 146.718 428.271 147.238 428.818C147.771 429.351 148.511 429.618 149.458 429.618C150.298 429.618 150.958 429.358 151.438 428.838C151.931 428.318 152.178 427.624 152.178 426.758C152.178 425.851 151.938 425.131 151.458 424.598C150.991 424.051 150.298 423.778 149.378 423.778ZM158.01 431.658C157.597 431.658 157.25 431.518 156.97 431.238C156.69 430.958 156.55 430.611 156.55 430.198C156.55 429.784 156.69 429.438 156.97 429.158C157.25 428.878 157.597 428.738 158.01 428.738C158.41 428.738 158.75 428.878 159.03 429.158C159.31 429.438 159.45 429.784 159.45 430.198C159.45 430.611 159.31 430.958 159.03 431.238C158.75 431.518 158.41 431.658 158.01 431.658ZM161.574 420.538C161.654 419.298 162.127 418.331 162.994 417.638C163.874 416.944 164.994 416.598 166.354 416.598C167.287 416.598 168.094 416.764 168.774 417.098C169.454 417.431 169.967 417.884 170.314 418.458C170.661 419.031 170.834 419.678 170.834 420.398C170.834 421.224 170.614 421.931 170.174 422.518C169.734 423.104 169.207 423.498 168.594 423.698V423.778C169.381 424.018 169.994 424.458 170.434 425.098C170.874 425.724 171.094 426.531 171.094 427.518C171.094 428.304 170.914 429.004 170.554 429.618C170.194 430.231 169.661 430.718 168.954 431.078C168.247 431.424 167.401 431.598 166.414 431.598C164.974 431.598 163.787 431.231 162.854 430.498C161.934 429.751 161.441 428.684 161.374 427.298H163.574C163.627 428.004 163.901 428.584 164.394 429.038C164.887 429.478 165.554 429.698 166.394 429.698C167.207 429.698 167.834 429.478 168.274 429.038C168.714 428.584 168.934 428.004 168.934 427.298C168.934 426.364 168.634 425.704 168.034 425.318C167.447 424.918 166.541 424.718 165.314 424.718H164.794V422.838H165.334C166.414 422.824 167.234 422.644 167.794 422.298C168.367 421.951 168.654 421.404 168.654 420.658C168.654 420.018 168.447 419.511 168.034 419.138C167.621 418.751 167.034 418.558 166.274 418.558C165.527 418.558 164.947 418.751 164.534 419.138C164.121 419.511 163.874 419.978 163.794 420.538H161.574ZM181.329 420.318C181.182 419.704 180.916 419.244 180.529 418.938C180.142 418.631 179.602 418.478 178.909 418.478C177.856 418.478 177.069 418.884 176.549 419.698C176.029 420.498 175.756 421.831 175.729 423.698C176.076 423.111 176.582 422.658 177.249 422.338C177.916 422.018 178.636 421.858 179.409 421.858C180.289 421.858 181.062 422.051 181.729 422.438C182.409 422.811 182.936 423.358 183.309 424.078C183.696 424.798 183.889 425.658 183.889 426.658C183.889 427.591 183.702 428.424 183.329 429.158C182.969 429.891 182.429 430.471 181.709 430.898C180.989 431.311 180.122 431.518 179.109 431.518C177.736 431.518 176.656 431.218 175.869 430.618C175.096 430.004 174.549 429.144 174.229 428.038C173.922 426.931 173.769 425.551 173.769 423.898C173.769 419.018 175.489 416.578 178.929 416.578C180.262 416.578 181.309 416.938 182.069 417.658C182.842 418.378 183.296 419.264 183.429 420.318H181.329ZM178.909 423.778C178.096 423.778 177.402 424.024 176.829 424.518C176.269 424.998 175.989 425.698 175.989 426.618C175.989 427.538 176.249 428.271 176.769 428.818C177.302 429.351 178.042 429.618 178.989 429.618C179.829 429.618 180.489 429.358 180.969 428.838C181.462 428.318 181.709 427.624 181.709 426.758C181.709 425.851 181.469 425.131 180.989 424.598C180.522 424.051 179.829 423.778 178.909 423.778ZM185.961 420.458C185.961 419.484 186.241 418.724 186.801 418.178C187.374 417.618 188.108 417.338 189.001 417.338C189.894 417.338 190.621 417.618 191.181 418.178C191.754 418.724 192.041 419.484 192.041 420.458C192.041 421.431 191.754 422.198 191.181 422.758C190.621 423.318 189.894 423.598 189.001 423.598C188.108 423.598 187.374 423.318 186.801 422.758C186.241 422.198 185.961 421.431 185.961 420.458ZM198.161 417.598L190.181 431.518H187.941L195.921 417.598H198.161ZM189.001 418.718C188.161 418.718 187.741 419.298 187.741 420.458C187.741 421.631 188.161 422.218 189.001 422.218C189.401 422.218 189.708 422.078 189.921 421.798C190.148 421.504 190.261 421.058 190.261 420.458C190.261 419.298 189.841 418.718 189.001 418.718ZM194.101 428.638C194.101 427.664 194.381 426.904 194.941 426.358C195.514 425.798 196.248 425.518 197.141 425.518C198.021 425.518 198.741 425.798 199.301 426.358C199.874 426.904 200.161 427.664 200.161 428.638C200.161 429.611 199.874 430.378 199.301 430.938C198.741 431.498 198.021 431.778 197.141 431.778C196.248 431.778 195.514 431.498 194.941 430.938C194.381 430.378 194.101 429.611 194.101 428.638ZM197.121 426.898C196.281 426.898 195.861 427.478 195.861 428.638C195.861 429.798 196.281 430.378 197.121 430.378C197.961 430.378 198.381 429.798 198.381 428.638C198.381 427.478 197.961 426.898 197.121 426.898Z" fill="#C695BB"/>
</g>
<g style="mix-blend-mode:screen">
<path d="M60.5121 66.073C60.1521 65.3797 59.6521 64.8597 59.0121 64.513C58.3721 64.153 57.6321 63.973 56.7921 63.973C55.8721 63.973 55.0521 64.1797 54.3321 64.593C53.6121 65.0064 53.0455 65.593 52.6321 66.353C52.2321 67.113 52.0321 67.993 52.0321 68.993C52.0321 69.993 52.2321 70.8797 52.6321 71.653C53.0455 72.413 53.6121 72.9997 54.3321 73.413C55.0521 73.8264 55.8721 74.033 56.7921 74.033C58.0321 74.033 59.0388 73.6864 59.8121 72.993C60.5855 72.2997 61.0588 71.3597 61.2321 70.173H56.0121V68.353H63.6721V70.133C63.5255 71.213 63.1388 72.2064 62.5121 73.113C61.8988 74.0197 61.0921 74.7464 60.0921 75.293C59.1055 75.8264 58.0055 76.093 56.7921 76.093C55.4855 76.093 54.2921 75.793 53.2121 75.193C52.1321 74.5797 51.2721 73.733 50.6321 72.653C50.0055 71.573 49.6921 70.353 49.6921 68.993C49.6921 67.633 50.0055 66.413 50.6321 65.333C51.2721 64.253 52.1321 63.413 53.2121 62.813C54.3055 62.1997 55.4988 61.893 56.7921 61.893C58.2721 61.893 59.5855 62.2597 60.7321 62.993C61.8921 63.713 62.7321 64.7397 63.2521 66.073H60.5121ZM68.2009 66.553C68.5342 65.993 68.9742 65.5597 69.5209 65.253C70.0809 64.933 70.7409 64.773 71.5009 64.773V67.133H70.9209C70.0275 67.133 69.3475 67.3597 68.8809 67.813C68.4275 68.2664 68.2009 69.053 68.2009 70.173V75.973H65.9209V64.953H68.2009V66.553ZM72.8366 70.413C72.8366 69.3064 73.0633 68.3264 73.5166 67.473C73.9833 66.6197 74.61 65.9597 75.3966 65.493C76.1966 65.013 77.0766 64.773 78.0366 64.773C78.9033 64.773 79.6566 64.9464 80.2966 65.293C80.95 65.6264 81.47 66.0464 81.8566 66.553V64.953H84.1567V75.973H81.8566V74.333C81.47 74.853 80.9433 75.2864 80.2766 75.633C79.61 75.9797 78.85 76.153 77.9966 76.153C77.05 76.153 76.1833 75.913 75.3966 75.433C74.61 74.9397 73.9833 74.2597 73.5166 73.393C73.0633 72.513 72.8366 71.5197 72.8366 70.413ZM81.8566 70.453C81.8566 69.693 81.6966 69.033 81.3766 68.473C81.07 67.913 80.6633 67.4864 80.1566 67.193C79.65 66.8997 79.1033 66.753 78.5166 66.753C77.93 66.753 77.3833 66.8997 76.8766 67.193C76.37 67.473 75.9566 67.893 75.6366 68.453C75.33 68.9997 75.1766 69.653 75.1766 70.413C75.1766 71.173 75.33 71.8397 75.6366 72.413C75.9566 72.9864 76.37 73.4264 76.8766 73.733C77.3966 74.0264 77.9433 74.173 78.5166 74.173C79.1033 74.173 79.65 74.0264 80.1566 73.733C80.6633 73.4397 81.07 73.013 81.3766 72.453C81.6966 71.8797 81.8566 71.213 81.8566 70.453ZM86.3913 70.413C86.3913 69.3064 86.618 68.3264 87.0713 67.473C87.538 66.6197 88.1647 65.9597 88.9513 65.493C89.7513 65.013 90.638 64.773 91.6113 64.773C92.3313 64.773 93.038 64.933 93.7313 65.253C94.438 65.5597 94.998 65.973 95.4113 66.493V61.173H97.7113V75.973H95.4113V74.313C95.038 74.8464 94.518 75.2864 93.8513 75.633C93.198 75.9797 92.4447 76.153 91.5913 76.153C90.6313 76.153 89.7513 75.913 88.9513 75.433C88.1647 74.9397 87.538 74.2597 87.0713 73.393C86.618 72.513 86.3913 71.5197 86.3913 70.413ZM95.4113 70.453C95.4113 69.693 95.2513 69.033 94.9313 68.473C94.6247 67.913 94.218 67.4864 93.7113 67.193C93.2047 66.8997 92.658 66.753 92.0713 66.753C91.4847 66.753 90.938 66.8997 90.4313 67.193C89.9247 67.473 89.5113 67.893 89.1913 68.453C88.8847 68.9997 88.7313 69.653 88.7313 70.413C88.7313 71.173 88.8847 71.8397 89.1913 72.413C89.5113 72.9864 89.9247 73.4264 90.4313 73.733C90.9513 74.0264 91.498 74.173 92.0713 74.173C92.658 74.173 93.2047 74.0264 93.7113 73.733C94.218 73.4397 94.6247 73.013 94.9313 72.453C95.2513 71.8797 95.4113 71.213 95.4113 70.453ZM110.481 76.113C109.548 76.113 108.708 75.953 107.961 75.633C107.215 75.2997 106.628 74.833 106.201 74.233C105.775 73.633 105.561 72.933 105.561 72.133H108.001C108.055 72.733 108.288 73.2264 108.701 73.613C109.128 73.9997 109.721 74.193 110.481 74.193C111.268 74.193 111.881 74.0064 112.321 73.633C112.761 73.2464 112.981 72.753 112.981 72.153C112.981 71.6864 112.841 71.3064 112.561 71.013C112.295 70.7197 111.955 70.493 111.541 70.333C111.141 70.173 110.581 69.9997 109.861 69.813C108.955 69.573 108.215 69.333 107.641 69.093C107.081 68.8397 106.601 68.453 106.201 67.933C105.801 67.413 105.601 66.7197 105.601 65.853C105.601 65.053 105.801 64.353 106.201 63.753C106.601 63.153 107.161 62.693 107.881 62.373C108.601 62.053 109.435 61.893 110.381 61.893C111.728 61.893 112.828 62.233 113.681 62.913C114.548 63.5797 115.028 64.4997 115.121 65.673H112.601C112.561 65.1664 112.321 64.733 111.881 64.373C111.441 64.013 110.861 63.833 110.141 63.833C109.488 63.833 108.955 63.9997 108.541 64.333C108.128 64.6664 107.921 65.1464 107.921 65.773C107.921 66.1997 108.048 66.553 108.301 66.833C108.568 67.0997 108.901 67.313 109.301 67.473C109.701 67.633 110.248 67.8064 110.941 67.993C111.861 68.2464 112.608 68.4997 113.181 68.753C113.768 69.0064 114.261 69.3997 114.661 69.933C115.075 70.453 115.281 71.153 115.281 72.033C115.281 72.7397 115.088 73.4064 114.701 74.033C114.328 74.6597 113.775 75.1664 113.041 75.553C112.321 75.9264 111.468 76.113 110.481 76.113ZM120.632 66.813V72.913C120.632 73.3264 120.725 73.6264 120.912 73.813C121.112 73.9864 121.445 74.073 121.912 74.073H123.312V75.973H121.512C120.485 75.973 119.698 75.733 119.152 75.253C118.605 74.773 118.332 73.993 118.332 72.913V66.813H117.032V64.953H118.332V62.213H120.632V64.953H123.312V66.813H120.632ZM135.393 64.953V75.973H133.113V74.673C132.753 75.1264 132.28 75.4864 131.693 75.753C131.12 76.0064 130.506 76.133 129.853 76.133C128.986 76.133 128.206 75.953 127.513 75.593C126.833 75.233 126.293 74.6997 125.893 73.993C125.506 73.2864 125.313 72.433 125.313 71.433V64.953H127.573V71.093C127.573 72.0797 127.82 72.8397 128.313 73.373C128.806 73.893 129.48 74.153 130.333 74.153C131.186 74.153 131.86 73.893 132.353 73.373C132.86 72.8397 133.113 72.0797 133.113 71.093V64.953H135.393ZM137.641 70.413C137.641 69.3064 137.868 68.3264 138.321 67.473C138.788 66.6197 139.415 65.9597 140.201 65.493C141.001 65.013 141.888 64.773 142.861 64.773C143.581 64.773 144.288 64.933 144.981 65.253C145.688 65.5597 146.248 65.973 146.661 66.493V61.173H148.961V75.973H146.661V74.313C146.288 74.8464 145.768 75.2864 145.101 75.633C144.448 75.9797 143.695 76.153 142.841 76.153C141.881 76.153 141.001 75.913 140.201 75.433C139.415 74.9397 138.788 74.2597 138.321 73.393C137.868 72.513 137.641 71.5197 137.641 70.413ZM146.661 70.453C146.661 69.693 146.501 69.033 146.181 68.473C145.875 67.913 145.468 67.4864 144.961 67.193C144.455 66.8997 143.908 66.753 143.321 66.753C142.735 66.753 142.188 66.8997 141.681 67.193C141.175 67.473 140.761 67.893 140.441 68.453C140.135 68.9997 139.981 69.653 139.981 70.413C139.981 71.173 140.135 71.8397 140.441 72.413C140.761 72.9864 141.175 73.4264 141.681 73.733C142.201 74.0264 142.748 74.173 143.321 74.173C143.908 74.173 144.455 74.0264 144.961 73.733C145.468 73.4397 145.875 73.013 146.181 72.453C146.501 71.8797 146.661 71.213 146.661 70.453ZM162.056 70.193C162.056 70.6064 162.029 70.9797 161.976 71.313H153.556C153.623 72.193 153.949 72.8997 154.536 73.433C155.123 73.9664 155.843 74.233 156.696 74.233C157.923 74.233 158.789 73.7197 159.296 72.693H161.756C161.423 73.7064 160.816 74.5397 159.936 75.193C159.069 75.833 157.989 76.153 156.696 76.153C155.643 76.153 154.696 75.9197 153.856 75.453C153.029 74.973 152.376 74.3064 151.896 73.453C151.429 72.5864 151.196 71.5864 151.196 70.453C151.196 69.3197 151.423 68.3264 151.876 67.473C152.343 66.6064 152.989 65.9397 153.816 65.473C154.656 65.0064 155.616 64.773 156.696 64.773C157.736 64.773 158.663 64.9997 159.476 65.453C160.289 65.9064 160.923 66.5464 161.376 67.373C161.829 68.1864 162.056 69.1264 162.056 70.193ZM159.676 69.473C159.663 68.633 159.363 67.9597 158.776 67.453C158.189 66.9464 157.463 66.693 156.596 66.693C155.809 66.693 155.136 66.9464 154.576 67.453C154.016 67.9464 153.683 68.6197 153.576 69.473H159.676ZM169.86 64.773C170.726 64.773 171.5 64.953 172.18 65.313C172.873 65.673 173.413 66.2064 173.8 66.913C174.186 67.6197 174.38 68.473 174.38 69.473V75.973H172.12V69.813C172.12 68.8264 171.873 68.073 171.38 67.553C170.886 67.0197 170.213 66.753 169.36 66.753C168.506 66.753 167.826 67.0197 167.32 67.553C166.826 68.073 166.58 68.8264 166.58 69.813V75.973H164.3V64.953H166.58V66.213C166.953 65.7597 167.426 65.4064 168 65.153C168.586 64.8997 169.206 64.773 169.86 64.773ZM179.948 66.813V72.913C179.948 73.3264 180.041 73.6264 180.228 73.813C180.428 73.9864 180.761 74.073 181.228 74.073H182.628V75.973H180.828C179.801 75.973 179.015 75.733 178.468 75.253C177.921 74.773 177.648 73.993 177.648 72.913V66.813H176.348V64.953H177.648V62.213H179.948V64.953H182.628V66.813H179.948ZM188.729 76.153C187.863 76.153 187.083 75.9997 186.389 75.693C185.709 75.373 185.169 74.9464 184.769 74.413C184.369 73.8664 184.156 73.2597 184.129 72.593H186.489C186.529 73.0597 186.749 73.453 187.149 73.773C187.563 74.0797 188.076 74.233 188.689 74.233C189.329 74.233 189.823 74.113 190.169 73.873C190.529 73.6197 190.709 73.2997 190.709 72.913C190.709 72.4997 190.509 72.193 190.109 71.993C189.723 71.793 189.103 71.573 188.249 71.333C187.423 71.1064 186.749 70.8864 186.229 70.673C185.709 70.4597 185.256 70.133 184.869 69.693C184.496 69.253 184.309 68.673 184.309 67.953C184.309 67.3664 184.483 66.833 184.829 66.353C185.176 65.8597 185.669 65.473 186.309 65.193C186.963 64.913 187.709 64.773 188.549 64.773C189.803 64.773 190.809 65.093 191.569 65.733C192.343 66.3597 192.756 67.2197 192.809 68.313H190.529C190.489 67.8197 190.289 67.4264 189.929 67.133C189.569 66.8397 189.083 66.693 188.469 66.693C187.869 66.693 187.409 66.8064 187.089 67.033C186.769 67.2597 186.609 67.5597 186.609 67.933C186.609 68.2264 186.716 68.473 186.929 68.673C187.143 68.873 187.403 69.033 187.709 69.153C188.016 69.2597 188.469 69.3997 189.069 69.573C189.869 69.7864 190.523 70.0064 191.029 70.233C191.549 70.4464 191.996 70.7664 192.369 71.193C192.743 71.6197 192.936 72.1864 192.949 72.893C192.949 73.5197 192.776 74.0797 192.429 74.573C192.083 75.0664 191.589 75.453 190.949 75.733C190.323 76.013 189.583 76.153 188.729 76.153ZM197.913 73.233L195.493 78.753H194.013L195.433 73.233H197.913ZM164.001 93.153L158.441 105.973H156.141L161.761 93.393H154.361V91.453H164.001V93.153ZM167.173 106.113C166.76 106.113 166.413 105.973 166.133 105.693C165.853 105.413 165.713 105.066 165.713 104.653C165.713 104.24 165.853 103.893 166.133 103.613C166.413 103.333 166.76 103.193 167.173 103.193C167.573 103.193 167.913 103.333 168.193 103.613C168.473 103.893 168.613 104.24 168.613 104.653C168.613 105.066 168.473 105.413 168.193 105.693C167.913 105.973 167.573 106.113 167.173 106.113ZM170.497 102.933V101.213L177.217 91.573H179.977V100.953H181.837V102.933H179.977V105.973H177.737V102.933H170.497ZM177.837 93.893L173.117 100.953H177.837V93.893ZM183.366 94.913C183.366 93.9397 183.646 93.1797 184.206 92.633C184.78 92.073 185.513 91.793 186.406 91.793C187.3 91.793 188.026 92.073 188.586 92.633C189.16 93.1797 189.446 93.9397 189.446 94.913C189.446 95.8864 189.16 96.653 188.586 97.213C188.026 97.773 187.3 98.053 186.406 98.053C185.513 98.053 184.78 97.773 184.206 97.213C183.646 96.653 183.366 95.8864 183.366 94.913ZM195.566 92.053L187.586 105.973H185.346L193.326 92.053H195.566ZM186.406 93.173C185.566 93.173 185.146 93.753 185.146 94.913C185.146 96.0864 185.566 96.673 186.406 96.673C186.806 96.673 187.113 96.533 187.326 96.253C187.553 95.9597 187.666 95.513 187.666 94.913C187.666 93.753 187.246 93.173 186.406 93.173ZM191.506 103.093C191.506 102.12 191.786 101.36 192.346 100.813C192.92 100.253 193.653 99.973 194.546 99.973C195.426 99.973 196.146 100.253 196.706 100.813C197.28 101.36 197.566 102.12 197.566 103.093C197.566 104.066 197.28 104.833 196.706 105.393C196.146 105.953 195.426 106.233 194.546 106.233C193.653 106.233 192.92 105.953 192.346 105.393C191.786 104.833 191.506 104.066 191.506 103.093ZM194.526 101.353C193.686 101.353 193.266 101.933 193.266 103.093C193.266 104.253 193.686 104.833 194.526 104.833C195.366 104.833 195.786 104.253 195.786 103.093C195.786 101.933 195.366 101.353 194.526 101.353Z" fill="#977DAD"/>
</g>
<g style="mix-blend-mode:screen">
<path d="M91.72 33.9026L88.52 28.3426H86.78V33.9026H84.5V20.0026H89.3C90.3667 20.0026 91.2667 20.1893 92 20.5626C92.7467 20.936 93.3 21.436 93.66 22.0626C94.0333 22.6893 94.22 23.3893 94.22 24.1626C94.22 25.0693 93.9533 25.896 93.42 26.6426C92.9 27.376 92.0933 27.876 91 28.1426L94.44 33.9026H91.72ZM86.78 26.5226H89.3C90.1533 26.5226 90.7933 26.3093 91.22 25.8826C91.66 25.456 91.88 24.8826 91.88 24.1626C91.88 23.4426 91.6667 22.8826 91.24 22.4826C90.8133 22.0693 90.1667 21.8626 89.3 21.8626H86.78V26.5226ZM107.237 28.1226C107.237 28.536 107.21 28.9093 107.157 29.2426H98.7367C98.8034 30.1226 99.1301 30.8293 99.7167 31.3626C100.303 31.896 101.023 32.1626 101.877 32.1626C103.103 32.1626 103.97 31.6493 104.477 30.6226H106.937C106.603 31.636 105.997 32.4693 105.117 33.1226C104.25 33.7626 103.17 34.0826 101.877 34.0826C100.823 34.0826 99.8767 33.8493 99.0367 33.3826C98.2101 32.9026 97.5567 32.236 97.0767 31.3826C96.6101 30.516 96.3767 29.516 96.3767 28.3826C96.3767 27.2493 96.6034 26.256 97.0567 25.4026C97.5234 24.536 98.1701 23.8693 98.9967 23.4026C99.8367 22.936 100.797 22.7026 101.877 22.7026C102.917 22.7026 103.843 22.9293 104.657 23.3826C105.47 23.836 106.103 24.476 106.557 25.3026C107.01 26.116 107.237 27.056 107.237 28.1226ZM104.857 27.4026C104.843 26.5626 104.543 25.8893 103.957 25.3826C103.37 24.876 102.643 24.6226 101.777 24.6226C100.99 24.6226 100.317 24.876 99.7567 25.3826C99.1967 25.876 98.8634 26.5493 98.7567 27.4026H104.857ZM108.72 28.3826C108.72 27.2493 108.947 26.256 109.4 25.4026C109.867 24.536 110.507 23.8693 111.32 23.4026C112.134 22.936 113.067 22.7026 114.12 22.7026C115.454 22.7026 116.554 23.0226 117.42 23.6626C118.3 24.2893 118.894 25.1893 119.2 26.3626H116.74C116.54 25.816 116.22 25.3893 115.78 25.0826C115.34 24.776 114.787 24.6226 114.12 24.6226C113.187 24.6226 112.44 24.956 111.88 25.6226C111.334 26.276 111.06 27.196 111.06 28.3826C111.06 29.5693 111.334 30.496 111.88 31.1626C112.44 31.8293 113.187 32.1626 114.12 32.1626C115.44 32.1626 116.314 31.5826 116.74 30.4226H119.2C118.88 31.5426 118.28 32.436 117.4 33.1026C116.52 33.756 115.427 34.0826 114.12 34.0826C113.067 34.0826 112.134 33.8493 111.32 33.3826C110.507 32.9026 109.867 32.236 109.4 31.3826C108.947 30.516 108.72 29.516 108.72 28.3826ZM131.573 28.1226C131.573 28.536 131.546 28.9093 131.493 29.2426H123.073C123.139 30.1226 123.466 30.8293 124.053 31.3626C124.639 31.896 125.359 32.1626 126.213 32.1626C127.439 32.1626 128.306 31.6493 128.813 30.6226H131.273C130.939 31.636 130.333 32.4693 129.453 33.1226C128.586 33.7626 127.506 34.0826 126.213 34.0826C125.159 34.0826 124.213 33.8493 123.373 33.3826C122.546 32.9026 121.893 32.236 121.413 31.3826C120.946 30.516 120.713 29.516 120.713 28.3826C120.713 27.2493 120.939 26.256 121.393 25.4026C121.859 24.536 122.506 23.8693 123.333 23.4026C124.173 22.936 125.133 22.7026 126.213 22.7026C127.253 22.7026 128.179 22.9293 128.993 23.3826C129.806 23.836 130.439 24.476 130.893 25.3026C131.346 26.116 131.573 27.056 131.573 28.1226ZM129.193 27.4026C129.179 26.5626 128.879 25.8893 128.293 25.3826C127.706 24.876 126.979 24.6226 126.113 24.6226C125.326 24.6226 124.653 24.876 124.093 25.3826C123.533 25.876 123.199 26.5493 123.093 27.4026H129.193ZM139.376 22.7026C140.243 22.7026 141.016 22.8826 141.696 23.2426C142.39 23.6026 142.93 24.136 143.316 24.8426C143.703 25.5493 143.896 26.4026 143.896 27.4026V33.9026H141.636V27.7426C141.636 26.756 141.39 26.0026 140.896 25.4826C140.403 24.9493 139.73 24.6826 138.876 24.6826C138.023 24.6826 137.343 24.9493 136.836 25.4826C136.343 26.0026 136.096 26.756 136.096 27.7426V33.9026H133.816V22.8826H136.096V24.1426C136.47 23.6893 136.943 23.336 137.516 23.0826C138.103 22.8293 138.723 22.7026 139.376 22.7026ZM149.465 24.7426V30.8426C149.465 31.256 149.558 31.556 149.745 31.7426C149.945 31.916 150.278 32.0026 150.745 32.0026H152.145V33.9026H150.345C149.318 33.9026 148.531 33.6626 147.985 33.1826C147.438 32.7026 147.165 31.9226 147.165 30.8426V24.7426H145.865V22.8826H147.165V20.1426H149.465V22.8826H152.145V24.7426H149.465ZM169.501 24.0026C169.141 23.3093 168.641 22.7893 168.001 22.4426C167.361 22.0826 166.621 21.9026 165.781 21.9026C164.861 21.9026 164.041 22.1093 163.321 22.5226C162.601 22.936 162.035 23.5226 161.621 24.2826C161.221 25.0426 161.021 25.9226 161.021 26.9226C161.021 27.9226 161.221 28.8093 161.621 29.5826C162.035 30.3426 162.601 30.9293 163.321 31.3426C164.041 31.756 164.861 31.9626 165.781 31.9626C167.021 31.9626 168.028 31.616 168.801 30.9226C169.575 30.2293 170.048 29.2893 170.221 28.1026H165.001V26.2826H172.661V28.0626C172.515 29.1426 172.128 30.136 171.501 31.0426C170.888 31.9493 170.081 32.676 169.081 33.2226C168.095 33.756 166.995 34.0226 165.781 34.0226C164.475 34.0226 163.281 33.7226 162.201 33.1226C161.121 32.5093 160.261 31.6626 159.621 30.5826C158.995 29.5026 158.681 28.2826 158.681 26.9226C158.681 25.5626 158.995 24.3426 159.621 23.2626C160.261 22.1826 161.121 21.3426 162.201 20.7426C163.295 20.1293 164.488 19.8226 165.781 19.8226C167.261 19.8226 168.575 20.1893 169.721 20.9226C170.881 21.6426 171.721 22.6693 172.241 24.0026H169.501ZM177.19 24.4826C177.523 23.9226 177.963 23.4893 178.51 23.1826C179.07 22.8626 179.73 22.7026 180.49 22.7026V25.0626H179.91C179.017 25.0626 178.337 25.2893 177.87 25.7426C177.417 26.196 177.19 26.9826 177.19 28.1026V33.9026H174.91V22.8826H177.19V24.4826ZM181.826 28.3426C181.826 27.236 182.053 26.256 182.506 25.4026C182.973 24.5493 183.599 23.8893 184.386 23.4226C185.186 22.9426 186.066 22.7026 187.026 22.7026C187.893 22.7026 188.646 22.876 189.286 23.2226C189.939 23.556 190.459 23.976 190.846 24.4826V22.8826H193.146V33.9026H190.846V32.2626C190.459 32.7826 189.933 33.216 189.266 33.5626C188.599 33.9093 187.839 34.0826 186.986 34.0826C186.039 34.0826 185.173 33.8426 184.386 33.3626C183.599 32.8693 182.973 32.1893 182.506 31.3226C182.053 30.4426 181.826 29.4493 181.826 28.3426ZM190.846 28.3826C190.846 27.6226 190.686 26.9626 190.366 26.4026C190.059 25.8426 189.653 25.416 189.146 25.1226C188.639 24.8293 188.093 24.6826 187.506 24.6826C186.919 24.6826 186.373 24.8293 185.866 25.1226C185.359 25.4026 184.946 25.8226 184.626 26.3826C184.319 26.9293 184.166 27.5826 184.166 28.3426C184.166 29.1026 184.319 29.7693 184.626 30.3426C184.946 30.916 185.359 31.356 185.866 31.6626C186.386 31.956 186.933 32.1026 187.506 32.1026C188.093 32.1026 188.639 31.956 189.146 31.6626C189.653 31.3693 190.059 30.9426 190.366 30.3826C190.686 29.8093 190.846 29.1426 190.846 28.3826ZM195.381 28.3426C195.381 27.236 195.607 26.256 196.061 25.4026C196.527 24.5493 197.154 23.8893 197.941 23.4226C198.741 22.9426 199.627 22.7026 200.601 22.7026C201.321 22.7026 202.027 22.8626 202.721 23.1826C203.427 23.4893 203.987 23.9026 204.401 24.4226V19.1026H206.701V33.9026H204.401V32.2426C204.027 32.776 203.507 33.216 202.841 33.5626C202.187 33.9093 201.434 34.0826 200.581 34.0826C199.621 34.0826 198.741 33.8426 197.941 33.3626C197.154 32.8693 196.527 32.1893 196.061 31.3226C195.607 30.4426 195.381 29.4493 195.381 28.3426ZM204.401 28.3826C204.401 27.6226 204.241 26.9626 203.921 26.4026C203.614 25.8426 203.207 25.416 202.701 25.1226C202.194 24.8293 201.647 24.6826 201.061 24.6826C200.474 24.6826 199.927 24.8293 199.421 25.1226C198.914 25.4026 198.501 25.8226 198.181 26.3826C197.874 26.9293 197.721 27.5826 197.721 28.3426C197.721 29.1026 197.874 29.7693 198.181 30.3426C198.501 30.916 198.914 31.356 199.421 31.6626C199.941 31.956 200.487 32.1026 201.061 32.1026C201.647 32.1026 202.194 31.956 202.701 31.6626C203.207 31.3693 203.614 30.9426 203.921 30.3826C204.241 29.8093 204.401 29.1426 204.401 28.3826ZM213.695 34.0826C212.829 34.0826 212.049 33.9293 211.355 33.6226C210.675 33.3026 210.135 32.876 209.735 32.3426C209.335 31.796 209.122 31.1893 209.095 30.5226H211.455C211.495 30.9893 211.715 31.3826 212.115 31.7026C212.529 32.0093 213.042 32.1626 213.655 32.1626C214.295 32.1626 214.789 32.0426 215.135 31.8026C215.495 31.5493 215.675 31.2293 215.675 30.8426C215.675 30.4293 215.475 30.1226 215.075 29.9226C214.689 29.7226 214.069 29.5026 213.215 29.2626C212.389 29.036 211.715 28.816 211.195 28.6026C210.675 28.3893 210.222 28.0626 209.835 27.6226C209.462 27.1826 209.275 26.6026 209.275 25.8826C209.275 25.296 209.449 24.7626 209.795 24.2826C210.142 23.7893 210.635 23.4026 211.275 23.1226C211.929 22.8426 212.675 22.7026 213.515 22.7026C214.769 22.7026 215.775 23.0226 216.535 23.6626C217.309 24.2893 217.722 25.1493 217.775 26.2426H215.495C215.455 25.7493 215.255 25.356 214.895 25.0626C214.535 24.7693 214.049 24.6226 213.435 24.6226C212.835 24.6226 212.375 24.736 212.055 24.9626C211.735 25.1893 211.575 25.4893 211.575 25.8626C211.575 26.156 211.682 26.4026 211.895 26.6026C212.109 26.8026 212.369 26.9626 212.675 27.0826C212.982 27.1893 213.435 27.3293 214.035 27.5026C214.835 27.716 215.489 27.936 215.995 28.1626C216.515 28.376 216.962 28.696 217.335 29.1226C217.709 29.5493 217.902 30.116 217.915 30.8226C217.915 31.4493 217.742 32.0093 217.395 32.5026C217.049 32.996 216.555 33.3826 215.915 33.6626C215.289 33.9426 214.549 34.0826 213.695 34.0826ZM222.879 31.1626L220.459 36.6826H218.979L220.399 31.1626H222.879ZM229.466 21.4026V19.3226H233.626V33.9026H231.326V21.4026H229.466ZM237.979 34.0426C237.565 34.0426 237.219 33.9026 236.939 33.6226C236.659 33.3426 236.519 32.996 236.519 32.5826C236.519 32.1693 236.659 31.8226 236.939 31.5426C237.219 31.2626 237.565 31.1226 237.979 31.1226C238.379 31.1226 238.719 31.2626 238.999 31.5426C239.279 31.8226 239.419 32.1693 239.419 32.5826C239.419 32.996 239.279 33.3426 238.999 33.6226C238.719 33.9026 238.379 34.0426 237.979 34.0426ZM244.043 26.2826C242.656 25.5893 241.963 24.496 241.963 23.0026C241.963 22.2826 242.143 21.6226 242.503 21.0226C242.863 20.4226 243.403 19.9493 244.123 19.6026C244.843 19.2426 245.723 19.0626 246.763 19.0626C247.789 19.0626 248.663 19.2426 249.383 19.6026C250.116 19.9493 250.663 20.4226 251.023 21.0226C251.383 21.6226 251.563 22.2826 251.563 23.0026C251.563 23.7493 251.369 24.4093 250.983 24.9826C250.609 25.5426 250.109 25.976 249.483 26.2826C250.243 26.5626 250.843 27.0226 251.283 27.6626C251.723 28.2893 251.943 29.0293 251.943 29.8826C251.943 30.7493 251.723 31.516 251.283 32.1826C250.843 32.8493 250.229 33.3626 249.443 33.7226C248.656 34.0826 247.763 34.2626 246.763 34.2626C245.763 34.2626 244.869 34.0826 244.083 33.7226C243.309 33.3626 242.703 32.8493 242.263 32.1826C241.823 31.516 241.603 30.7493 241.603 29.8826C241.603 29.016 241.823 28.2693 242.263 27.6426C242.703 27.016 243.296 26.5626 244.043 26.2826ZM249.383 23.2826C249.383 22.536 249.149 21.9626 248.683 21.5626C248.216 21.1626 247.576 20.9626 246.763 20.9626C245.963 20.9626 245.329 21.1626 244.863 21.5626C244.396 21.9626 244.163 22.5426 244.163 23.3026C244.163 23.9693 244.403 24.516 244.883 24.9426C245.376 25.356 246.003 25.5626 246.763 25.5626C247.523 25.5626 248.149 25.3493 248.643 24.9226C249.136 24.496 249.383 23.9493 249.383 23.2826ZM246.763 27.2826C245.883 27.2826 245.163 27.5026 244.603 27.9426C244.056 28.3693 243.783 28.9893 243.783 29.8026C243.783 30.5626 244.049 31.1826 244.583 31.6626C245.116 32.1293 245.843 32.3626 246.763 32.3626C247.669 32.3626 248.383 32.1226 248.903 31.6426C249.436 31.1626 249.703 30.5493 249.703 29.8026C249.703 29.0026 249.429 28.3826 248.883 27.9426C248.349 27.5026 247.643 27.2826 246.763 27.2826ZM253.977 22.8426C253.977 21.8693 254.257 21.1093 254.817 20.5626C255.39 20.0026 256.123 19.7226 257.017 19.7226C257.91 19.7226 258.637 20.0026 259.197 20.5626C259.77 21.1093 260.057 21.8693 260.057 22.8426C260.057 23.816 259.77 24.5826 259.197 25.1426C258.637 25.7026 257.91 25.9826 257.017 25.9826C256.123 25.9826 255.39 25.7026 254.817 25.1426C254.257 24.5826 253.977 23.816 253.977 22.8426ZM266.177 19.9826L258.197 33.9026H255.957L263.937 19.9826H266.177ZM257.017 21.1026C256.177 21.1026 255.757 21.6826 255.757 22.8426C255.757 24.016 256.177 24.6026 257.017 24.6026C257.417 24.6026 257.723 24.4626 257.937 24.1826C258.163 23.8893 258.277 23.4426 258.277 22.8426C258.277 21.6826 257.857 21.1026 257.017 21.1026ZM262.117 31.0226C262.117 30.0493 262.397 29.2893 262.957 28.7426C263.53 28.1826 264.263 27.9026 265.157 27.9026C266.037 27.9026 266.757 28.1826 267.317 28.7426C267.89 29.2893 268.177 30.0493 268.177 31.0226C268.177 31.996 267.89 32.7626 267.317 33.3226C266.757 33.8826 266.037 34.1626 265.157 34.1626C264.263 34.1626 263.53 33.8826 262.957 33.3226C262.397 32.7626 262.117 31.996 262.117 31.0226ZM265.137 29.2826C264.297 29.2826 263.877 29.8626 263.877 31.0226C263.877 32.1826 264.297 32.7626 265.137 32.7626C265.977 32.7626 266.397 32.1826 266.397 31.0226C266.397 29.8626 265.977 29.2826 265.137 29.2826Z" fill="#F27AAA"/>
</g>
<g style="mix-blend-mode:screen">
<path d="M324.14 8.1V22H321.86V12.48L317.62 22H316.04L311.78 12.48V22H309.5V8.1H311.96L316.84 19L321.7 8.1H324.14ZM328.297 9.52C327.883 9.52 327.537 9.38 327.257 9.1C326.977 8.82 326.837 8.47333 326.837 8.06C326.837 7.64667 326.977 7.3 327.257 7.02C327.537 6.74 327.883 6.6 328.297 6.6C328.697 6.6 329.037 6.74 329.317 7.02C329.597 7.3 329.737 7.64667 329.737 8.06C329.737 8.47333 329.597 8.82 329.317 9.1C329.037 9.38 328.697 9.52 328.297 9.52ZM329.417 10.98V22H327.137V10.98H329.417ZM331.65 16.44C331.65 15.3333 331.877 14.3533 332.33 13.5C332.797 12.6467 333.423 11.9867 334.21 11.52C335.01 11.04 335.897 10.8 336.87 10.8C337.59 10.8 338.297 10.96 338.99 11.28C339.697 11.5867 340.257 12 340.67 12.52V7.2H342.97V22H340.67V20.34C340.297 20.8733 339.777 21.3133 339.11 21.66C338.457 22.0067 337.703 22.18 336.85 22.18C335.89 22.18 335.01 21.94 334.21 21.46C333.423 20.9667 332.797 20.2867 332.33 19.42C331.877 18.54 331.65 17.5467 331.65 16.44ZM340.67 16.48C340.67 15.72 340.51 15.06 340.19 14.5C339.883 13.94 339.477 13.5133 338.97 13.22C338.463 12.9267 337.917 12.78 337.33 12.78C336.743 12.78 336.197 12.9267 335.69 13.22C335.183 13.5 334.77 13.92 334.45 14.48C334.143 15.0267 333.99 15.68 333.99 16.44C333.99 17.2 334.143 17.8667 334.45 18.44C334.77 19.0133 335.183 19.4533 335.69 19.76C336.21 20.0533 336.757 20.2 337.33 20.2C337.917 20.2 338.463 20.0533 338.97 19.76C339.477 19.4667 339.883 19.04 340.19 18.48C340.51 17.9067 340.67 17.24 340.67 16.48ZM345.205 16.44C345.205 15.3333 345.432 14.3533 345.885 13.5C346.352 12.6467 346.978 11.9867 347.765 11.52C348.565 11.04 349.452 10.8 350.425 10.8C351.145 10.8 351.852 10.96 352.545 11.28C353.252 11.5867 353.812 12 354.225 12.52V7.2H356.525V22H354.225V20.34C353.852 20.8733 353.332 21.3133 352.665 21.66C352.012 22.0067 351.258 22.18 350.405 22.18C349.445 22.18 348.565 21.94 347.765 21.46C346.978 20.9667 346.352 20.2867 345.885 19.42C345.432 18.54 345.205 17.5467 345.205 16.44ZM354.225 16.48C354.225 15.72 354.065 15.06 353.745 14.5C353.438 13.94 353.032 13.5133 352.525 13.22C352.018 12.9267 351.472 12.78 350.885 12.78C350.298 12.78 349.752 12.9267 349.245 13.22C348.738 13.5 348.325 13.92 348.005 14.48C347.698 15.0267 347.545 15.68 347.545 16.44C347.545 17.2 347.698 17.8667 348.005 18.44C348.325 19.0133 348.738 19.4533 349.245 19.76C349.765 20.0533 350.312 20.2 350.885 20.2C351.472 20.2 352.018 20.0533 352.525 19.76C353.032 19.4667 353.438 19.04 353.745 18.48C354.065 17.9067 354.225 17.24 354.225 16.48ZM361.8 7.2V22H359.52V7.2H361.8ZM374.893 16.22C374.893 16.6333 374.866 17.0067 374.813 17.34H366.393C366.46 18.22 366.786 18.9267 367.373 19.46C367.96 19.9933 368.68 20.26 369.533 20.26C370.76 20.26 371.626 19.7467 372.133 18.72H374.593C374.26 19.7333 373.653 20.5667 372.773 21.22C371.906 21.86 370.826 22.18 369.533 22.18C368.48 22.18 367.533 21.9467 366.693 21.48C365.866 21 365.213 20.3333 364.733 19.48C364.266 18.6133 364.033 17.6133 364.033 16.48C364.033 15.3467 364.26 14.3533 364.713 13.5C365.18 12.6333 365.826 11.9667 366.653 11.5C367.493 11.0333 368.453 10.8 369.533 10.8C370.573 10.8 371.5 11.0267 372.313 11.48C373.126 11.9333 373.76 12.5733 374.213 13.4C374.666 14.2133 374.893 15.1533 374.893 16.22ZM372.513 15.5C372.5 14.66 372.2 13.9867 371.613 13.48C371.026 12.9733 370.3 12.72 369.433 12.72C368.646 12.72 367.973 12.9733 367.413 13.48C366.853 13.9733 366.52 14.6467 366.413 15.5H372.513ZM386.912 22.14C385.979 22.14 385.139 21.98 384.392 21.66C383.645 21.3267 383.059 20.86 382.632 20.26C382.205 19.66 381.992 18.96 381.992 18.16H384.432C384.485 18.76 384.719 19.2533 385.132 19.64C385.559 20.0267 386.152 20.22 386.912 20.22C387.699 20.22 388.312 20.0333 388.752 19.66C389.192 19.2733 389.412 18.78 389.412 18.18C389.412 17.7133 389.272 17.3333 388.992 17.04C388.725 16.7467 388.385 16.52 387.972 16.36C387.572 16.2 387.012 16.0267 386.292 15.84C385.385 15.6 384.645 15.36 384.072 15.12C383.512 14.8667 383.032 14.48 382.632 13.96C382.232 13.44 382.032 12.7467 382.032 11.88C382.032 11.08 382.232 10.38 382.632 9.78C383.032 9.18 383.592 8.72 384.312 8.4C385.032 8.08 385.865 7.92 386.812 7.92C388.159 7.92 389.259 8.26 390.112 8.94C390.979 9.60667 391.459 10.5267 391.552 11.7H389.032C388.992 11.1933 388.752 10.76 388.312 10.4C387.872 10.04 387.292 9.86 386.572 9.86C385.919 9.86 385.385 10.0267 384.972 10.36C384.559 10.6933 384.352 11.1733 384.352 11.8C384.352 12.2267 384.479 12.58 384.732 12.86C384.999 13.1267 385.332 13.34 385.732 13.5C386.132 13.66 386.679 13.8333 387.372 14.02C388.292 14.2733 389.039 14.5267 389.612 14.78C390.199 15.0333 390.692 15.4267 391.092 15.96C391.505 16.48 391.712 17.18 391.712 18.06C391.712 18.7667 391.519 19.4333 391.132 20.06C390.759 20.6867 390.205 21.1933 389.472 21.58C388.752 21.9533 387.899 22.14 386.912 22.14ZM393.642 16.48C393.642 15.3467 393.869 14.3533 394.322 13.5C394.789 12.6333 395.429 11.9667 396.242 11.5C397.056 11.0333 397.989 10.8 399.042 10.8C400.376 10.8 401.476 11.12 402.342 11.76C403.222 12.3867 403.816 13.2867 404.122 14.46H401.662C401.462 13.9133 401.142 13.4867 400.702 13.18C400.262 12.8733 399.709 12.72 399.042 12.72C398.109 12.72 397.362 13.0533 396.802 13.72C396.256 14.3733 395.982 15.2933 395.982 16.48C395.982 17.6667 396.256 18.5933 396.802 19.26C397.362 19.9267 398.109 20.26 399.042 20.26C400.362 20.26 401.236 19.68 401.662 18.52H404.122C403.802 19.64 403.202 20.5333 402.322 21.2C401.442 21.8533 400.349 22.18 399.042 22.18C397.989 22.18 397.056 21.9467 396.242 21.48C395.429 21 394.789 20.3333 394.322 19.48C393.869 18.6133 393.642 17.6133 393.642 16.48ZM412.095 10.8C412.935 10.8 413.681 10.98 414.335 11.34C415.001 11.7 415.521 12.2333 415.895 12.94C416.281 13.6467 416.475 14.5 416.475 15.5V22H414.215V15.84C414.215 14.8533 413.968 14.1 413.475 13.58C412.981 13.0467 412.308 12.78 411.455 12.78C410.601 12.78 409.921 13.0467 409.415 13.58C408.921 14.1 408.675 14.8533 408.675 15.84V22H406.395V7.2H408.675V12.26C409.061 11.7933 409.548 11.4333 410.135 11.18C410.735 10.9267 411.388 10.8 412.095 10.8ZM424.163 22.18C423.123 22.18 422.183 21.9467 421.343 21.48C420.503 21 419.843 20.3333 419.363 19.48C418.883 18.6133 418.643 17.6133 418.643 16.48C418.643 15.36 418.889 14.3667 419.383 13.5C419.876 12.6333 420.549 11.9667 421.403 11.5C422.256 11.0333 423.209 10.8 424.263 10.8C425.316 10.8 426.269 11.0333 427.123 11.5C427.976 11.9667 428.649 12.6333 429.143 13.5C429.636 14.3667 429.883 15.36 429.883 16.48C429.883 17.6 429.629 18.5933 429.123 19.46C428.616 20.3267 427.923 21 427.043 21.48C426.176 21.9467 425.216 22.18 424.163 22.18ZM424.163 20.2C424.749 20.2 425.296 20.06 425.803 19.78C426.323 19.5 426.743 19.08 427.063 18.52C427.383 17.96 427.543 17.28 427.543 16.48C427.543 15.68 427.389 15.0067 427.083 14.46C426.776 13.9 426.369 13.48 425.863 13.2C425.356 12.92 424.809 12.78 424.223 12.78C423.636 12.78 423.089 12.92 422.583 13.2C422.089 13.48 421.696 13.9 421.403 14.46C421.109 15.0067 420.963 15.68 420.963 16.48C420.963 17.6667 421.263 18.5867 421.863 19.24C422.476 19.88 423.243 20.2 424.163 20.2ZM436.917 22.18C435.877 22.18 434.937 21.9467 434.097 21.48C433.257 21 432.597 20.3333 432.117 19.48C431.637 18.6133 431.397 17.6133 431.397 16.48C431.397 15.36 431.643 14.3667 432.137 13.5C432.63 12.6333 433.303 11.9667 434.157 11.5C435.01 11.0333 435.963 10.8 437.017 10.8C438.07 10.8 439.023 11.0333 439.877 11.5C440.73 11.9667 441.403 12.6333 441.897 13.5C442.39 14.3667 442.637 15.36 442.637 16.48C442.637 17.6 442.383 18.5933 441.877 19.46C441.37 20.3267 440.677 21 439.797 21.48C438.93 21.9467 437.97 22.18 436.917 22.18ZM436.917 20.2C437.503 20.2 438.05 20.06 438.557 19.78C439.077 19.5 439.497 19.08 439.817 18.52C440.137 17.96 440.297 17.28 440.297 16.48C440.297 15.68 440.143 15.0067 439.837 14.46C439.53 13.9 439.123 13.48 438.617 13.2C438.11 12.92 437.563 12.78 436.977 12.78C436.39 12.78 435.843 12.92 435.337 13.2C434.843 13.48 434.45 13.9 434.157 14.46C433.863 15.0067 433.717 15.68 433.717 16.48C433.717 17.6667 434.017 18.5867 434.617 19.24C435.23 19.88 435.997 20.2 436.917 20.2ZM447.171 7.2V22H444.891V7.2H447.171ZM452.664 19.26L450.244 24.78H448.764L450.184 19.26H452.664ZM459.252 9.5V7.42H463.412V22H461.112V9.5H459.252ZM467.764 22.14C467.35 22.14 467.004 22 466.724 21.72C466.444 21.44 466.304 21.0933 466.304 20.68C466.304 20.2667 466.444 19.92 466.724 19.64C467.004 19.36 467.35 19.22 467.764 19.22C468.164 19.22 468.504 19.36 468.784 19.64C469.064 19.92 469.204 20.2667 469.204 20.68C469.204 21.0933 469.064 21.44 468.784 21.72C468.504 22 468.164 22.14 467.764 22.14ZM471.328 11.02C471.408 9.78 471.881 8.81333 472.748 8.12C473.628 7.42667 474.748 7.08 476.108 7.08C477.041 7.08 477.848 7.24667 478.528 7.58C479.208 7.91333 479.721 8.36667 480.068 8.94C480.415 9.51333 480.588 10.16 480.588 10.88C480.588 11.7067 480.368 12.4133 479.928 13C479.488 13.5867 478.961 13.98 478.348 14.18V14.26C479.135 14.5 479.748 14.94 480.188 15.58C480.628 16.2067 480.848 17.0133 480.848 18C480.848 18.7867 480.668 19.4867 480.308 20.1C479.948 20.7133 479.415 21.2 478.708 21.56C478.001 21.9067 477.155 22.08 476.168 22.08C474.728 22.08 473.541 21.7133 472.608 20.98C471.688 20.2333 471.195 19.1667 471.128 17.78H473.328C473.381 18.4867 473.655 19.0667 474.148 19.52C474.641 19.96 475.308 20.18 476.148 20.18C476.961 20.18 477.588 19.96 478.028 19.52C478.468 19.0667 478.688 18.4867 478.688 17.78C478.688 16.8467 478.388 16.1867 477.788 15.8C477.201 15.4 476.295 15.2 475.068 15.2H474.548V13.32H475.088C476.168 13.3067 476.988 13.1267 477.548 12.78C478.121 12.4333 478.408 11.8867 478.408 11.14C478.408 10.5 478.201 9.99333 477.788 9.62C477.375 9.23333 476.788 9.04 476.028 9.04C475.281 9.04 474.701 9.23333 474.288 9.62C473.875 9.99333 473.628 10.46 473.548 11.02H471.328ZM482.963 18.96V17.24L489.683 7.6H492.443V16.98H494.303V18.96H492.443V22H490.203V18.96H482.963ZM490.303 9.92L485.583 16.98H490.303V9.92ZM495.832 10.94C495.832 9.96667 496.112 9.20667 496.672 8.66C497.246 8.1 497.979 7.82 498.872 7.82C499.766 7.82 500.492 8.1 501.052 8.66C501.626 9.20667 501.912 9.96667 501.912 10.94C501.912 11.9133 501.626 12.68 501.052 13.24C500.492 13.8 499.766 14.08 498.872 14.08C497.979 14.08 497.246 13.8 496.672 13.24C496.112 12.68 495.832 11.9133 495.832 10.94ZM508.032 8.08L500.052 22H497.812L505.792 8.08H508.032ZM498.872 9.2C498.032 9.2 497.612 9.78 497.612 10.94C497.612 12.1133 498.032 12.7 498.872 12.7C499.272 12.7 499.579 12.56 499.792 12.28C500.019 11.9867 500.132 11.54 500.132 10.94C500.132 9.78 499.712 9.2 498.872 9.2ZM503.972 19.12C503.972 18.1467 504.252 17.3867 504.812 16.84C505.386 16.28 506.119 16 507.012 16C507.892 16 508.612 16.28 509.172 16.84C509.746 17.3867 510.032 18.1467 510.032 19.12C510.032 20.0933 509.746 20.86 509.172 21.42C508.612 21.98 507.892 22.26 507.012 22.26C506.119 22.26 505.386 21.98 504.812 21.42C504.252 20.86 503.972 20.0933 503.972 19.12ZM506.992 17.38C506.152 17.38 505.732 17.96 505.732 19.12C505.732 20.28 506.152 20.86 506.992 20.86C507.832 20.86 508.252 20.28 508.252 19.12C508.252 17.96 507.832 17.38 506.992 17.38Z" fill="#9BB1CC"/>
</g>
<path d="M302.451 78.6046L309 32" stroke="#9BB1CC" stroke-width="10" stroke-linecap="round"/>
<path d="M286 85L272 41" stroke="#F27AAA" stroke-width="10" stroke-linecap="round"/>
<path d="M252.043 100.784L217.765 74.5719" stroke="#977DAD" stroke-width="10" stroke-linecap="round"/>
<path d="M189 180L149 169" stroke="#4D9EAD" stroke-width="10" stroke-linecap="round"/>
<path d="M215 397L257 343" stroke="#C695BB" stroke-width="10" stroke-linecap="round"/>
<path d="M249.872 201.18V205.156H256.284V208.852H249.872V213.164H257.124V217H245.084V197.344H257.124V201.18H249.872ZM259.28 209.16C259.28 207.555 259.579 206.145 260.176 204.932C260.792 203.719 261.623 202.785 262.668 202.132C263.713 201.479 264.88 201.152 266.168 201.152C267.195 201.152 268.128 201.367 268.968 201.796C269.827 202.225 270.499 202.804 270.984 203.532V196.28H275.772V217H270.984V214.76C270.536 215.507 269.892 216.104 269.052 216.552C268.231 217 267.269 217.224 266.168 217.224C264.88 217.224 263.713 216.897 262.668 216.244C261.623 215.572 260.792 214.629 260.176 213.416C259.579 212.184 259.28 210.765 259.28 209.16ZM270.984 209.188C270.984 207.993 270.648 207.051 269.976 206.36C269.323 205.669 268.52 205.324 267.568 205.324C266.616 205.324 265.804 205.669 265.132 206.36C264.479 207.032 264.152 207.965 264.152 209.16C264.152 210.355 264.479 211.307 265.132 212.016C265.804 212.707 266.616 213.052 267.568 213.052C268.52 213.052 269.323 212.707 269.976 212.016C270.648 211.325 270.984 210.383 270.984 209.188ZM294.664 201.376V217H289.876V214.872C289.391 215.563 288.728 216.123 287.888 216.552C287.067 216.963 286.152 217.168 285.144 217.168C283.949 217.168 282.895 216.907 281.98 216.384C281.065 215.843 280.356 215.068 279.852 214.06C279.348 213.052 279.096 211.867 279.096 210.504V201.376H283.856V209.86C283.856 210.905 284.127 211.717 284.668 212.296C285.209 212.875 285.937 213.164 286.852 213.164C287.785 213.164 288.523 212.875 289.064 212.296C289.605 211.717 289.876 210.905 289.876 209.86V201.376H294.664ZM297.151 209.188C297.151 207.564 297.478 206.145 298.131 204.932C298.803 203.719 299.727 202.785 300.903 202.132C302.098 201.479 303.461 201.152 304.991 201.152C306.951 201.152 308.585 201.665 309.891 202.692C311.217 203.719 312.085 205.165 312.495 207.032H307.399C306.97 205.837 306.139 205.24 304.907 205.24C304.03 205.24 303.33 205.585 302.807 206.276C302.285 206.948 302.023 207.919 302.023 209.188C302.023 210.457 302.285 211.437 302.807 212.128C303.33 212.8 304.03 213.136 304.907 213.136C306.139 213.136 306.97 212.539 307.399 211.344H312.495C312.085 213.173 311.217 214.611 309.891 215.656C308.566 216.701 306.933 217.224 304.991 217.224C303.461 217.224 302.098 216.897 300.903 216.244C299.727 215.591 298.803 214.657 298.131 213.444C297.478 212.231 297.151 210.812 297.151 209.188ZM314.104 209.16C314.104 207.555 314.403 206.145 315 204.932C315.616 203.719 316.447 202.785 317.492 202.132C318.538 201.479 319.704 201.152 320.992 201.152C322.094 201.152 323.055 201.376 323.876 201.824C324.716 202.272 325.36 202.86 325.808 203.588V201.376H330.596V217H325.808V214.788C325.342 215.516 324.688 216.104 323.848 216.552C323.027 217 322.066 217.224 320.964 217.224C319.695 217.224 318.538 216.897 317.492 216.244C316.447 215.572 315.616 214.629 315 213.416C314.403 212.184 314.104 210.765 314.104 209.16ZM325.808 209.188C325.808 207.993 325.472 207.051 324.8 206.36C324.147 205.669 323.344 205.324 322.392 205.324C321.44 205.324 320.628 205.669 319.956 206.36C319.303 207.032 318.976 207.965 318.976 209.16C318.976 210.355 319.303 211.307 319.956 212.016C320.628 212.707 321.44 213.052 322.392 213.052C323.344 213.052 324.147 212.707 324.8 212.016C325.472 211.325 325.808 210.383 325.808 209.188ZM342.768 212.94V217H340.332C338.596 217 337.243 216.58 336.272 215.74C335.302 214.881 334.816 213.491 334.816 211.568V205.352H332.912V201.376H334.816V197.568H339.604V201.376H342.74V205.352H339.604V211.624C339.604 212.091 339.716 212.427 339.94 212.632C340.164 212.837 340.538 212.94 341.06 212.94H342.768ZM347.843 199.752C347.003 199.752 346.313 199.509 345.771 199.024C345.249 198.52 344.987 197.904 344.987 197.176C344.987 196.429 345.249 195.813 345.771 195.328C346.313 194.824 347.003 194.572 347.843 194.572C348.665 194.572 349.337 194.824 349.859 195.328C350.401 195.813 350.671 196.429 350.671 197.176C350.671 197.904 350.401 198.52 349.859 199.024C349.337 199.509 348.665 199.752 347.843 199.752ZM350.223 201.376V217H345.435V201.376H350.223ZM360.805 217.224C359.274 217.224 357.893 216.897 356.661 216.244C355.448 215.591 354.486 214.657 353.777 213.444C353.086 212.231 352.741 210.812 352.741 209.188C352.741 207.583 353.096 206.173 353.805 204.96C354.514 203.728 355.485 202.785 356.717 202.132C357.949 201.479 359.33 201.152 360.861 201.152C362.392 201.152 363.773 201.479 365.005 202.132C366.237 202.785 367.208 203.728 367.917 204.96C368.626 206.173 368.981 207.583 368.981 209.188C368.981 210.793 368.617 212.212 367.889 213.444C367.18 214.657 366.2 215.591 364.949 216.244C363.717 216.897 362.336 217.224 360.805 217.224ZM360.805 213.08C361.72 213.08 362.494 212.744 363.129 212.072C363.782 211.4 364.109 210.439 364.109 209.188C364.109 207.937 363.792 206.976 363.157 206.304C362.541 205.632 361.776 205.296 360.861 205.296C359.928 205.296 359.153 205.632 358.537 206.304C357.921 206.957 357.613 207.919 357.613 209.188C357.613 210.439 357.912 211.4 358.509 212.072C359.125 212.744 359.89 213.08 360.805 213.08ZM381.041 201.208C382.87 201.208 384.326 201.805 385.409 203C386.51 204.176 387.061 205.8 387.061 207.872V217H382.301V208.516C382.301 207.471 382.03 206.659 381.489 206.08C380.948 205.501 380.22 205.212 379.305 205.212C378.39 205.212 377.662 205.501 377.121 206.08C376.58 206.659 376.309 207.471 376.309 208.516V217H371.521V201.376H376.309V203.448C376.794 202.757 377.448 202.216 378.269 201.824C379.09 201.413 380.014 201.208 381.041 201.208ZM285.706 255.304H291.978V259H280.918V239.344H285.706V255.304ZM308.989 250.936C308.989 251.384 308.961 251.851 308.905 252.336H298.069C298.144 253.307 298.452 254.053 298.993 254.576C299.553 255.08 300.235 255.332 301.037 255.332C302.232 255.332 303.063 254.828 303.529 253.82H308.625C308.364 254.847 307.888 255.771 307.197 256.592C306.525 257.413 305.676 258.057 304.649 258.524C303.623 258.991 302.475 259.224 301.205 259.224C299.675 259.224 298.312 258.897 297.117 258.244C295.923 257.591 294.989 256.657 294.317 255.444C293.645 254.231 293.309 252.812 293.309 251.188C293.309 249.564 293.636 248.145 294.289 246.932C294.961 245.719 295.895 244.785 297.089 244.132C298.284 243.479 299.656 243.152 301.205 243.152C302.717 243.152 304.061 243.469 305.237 244.104C306.413 244.739 307.328 245.644 307.981 246.82C308.653 247.996 308.989 249.368 308.989 250.936ZM304.089 249.676C304.089 248.855 303.809 248.201 303.249 247.716C302.689 247.231 301.989 246.988 301.149 246.988C300.347 246.988 299.665 247.221 299.105 247.688C298.564 248.155 298.228 248.817 298.097 249.676H304.089ZM318.543 254.52L321.931 243.376H327.027L321.483 259H315.575L310.031 243.376H315.155L318.543 254.52ZM343.771 250.936C343.771 251.384 343.743 251.851 343.687 252.336H332.851C332.925 253.307 333.233 254.053 333.775 254.576C334.335 255.08 335.016 255.332 335.819 255.332C337.013 255.332 337.844 254.828 338.311 253.82H343.407C343.145 254.847 342.669 255.771 341.979 256.592C341.307 257.413 340.457 258.057 339.431 258.524C338.404 258.991 337.256 259.224 335.987 259.224C334.456 259.224 333.093 258.897 331.899 258.244C330.704 257.591 329.771 256.657 329.099 255.444C328.427 254.231 328.091 252.812 328.091 251.188C328.091 249.564 328.417 248.145 329.071 246.932C329.743 245.719 330.676 244.785 331.871 244.132C333.065 243.479 334.437 243.152 335.987 243.152C337.499 243.152 338.843 243.469 340.019 244.104C341.195 244.739 342.109 245.644 342.763 246.82C343.435 247.996 343.771 249.368 343.771 250.936ZM338.871 249.676C338.871 248.855 338.591 248.201 338.031 247.716C337.471 247.231 336.771 246.988 335.931 246.988C335.128 246.988 334.447 247.221 333.887 247.688C333.345 248.155 333.009 248.817 332.879 249.676H338.871ZM351.085 238.28V259H346.297V238.28H351.085Z" fill="white"/>
</svg>
