<svg width="1356" height="1096" viewBox="0 0 1356 1096" fill="none" xmlns="http://www.w3.org/2000/svg">
<path d="M49.7238 384.515V417.875H44.2518V403.283H28.5558V417.875H23.0838V384.515H28.5558V398.819H44.2518V384.515H49.7238ZM59.7115 387.923C58.7195 387.923 57.8875 387.587 57.2155 386.915C56.5435 386.243 56.2075 385.411 56.2075 384.419C56.2075 383.427 56.5435 382.595 57.2155 381.923C57.8875 381.251 58.7195 380.915 59.7115 380.915C60.6715 380.915 61.4875 381.251 62.1595 381.923C62.8315 382.595 63.1675 383.427 63.1675 384.419C63.1675 385.411 62.8315 386.243 62.1595 386.915C61.4875 387.587 60.6715 387.923 59.7115 387.923ZM62.3995 391.427V417.875H56.9275V391.427H62.3995ZM80.2398 390.995C82.2878 390.995 84.0958 391.411 85.6638 392.243C87.2638 393.043 88.5118 394.051 89.4078 395.267V391.427H94.9278V418.307C94.9278 420.739 94.4158 422.899 93.3918 424.787C92.3678 426.707 90.8798 428.211 88.9278 429.299C87.0078 430.387 84.7038 430.931 82.0158 430.931C78.4318 430.931 75.4558 430.083 73.0878 428.387C70.7198 426.723 69.3758 424.451 69.0558 421.571H74.4798C74.8958 422.947 75.7758 424.051 77.1198 424.883C78.4958 425.747 80.1278 426.179 82.0158 426.179C84.2238 426.179 85.9998 425.507 87.3438 424.163C88.7198 422.819 89.4078 420.867 89.4078 418.307V413.891C88.4798 415.139 87.2158 416.195 85.6158 417.059C84.0478 417.891 82.2558 418.307 80.2398 418.307C77.9358 418.307 75.8238 417.731 73.9038 416.579C72.0158 415.395 70.5118 413.763 69.3918 411.683C68.3038 409.571 67.7598 407.187 67.7598 404.531C67.7598 401.875 68.3038 399.523 69.3918 397.475C70.5118 395.427 72.0158 393.843 73.9038 392.723C75.8238 391.571 77.9358 390.995 80.2398 390.995ZM89.4078 404.627C89.4078 402.803 89.0238 401.219 88.2558 399.875C87.5198 398.531 86.5438 397.507 85.3278 396.803C84.1118 396.099 82.7998 395.747 81.3918 395.747C79.9838 395.747 78.6718 396.099 77.4558 396.803C76.2398 397.475 75.2478 398.483 74.4798 399.827C73.7438 401.139 73.3758 402.707 73.3758 404.531C73.3758 406.355 73.7438 407.955 74.4798 409.331C75.2478 410.707 76.2398 411.763 77.4558 412.499C78.7038 413.203 80.0158 413.555 81.3918 413.555C82.7998 413.555 84.1118 413.203 85.3278 412.499C86.5438 411.795 87.5198 410.771 88.2558 409.427C89.0238 408.051 89.4078 406.451 89.4078 404.627ZM115.795 390.995C117.811 390.995 119.603 391.427 121.171 392.291C122.771 393.155 124.019 394.435 124.915 396.131C125.843 397.827 126.307 399.875 126.307 402.275V417.875H120.883V403.091C120.883 400.723 120.291 398.915 119.107 397.667C117.923 396.387 116.307 395.747 114.259 395.747C112.211 395.747 110.579 396.387 109.363 397.667C108.179 398.915 107.587 400.723 107.587 403.091V417.875H102.115V382.355H107.587V394.499C108.515 393.379 109.683 392.515 111.091 391.907C112.531 391.299 114.099 390.995 115.795 390.995ZM156.748 418.211C154.508 418.211 152.492 417.827 150.7 417.059C148.908 416.259 147.5 415.139 146.476 413.699C145.452 412.259 144.94 410.579 144.94 408.659H150.796C150.924 410.099 151.484 411.283 152.476 412.211C153.5 413.139 154.924 413.603 156.748 413.603C158.636 413.603 160.108 413.155 161.164 412.259C162.22 411.331 162.748 410.147 162.748 408.707C162.748 407.587 162.412 406.675 161.74 405.971C161.1 405.267 160.284 404.723 159.292 404.339C158.332 403.955 156.988 403.539 155.26 403.091C153.084 402.515 151.308 401.939 149.932 401.363C148.588 400.755 147.436 399.827 146.476 398.579C145.516 397.331 145.036 395.667 145.036 393.587C145.036 391.667 145.516 389.987 146.476 388.547C147.436 387.107 148.78 386.003 150.508 385.235C152.236 384.467 154.236 384.083 156.508 384.083C159.74 384.083 162.38 384.899 164.428 386.531C166.508 388.131 167.66 390.339 167.884 393.155H161.836C161.74 391.939 161.164 390.899 160.108 390.035C159.052 389.171 157.66 388.739 155.932 388.739C154.364 388.739 153.084 389.139 152.092 389.939C151.1 390.739 150.604 391.891 150.604 393.395C150.604 394.419 150.908 395.267 151.516 395.939C152.156 396.579 152.956 397.091 153.916 397.475C154.876 397.859 156.188 398.275 157.852 398.723C160.06 399.331 161.852 399.939 163.228 400.547C164.636 401.155 165.82 402.099 166.78 403.379C167.772 404.627 168.268 406.307 168.268 408.419C168.268 410.115 167.804 411.715 166.876 413.219C165.98 414.723 164.652 415.939 162.892 416.867C161.164 417.763 159.116 418.211 156.748 418.211ZM172.9 404.627C172.9 401.907 173.444 399.523 174.532 397.475C175.652 395.395 177.188 393.795 179.14 392.675C181.092 391.555 183.332 390.995 185.86 390.995C189.06 390.995 191.7 391.763 193.78 393.299C195.892 394.803 197.316 396.963 198.052 399.779H192.148C191.668 398.467 190.9 397.443 189.844 396.707C188.788 395.971 187.46 395.603 185.86 395.603C183.62 395.603 181.828 396.403 180.484 398.003C179.172 399.571 178.516 401.779 178.516 404.627C178.516 407.475 179.172 409.699 180.484 411.299C181.828 412.899 183.62 413.699 185.86 413.699C189.028 413.699 191.124 412.307 192.148 409.523H198.052C197.284 412.211 195.844 414.355 193.732 415.955C191.62 417.523 188.996 418.307 185.86 418.307C183.332 418.307 181.092 417.747 179.14 416.627C177.188 415.475 175.652 413.875 174.532 411.827C173.444 409.747 172.9 407.347 172.9 404.627ZM217.186 390.995C219.202 390.995 220.994 391.427 222.562 392.291C224.162 393.155 225.41 394.435 226.306 396.131C227.234 397.827 227.698 399.875 227.698 402.275V417.875H222.274V403.091C222.274 400.723 221.682 398.915 220.498 397.667C219.314 396.387 217.698 395.747 215.65 395.747C213.602 395.747 211.97 396.387 210.754 397.667C209.57 398.915 208.978 400.723 208.978 403.091V417.875H203.506V382.355H208.978V394.499C209.906 393.379 211.074 392.515 212.482 391.907C213.922 391.299 215.49 390.995 217.186 390.995ZM246.15 418.307C243.654 418.307 241.398 417.747 239.382 416.627C237.366 415.475 235.782 413.875 234.63 411.827C233.478 409.747 232.902 407.347 232.902 404.627C232.902 401.939 233.494 399.555 234.678 397.475C235.862 395.395 237.478 393.795 239.526 392.675C241.574 391.555 243.862 390.995 246.39 390.995C248.918 390.995 251.206 391.555 253.254 392.675C255.302 393.795 256.918 395.395 258.102 397.475C259.286 399.555 259.878 401.939 259.878 404.627C259.878 407.315 259.27 409.699 258.054 411.779C256.838 413.859 255.174 415.475 253.062 416.627C250.982 417.747 248.678 418.307 246.15 418.307ZM246.15 413.555C247.558 413.555 248.87 413.219 250.086 412.547C251.334 411.875 252.342 410.867 253.11 409.523C253.878 408.179 254.262 406.547 254.262 404.627C254.262 402.707 253.894 401.091 253.158 399.779C252.422 398.435 251.446 397.427 250.23 396.755C249.014 396.083 247.702 395.747 246.294 395.747C244.886 395.747 243.574 396.083 242.358 396.755C241.174 397.427 240.23 398.435 239.526 399.779C238.822 401.091 238.47 402.707 238.47 404.627C238.47 407.475 239.19 409.683 240.63 411.251C242.102 412.787 243.942 413.555 246.15 413.555ZM276.759 418.307C274.263 418.307 272.007 417.747 269.991 416.627C267.975 415.475 266.391 413.875 265.239 411.827C264.087 409.747 263.511 407.347 263.511 404.627C263.511 401.939 264.103 399.555 265.287 397.475C266.471 395.395 268.087 393.795 270.135 392.675C272.183 391.555 274.471 390.995 276.999 390.995C279.527 390.995 281.815 391.555 283.863 392.675C285.911 393.795 287.527 395.395 288.711 397.475C289.895 399.555 290.487 401.939 290.487 404.627C290.487 407.315 289.879 409.699 288.663 411.779C287.447 413.859 285.783 415.475 283.671 416.627C281.591 417.747 279.287 418.307 276.759 418.307ZM276.759 413.555C278.167 413.555 279.479 413.219 280.695 412.547C281.943 411.875 282.951 410.867 283.719 409.523C284.487 408.179 284.871 406.547 284.871 404.627C284.871 402.707 284.503 401.091 283.767 399.779C283.031 398.435 282.055 397.427 280.839 396.755C279.623 396.083 278.311 395.747 276.903 395.747C275.495 395.747 274.183 396.083 272.967 396.755C271.783 397.427 270.839 398.435 270.135 399.779C269.431 401.091 269.079 402.707 269.079 404.627C269.079 407.475 269.799 409.683 271.239 411.251C272.711 412.787 274.551 413.555 276.759 413.555ZM301.368 382.355V417.875H295.896V382.355H301.368ZM314.553 411.299L308.745 424.547H305.193L308.601 411.299H314.553ZM162.175 459.875V454.883H172.159V489.875H166.639V459.875H162.175ZM182.7 482.435C185.772 479.779 188.188 477.603 189.948 475.907C191.74 474.179 193.228 472.387 194.412 470.531C195.596 468.675 196.188 466.819 196.188 464.963C196.188 463.043 195.724 461.539 194.796 460.451C193.9 459.363 192.476 458.819 190.524 458.819C188.636 458.819 187.164 459.427 186.108 460.643C185.084 461.827 184.54 463.427 184.476 465.443H179.196C179.292 461.795 180.38 459.011 182.46 457.091C184.572 455.139 187.244 454.163 190.476 454.163C193.964 454.163 196.684 455.123 198.636 457.043C200.62 458.963 201.612 461.523 201.612 464.723C201.612 467.027 201.02 469.251 199.836 471.395C198.684 473.507 197.292 475.411 195.66 477.107C194.06 478.771 192.012 480.707 189.516 482.915L187.356 484.835H202.572V489.395H179.244V485.411L182.7 482.435ZM210.307 490.211C209.315 490.211 208.483 489.875 207.811 489.203C207.139 488.531 206.803 487.699 206.803 486.707C206.803 485.715 207.139 484.883 207.811 484.211C208.483 483.539 209.315 483.203 210.307 483.203C211.267 483.203 212.083 483.539 212.755 484.211C213.427 484.883 213.763 485.715 213.763 486.707C213.763 487.699 213.427 488.531 212.755 489.203C212.083 489.875 211.267 490.211 210.307 490.211ZM218.286 482.579V478.451L234.414 455.315H241.038V477.827H245.502V482.579H241.038V489.875H235.662V482.579H218.286ZM235.902 460.883L224.574 477.827H235.902V460.883ZM256.852 480.371C257.172 481.971 257.86 483.187 258.916 484.019C259.972 484.851 261.396 485.267 263.188 485.267C265.46 485.267 267.124 484.371 268.18 482.579C269.236 480.787 269.764 477.731 269.764 473.411C268.996 474.499 267.908 475.347 266.5 475.955C265.124 476.531 263.62 476.819 261.988 476.819C259.908 476.819 258.02 476.403 256.324 475.571C254.628 474.707 253.284 473.443 252.292 471.779C251.332 470.083 250.852 468.035 250.852 465.635C250.852 462.115 251.876 459.315 253.924 457.235C256.004 455.123 258.852 454.067 262.468 454.067C266.82 454.067 269.908 455.523 271.732 458.435C273.588 461.315 274.516 465.747 274.516 471.731C274.516 475.859 274.164 479.235 273.46 481.859C272.788 484.483 271.604 486.467 269.908 487.811C268.212 489.155 265.86 489.827 262.852 489.827C259.428 489.827 256.788 488.931 254.932 487.139C253.076 485.347 252.036 483.091 251.812 480.371H256.852ZM262.948 472.211C264.868 472.211 266.372 471.619 267.46 470.435C268.58 469.219 269.14 467.619 269.14 465.635C269.14 463.427 268.548 461.715 267.364 460.499C266.212 459.251 264.628 458.627 262.612 458.627C260.596 458.627 258.996 459.267 257.812 460.547C256.66 461.795 256.084 463.443 256.084 465.491C256.084 467.443 256.644 469.059 257.764 470.339C258.916 471.587 260.644 472.211 262.948 472.211ZM279.64 463.331C279.64 460.995 280.312 459.171 281.656 457.859C283.032 456.515 284.792 455.843 286.936 455.843C289.08 455.843 290.824 456.515 292.168 457.859C293.544 459.171 294.232 460.995 294.232 463.331C294.232 465.667 293.544 467.507 292.168 468.851C290.824 470.195 289.08 470.867 286.936 470.867C284.792 470.867 283.032 470.195 281.656 468.851C280.312 467.507 279.64 465.667 279.64 463.331ZM308.92 456.467L289.768 489.875H284.392L303.544 456.467H308.92ZM286.936 459.155C284.92 459.155 283.912 460.547 283.912 463.331C283.912 466.147 284.92 467.555 286.936 467.555C287.896 467.555 288.632 467.219 289.144 466.547C289.688 465.843 289.96 464.771 289.96 463.331C289.96 460.547 288.952 459.155 286.936 459.155ZM299.176 482.963C299.176 480.627 299.848 478.803 301.192 477.491C302.568 476.147 304.328 475.475 306.472 475.475C308.584 475.475 310.312 476.147 311.656 477.491C313.032 478.803 313.72 480.627 313.72 482.963C313.72 485.299 313.032 487.139 311.656 488.483C310.312 489.827 308.584 490.499 306.472 490.499C304.328 490.499 302.568 489.827 301.192 488.483C299.848 487.139 299.176 485.299 299.176 482.963ZM306.424 478.787C304.408 478.787 303.4 480.179 303.4 482.963C303.4 485.747 304.408 487.139 306.424 487.139C308.44 487.139 309.448 485.747 309.448 482.963C309.448 480.179 308.44 478.787 306.424 478.787Z" fill="#0490BB"/>
<path d="M714.156 203.898C716.774 203.838 719.392 203.809 722.01 203.809V308.304C720.178 308.304 718.345 308.325 716.512 308.367L714.156 203.898Z" fill="#7BAAF7"/>
<path d="M708.268 204.081C710.23 204.003 712.193 203.942 714.156 203.897L716.513 308.367C715.138 308.398 713.764 308.441 712.391 308.495L708.268 204.081Z" fill="#F9D997"/>
<path d="M679.135 206.473C688.807 205.266 698.527 204.468 708.266 204.081L712.389 308.495C705.571 308.766 698.768 309.325 691.997 310.169L679.135 206.473Z" fill="#4E23AA"/>
<path d="M640.943 213.433C653.534 210.401 666.285 208.077 679.135 206.474L691.998 310.17C683.002 311.293 674.077 312.919 665.263 315.041L640.943 213.433Z" fill="#2D2533"/>
<path d="M498.145 285.848C539.475 250.889 588.372 226.092 640.942 213.433L665.262 315.041C628.463 323.903 594.235 341.26 565.304 365.732L498.145 285.848Z" fill="#7937AE"/>
<path d="M376.015 522.4C383.869 430.432 427.795 345.352 498.145 285.848L565.304 365.732C516.059 407.385 485.311 466.941 479.813 531.318L376.015 522.4Z" fill="#0490BB"/>
<path d="M722.01 203.809C865.168 203.809 993.656 291.928 1045.6 425.737C1097.55 559.545 1062.31 711.615 956.848 808.722C851.388 905.83 697.326 928.071 568.844 864.736C440.363 801.401 363.798 665.471 376.016 522.4L479.814 531.318C471.261 631.468 524.857 726.619 614.794 770.953C704.731 815.288 812.575 799.719 886.396 731.744C960.218 663.769 984.887 557.32 948.525 463.654C912.162 369.988 822.221 308.304 722.01 308.304V203.809Z" fill="#D7316E"/>
<path d="M61.6754 919.577V940.841C61.6754 943.369 62.3314 945.273 63.6434 946.553C64.9874 947.833 66.8434 948.473 69.2114 948.473C71.6114 948.473 73.4674 947.833 74.7794 946.553C76.1234 945.273 76.7954 943.369 76.7954 940.841V919.577H82.2674V940.745C82.2674 943.465 81.6754 945.769 80.4914 947.657C79.3074 949.545 77.7234 950.953 75.7394 951.881C73.7554 952.809 71.5634 953.274 69.1634 953.274C66.7634 953.274 64.5714 952.809 62.5874 951.881C60.6354 950.953 59.0834 949.545 57.9314 947.657C56.7794 945.769 56.2034 943.465 56.2034 940.745V919.577H61.6754ZM102.736 926.057C104.816 926.057 106.672 926.489 108.304 927.353C109.968 928.217 111.264 929.497 112.192 931.193C113.12 932.889 113.584 934.937 113.584 937.337V952.938H108.16V938.153C108.16 935.785 107.568 933.977 106.384 932.729C105.2 931.449 103.584 930.809 101.536 930.809C99.4881 930.809 97.8561 931.449 96.6401 932.729C95.4561 933.977 94.8641 935.785 94.8641 938.153V952.938H89.3921V926.49H94.8641V929.513C95.7601 928.425 96.8961 927.577 98.2721 926.969C99.6801 926.361 101.168 926.057 102.736 926.057ZM118.74 939.593C118.74 936.937 119.284 934.585 120.372 932.537C121.492 930.489 122.996 928.905 124.884 927.785C126.804 926.633 128.932 926.057 131.268 926.057C132.996 926.057 134.692 926.441 136.356 927.209C138.052 927.945 139.396 928.937 140.388 930.185V917.417H145.908V952.938H140.388V948.953C139.492 950.233 138.244 951.289 136.644 952.121C135.076 952.954 133.268 953.37 131.22 953.37C128.916 953.37 126.804 952.794 124.884 951.641C122.996 950.457 121.492 948.825 120.372 946.745C119.284 944.633 118.74 942.249 118.74 939.593ZM140.388 939.689C140.388 937.865 140.004 936.281 139.236 934.937C138.5 933.593 137.524 932.569 136.308 931.865C135.092 931.161 133.78 930.809 132.372 930.809C130.964 930.809 129.652 931.161 128.436 931.865C127.22 932.537 126.228 933.545 125.46 934.889C124.724 936.201 124.356 937.769 124.356 939.593C124.356 941.417 124.724 943.017 125.46 944.393C126.228 945.769 127.22 946.825 128.436 947.561C129.684 948.265 130.996 948.617 132.372 948.617C133.78 948.617 135.092 948.265 136.308 947.561C137.524 946.857 138.5 945.833 139.236 944.489C140.004 943.113 140.388 941.513 140.388 939.689ZM177.335 939.065C177.335 940.057 177.271 940.953 177.143 941.753H156.935C157.095 943.865 157.879 945.561 159.287 946.841C160.695 948.121 162.423 948.761 164.471 948.761C167.415 948.761 169.495 947.529 170.711 945.065H176.615C175.815 947.497 174.359 949.497 172.247 951.065C170.167 952.602 167.575 953.37 164.471 953.37C161.943 953.37 159.671 952.81 157.655 951.689C155.671 950.537 154.103 948.937 152.951 946.889C151.831 944.809 151.271 942.409 151.271 939.689C151.271 936.969 151.815 934.585 152.903 932.537C154.023 930.457 155.575 928.857 157.559 927.737C159.575 926.617 161.879 926.057 164.471 926.057C166.967 926.057 169.191 926.601 171.143 927.689C173.095 928.777 174.615 930.313 175.703 932.297C176.791 934.249 177.335 936.505 177.335 939.065ZM171.623 937.337C171.591 935.321 170.871 933.705 169.463 932.489C168.055 931.273 166.311 930.665 164.231 930.665C162.343 930.665 160.727 931.273 159.383 932.489C158.039 933.673 157.239 935.289 156.983 937.337H171.623ZM188.192 930.329C188.992 928.985 190.048 927.945 191.36 927.209C192.704 926.441 194.288 926.057 196.112 926.057V931.721H194.72C192.576 931.721 190.944 932.265 189.824 933.353C188.736 934.441 188.192 936.329 188.192 939.017V952.938H182.72V926.49H188.192V930.329ZM211.798 926.057C213.846 926.057 215.654 926.473 217.222 927.305C218.822 928.105 220.07 929.113 220.966 930.329V926.49H226.486V953.37C226.486 955.802 225.974 957.962 224.95 959.85C223.926 961.77 222.438 963.274 220.486 964.362C218.566 965.45 216.262 965.994 213.574 965.994C209.99 965.994 207.014 965.146 204.646 963.45C202.278 961.786 200.934 959.514 200.614 956.634H206.038C206.454 958.01 207.334 959.114 208.678 959.946C210.054 960.81 211.686 961.242 213.574 961.242C215.782 961.242 217.558 960.57 218.902 959.226C220.278 957.882 220.966 955.93 220.966 953.37V948.953C220.038 950.201 218.774 951.257 217.174 952.121C215.606 952.954 213.814 953.37 211.798 953.37C209.494 953.37 207.382 952.794 205.462 951.641C203.574 950.457 202.07 948.825 200.95 946.745C199.862 944.633 199.318 942.249 199.318 939.593C199.318 936.937 199.862 934.585 200.95 932.537C202.07 930.489 203.574 928.905 205.462 927.785C207.382 926.633 209.494 926.057 211.798 926.057ZM220.966 939.689C220.966 937.865 220.582 936.281 219.814 934.937C219.078 933.593 218.102 932.569 216.886 931.865C215.67 931.161 214.358 930.809 212.95 930.809C211.542 930.809 210.23 931.161 209.014 931.865C207.798 932.537 206.806 933.545 206.038 934.889C205.302 936.201 204.934 937.769 204.934 939.593C204.934 941.417 205.302 943.017 206.038 944.393C206.806 945.769 207.798 946.825 209.014 947.561C210.262 948.265 211.574 948.617 212.95 948.617C214.358 948.617 215.67 948.265 216.886 947.561C218.102 946.857 219.078 945.833 219.814 944.489C220.582 943.113 220.966 941.513 220.966 939.689ZM239.145 930.329C239.945 928.985 241.001 927.945 242.313 927.209C243.657 926.441 245.241 926.057 247.065 926.057V931.721H245.673C243.529 931.721 241.897 932.265 240.777 933.353C239.689 934.441 239.145 936.329 239.145 939.017V952.938H233.673V926.49H239.145V930.329ZM250.271 939.593C250.271 936.937 250.815 934.585 251.903 932.537C253.023 930.489 254.527 928.905 256.415 927.785C258.335 926.633 260.447 926.057 262.751 926.057C264.831 926.057 266.639 926.473 268.175 927.305C269.743 928.105 270.991 929.113 271.919 930.329V926.49H277.439V952.938H271.919V949.001C270.991 950.249 269.727 951.289 268.127 952.121C266.527 952.954 264.703 953.37 262.655 953.37C260.383 953.37 258.303 952.794 256.415 951.641C254.527 950.457 253.023 948.825 251.903 946.745C250.815 944.633 250.271 942.249 250.271 939.593ZM271.919 939.689C271.919 937.865 271.535 936.281 270.767 934.937C270.031 933.593 269.055 932.569 267.839 931.865C266.623 931.161 265.311 930.809 263.903 930.809C262.495 930.809 261.183 931.161 259.967 931.865C258.751 932.537 257.759 933.545 256.991 934.889C256.255 936.201 255.887 937.769 255.887 939.593C255.887 941.417 256.255 943.017 256.991 944.393C257.759 945.769 258.751 946.825 259.967 947.561C261.215 948.265 262.527 948.617 263.903 948.617C265.311 948.617 266.623 948.265 267.839 947.561C269.055 946.857 270.031 945.833 270.767 944.489C271.535 943.113 271.919 941.513 271.919 939.689ZM282.802 939.593C282.802 936.937 283.346 934.585 284.434 932.537C285.554 930.489 287.058 928.905 288.946 927.785C290.866 926.633 292.994 926.057 295.33 926.057C297.058 926.057 298.754 926.441 300.418 927.209C302.114 927.945 303.458 928.937 304.45 930.185V917.417H309.97V952.938H304.45V948.953C303.554 950.233 302.306 951.289 300.706 952.121C299.138 952.954 297.33 953.37 295.282 953.37C292.978 953.37 290.866 952.794 288.946 951.641C287.058 950.457 285.554 948.825 284.434 946.745C283.346 944.633 282.802 942.249 282.802 939.593ZM304.45 939.689C304.45 937.865 304.066 936.281 303.298 934.937C302.562 933.593 301.586 932.569 300.37 931.865C299.154 931.161 297.842 930.809 296.434 930.809C295.026 930.809 293.714 931.161 292.498 931.865C291.282 932.537 290.29 933.545 289.522 934.889C288.786 936.201 288.418 937.769 288.418 939.593C288.418 941.417 288.786 943.017 289.522 944.393C290.29 945.769 291.282 946.825 292.498 947.561C293.746 948.265 295.058 948.617 296.434 948.617C297.842 948.617 299.154 948.265 300.37 947.561C301.586 946.857 302.562 945.833 303.298 944.489C304.066 943.113 304.45 941.513 304.45 939.689ZM341.11 926.49V952.938H335.638V949.817C334.774 950.905 333.638 951.769 332.23 952.409C330.854 953.017 329.382 953.322 327.814 953.322C325.734 953.322 323.862 952.889 322.198 952.025C320.566 951.161 319.27 949.881 318.31 948.185C317.382 946.489 316.918 944.441 316.918 942.041V926.49H322.342V941.225C322.342 943.593 322.934 945.417 324.118 946.697C325.302 947.945 326.918 948.569 328.966 948.569C331.014 948.569 332.63 947.945 333.814 946.697C335.03 945.417 335.638 943.593 335.638 941.225V926.49H341.11ZM346.506 939.593C346.506 936.937 347.05 934.585 348.138 932.537C349.258 930.489 350.762 928.905 352.65 927.785C354.57 926.633 356.682 926.057 358.986 926.057C361.066 926.057 362.874 926.473 364.41 927.305C365.978 928.105 367.226 929.113 368.154 930.329V926.49H373.674V952.938H368.154V949.001C367.226 950.249 365.962 951.289 364.362 952.121C362.762 952.954 360.938 953.37 358.89 953.37C356.618 953.37 354.538 952.794 352.65 951.641C350.762 950.457 349.258 948.825 348.138 946.745C347.05 944.633 346.506 942.249 346.506 939.593ZM368.154 939.689C368.154 937.865 367.77 936.281 367.002 934.937C366.266 933.593 365.29 932.569 364.074 931.865C362.858 931.161 361.546 930.809 360.138 930.809C358.73 930.809 357.418 931.161 356.202 931.865C354.986 932.537 353.994 933.545 353.226 934.889C352.49 936.201 352.122 937.769 352.122 939.593C352.122 941.417 352.49 943.017 353.226 944.393C353.994 945.769 354.986 946.825 356.202 947.561C357.45 948.265 358.762 948.617 360.138 948.617C361.546 948.617 362.858 948.265 364.074 947.561C365.29 946.857 366.266 945.833 367.002 944.489C367.77 943.113 368.154 941.513 368.154 939.689ZM387.245 930.953V945.593C387.245 946.585 387.469 947.305 387.917 947.753C388.397 948.169 389.197 948.377 390.317 948.377H393.677V952.938H389.357C386.893 952.938 385.005 952.361 383.693 951.209C382.381 950.057 381.725 948.185 381.725 945.593V930.953H378.605V926.49H381.725V919.913H387.245V926.49H393.677V930.953H387.245ZM422.96 939.065C422.96 940.057 422.896 940.953 422.768 941.753H402.56C402.72 943.865 403.504 945.561 404.912 946.841C406.32 948.121 408.048 948.761 410.096 948.761C413.04 948.761 415.12 947.529 416.336 945.065H422.24C421.44 947.497 419.984 949.497 417.872 951.065C415.792 952.602 413.2 953.37 410.096 953.37C407.568 953.37 405.296 952.81 403.28 951.689C401.296 950.537 399.728 948.937 398.576 946.889C397.456 944.809 396.896 942.409 396.896 939.689C396.896 936.969 397.44 934.585 398.528 932.537C399.648 930.457 401.2 928.857 403.184 927.737C405.2 926.617 407.504 926.057 410.096 926.057C412.592 926.057 414.816 926.601 416.768 927.689C418.72 928.777 420.24 930.313 421.328 932.297C422.416 934.249 422.96 936.505 422.96 939.065ZM417.248 937.337C417.216 935.321 416.496 933.705 415.088 932.489C413.68 931.273 411.936 930.665 409.856 930.665C407.968 930.665 406.352 931.273 405.008 932.489C403.664 933.673 402.864 935.289 402.608 937.337H417.248ZM437.945 953.37C435.865 953.37 433.993 953.002 432.329 952.265C430.697 951.497 429.401 950.473 428.441 949.193C427.481 947.881 426.969 946.425 426.905 944.825H432.569C432.665 945.945 433.193 946.889 434.153 947.657C435.145 948.393 436.377 948.761 437.849 948.761C439.385 948.761 440.569 948.473 441.401 947.897C442.265 947.289 442.697 946.521 442.697 945.593C442.697 944.601 442.217 943.865 441.257 943.385C440.329 942.905 438.841 942.377 436.793 941.801C434.809 941.257 433.193 940.729 431.945 940.217C430.697 939.705 429.609 938.921 428.681 937.865C427.785 936.809 427.337 935.417 427.337 933.689C427.337 932.281 427.753 931.001 428.585 929.849C429.417 928.665 430.601 927.737 432.137 927.065C433.705 926.393 435.497 926.057 437.513 926.057C440.521 926.057 442.937 926.825 444.761 928.361C446.617 929.865 447.609 931.929 447.737 934.553H442.265C442.169 933.369 441.689 932.425 440.825 931.721C439.961 931.017 438.793 930.665 437.321 930.665C435.881 930.665 434.777 930.937 434.009 931.481C433.241 932.025 432.857 932.745 432.857 933.641C432.857 934.345 433.113 934.937 433.625 935.417C434.137 935.897 434.761 936.281 435.497 936.569C436.233 936.825 437.321 937.161 438.761 937.577C440.681 938.089 442.249 938.617 443.465 939.161C444.713 939.673 445.785 940.441 446.681 941.465C447.577 942.489 448.041 943.849 448.073 945.545C448.073 947.049 447.657 948.393 446.825 949.577C445.993 950.762 444.809 951.69 443.273 952.361C441.769 953.034 439.993 953.37 437.945 953.37ZM321.27 994.169L307.926 1024.94H302.406L315.894 994.745H298.134V990.089H321.27V994.169ZM344.769 998.057C344.417 996.585 343.777 995.481 342.849 994.745C341.921 994.009 340.625 993.641 338.961 993.641C336.433 993.641 334.545 994.617 333.297 996.569C332.049 998.489 331.393 1001.69 331.329 1006.17C332.161 1004.76 333.377 1003.67 334.977 1002.91C336.577 1002.14 338.305 1001.75 340.161 1001.75C342.273 1001.75 344.129 1002.22 345.729 1003.15C347.361 1004.04 348.625 1005.35 349.521 1007.08C350.449 1008.81 350.913 1010.87 350.913 1013.27C350.913 1015.51 350.465 1017.51 349.569 1019.27C348.705 1021.03 347.409 1022.43 345.681 1023.45C343.953 1024.44 341.873 1024.94 339.441 1024.94C336.145 1024.94 333.553 1024.22 331.665 1022.78C329.809 1021.31 328.497 1019.24 327.729 1016.59C326.993 1013.93 326.625 1010.62 326.625 1006.65C326.625 994.937 330.753 989.081 339.009 989.081C342.209 989.081 344.721 989.945 346.545 991.673C348.401 993.401 349.489 995.529 349.809 998.057H344.769ZM338.961 1006.36C337.009 1006.36 335.345 1006.95 333.969 1008.14C332.625 1009.29 331.953 1010.97 331.953 1013.18C331.953 1015.39 332.577 1017.15 333.825 1018.46C335.105 1019.74 336.881 1020.38 339.153 1020.38C341.169 1020.38 342.753 1019.75 343.905 1018.51C345.089 1017.26 345.681 1015.59 345.681 1013.51C345.681 1011.34 345.105 1009.61 343.953 1008.33C342.833 1007.02 341.169 1006.36 338.961 1006.36ZM359.678 1025.27C358.686 1025.27 357.854 1024.94 357.182 1024.27C356.51 1023.59 356.174 1022.76 356.174 1021.77C356.174 1020.78 356.51 1019.95 357.182 1019.27C357.854 1018.6 358.686 1018.27 359.678 1018.27C360.638 1018.27 361.454 1018.6 362.126 1019.27C362.798 1019.95 363.134 1020.78 363.134 1021.77C363.134 1022.76 362.798 1023.59 362.126 1024.27C361.454 1024.94 360.638 1025.27 359.678 1025.27ZM368.232 998.585C368.424 995.609 369.56 993.289 371.64 991.625C373.752 989.961 376.44 989.129 379.704 989.129C381.944 989.129 383.88 989.529 385.512 990.329C387.144 991.129 388.376 992.217 389.208 993.593C390.04 994.969 390.456 996.521 390.456 998.249C390.456 1000.23 389.928 1001.93 388.872 1003.34C387.816 1004.75 386.552 1005.69 385.08 1006.17V1006.36C386.968 1006.94 388.44 1007.99 389.496 1009.53C390.552 1011.03 391.08 1012.97 391.08 1015.34C391.08 1017.23 390.648 1018.91 389.784 1020.38C388.92 1021.85 387.64 1023.02 385.944 1023.88C384.248 1024.71 382.216 1025.13 379.848 1025.13C376.392 1025.13 373.544 1024.25 371.304 1022.49C369.096 1020.7 367.912 1018.14 367.752 1014.81H373.032C373.16 1016.51 373.816 1017.9 375 1018.99C376.184 1020.04 377.784 1020.57 379.8 1020.57C381.752 1020.57 383.256 1020.04 384.312 1018.99C385.368 1017.9 385.896 1016.51 385.896 1014.81C385.896 1012.57 385.176 1010.99 383.736 1010.06C382.328 1009.1 380.152 1008.62 377.208 1008.62H375.96V1004.11H377.256C379.848 1004.07 381.816 1003.64 383.16 1002.81C384.536 1001.98 385.224 1000.67 385.224 998.873C385.224 997.337 384.728 996.121 383.736 995.225C382.744 994.297 381.336 993.833 379.512 993.833C377.72 993.833 376.328 994.297 375.336 995.225C374.344 996.121 373.752 997.241 373.56 998.585H368.232ZM415.644 998.057C415.292 996.585 414.652 995.481 413.724 994.745C412.796 994.009 411.5 993.641 409.836 993.641C407.308 993.641 405.42 994.617 404.172 996.569C402.924 998.489 402.268 1001.69 402.204 1006.17C403.036 1004.76 404.252 1003.67 405.852 1002.91C407.452 1002.14 409.18 1001.75 411.036 1001.75C413.148 1001.75 415.004 1002.22 416.604 1003.15C418.236 1004.04 419.5 1005.35 420.396 1007.08C421.324 1008.81 421.788 1010.87 421.788 1013.27C421.788 1015.51 421.34 1017.51 420.444 1019.27C419.58 1021.03 418.284 1022.43 416.556 1023.45C414.828 1024.44 412.748 1024.94 410.316 1024.94C407.02 1024.94 404.428 1024.22 402.54 1022.78C400.684 1021.31 399.372 1019.24 398.604 1016.59C397.868 1013.93 397.5 1010.62 397.5 1006.65C397.5 994.937 401.628 989.081 409.884 989.081C413.084 989.081 415.596 989.945 417.42 991.673C419.276 993.401 420.364 995.529 420.684 998.057H415.644ZM409.836 1006.36C407.884 1006.36 406.22 1006.95 404.844 1008.14C403.5 1009.29 402.828 1010.97 402.828 1013.18C402.828 1015.39 403.452 1017.15 404.7 1018.46C405.98 1019.74 407.756 1020.38 410.028 1020.38C412.044 1020.38 413.628 1019.75 414.78 1018.51C415.964 1017.26 416.556 1015.59 416.556 1013.51C416.556 1011.34 415.98 1009.61 414.828 1008.33C413.708 1007.02 412.044 1006.36 409.836 1006.36ZM426.761 998.393C426.761 996.057 427.433 994.233 428.777 992.921C430.153 991.577 431.913 990.905 434.057 990.905C436.201 990.905 437.945 991.577 439.289 992.921C440.665 994.233 441.353 996.057 441.353 998.393C441.353 1000.73 440.665 1002.57 439.289 1003.91C437.945 1005.26 436.201 1005.93 434.057 1005.93C431.913 1005.93 430.153 1005.26 428.777 1003.91C427.433 1002.57 426.761 1000.73 426.761 998.393ZM456.041 991.529L436.889 1024.94H431.513L450.665 991.529H456.041ZM434.057 994.217C432.041 994.217 431.033 995.609 431.033 998.393C431.033 1001.21 432.041 1002.62 434.057 1002.62C435.017 1002.62 435.753 1002.28 436.265 1001.61C436.809 1000.91 437.081 999.833 437.081 998.393C437.081 995.609 436.073 994.217 434.057 994.217ZM446.297 1018.03C446.297 1015.69 446.969 1013.87 448.313 1012.55C449.689 1011.21 451.449 1010.54 453.593 1010.54C455.705 1010.54 457.433 1011.21 458.777 1012.55C460.153 1013.87 460.841 1015.69 460.841 1018.03C460.841 1020.36 460.153 1022.2 458.777 1023.55C457.433 1024.89 455.705 1025.56 453.593 1025.56C451.449 1025.56 449.689 1024.89 448.313 1023.55C446.969 1022.2 446.297 1020.36 446.297 1018.03ZM453.545 1013.85C451.529 1013.85 450.521 1015.24 450.521 1018.03C450.521 1020.81 451.529 1022.2 453.545 1022.2C455.561 1022.2 456.569 1020.81 456.569 1018.03C456.569 1015.24 455.561 1013.85 453.545 1013.85Z" fill="#D7316E"/>
<path d="M125.936 179.527C125.072 177.863 123.872 176.615 122.336 175.783C120.8 174.919 119.024 174.487 117.008 174.487C114.8 174.487 112.832 174.983 111.104 175.975C109.376 176.967 108.016 178.375 107.024 180.199C106.064 182.023 105.584 184.135 105.584 186.535C105.584 188.935 106.064 191.063 107.024 192.919C108.016 194.743 109.376 196.151 111.104 197.143C112.832 198.135 114.8 198.631 117.008 198.631C119.984 198.631 122.4 197.799 124.256 196.135C126.112 194.471 127.248 192.215 127.664 189.367H115.136V184.999H133.52V189.271C133.168 191.863 132.24 194.247 130.736 196.423C129.264 198.599 127.328 200.343 124.928 201.655C122.56 202.935 119.92 203.575 117.008 203.575C113.872 203.575 111.008 202.855 108.416 201.415C105.824 199.943 103.76 197.911 102.224 195.319C100.72 192.727 99.9677 189.799 99.9677 186.535C99.9677 183.271 100.72 180.343 102.224 177.751C103.76 175.159 105.824 173.143 108.416 171.703C111.04 170.231 113.904 169.495 117.008 169.495C120.56 169.495 123.712 170.375 126.464 172.135C129.248 173.863 131.264 176.327 132.512 179.527H125.936ZM144.389 180.679C145.189 179.335 146.245 178.295 147.557 177.559C148.901 176.791 150.485 176.407 152.309 176.407V182.071H150.917C148.773 182.071 147.141 182.615 146.021 183.703C144.933 184.791 144.389 186.679 144.389 189.367V203.287H138.917V176.839H144.389V180.679ZM155.515 189.943C155.515 187.287 156.059 184.935 157.147 182.887C158.267 180.839 159.771 179.255 161.659 178.135C163.579 176.983 165.691 176.407 167.995 176.407C170.075 176.407 171.883 176.823 173.419 177.655C174.987 178.455 176.235 179.463 177.163 180.679V176.839H182.683V203.287H177.163V199.351C176.235 200.599 174.971 201.639 173.371 202.471C171.771 203.303 169.947 203.719 167.899 203.719C165.627 203.719 163.547 203.143 161.659 201.991C159.771 200.807 158.267 199.175 157.147 197.095C156.059 194.983 155.515 192.599 155.515 189.943ZM177.163 190.039C177.163 188.215 176.779 186.631 176.011 185.287C175.275 183.943 174.299 182.919 173.083 182.215C171.867 181.511 170.555 181.159 169.147 181.159C167.739 181.159 166.427 181.511 165.211 182.215C163.995 182.887 163.003 183.895 162.235 185.239C161.499 186.551 161.131 188.119 161.131 189.943C161.131 191.767 161.499 193.367 162.235 194.743C163.003 196.119 163.995 197.175 165.211 197.911C166.459 198.615 167.771 198.967 169.147 198.967C170.555 198.967 171.867 198.615 173.083 197.911C174.299 197.207 175.275 196.183 176.011 194.839C176.779 193.463 177.163 191.863 177.163 190.039ZM188.046 189.943C188.046 187.287 188.59 184.935 189.678 182.887C190.798 180.839 192.302 179.255 194.19 178.135C196.11 176.983 198.238 176.407 200.574 176.407C202.302 176.407 203.998 176.791 205.662 177.559C207.358 178.295 208.702 179.287 209.694 180.535V167.767H215.214V203.287H209.694V199.303C208.798 200.583 207.55 201.639 205.95 202.471C204.382 203.303 202.574 203.719 200.526 203.719C198.222 203.719 196.11 203.143 194.19 201.991C192.302 200.807 190.798 199.175 189.678 197.095C188.59 194.983 188.046 192.599 188.046 189.943ZM209.694 190.039C209.694 188.215 209.31 186.631 208.542 185.287C207.806 183.943 206.83 182.919 205.614 182.215C204.398 181.511 203.086 181.159 201.678 181.159C200.27 181.159 198.958 181.511 197.742 182.215C196.526 182.887 195.534 183.895 194.766 185.239C194.03 186.551 193.662 188.119 193.662 189.943C193.662 191.767 194.03 193.367 194.766 194.743C195.534 196.119 196.526 197.175 197.742 197.911C198.99 198.615 200.302 198.967 201.678 198.967C203.086 198.967 204.398 198.615 205.614 197.911C206.83 197.207 207.806 196.183 208.542 194.839C209.31 193.463 209.694 191.863 209.694 190.039ZM245.862 203.623C243.622 203.623 241.606 203.239 239.814 202.471C238.022 201.671 236.614 200.551 235.59 199.111C234.566 197.671 234.054 195.991 234.054 194.071H239.91C240.038 195.511 240.598 196.695 241.59 197.623C242.614 198.551 244.038 199.015 245.862 199.015C247.75 199.015 249.222 198.567 250.278 197.671C251.334 196.743 251.862 195.559 251.862 194.119C251.862 192.999 251.526 192.087 250.854 191.383C250.214 190.679 249.398 190.135 248.406 189.751C247.446 189.367 246.102 188.951 244.374 188.503C242.198 187.927 240.422 187.351 239.046 186.775C237.702 186.167 236.55 185.239 235.59 183.991C234.63 182.743 234.15 181.079 234.15 178.999C234.15 177.079 234.63 175.399 235.59 173.959C236.55 172.519 237.894 171.415 239.622 170.647C241.35 169.879 243.35 169.495 245.622 169.495C248.854 169.495 251.494 170.311 253.542 171.943C255.622 173.543 256.774 175.751 256.998 178.567H250.95C250.854 177.351 250.278 176.311 249.222 175.447C248.166 174.583 246.774 174.151 245.046 174.151C243.478 174.151 242.198 174.551 241.206 175.351C240.214 176.151 239.718 177.303 239.718 178.807C239.718 179.831 240.022 180.679 240.63 181.351C241.27 181.991 242.07 182.503 243.03 182.887C243.99 183.271 245.302 183.687 246.966 184.135C249.174 184.743 250.966 185.351 252.342 185.959C253.75 186.567 254.934 187.511 255.894 188.791C256.886 190.039 257.382 191.719 257.382 193.831C257.382 195.527 256.918 197.127 255.99 198.631C255.094 200.135 253.766 201.351 252.006 202.279C250.278 203.175 248.23 203.623 245.862 203.623ZM270.223 181.303V195.943C270.223 196.935 270.447 197.655 270.895 198.103C271.375 198.519 272.175 198.727 273.295 198.727H276.655V203.287H272.335C269.871 203.287 267.983 202.711 266.671 201.559C265.359 200.407 264.703 198.535 264.703 195.943V181.303H261.583V176.839H264.703V170.263H270.223V176.839H276.655V181.303H270.223ZM305.65 176.839V203.287H300.178V200.167C299.314 201.255 298.178 202.119 296.77 202.759C295.394 203.367 293.922 203.671 292.354 203.671C290.274 203.671 288.402 203.239 286.738 202.375C285.106 201.511 283.81 200.231 282.85 198.535C281.922 196.839 281.458 194.791 281.458 192.391V176.839H286.882V191.575C286.882 193.943 287.474 195.767 288.658 197.047C289.842 198.295 291.458 198.919 293.506 198.919C295.554 198.919 297.17 198.295 298.354 197.047C299.57 195.767 300.178 193.943 300.178 191.575V176.839H305.65ZM311.046 189.943C311.046 187.287 311.59 184.935 312.678 182.887C313.798 180.839 315.302 179.255 317.19 178.135C319.11 176.983 321.238 176.407 323.574 176.407C325.302 176.407 326.998 176.791 328.662 177.559C330.358 178.295 331.702 179.287 332.694 180.535V167.767H338.214V203.287H332.694V199.303C331.798 200.583 330.55 201.639 328.95 202.471C327.382 203.303 325.574 203.719 323.526 203.719C321.222 203.719 319.11 203.143 317.19 201.991C315.302 200.807 313.798 199.175 312.678 197.095C311.59 194.983 311.046 192.599 311.046 189.943ZM332.694 190.039C332.694 188.215 332.31 186.631 331.542 185.287C330.806 183.943 329.83 182.919 328.614 182.215C327.398 181.511 326.086 181.159 324.678 181.159C323.27 181.159 321.958 181.511 320.742 182.215C319.526 182.887 318.534 183.895 317.766 185.239C317.03 186.551 316.662 188.119 316.662 189.943C316.662 191.767 317.03 193.367 317.766 194.743C318.534 196.119 319.526 197.175 320.742 197.911C321.99 198.615 323.302 198.967 324.678 198.967C326.086 198.967 327.398 198.615 328.614 197.911C329.83 197.207 330.806 196.183 331.542 194.839C332.31 193.463 332.694 191.863 332.694 190.039ZM369.641 189.415C369.641 190.407 369.577 191.303 369.449 192.103H349.241C349.401 194.215 350.185 195.911 351.593 197.191C353.001 198.471 354.729 199.111 356.777 199.111C359.721 199.111 361.801 197.879 363.017 195.415H368.921C368.121 197.847 366.665 199.847 364.553 201.415C362.473 202.951 359.881 203.719 356.777 203.719C354.249 203.719 351.977 203.159 349.961 202.039C347.977 200.887 346.409 199.287 345.257 197.239C344.137 195.159 343.577 192.759 343.577 190.039C343.577 187.319 344.121 184.935 345.209 182.887C346.329 180.807 347.881 179.207 349.865 178.087C351.881 176.967 354.185 176.407 356.777 176.407C359.273 176.407 361.497 176.951 363.449 178.039C365.401 179.127 366.921 180.663 368.009 182.647C369.097 184.599 369.641 186.855 369.641 189.415ZM363.929 187.687C363.897 185.671 363.177 184.055 361.769 182.839C360.361 181.623 358.617 181.015 356.537 181.015C354.649 181.015 353.033 181.623 351.689 182.839C350.345 184.023 349.545 185.639 349.289 187.687H363.929ZM388.37 176.407C390.45 176.407 392.306 176.839 393.938 177.703C395.602 178.567 396.898 179.847 397.826 181.543C398.754 183.239 399.218 185.287 399.218 187.687V203.287H393.794V188.503C393.794 186.135 393.202 184.327 392.018 183.079C390.834 181.799 389.218 181.159 387.17 181.159C385.122 181.159 383.49 181.799 382.274 183.079C381.09 184.327 380.498 186.135 380.498 188.503V203.287H375.026V176.839H380.498V179.863C381.394 178.775 382.53 177.927 383.906 177.319C385.314 176.711 386.802 176.407 388.37 176.407ZM412.582 181.303V195.943C412.582 196.935 412.806 197.655 413.254 198.103C413.734 198.519 414.534 198.727 415.654 198.727H419.014V203.287H414.694C412.23 203.287 410.342 202.711 409.03 201.559C407.718 200.407 407.062 198.535 407.062 195.943V181.303H403.942V176.839H407.062V170.263H412.582V176.839H419.014V181.303H412.582ZM433.657 203.719C431.577 203.719 429.705 203.351 428.041 202.615C426.409 201.847 425.113 200.823 424.153 199.543C423.193 198.231 422.681 196.775 422.617 195.175H428.281C428.377 196.295 428.905 197.239 429.865 198.007C430.857 198.743 432.089 199.111 433.561 199.111C435.097 199.111 436.281 198.823 437.113 198.247C437.977 197.639 438.409 196.871 438.409 195.943C438.409 194.951 437.929 194.215 436.969 193.735C436.041 193.255 434.553 192.727 432.505 192.151C430.521 191.607 428.905 191.079 427.657 190.567C426.409 190.055 425.321 189.271 424.393 188.215C423.497 187.159 423.049 185.767 423.049 184.039C423.049 182.631 423.465 181.351 424.297 180.199C425.129 179.015 426.313 178.087 427.849 177.415C429.417 176.743 431.209 176.407 433.225 176.407C436.233 176.407 438.649 177.175 440.473 178.711C442.329 180.215 443.321 182.279 443.449 184.903H437.977C437.881 183.719 437.401 182.775 436.537 182.071C435.673 181.367 434.505 181.015 433.033 181.015C431.593 181.015 430.489 181.287 429.721 181.831C428.953 182.375 428.569 183.095 428.569 183.991C428.569 184.695 428.825 185.287 429.337 185.767C429.849 186.247 430.473 186.631 431.209 186.919C431.945 187.175 433.033 187.511 434.473 187.927C436.393 188.439 437.961 188.967 439.177 189.511C440.425 190.023 441.497 190.791 442.393 191.815C443.289 192.839 443.753 194.199 443.785 195.895C443.785 197.399 443.369 198.743 442.537 199.927C441.705 201.111 440.521 202.039 438.985 202.711C437.481 203.383 435.705 203.719 433.657 203.719ZM455.698 196.711L449.89 209.959H446.338L449.746 196.711H455.698ZM374.31 244.519L360.966 275.287H355.446L368.934 245.095H351.174V240.439H374.31V244.519ZM381.922 275.623C380.93 275.623 380.098 275.287 379.426 274.615C378.754 273.943 378.418 273.111 378.418 272.119C378.418 271.127 378.754 270.295 379.426 269.623C380.098 268.951 380.93 268.615 381.922 268.615C382.882 268.615 383.698 268.951 384.37 269.623C385.042 270.295 385.378 271.127 385.378 272.119C385.378 273.111 385.042 273.943 384.37 274.615C383.698 275.287 382.882 275.623 381.922 275.623ZM389.9 267.991V263.863L406.028 240.727H412.652V263.239H417.116V267.991H412.652V275.287H407.276V267.991H389.9ZM407.516 246.295L396.188 263.239H407.516V246.295ZM420.786 248.743C420.786 246.407 421.458 244.583 422.802 243.271C424.178 241.927 425.938 241.255 428.082 241.255C430.226 241.255 431.97 241.927 433.314 243.271C434.69 244.583 435.378 246.407 435.378 248.743C435.378 251.079 434.69 252.919 433.314 254.263C431.97 255.607 430.226 256.279 428.082 256.279C425.938 256.279 424.178 255.607 422.802 254.263C421.458 252.919 420.786 251.079 420.786 248.743ZM450.066 241.879L430.914 275.287H425.538L444.69 241.879H450.066ZM428.082 244.567C426.066 244.567 425.058 245.959 425.058 248.743C425.058 251.559 426.066 252.967 428.082 252.967C429.042 252.967 429.778 252.631 430.29 251.959C430.834 251.255 431.106 250.183 431.106 248.743C431.106 245.959 430.098 244.567 428.082 244.567ZM440.322 268.375C440.322 266.039 440.994 264.215 442.338 262.903C443.714 261.559 445.474 260.887 447.618 260.887C449.73 260.887 451.458 261.559 452.802 262.903C454.178 264.215 454.866 266.039 454.866 268.375C454.866 270.711 454.178 272.551 452.802 273.895C451.458 275.239 449.73 275.911 447.618 275.911C445.474 275.911 443.714 275.239 442.338 273.895C440.994 272.551 440.322 270.711 440.322 268.375ZM447.57 264.199C445.554 264.199 444.546 265.591 444.546 268.375C444.546 271.159 445.554 272.551 447.57 272.551C449.586 272.551 450.594 271.159 450.594 268.375C450.594 265.591 449.586 264.199 447.57 264.199Z" fill="#7937AE"/>
<path d="M198.928 53L191.248 39.656H187.072V53H181.6V19.64H193.12C195.68 19.64 197.84 20.088 199.6 20.984C201.392 21.88 202.72 23.08 203.584 24.584C204.48 26.088 204.928 27.768 204.928 29.624C204.928 31.8 204.288 33.784 203.008 35.576C201.76 37.336 199.824 38.536 197.2 39.176L205.456 53H198.928ZM187.072 35.288H193.12C195.168 35.288 196.704 34.776 197.728 33.752C198.784 32.728 199.312 31.352 199.312 29.624C199.312 27.896 198.8 26.552 197.776 25.592C196.752 24.6 195.2 24.104 193.12 24.104H187.072V35.288ZM236.168 39.128C236.168 40.12 236.104 41.016 235.976 41.816H215.768C215.928 43.928 216.712 45.624 218.12 46.904C219.528 48.184 221.256 48.824 223.304 48.824C226.248 48.824 228.328 47.592 229.544 45.128H235.448C234.648 47.56 233.192 49.56 231.08 51.128C229 52.664 226.408 53.432 223.304 53.432C220.776 53.432 218.504 52.872 216.488 51.752C214.504 50.6 212.936 49 211.784 46.952C210.664 44.872 210.104 42.472 210.104 39.752C210.104 37.032 210.648 34.648 211.736 32.6C212.856 30.52 214.408 28.92 216.392 27.8C218.408 26.68 220.712 26.12 223.304 26.12C225.8 26.12 228.024 26.664 229.976 27.752C231.928 28.84 233.448 30.376 234.536 32.36C235.624 34.312 236.168 36.568 236.168 39.128ZM230.456 37.4C230.424 35.384 229.704 33.768 228.296 32.552C226.888 31.336 225.144 30.728 223.064 30.728C221.176 30.728 219.56 31.336 218.216 32.552C216.872 33.736 216.072 35.352 215.816 37.4H230.456ZM239.729 39.752C239.729 37.032 240.273 34.648 241.361 32.6C242.481 30.52 244.017 28.92 245.969 27.8C247.921 26.68 250.161 26.12 252.689 26.12C255.889 26.12 258.529 26.888 260.609 28.424C262.721 29.928 264.145 32.088 264.881 34.904H258.977C258.497 33.592 257.729 32.568 256.673 31.832C255.617 31.096 254.289 30.728 252.689 30.728C250.449 30.728 248.657 31.528 247.313 33.128C246.001 34.696 245.345 36.904 245.345 39.752C245.345 42.6 246.001 44.824 247.313 46.424C248.657 48.024 250.449 48.824 252.689 48.824C255.857 48.824 257.953 47.432 258.977 44.648H264.881C264.113 47.336 262.673 49.48 260.561 51.08C258.449 52.648 255.825 53.432 252.689 53.432C250.161 53.432 247.921 52.872 245.969 51.752C244.017 50.6 242.481 49 241.361 46.952C240.273 44.872 239.729 42.472 239.729 39.752ZM294.574 39.128C294.574 40.12 294.51 41.016 294.382 41.816H274.174C274.334 43.928 275.118 45.624 276.526 46.904C277.934 48.184 279.662 48.824 281.71 48.824C284.654 48.824 286.734 47.592 287.95 45.128H293.854C293.054 47.56 291.598 49.56 289.486 51.128C287.406 52.664 284.814 53.432 281.71 53.432C279.182 53.432 276.91 52.872 274.894 51.752C272.91 50.6 271.342 49 270.19 46.952C269.07 44.872 268.51 42.472 268.51 39.752C268.51 37.032 269.054 34.648 270.142 32.6C271.262 30.52 272.814 28.92 274.798 27.8C276.814 26.68 279.118 26.12 281.71 26.12C284.206 26.12 286.43 26.664 288.382 27.752C290.334 28.84 291.854 30.376 292.942 32.36C294.03 34.312 294.574 36.568 294.574 39.128ZM288.862 37.4C288.83 35.384 288.11 33.768 286.702 32.552C285.294 31.336 283.55 30.728 281.47 30.728C279.582 30.728 277.966 31.336 276.622 32.552C275.278 33.736 274.478 35.352 274.222 37.4H288.862ZM313.303 26.12C315.383 26.12 317.239 26.552 318.871 27.416C320.535 28.28 321.831 29.56 322.759 31.256C323.687 32.952 324.151 35 324.151 37.4V53H318.727V38.216C318.727 35.848 318.135 34.04 316.951 32.792C315.767 31.512 314.151 30.872 312.103 30.872C310.055 30.872 308.423 31.512 307.207 32.792C306.023 34.04 305.431 35.848 305.431 38.216V53H299.959V26.552H305.431V29.576C306.327 28.488 307.463 27.64 308.839 27.032C310.247 26.424 311.735 26.12 313.303 26.12ZM337.515 31.016V45.656C337.515 46.648 337.739 47.368 338.187 47.816C338.667 48.232 339.467 48.44 340.587 48.44H343.947V53H339.627C337.163 53 335.275 52.424 333.963 51.272C332.651 50.12 331.995 48.248 331.995 45.656V31.016H328.875V26.552H331.995V19.976H337.515V26.552H343.947V31.016H337.515ZM385.603 29.24C384.739 27.576 383.539 26.328 382.003 25.496C380.467 24.632 378.691 24.2 376.675 24.2C374.467 24.2 372.499 24.696 370.771 25.688C369.043 26.68 367.683 28.088 366.691 29.912C365.731 31.736 365.251 33.848 365.251 36.248C365.251 38.648 365.731 40.776 366.691 42.632C367.683 44.456 369.043 45.864 370.771 46.856C372.499 47.848 374.467 48.344 376.675 48.344C379.651 48.344 382.067 47.512 383.923 45.848C385.779 44.184 386.915 41.928 387.331 39.08H374.803V34.712H393.187V38.984C392.835 41.576 391.907 43.96 390.403 46.136C388.931 48.312 386.995 50.056 384.595 51.368C382.227 52.648 379.587 53.288 376.675 53.288C373.539 53.288 370.675 52.568 368.083 51.128C365.491 49.656 363.427 47.624 361.891 45.032C360.387 42.44 359.635 39.512 359.635 36.248C359.635 32.984 360.387 30.056 361.891 27.464C363.427 24.872 365.491 22.856 368.083 21.416C370.707 19.944 373.571 19.208 376.675 19.208C380.227 19.208 383.379 20.088 386.131 21.848C388.915 23.576 390.931 26.04 392.179 29.24H385.603ZM404.056 30.392C404.856 29.048 405.912 28.008 407.224 27.272C408.568 26.504 410.152 26.12 411.976 26.12V31.784H410.584C408.44 31.784 406.808 32.328 405.688 33.416C404.6 34.504 404.056 36.392 404.056 39.08V53H398.584V26.552H404.056V30.392ZM415.182 39.656C415.182 37 415.726 34.648 416.814 32.6C417.934 30.552 419.438 28.968 421.326 27.848C423.246 26.696 425.358 26.12 427.662 26.12C429.742 26.12 431.55 26.536 433.086 27.368C434.654 28.168 435.902 29.176 436.83 30.392V26.552H442.35V53H436.83V49.064C435.902 50.312 434.638 51.352 433.038 52.184C431.438 53.016 429.614 53.432 427.566 53.432C425.294 53.432 423.214 52.856 421.326 51.704C419.438 50.52 417.934 48.888 416.814 46.808C415.726 44.696 415.182 42.312 415.182 39.656ZM436.83 39.752C436.83 37.928 436.446 36.344 435.678 35C434.942 33.656 433.966 32.632 432.75 31.928C431.534 31.224 430.222 30.872 428.814 30.872C427.406 30.872 426.094 31.224 424.878 31.928C423.662 32.6 422.67 33.608 421.902 34.952C421.166 36.264 420.798 37.832 420.798 39.656C420.798 41.48 421.166 43.08 421.902 44.456C422.67 45.832 423.662 46.888 424.878 47.624C426.126 48.328 427.438 48.68 428.814 48.68C430.222 48.68 431.534 48.328 432.75 47.624C433.966 46.92 434.942 45.896 435.678 44.552C436.446 43.176 436.83 41.576 436.83 39.752ZM447.714 39.656C447.714 37 448.258 34.648 449.346 32.6C450.466 30.552 451.97 28.968 453.858 27.848C455.778 26.696 457.906 26.12 460.242 26.12C461.97 26.12 463.666 26.504 465.33 27.272C467.026 28.008 468.37 29 469.362 30.248V17.48H474.882V53H469.362V49.016C468.466 50.296 467.218 51.352 465.618 52.184C464.05 53.016 462.242 53.432 460.194 53.432C457.89 53.432 455.778 52.856 453.858 51.704C451.97 50.52 450.466 48.888 449.346 46.808C448.258 44.696 447.714 42.312 447.714 39.656ZM469.362 39.752C469.362 37.928 468.978 36.344 468.21 35C467.474 33.656 466.498 32.632 465.282 31.928C464.066 31.224 462.754 30.872 461.346 30.872C459.938 30.872 458.626 31.224 457.41 31.928C456.194 32.6 455.202 33.608 454.434 34.952C453.698 36.264 453.33 37.832 453.33 39.656C453.33 41.48 453.698 43.08 454.434 44.456C455.202 45.832 456.194 46.888 457.41 47.624C458.658 48.328 459.97 48.68 461.346 48.68C462.754 48.68 464.066 48.328 465.282 47.624C466.498 46.92 467.474 45.896 468.21 44.552C468.978 43.176 469.362 41.576 469.362 39.752ZM491.669 53.432C489.589 53.432 487.717 53.064 486.053 52.328C484.421 51.56 483.125 50.536 482.165 49.256C481.205 47.944 480.693 46.488 480.629 44.888H486.293C486.389 46.008 486.917 46.952 487.877 47.72C488.869 48.456 490.101 48.824 491.573 48.824C493.109 48.824 494.293 48.536 495.125 47.96C495.989 47.352 496.421 46.584 496.421 45.656C496.421 44.664 495.941 43.928 494.981 43.448C494.053 42.968 492.565 42.44 490.517 41.864C488.533 41.32 486.917 40.792 485.669 40.28C484.421 39.768 483.333 38.984 482.405 37.928C481.509 36.872 481.061 35.48 481.061 33.752C481.061 32.344 481.477 31.064 482.309 29.912C483.141 28.728 484.325 27.8 485.861 27.128C487.429 26.456 489.221 26.12 491.237 26.12C494.245 26.12 496.661 26.888 498.485 28.424C500.341 29.928 501.333 31.992 501.461 34.616H495.989C495.893 33.432 495.413 32.488 494.549 31.784C493.685 31.08 492.517 30.728 491.045 30.728C489.605 30.728 488.501 31 487.733 31.544C486.965 32.088 486.581 32.808 486.581 33.704C486.581 34.408 486.837 35 487.349 35.48C487.861 35.96 488.485 36.344 489.221 36.632C489.957 36.888 491.045 37.224 492.485 37.64C494.405 38.152 495.973 38.68 497.189 39.224C498.437 39.736 499.509 40.504 500.405 41.528C501.301 42.552 501.765 43.912 501.797 45.608C501.797 47.112 501.381 48.456 500.549 49.64C499.717 50.824 498.533 51.752 496.997 52.424C495.493 53.096 493.717 53.432 491.669 53.432ZM513.709 46.424L507.901 59.672H504.349L507.757 46.424H513.709ZM529.519 23V18.008H539.503V53H533.983V23H529.519ZM549.949 53.336C548.957 53.336 548.125 53 547.453 52.328C546.781 51.656 546.445 50.824 546.445 49.832C546.445 48.84 546.781 48.008 547.453 47.336C548.125 46.664 548.957 46.328 549.949 46.328C550.909 46.328 551.725 46.664 552.397 47.336C553.069 48.008 553.405 48.84 553.405 49.832C553.405 50.824 553.069 51.656 552.397 52.328C551.725 53 550.909 53.336 549.949 53.336ZM564.503 34.712C561.175 33.048 559.511 30.424 559.511 26.84C559.511 25.112 559.943 23.528 560.807 22.088C561.671 20.648 562.967 19.512 564.695 18.68C566.423 17.816 568.535 17.384 571.031 17.384C573.495 17.384 575.591 17.816 577.319 18.68C579.079 19.512 580.391 20.648 581.255 22.088C582.119 23.528 582.551 25.112 582.551 26.84C582.551 28.632 582.087 30.216 581.159 31.592C580.263 32.936 579.063 33.976 577.559 34.712C579.383 35.384 580.823 36.488 581.879 38.024C582.935 39.528 583.463 41.304 583.463 43.352C583.463 45.432 582.935 47.272 581.879 48.872C580.823 50.472 579.351 51.704 577.463 52.568C575.575 53.432 573.431 53.864 571.031 53.864C568.631 53.864 566.487 53.432 564.599 52.568C562.743 51.704 561.287 50.472 560.231 48.872C559.175 47.272 558.647 45.432 558.647 43.352C558.647 41.272 559.175 39.48 560.231 37.976C561.287 36.472 562.711 35.384 564.503 34.712ZM577.319 27.512C577.319 25.72 576.759 24.344 575.639 23.384C574.519 22.424 572.983 21.944 571.031 21.944C569.111 21.944 567.591 22.424 566.471 23.384C565.351 24.344 564.791 25.736 564.791 27.56C564.791 29.16 565.367 30.472 566.519 31.496C567.703 32.488 569.207 32.984 571.031 32.984C572.855 32.984 574.359 32.472 575.543 31.448C576.727 30.424 577.319 29.112 577.319 27.512ZM571.031 37.112C568.919 37.112 567.191 37.64 565.847 38.696C564.535 39.72 563.879 41.208 563.879 43.16C563.879 44.984 564.519 46.472 565.799 47.624C567.079 48.744 568.823 49.304 571.031 49.304C573.207 49.304 574.919 48.728 576.167 47.576C577.447 46.424 578.087 44.952 578.087 43.16C578.087 41.24 577.431 39.752 576.119 38.696C574.839 37.64 573.143 37.112 571.031 37.112ZM588.344 26.456C588.344 24.12 589.016 22.296 590.36 20.984C591.736 19.64 593.496 18.968 595.64 18.968C597.784 18.968 599.528 19.64 600.872 20.984C602.248 22.296 602.936 24.12 602.936 26.456C602.936 28.792 602.248 30.632 600.872 31.976C599.528 33.32 597.784 33.992 595.64 33.992C593.496 33.992 591.736 33.32 590.36 31.976C589.016 30.632 588.344 28.792 588.344 26.456ZM617.624 19.592L598.472 53H593.096L612.248 19.592H617.624ZM595.64 22.28C593.624 22.28 592.616 23.672 592.616 26.456C592.616 29.272 593.624 30.68 595.64 30.68C596.6 30.68 597.336 30.344 597.848 29.672C598.392 28.968 598.664 27.896 598.664 26.456C598.664 23.672 597.656 22.28 595.64 22.28ZM607.88 46.088C607.88 43.752 608.552 41.928 609.896 40.616C611.272 39.272 613.032 38.6 615.176 38.6C617.288 38.6 619.016 39.272 620.36 40.616C621.736 41.928 622.424 43.752 622.424 46.088C622.424 48.424 621.736 50.264 620.36 51.608C619.016 52.952 617.288 53.624 615.176 53.624C613.032 53.624 611.272 52.952 609.896 51.608C608.552 50.264 607.88 48.424 607.88 46.088ZM615.128 41.912C613.112 41.912 612.104 43.304 612.104 46.088C612.104 48.872 613.112 50.264 615.128 50.264C617.144 50.264 618.152 48.872 618.152 46.088C618.152 43.304 617.144 41.912 615.128 41.912Z" fill="#F27AAA"/>
<path d="M797.736 45.64V79H792.264V56.152L782.088 79H778.296L768.072 56.152V79H762.6V45.64H768.504L780.216 71.8L791.88 45.64H797.736ZM807.712 49.048C806.72 49.048 805.888 48.712 805.216 48.04C804.544 47.368 804.208 46.536 804.208 45.544C804.208 44.552 804.544 43.72 805.216 43.048C805.888 42.376 806.72 42.04 807.712 42.04C808.672 42.04 809.488 42.376 810.16 43.048C810.832 43.72 811.168 44.552 811.168 45.544C811.168 46.536 810.832 47.368 810.16 48.04C809.488 48.712 808.672 49.048 807.712 49.048ZM810.4 52.552V79H804.928V52.552H810.4ZM815.76 65.656C815.76 63 816.304 60.648 817.392 58.6C818.512 56.552 820.016 54.968 821.904 53.848C823.824 52.696 825.952 52.12 828.288 52.12C830.016 52.12 831.712 52.504 833.376 53.272C835.072 54.008 836.416 55 837.408 56.248V43.48H842.928V79H837.408V75.016C836.512 76.296 835.264 77.352 833.664 78.184C832.096 79.016 830.288 79.432 828.24 79.432C825.936 79.432 823.824 78.856 821.904 77.704C820.016 76.52 818.512 74.888 817.392 72.808C816.304 70.696 815.76 68.312 815.76 65.656ZM837.408 65.752C837.408 63.928 837.024 62.344 836.256 61C835.52 59.656 834.544 58.632 833.328 57.928C832.112 57.224 830.8 56.872 829.392 56.872C827.984 56.872 826.672 57.224 825.456 57.928C824.24 58.6 823.248 59.608 822.48 60.952C821.744 62.264 821.376 63.832 821.376 65.656C821.376 67.48 821.744 69.08 822.48 70.456C823.248 71.832 824.24 72.888 825.456 73.624C826.704 74.328 828.016 74.68 829.392 74.68C830.8 74.68 832.112 74.328 833.328 73.624C834.544 72.92 835.52 71.896 836.256 70.552C837.024 69.176 837.408 67.576 837.408 65.752ZM848.292 65.656C848.292 63 848.836 60.648 849.924 58.6C851.044 56.552 852.548 54.968 854.436 53.848C856.356 52.696 858.484 52.12 860.82 52.12C862.548 52.12 864.244 52.504 865.908 53.272C867.604 54.008 868.948 55 869.94 56.248V43.48H875.46V79H869.94V75.016C869.044 76.296 867.796 77.352 866.196 78.184C864.628 79.016 862.82 79.432 860.772 79.432C858.468 79.432 856.356 78.856 854.436 77.704C852.548 76.52 851.044 74.888 849.924 72.808C848.836 70.696 848.292 68.312 848.292 65.656ZM869.94 65.752C869.94 63.928 869.556 62.344 868.788 61C868.052 59.656 867.076 58.632 865.86 57.928C864.644 57.224 863.332 56.872 861.924 56.872C860.516 56.872 859.204 57.224 857.988 57.928C856.772 58.6 855.78 59.608 855.012 60.952C854.276 62.264 853.908 63.832 853.908 65.656C853.908 67.48 854.276 69.08 855.012 70.456C855.78 71.832 856.772 72.888 857.988 73.624C859.236 74.328 860.548 74.68 861.924 74.68C863.332 74.68 864.644 74.328 865.86 73.624C867.076 72.92 868.052 71.896 868.788 70.552C869.556 69.176 869.94 67.576 869.94 65.752ZM888.119 43.48V79H882.647V43.48H888.119ZM919.543 65.128C919.543 66.12 919.479 67.016 919.351 67.816H899.143C899.303 69.928 900.087 71.624 901.495 72.904C902.903 74.184 904.631 74.824 906.679 74.824C909.623 74.824 911.703 73.592 912.919 71.128H918.823C918.023 73.56 916.567 75.56 914.455 77.128C912.375 78.664 909.783 79.432 906.679 79.432C904.151 79.432 901.879 78.872 899.863 77.752C897.879 76.6 896.311 75 895.159 72.952C894.039 70.872 893.479 68.472 893.479 65.752C893.479 63.032 894.023 60.648 895.111 58.6C896.231 56.52 897.783 54.92 899.767 53.8C901.783 52.68 904.087 52.12 906.679 52.12C909.175 52.12 911.399 52.664 913.351 53.752C915.303 54.84 916.823 56.376 917.911 58.36C918.999 60.312 919.543 62.568 919.543 65.128ZM913.831 63.4C913.799 61.384 913.079 59.768 911.671 58.552C910.263 57.336 908.519 56.728 906.439 56.728C904.551 56.728 902.935 57.336 901.591 58.552C900.247 59.736 899.447 61.352 899.191 63.4H913.831ZM948.389 79.336C946.149 79.336 944.133 78.952 942.341 78.184C940.549 77.384 939.141 76.264 938.117 74.824C937.093 73.384 936.581 71.704 936.581 69.784H942.437C942.565 71.224 943.125 72.408 944.117 73.336C945.141 74.264 946.565 74.728 948.389 74.728C950.277 74.728 951.749 74.28 952.805 73.384C953.861 72.456 954.389 71.272 954.389 69.832C954.389 68.712 954.053 67.8 953.381 67.096C952.741 66.392 951.925 65.848 950.933 65.464C949.973 65.08 948.629 64.664 946.901 64.216C944.725 63.64 942.949 63.064 941.573 62.488C940.229 61.88 939.077 60.952 938.117 59.704C937.157 58.456 936.677 56.792 936.677 54.712C936.677 52.792 937.157 51.112 938.117 49.672C939.077 48.232 940.421 47.128 942.149 46.36C943.877 45.592 945.877 45.208 948.149 45.208C951.381 45.208 954.021 46.024 956.069 47.656C958.149 49.256 959.301 51.464 959.525 54.28H953.477C953.381 53.064 952.805 52.024 951.749 51.16C950.693 50.296 949.301 49.864 947.573 49.864C946.005 49.864 944.725 50.264 943.733 51.064C942.741 51.864 942.245 53.016 942.245 54.52C942.245 55.544 942.549 56.392 943.157 57.064C943.797 57.704 944.597 58.216 945.557 58.6C946.517 58.984 947.829 59.4 949.493 59.848C951.701 60.456 953.493 61.064 954.869 61.672C956.277 62.28 957.461 63.224 958.421 64.504C959.413 65.752 959.909 67.432 959.909 69.544C959.909 71.24 959.445 72.84 958.517 74.344C957.621 75.848 956.293 77.064 954.533 77.992C952.805 78.888 950.757 79.336 948.389 79.336ZM964.542 65.752C964.542 63.032 965.086 60.648 966.174 58.6C967.294 56.52 968.83 54.92 970.782 53.8C972.734 52.68 974.974 52.12 977.502 52.12C980.702 52.12 983.342 52.888 985.422 54.424C987.534 55.928 988.958 58.088 989.694 60.904H983.79C983.31 59.592 982.542 58.568 981.486 57.832C980.43 57.096 979.102 56.728 977.502 56.728C975.262 56.728 973.47 57.528 972.126 59.128C970.814 60.696 970.158 62.904 970.158 65.752C970.158 68.6 970.814 70.824 972.126 72.424C973.47 74.024 975.262 74.824 977.502 74.824C980.67 74.824 982.766 73.432 983.79 70.648H989.694C988.926 73.336 987.486 75.48 985.374 77.08C983.262 78.648 980.638 79.432 977.502 79.432C974.974 79.432 972.734 78.872 970.782 77.752C968.83 76.6 967.294 75 966.174 72.952C965.086 70.872 964.542 68.472 964.542 65.752ZM1008.83 52.12C1010.84 52.12 1012.63 52.552 1014.2 53.416C1015.8 54.28 1017.05 55.56 1017.95 57.256C1018.87 58.952 1019.34 61 1019.34 63.4V79H1013.91V64.216C1013.91 61.848 1013.32 60.04 1012.14 58.792C1010.95 57.512 1009.34 56.872 1007.29 56.872C1005.24 56.872 1003.61 57.512 1002.39 58.792C1001.21 60.04 1000.62 61.848 1000.62 64.216V79H995.147V43.48H1000.62V55.624C1001.55 54.504 1002.71 53.64 1004.12 53.032C1005.56 52.424 1007.13 52.12 1008.83 52.12ZM1037.79 79.432C1035.29 79.432 1033.04 78.872 1031.02 77.752C1029.01 76.6 1027.42 75 1026.27 72.952C1025.12 70.872 1024.54 68.472 1024.54 65.752C1024.54 63.064 1025.13 60.68 1026.32 58.6C1027.5 56.52 1029.12 54.92 1031.17 53.8C1033.21 52.68 1035.5 52.12 1038.03 52.12C1040.56 52.12 1042.85 52.68 1044.89 53.8C1046.94 54.92 1048.56 56.52 1049.74 58.6C1050.93 60.68 1051.52 63.064 1051.52 65.752C1051.52 68.44 1050.91 70.824 1049.69 72.904C1048.48 74.984 1046.81 76.6 1044.7 77.752C1042.62 78.872 1040.32 79.432 1037.79 79.432ZM1037.79 74.68C1039.2 74.68 1040.51 74.344 1041.73 73.672C1042.97 73 1043.98 71.992 1044.75 70.648C1045.52 69.304 1045.9 67.672 1045.9 65.752C1045.9 63.832 1045.53 62.216 1044.8 60.904C1044.06 59.56 1043.09 58.552 1041.87 57.88C1040.65 57.208 1039.34 56.872 1037.93 56.872C1036.53 56.872 1035.21 57.208 1034 57.88C1032.81 58.552 1031.87 59.56 1031.17 60.904C1030.46 62.216 1030.11 63.832 1030.11 65.752C1030.11 68.6 1030.83 70.808 1032.27 72.376C1033.74 73.912 1035.58 74.68 1037.79 74.68ZM1068.4 79.432C1065.9 79.432 1063.65 78.872 1061.63 77.752C1059.62 76.6 1058.03 75 1056.88 72.952C1055.73 70.872 1055.15 68.472 1055.15 65.752C1055.15 63.064 1055.74 60.68 1056.93 58.6C1058.11 56.52 1059.73 54.92 1061.78 53.8C1063.82 52.68 1066.11 52.12 1068.64 52.12C1071.17 52.12 1073.46 52.68 1075.5 53.8C1077.55 54.92 1079.17 56.52 1080.35 58.6C1081.54 60.68 1082.13 63.064 1082.13 65.752C1082.13 68.44 1081.52 70.824 1080.3 72.904C1079.09 74.984 1077.42 76.6 1075.31 77.752C1073.23 78.872 1070.93 79.432 1068.4 79.432ZM1068.4 74.68C1069.81 74.68 1071.12 74.344 1072.34 73.672C1073.58 73 1074.59 71.992 1075.36 70.648C1076.13 69.304 1076.51 67.672 1076.51 65.752C1076.51 63.832 1076.14 62.216 1075.41 60.904C1074.67 59.56 1073.7 58.552 1072.48 57.88C1071.26 57.208 1069.95 56.872 1068.54 56.872C1067.14 56.872 1065.82 57.208 1064.61 57.88C1063.42 58.552 1062.48 59.56 1061.78 60.904C1061.07 62.216 1060.72 63.832 1060.72 65.752C1060.72 68.6 1061.44 70.808 1062.88 72.376C1064.35 73.912 1066.19 74.68 1068.4 74.68ZM1093.01 43.48V79H1087.54V43.48H1093.01ZM1106.19 72.424L1100.39 85.672H1096.83L1100.24 72.424H1106.19ZM1122 49V44.008H1131.99V79H1126.47V49H1122ZM1142.43 79.336C1141.44 79.336 1140.61 79 1139.94 78.328C1139.27 77.656 1138.93 76.824 1138.93 75.832C1138.93 74.84 1139.27 74.008 1139.94 73.336C1140.61 72.664 1141.44 72.328 1142.43 72.328C1143.39 72.328 1144.21 72.664 1144.88 73.336C1145.55 74.008 1145.89 74.84 1145.89 75.832C1145.89 76.824 1145.55 77.656 1144.88 78.328C1144.21 79 1143.39 79.336 1142.43 79.336ZM1150.99 52.648C1151.18 49.672 1152.32 47.352 1154.4 45.688C1156.51 44.024 1159.2 43.192 1162.46 43.192C1164.7 43.192 1166.64 43.592 1168.27 44.392C1169.9 45.192 1171.13 46.28 1171.96 47.656C1172.8 49.032 1173.21 50.584 1173.21 52.312C1173.21 54.296 1172.68 55.992 1171.63 57.4C1170.57 58.808 1169.31 59.752 1167.84 60.232V60.424C1169.72 61 1171.2 62.056 1172.25 63.592C1173.31 65.096 1173.84 67.032 1173.84 69.4C1173.84 71.288 1173.4 72.968 1172.54 74.44C1171.68 75.912 1170.4 77.08 1168.7 77.944C1167 78.776 1164.97 79.192 1162.6 79.192C1159.15 79.192 1156.3 78.312 1154.06 76.552C1151.85 74.76 1150.67 72.2 1150.51 68.872H1155.79C1155.92 70.568 1156.57 71.96 1157.76 73.048C1158.94 74.104 1160.54 74.632 1162.56 74.632C1164.51 74.632 1166.01 74.104 1167.07 73.048C1168.12 71.96 1168.65 70.568 1168.65 68.872C1168.65 66.632 1167.93 65.048 1166.49 64.12C1165.08 63.16 1162.91 62.68 1159.96 62.68H1158.72V58.168H1160.01C1162.6 58.136 1164.57 57.704 1165.92 56.872C1167.29 56.04 1167.98 54.728 1167.98 52.936C1167.98 51.4 1167.48 50.184 1166.49 49.288C1165.5 48.36 1164.09 47.896 1162.27 47.896C1160.48 47.896 1159.08 48.36 1158.09 49.288C1157.1 50.184 1156.51 51.304 1156.32 52.648H1150.99ZM1178.91 71.704V67.576L1195.04 44.44H1201.66V66.952H1206.13V71.704H1201.66V79H1196.29V71.704H1178.91ZM1196.53 50.008L1185.2 66.952H1196.53V50.008ZM1209.8 52.456C1209.8 50.12 1210.47 48.296 1211.81 46.984C1213.19 45.64 1214.95 44.968 1217.09 44.968C1219.24 44.968 1220.98 45.64 1222.33 46.984C1223.7 48.296 1224.39 50.12 1224.39 52.456C1224.39 54.792 1223.7 56.632 1222.33 57.976C1220.98 59.32 1219.24 59.992 1217.09 59.992C1214.95 59.992 1213.19 59.32 1211.81 57.976C1210.47 56.632 1209.8 54.792 1209.8 52.456ZM1239.08 45.592L1219.93 79H1214.55L1233.7 45.592H1239.08ZM1217.09 48.28C1215.08 48.28 1214.07 49.672 1214.07 52.456C1214.07 55.272 1215.08 56.68 1217.09 56.68C1218.05 56.68 1218.79 56.344 1219.3 55.672C1219.85 54.968 1220.12 53.896 1220.12 52.456C1220.12 49.672 1219.11 48.28 1217.09 48.28ZM1229.33 72.088C1229.33 69.752 1230.01 67.928 1231.35 66.616C1232.73 65.272 1234.49 64.6 1236.63 64.6C1238.74 64.6 1240.47 65.272 1241.81 66.616C1243.19 67.928 1243.88 69.752 1243.88 72.088C1243.88 74.424 1243.19 76.264 1241.81 77.608C1240.47 78.952 1238.74 79.624 1236.63 79.624C1234.49 79.624 1232.73 78.952 1231.35 77.608C1230.01 76.264 1229.33 74.424 1229.33 72.088ZM1236.58 67.912C1234.57 67.912 1233.56 69.304 1233.56 72.088C1233.56 74.872 1234.57 76.264 1236.58 76.264C1238.6 76.264 1239.61 74.872 1239.61 72.088C1239.61 69.304 1238.6 67.912 1236.58 67.912Z" fill="#4E23AA"/>
<path d="M696.472 207.007L718 88" stroke="#4E23AA" stroke-width="20" stroke-linecap="round"/>
<path d="M659 222L592 88" stroke="#F27AAA" stroke-width="20" stroke-linecap="round"/>
<path d="M580.393 258.082L501.459 197.721" stroke="#7937AE" stroke-width="20" stroke-linecap="round"/>
<path d="M435.221 440.496L343.111 415.166" stroke="#0490BB" stroke-width="20" stroke-linecap="round"/>
<path d="M495.093 940.195L591.809 815.846" stroke="#D7316E" stroke-width="20" stroke-linecap="round"/>
<path d="M575.521 498.153V507.241H590.177V515.689H575.521V525.545H592.097V534.313H564.577V489.385H592.097V498.153H575.521ZM597.026 516.393C597.026 512.724 597.709 509.502 599.074 506.729C600.482 503.956 602.381 501.822 604.77 500.329C607.16 498.836 609.826 498.089 612.77 498.089C615.117 498.089 617.25 498.58 619.17 499.561C621.133 500.542 622.669 501.865 623.778 503.529V486.953H634.722V534.313H623.778V529.193C622.754 530.9 621.282 532.265 619.362 533.289C617.485 534.313 615.288 534.825 612.77 534.825C609.826 534.825 607.16 534.078 604.77 532.585C602.381 531.049 600.482 528.894 599.074 526.121C597.709 523.305 597.026 520.062 597.026 516.393ZM623.778 516.457C623.778 513.726 623.01 511.572 621.474 509.993C619.981 508.414 618.146 507.625 615.97 507.625C613.794 507.625 611.938 508.414 610.402 509.993C608.909 511.529 608.162 513.662 608.162 516.393C608.162 519.124 608.909 521.3 610.402 522.921C611.938 524.5 613.794 525.289 615.97 525.289C618.146 525.289 619.981 524.5 621.474 522.921C623.01 521.342 623.778 519.188 623.778 516.457ZM677.904 498.601V534.313H666.96V529.449C665.851 531.028 664.336 532.308 662.416 533.289C660.539 534.228 658.448 534.697 656.144 534.697C653.413 534.697 651.003 534.1 648.912 532.905C646.821 531.668 645.2 529.897 644.048 527.593C642.896 525.289 642.32 522.58 642.32 519.465V498.601H653.2V517.993C653.2 520.382 653.819 522.238 655.056 523.561C656.293 524.884 657.957 525.545 660.048 525.545C662.181 525.545 663.867 524.884 665.104 523.561C666.341 522.238 666.96 520.382 666.96 517.993V498.601H677.904ZM683.589 516.457C683.589 512.745 684.336 509.502 685.829 506.729C687.365 503.956 689.477 501.822 692.165 500.329C694.896 498.836 698.01 498.089 701.509 498.089C705.989 498.089 709.722 499.262 712.709 501.609C715.738 503.956 717.722 507.262 718.661 511.529H707.013C706.032 508.798 704.133 507.433 701.317 507.433C699.312 507.433 697.712 508.222 696.517 509.801C695.322 511.337 694.725 513.556 694.725 516.457C694.725 519.358 695.322 521.598 696.517 523.177C697.712 524.713 699.312 525.481 701.317 525.481C704.133 525.481 706.032 524.116 707.013 521.385H718.661C717.722 525.566 715.738 528.852 712.709 531.241C709.68 533.63 705.946 534.825 701.509 534.825C698.01 534.825 694.896 534.078 692.165 532.585C689.477 531.092 687.365 528.958 685.829 526.185C684.336 523.412 683.589 520.169 683.589 516.457ZM722.339 516.393C722.339 512.724 723.022 509.502 724.387 506.729C725.795 503.956 727.694 501.822 730.083 500.329C732.472 498.836 735.139 498.089 738.083 498.089C740.6 498.089 742.798 498.601 744.675 499.625C746.595 500.649 748.067 501.993 749.091 503.657V498.601H760.035V534.313H749.091V529.257C748.024 530.921 746.531 532.265 744.611 533.289C742.734 534.313 740.536 534.825 738.019 534.825C735.118 534.825 732.472 534.078 730.083 532.585C727.694 531.049 725.795 528.894 724.387 526.121C723.022 523.305 722.339 520.062 722.339 516.393ZM749.091 516.457C749.091 513.726 748.323 511.572 746.787 509.993C745.294 508.414 743.459 507.625 741.283 507.625C739.107 507.625 737.251 508.414 735.715 509.993C734.222 511.529 733.475 513.662 733.475 516.393C733.475 519.124 734.222 521.3 735.715 522.921C737.251 524.5 739.107 525.289 741.283 525.289C743.459 525.289 745.294 524.5 746.787 522.921C748.323 521.342 749.091 519.188 749.091 516.457ZM787.856 525.033V534.313H782.288C778.32 534.313 775.227 533.353 773.008 531.433C770.79 529.47 769.68 526.292 769.68 521.897V507.689H765.328V498.601H769.68V489.897H780.624V498.601H787.792V507.689H780.624V522.025C780.624 523.092 780.88 523.86 781.392 524.329C781.904 524.798 782.758 525.033 783.952 525.033H787.856ZM799.456 494.889C797.536 494.889 795.958 494.334 794.72 493.225C793.526 492.073 792.928 490.665 792.928 489.001C792.928 487.294 793.526 485.886 794.72 484.777C795.958 483.625 797.536 483.049 799.456 483.049C801.334 483.049 802.87 483.625 804.064 484.777C805.302 485.886 805.92 487.294 805.92 489.001C805.92 490.665 805.302 492.073 804.064 493.225C802.87 494.334 801.334 494.889 799.456 494.889ZM804.896 498.601V534.313H793.952V498.601H804.896ZM829.083 534.825C825.585 534.825 822.427 534.078 819.611 532.585C816.838 531.092 814.641 528.958 813.019 526.185C811.441 523.412 810.651 520.169 810.651 516.457C810.651 512.788 811.462 509.566 813.083 506.793C814.705 503.977 816.923 501.822 819.739 500.329C822.555 498.836 825.713 498.089 829.211 498.089C832.71 498.089 835.867 498.836 838.683 500.329C841.499 501.822 843.718 503.977 845.339 506.793C846.961 509.566 847.771 512.788 847.771 516.457C847.771 520.126 846.939 523.369 845.275 526.185C843.654 528.958 841.414 531.092 838.555 532.585C835.739 534.078 832.582 534.825 829.083 534.825ZM829.083 525.353C831.174 525.353 832.945 524.585 834.395 523.049C835.889 521.513 836.635 519.316 836.635 516.457C836.635 513.598 835.91 511.401 834.459 509.865C833.051 508.329 831.302 507.561 829.211 507.561C827.078 507.561 825.307 508.329 823.899 509.865C822.491 511.358 821.787 513.556 821.787 516.457C821.787 519.316 822.47 521.513 823.835 523.049C825.243 524.585 826.993 525.353 829.083 525.353ZM875.337 498.217C879.519 498.217 882.847 499.582 885.321 502.313C887.839 505.001 889.097 508.713 889.097 513.449V534.313H878.217V514.921C878.217 512.532 877.599 510.676 876.361 509.353C875.124 508.03 873.46 507.369 871.369 507.369C869.279 507.369 867.615 508.03 866.377 509.353C865.14 510.676 864.521 512.532 864.521 514.921V534.313H853.577V498.601H864.521V503.337C865.631 501.758 867.124 500.521 869.001 499.625C870.879 498.686 872.991 498.217 875.337 498.217ZM657.428 621.865H671.764V630.313H646.484V585.385H657.428V621.865ZM710.648 611.881C710.648 612.905 710.584 613.972 710.456 615.081H685.688C685.858 617.3 686.562 619.006 687.8 620.201C689.08 621.353 690.637 621.929 692.472 621.929C695.202 621.929 697.101 620.777 698.168 618.473H709.816C709.218 620.82 708.13 622.932 706.552 624.809C705.016 626.686 703.074 628.158 700.728 629.225C698.381 630.292 695.757 630.825 692.856 630.825C689.357 630.825 686.242 630.078 683.512 628.585C680.781 627.092 678.648 624.958 677.112 622.185C675.576 619.412 674.808 616.169 674.808 612.457C674.808 608.745 675.554 605.502 677.048 602.729C678.584 599.956 680.717 597.822 683.448 596.329C686.178 594.836 689.314 594.089 692.856 594.089C696.312 594.089 699.384 594.814 702.072 596.265C704.76 597.716 706.85 599.785 708.344 602.473C709.88 605.161 710.648 608.297 710.648 611.881ZM699.448 609.001C699.448 607.124 698.808 605.63 697.528 604.521C696.248 603.412 694.648 602.857 692.728 602.857C690.893 602.857 689.336 603.39 688.056 604.457C686.818 605.524 686.05 607.038 685.752 609.001H699.448ZM732.485 620.073L740.229 594.601H751.877L739.205 630.313H725.701L713.029 594.601H724.741L732.485 620.073ZM790.148 611.881C790.148 612.905 790.084 613.972 789.956 615.081H765.188C765.358 617.3 766.062 619.006 767.3 620.201C768.58 621.353 770.137 621.929 771.972 621.929C774.702 621.929 776.601 620.777 777.668 618.473H789.316C788.718 620.82 787.63 622.932 786.052 624.809C784.516 626.686 782.574 628.158 780.228 629.225C777.881 630.292 775.257 630.825 772.356 630.825C768.857 630.825 765.742 630.078 763.012 628.585C760.281 627.092 758.148 624.958 756.612 622.185C755.076 619.412 754.308 616.169 754.308 612.457C754.308 608.745 755.054 605.502 756.548 602.729C758.084 599.956 760.217 597.822 762.948 596.329C765.678 594.836 768.814 594.089 772.356 594.089C775.812 594.089 778.884 594.814 781.572 596.265C784.26 597.716 786.35 599.785 787.844 602.473C789.38 605.161 790.148 608.297 790.148 611.881ZM778.948 609.001C778.948 607.124 778.308 605.63 777.028 604.521C775.748 603.412 774.148 602.857 772.228 602.857C770.393 602.857 768.836 603.39 767.556 604.457C766.318 605.524 765.55 607.038 765.252 609.001H778.948ZM806.865 582.953V630.313H795.921V582.953H806.865Z" fill="#D7316E"/>
</svg>
