<svg width="240" height="100" viewBox="0 0 240 100" fill="none" xmlns="http://www.w3.org/2000/svg">
<path d="M198.439 16.3032H52.1784C33.0906 16.3032 17.6169 31.774 17.6169 50.8582C17.6169 69.9424 33.0906 85.4132 52.1784 85.4132H198.439C217.526 85.4132 233 69.9424 233 50.8582C233 31.774 217.526 16.3032 198.439 16.3032Z" fill="#EA8CA4" stroke="#C1F4F7" stroke-width="0.16" stroke-miterlimit="10"/>
<path d="M208.505 76.0824L41.9831 76.2889C40.7958 70.249 34.3946 67.3581 30.3035 66.8419V35.1197C36.8208 34.7325 41.5314 30.1252 41.9573 25.6727L208.479 25.4662C208.57 31.1964 214.339 34.939 220.159 34.9132V66.6354C214.519 66.0159 208.944 69.8618 208.505 76.0824Z" stroke="#D26B89" stroke-width="1.64" stroke-miterlimit="10"/>
<path d="M20.0303 64.2865C17.7202 63.938 8.01511 61.886 11.9126 51.9228C12.8031 49.6514 14.6357 47.793 16.9975 47.1735C19.3592 46.554 22.8696 46.9541 26.6767 51.2646C26.6767 51.2646 32.5101 57.8594 37.6982 59.5114C38.0208 59.6146 37.9821 60.0921 37.6466 60.105C34.8331 60.2341 29.6967 60.0018 24.3924 57.369C23.5536 56.956 22.6502 56.6979 21.721 56.6721L19.0882 56.6205C18.5203 56.6205 18.1203 57.1625 18.3009 57.6917L20.3659 63.8864C20.4433 64.1058 20.2626 64.3123 20.0432 64.2865H20.0303Z" fill="#09665B" stroke="white" stroke-width="0.82" stroke-miterlimit="10"/>
<path d="M146.984 15.3094C146.984 15.3094 161.464 1.11319 179.39 15.3094C179.39 15.3094 184.41 20.4717 190.863 21.7623C190.863 21.7623 176.667 27.3117 168.923 20.02C168.923 20.02 162.47 11.4377 158.599 15.3094H146.984Z" fill="#09665B" stroke="white" stroke-width="0.82" stroke-miterlimit="10"/>
</svg>
