<svg width="3266" height="2155" viewBox="0 0 3266 2155" fill="none" xmlns="http://www.w3.org/2000/svg">
<g clip-path="url(#clip0_187_1536)">
<rect width="3266" height="2155" fill="#444251"/>
<rect x="3126.68" y="1580.98" width="114.037" height="32.841" transform="rotate(53 3126.68 1580.98)" fill="#40DEEB" fill-opacity="0.9"/>
<rect x="1310.38" y="1257.33" width="26.6041" height="26.7053" transform="rotate(-140 1310.38 1257.33)" fill="#F481B1" fill-opacity="0.45"/>
<rect x="2891.84" y="1544.17" width="120.172" height="29.7731" transform="rotate(129 2891.84 1544.17)" fill="#E8CB63" fill-opacity="0.75"/>
<rect x="1394.75" y="473.499" width="31.2058" height="35.9088" transform="rotate(-7 1394.75 473.499)" fill="#F481B1" fill-opacity="0.75"/>
<rect x="47.9746" y="542.524" width="106.367" height="25.1714" transform="rotate(-34 47.9746 542.524)" fill="#F481B1" fill-opacity="0.45"/>
<rect x="2428.6" y="1344.76" width="45.011" height="26.7053" transform="rotate(-123 2428.6 1344.76)" fill="#E8CB63" fill-opacity="0.65"/>
<rect x="621.655" y="2020.58" width="117.105" height="26.7053" transform="rotate(-18 621.655 2020.58)" fill="#F481B1" fill-opacity="0.45"/>
<rect x="592.512" y="295.565" width="127.842" height="43.5783" transform="rotate(106 592.512 295.565)" fill="#40DEEB" fill-opacity="0.6"/>
<rect x="1436.16" y="2097.91" width="78.7569" height="34.3749" transform="rotate(-113 1436.16 2097.91)" fill="#F481B1" fill-opacity="0.35"/>
<rect x="784.25" y="272.557" width="87.9604" height="35.9088" transform="rotate(-146 784.25 272.557)" fill="#40DEEB" fill-opacity="0.9"/>
<rect x="2535.97" y="234.209" width="106.367" height="32.841" transform="rotate(-130 2535.97 234.209)" fill="#C39CF2" fill-opacity="0.75"/>
<rect x="3292.19" y="28.6655" width="29.6719" height="34.3749" transform="rotate(166 3292.19 28.6655)" fill="#E8CB63" fill-opacity="0.65"/>
<rect x="1756.75" y="1338.62" width="23.5363" height="32.841" transform="rotate(-63 1756.75 1338.62)" fill="#C39CF2" fill-opacity="0.6"/>
<rect x="1158.52" y="642.228" width="58.8161" height="29.7731" transform="rotate(-75 1158.52 642.228)" fill="#E8CB63" fill-opacity="0.6"/>
<rect x="172.221" y="999.629" width="91.0282" height="26.7053" transform="rotate(91 172.221 999.629)" fill="#E8CB63" fill-opacity="0.9"/>
<rect x="2108.01" y="433.617" width="40.4092" height="34.3749" transform="rotate(47 2108.01 433.617)" fill="#E8CB63" fill-opacity="0.65"/>
<rect x="2615.74" y="2113.25" width="69.5535" height="32.841" transform="rotate(83 2615.74 2113.25)" fill="#C39CF2" fill-opacity="0.75"/>
<rect x="2252.1" y="1404.11" width="87.9604" height="38.9766" transform="rotate(-137 2252.1 1404.11)" fill="#40DEEB" fill-opacity="0.35"/>
<rect x="1515.92" y="178.988" width="38.8753" height="23.6375" transform="rotate(27 1515.92 178.988)" fill="#F481B1" fill-opacity="0.9"/>
<rect x="2845.82" y="1321.75" width="97.1638" height="28.2392" transform="rotate(-20 2845.82 1321.75)" fill="#C39CF2" fill-opacity="0.75"/>
<rect x="761.432" y="562.465" width="38.8753" height="45.1122" transform="rotate(82 761.432 562.465)" fill="#E8CB63" fill-opacity="0.65"/>
<rect x="2551.31" y="1360.1" width="129.376" height="46.6461" transform="rotate(41 2551.31 1360.1)" fill="#E8CB63" fill-opacity="0.45"/>
<rect x="1047.64" y="697.123" width="69.5535" height="31.307" transform="rotate(157 1047.64 697.123)" fill="#E8CB63" fill-opacity="0.85"/>
<rect x="1902.47" y="1450.6" width="31.2058" height="28.2392" transform="rotate(-83 1902.47 1450.6)" fill="#F481B1" fill-opacity="0.6"/>
<rect x="2278.28" y="390.667" width="132.444" height="46.6461" transform="rotate(110 2278.28 390.667)" fill="#F481B1" fill-opacity="0.9"/>
<rect x="1279.03" y="1719.64" width="98.6977" height="40.5105" transform="rotate(148 1279.03 1719.64)" fill="#C39CF2" fill-opacity="0.6"/>
<rect x="2592.73" y="568.601" width="32.7397" height="34.3749" transform="rotate(-110 2592.73 568.601)" fill="#E8CB63" fill-opacity="0.75"/>
<rect x="1604.89" y="820.162" width="41.9432" height="26.7053" transform="rotate(-153 1604.89 820.162)" fill="#E8CB63" fill-opacity="0.6"/>
<rect x="2549.78" y="1415.32" width="86.4265" height="28.2392" transform="rotate(-174 2549.78 1415.32)" fill="#40DEEB"/>
<rect x="1974.56" y="1614.73" width="91.0282" height="43.5783" transform="rotate(-88 1974.56 1614.73)" fill="#C39CF2" fill-opacity="0.65"/>
<rect x="495.875" y="570.503" width="75.6891" height="45.1122" transform="rotate(-49 495.875 570.503)" fill="#40DEEB"/>
<rect x="1959.22" y="1269.6" width="58.8161" height="45.1122" transform="rotate(-10 1959.22 1269.6)" fill="#40DEEB" fill-opacity="0.35"/>
<ellipse cx="362.5" cy="541" rx="21.5" ry="21" fill="#F481B1" fill-opacity="0.75"/>
<path d="M1269.32 1454.72C1269.32 1467.58 1258.95 1478 1246.16 1478C1233.37 1478 1223 1467.58 1223 1454.72C1223 1441.86 1256.53 1454.72 1269.32 1454.72C1269.32 1441.86 1282.11 1454.72 1269.32 1454.72Z" fill="#E8CB63" fill-opacity="0.85"/>
<ellipse cx="2897" cy="69.5" rx="24" ry="23.5" fill="#E8CB63" fill-opacity="0.65"/>
<circle cx="1680.5" cy="1520.5" r="14.5" fill="#F481B1" fill-opacity="0.45"/>
<circle cx="468.5" cy="1076.5" r="10.5" fill="#E8CB63"/>
<circle cx="3181.5" cy="180.5" r="21.5" fill="#C39CF2" fill-opacity="0.6"/>
<circle cx="2871" cy="2106" r="13" fill="#E8CB63" fill-opacity="0.75"/>
<ellipse cx="1730.5" cy="1728" rx="12.5" ry="12" fill="#E8CB63" fill-opacity="0.85"/>
<ellipse cx="877" cy="503.5" rx="11" ry="11.5" fill="#C39CF2" fill-opacity="0.9"/>
<circle cx="620" cy="1440" r="9" fill="#40DEEB" fill-opacity="0.75"/>
<ellipse cx="1598" cy="1877.5" rx="25" ry="25.5" fill="#E8CB63" fill-opacity="0.65"/>
<circle cx="739" cy="1436" r="19" fill="#C39CF2" fill-opacity="0.6"/>
<ellipse cx="1208.5" cy="186" rx="20.5" ry="21" fill="#E8CB63" fill-opacity="0.45"/>
<circle cx="1062" cy="533" r="23" fill="#F481B1" fill-opacity="0.65"/>
<circle cx="246" cy="550" r="9" fill="#F481B1" fill-opacity="0.9"/>
<ellipse cx="2308.5" cy="1229" rx="17.5" ry="18" fill="#40DEEB" fill-opacity="0.85"/>
<circle cx="143.5" cy="456.5" r="24.5" fill="#E8CB63" fill-opacity="0.9"/>
<circle cx="310" cy="124" r="20" fill="#40DEEB" fill-opacity="0.35"/>
<circle cx="3122" cy="144" r="17" fill="#E8CB63" fill-opacity="0.35"/>
<circle cx="2188.5" cy="1848.5" r="22.5" fill="#40DEEB" fill-opacity="0.75"/>
<circle cx="1975" cy="618" r="16" fill="#40DEEB" fill-opacity="0.35"/>
<ellipse cx="1279.5" cy="791" rx="10.5" ry="11" fill="#F481B1" fill-opacity="0.6"/>
<circle cx="620" cy="2144" r="9" fill="#E8CB63" fill-opacity="0.75"/>
<circle cx="1030" cy="69" r="13" fill="#40DEEB" fill-opacity="0.65"/>
<circle cx="2695.5" cy="1303.5" r="15.5" fill="#F481B1" fill-opacity="0.35"/>
<circle cx="2985" cy="239" r="20" fill="#E8CB63" fill-opacity="0.75"/>
<ellipse cx="2994.5" cy="1509" rx="15.5" ry="15" fill="#E8CB63"/>
<circle cx="109" cy="1685" r="20" fill="#F481B1"/>
<circle cx="2640.5" cy="1180.5" r="15.5" fill="#40DEEB" fill-opacity="0.75"/>
<circle cx="191.5" cy="141.5" r="11.5" fill="#F481B1"/>
<circle cx="156" cy="807" r="18" fill="#E8CB63" fill-opacity="0.6"/>
<path d="M142.822 1007.61L126.92 983.119L151.408 967.216L167.31 991.704L142.822 1007.61Z" fill="#C39CF2" fill-opacity="0.6"/>
<path d="M449.173 1962.54L418.959 1914.19L475.94 1912.2L449.173 1962.54Z" fill="#E8CB63" fill-opacity="0.35"/>
<path d="M3132.54 1802.16L3086.1 1805.41L3082.85 1758.97L3129.29 1755.72L3132.54 1802.16Z" fill="#40DEEB" fill-opacity="0.45"/>
<path d="M2321.68 417.472L2333.82 434.175L2325.42 453.037L2304.88 455.195L2292.75 438.491L2301.15 419.63L2321.68 417.472Z" fill="#E8CB63" fill-opacity="0.65"/>
<path d="M248.923 2093.8L241.702 2116.03L218.332 2116.03L211.11 2093.8L230.017 2080.07L248.923 2093.8Z" fill="#E8CB63" fill-opacity="0.9"/>
<path d="M307.868 1715.21L266.331 1696.72L284.824 1655.18L326.361 1673.68L307.868 1715.21Z" fill="#E8CB63" fill-opacity="0.65"/>
<path d="M564.892 1641.32L549.697 1661.48L524.637 1658.41L514.772 1635.16L529.967 1615L555.027 1618.08L564.892 1641.32Z" fill="#40DEEB" fill-opacity="0.9"/>
<path d="M949.237 1587.23L994.698 1586.44L995.492 1631.9L950.031 1632.7L949.237 1587.23Z" fill="#F481B1" fill-opacity="0.75"/>
<path d="M974.965 1928.04L942.289 1921.69L938.232 1888.65L968.401 1874.59L991.103 1898.93L974.965 1928.04Z" fill="#C39CF2" fill-opacity="0.9"/>
<path d="M1596.62 637.84L1583.32 666.375L1552.07 662.538L1546.06 631.632L1573.6 616.368L1596.62 637.84Z" fill="#C39CF2" fill-opacity="0.6"/>
<path d="M1955.47 1066.79L1964.44 1092.84L1946.37 1113.63L1919.32 1108.37L1910.36 1082.32L1928.43 1061.53L1955.47 1066.79Z" fill="#C39CF2" fill-opacity="0.35"/>
<path d="M1622.29 337.995L1641.75 377.886L1601.86 397.343L1582.4 357.451L1622.29 337.995Z" fill="#C39CF2" fill-opacity="0.6"/>
<path d="M3069.29 1947.34L3086.53 1941.06L3100.58 1952.85L3097.4 1970.92L3080.16 1977.19L3066.11 1965.4L3069.29 1947.34Z" fill="#E8CB63" fill-opacity="0.35"/>
<path d="M125.887 619.445L106.847 621.111L95.8847 605.455L103.962 588.133L123.002 586.467L133.964 602.123L125.887 619.445Z" fill="#C39CF2" fill-opacity="0.85"/>
<path d="M717.49 1265.02L735.262 1236.58L763.703 1254.36L745.931 1282.8L717.49 1265.02Z" fill="#40DEEB" fill-opacity="0.45"/>
<path d="M2415.4 1685.61L2440.22 1698.81L2427.02 1723.63L2402.2 1710.43L2415.4 1685.61Z" fill="#40DEEB" fill-opacity="0.75"/>
<path d="M341.891 271.201L361.354 267.769L370.633 285.219L356.904 299.435L339.141 290.772L341.891 271.201Z" fill="#40DEEB" fill-opacity="0.35"/>
<path d="M210.653 476.32L206.537 497.49L185.132 500.119L176.017 480.573L191.79 465.864L210.653 476.32Z" fill="#40DEEB" fill-opacity="0.9"/>
<path d="M2393.65 640.469L2405.39 616.398L2432.11 614.53L2447.09 636.733L2435.35 660.804L2408.63 662.673L2393.65 640.469Z" fill="#E8CB63" fill-opacity="0.65"/>
<path d="M1469.63 1233.45L1450.06 1229.99L1443.26 1211.31L1456.03 1196.08L1475.61 1199.54L1482.41 1218.22L1469.63 1233.45Z" fill="#E8CB63" fill-opacity="0.35"/>
<path d="M1451.2 1064.5L1451.79 1081.31L1437.53 1090.21L1422.69 1082.32L1422.1 1065.52L1436.36 1056.61L1451.2 1064.5Z" fill="#40DEEB" fill-opacity="0.35"/>
<path d="M1764.76 1168.49L1771.46 1134.04L1806.28 1129.77L1821.11 1161.57L1795.45 1185.5L1764.76 1168.49Z" fill="#E8CB63" fill-opacity="0.9"/>
<path d="M31.154 1158.86L21.3181 1135.69L40.3164 1119.18L61.8937 1132.14L56.2311 1156.67L31.154 1158.86Z" fill="#E8CB63" fill-opacity="0.9"/>
<path d="M1996.26 653.661L2021.45 643.994L2038.42 664.958L2023.73 687.582L1997.68 680.6L1996.26 653.661Z" fill="#C39CF2" fill-opacity="0.6"/>
<path d="M308.871 174.917L327.634 158.023L351.647 165.825L356.896 190.521L338.133 207.415L314.121 199.613L308.871 174.917Z" fill="#C39CF2" fill-opacity="0.85"/>
<path d="M2135.07 731.959L2150.45 697.431L2188.03 701.382L2195.89 738.351L2163.16 757.249L2135.07 731.959Z" fill="#C39CF2" fill-opacity="0.85"/>
<path d="M965.199 1314.37L975.034 1337.54L956.036 1354.06L934.459 1341.09L940.121 1316.56L965.199 1314.37Z" fill="#F481B1" fill-opacity="0.35"/>
<path d="M755.071 408.207L763.08 440.328L731.258 431.203L755.071 408.207Z" fill="#40DEEB" fill-opacity="0.85"/>
<path d="M239.751 1991.42L222.543 2044.38L185.282 2002.99L239.751 1991.42Z" fill="#C39CF2" fill-opacity="0.75"/>
<path d="M2249.69 1638.59L2266.92 1649.23L2286.21 1643.07L2275.57 1660.3L2281.72 1679.59L2264.5 1668.95L2245.21 1675.11L2255.84 1657.88L2249.69 1638.59Z" fill="#E8CB63" fill-opacity="0.9"/>
<path d="M104.735 2016.08L117.41 2004.7L106.443 1991.66L122.639 1996.94L128.446 1980.93L131.967 1997.6L148.742 1994.62L136.067 2006L147.034 2019.04L130.838 2013.75L125.031 2029.77L121.509 2013.1L104.735 2016.08Z" fill="#40DEEB" fill-opacity="0.85"/>
<path d="M499.982 1266.91L501.218 1288.32L518.273 1301.31L496.868 1302.55L483.873 1319.6L482.636 1298.2L465.582 1285.2L486.987 1283.97L499.982 1266.91Z" fill="#E8CB63" fill-opacity="0.65"/>
<path d="M1506.81 579.005L1501.63 563.899L1486.37 568.587L1496.86 556.548L1485.17 545.672L1500.84 548.738L1504.41 533.174L1509.59 548.28L1524.86 543.591L1514.36 555.631L1526.06 566.507L1510.39 563.44L1506.81 579.005Z" fill="#E8CB63"/>
<path d="M652.873 26.5234L643.638 14.7029L629.542 19.8333L637.93 7.39736L628.695 -4.42318L643.114 -0.288489L651.503 -12.7244L652.026 2.26689L666.445 6.40159L652.35 11.5321L652.873 26.5234Z" fill="#F481B1" fill-opacity="0.6"/>
<path d="M2849.35 1094.22L2847.04 1115.93L2868.67 1118.95L2848.71 1127.81L2856.91 1148.05L2839.26 1135.19L2825.84 1152.41L2828.15 1130.7L2806.51 1127.68L2826.48 1118.82L2818.27 1098.58L2835.92 1111.44L2849.35 1094.22Z" fill="#E8CB63" fill-opacity="0.6"/>
<path d="M2303.5 2165L2295.53 2143.47L2274 2135.5L2295.53 2127.53L2303.5 2106L2311.47 2127.53L2333 2135.5L2311.47 2143.47L2303.5 2165Z" fill="#E8CB63" fill-opacity="0.65"/>
<path d="M2686.3 1795.96L2702.06 1810.5L2723.35 1808L2708.81 1823.76L2711.31 1845.06L2695.55 1830.52L2674.26 1833.02L2688.8 1817.26L2686.3 1795.96Z" fill="#C39CF2" fill-opacity="0.35"/>
<path d="M1216.11 785.037L1229.78 784.486L1238.26 773.751L1238.81 787.42L1249.54 795.901L1235.87 796.451L1227.39 807.187L1226.84 793.517L1216.11 785.037Z" fill="#F481B1" fill-opacity="0.6"/>
<path d="M496.743 7.98801L521.082 5.42985L526.17 -18.5086L536.124 3.84883L560.464 1.29067L542.276 17.6665L552.231 40.024L531.036 27.7873L512.849 44.1632L517.937 20.2247L496.743 7.98801Z" fill="#40DEEB" fill-opacity="0.6"/>
<path d="M1051.61 1723.47L1051.78 1709.79L1041.5 1700.76L1055.18 1700.92L1064.21 1690.65L1064.04 1704.33L1074.32 1713.36L1060.64 1713.19L1051.61 1723.47Z" fill="#C39CF2" fill-opacity="0.9"/>
<path d="M672.767 1770.74L669.925 1790.78L689.861 1794.27L671.086 1801.83L678.032 1820.84L662.099 1808.36L649.109 1823.88L651.951 1803.84L632.014 1800.35L650.789 1792.79L643.843 1773.78L659.777 1786.26L672.767 1770.74Z" fill="#F481B1"/>
<path d="M2144.14 171.359L2136.64 191.873L2156.9 200.029L2135.39 203.795L2138.46 225.419L2124.44 208.671L2107.25 222.139L2114.74 201.625L2094.48 193.468L2115.99 189.703L2112.93 168.079L2126.95 184.827L2144.14 171.359Z" fill="#C39CF2" fill-opacity="0.85"/>
<path d="M1867.38 273.896L1877.69 260.054L1873.9 243.213L1887.74 253.528L1904.58 249.735L1894.27 263.577L1898.06 280.417L1884.22 270.102L1867.38 273.896Z" fill="#C39CF2" fill-opacity="0.75"/>
<path d="M908.284 869.918L891.664 875.617L896.822 892.414L883.575 880.87L871.608 893.735L874.983 876.491L857.857 872.56L874.478 866.861L869.32 850.064L882.566 861.608L894.533 848.743L891.159 865.987L908.284 869.918Z" fill="#40DEEB" fill-opacity="0.35"/>
<path d="M238.571 1157.1L244.853 1170.03L257.972 1164.16L249.923 1176.07L261.557 1184.5L247.225 1183.48L245.741 1197.77L239.459 1184.85L226.34 1190.71L234.39 1178.81L222.755 1170.37L237.087 1171.39L238.571 1157.1Z" fill="#40DEEB" fill-opacity="0.45"/>
<path d="M19 256L14.4085 243.592L2 239L14.4085 234.408L19 222L23.5915 234.408L36 239L23.5915 243.592L19 256Z" fill="#40DEEB"/>
<path d="M1175.2 1134.93L1185.68 1125.82L1180.25 1113.04L1192.15 1120.19L1202.63 1111.08L1199.51 1124.61L1211.41 1131.76L1197.58 1132.97L1194.45 1146.5L1189.03 1133.72L1175.2 1134.93Z" fill="#40DEEB" fill-opacity="0.35"/>
<path d="M114.7 1473.14L100.202 1467.85L94.4373 1482.16L91.776 1466.96L76.4931 1469.13L88.3301 1459.22L78.8116 1447.07L93.3099 1452.37L99.0743 1438.05L101.736 1453.25L117.019 1451.08L105.182 1460.99L114.7 1473.14Z" fill="#40DEEB"/>
<path d="M373.378 1056.69L379.812 1068.33L391.656 1062.27L384.791 1073.67L395.955 1080.9L382.657 1080.65L381.977 1093.93L375.543 1082.29L363.7 1088.34L370.565 1076.95L359.401 1069.72L372.699 1069.97L373.378 1056.69Z" fill="#C39CF2" fill-opacity="0.9"/>
<path d="M1877.82 1792.65L1886.78 1813.43L1908.39 1820.17L1887.6 1829.12L1880.87 1850.73L1871.91 1829.95L1850.3 1823.21L1871.09 1814.26L1877.82 1792.65Z" fill="#C39CF2" fill-opacity="0.9"/>
<path d="M2449.14 1900.5L2454.11 1912.83L2466.6 1908.27L2458.4 1918.74L2468.6 1927.28L2455.43 1925.41L2453.14 1938.51L2448.17 1926.17L2435.68 1930.74L2443.88 1920.27L2433.68 1911.73L2446.85 1913.6L2449.14 1900.5Z" fill="#F481B1" fill-opacity="0.9"/>
<path d="M3057.25 1836.7L3058.37 1823.99L3045.7 1822.45L3057.28 1817.06L3052.28 1805.32L3062.72 1812.65L3070.39 1802.45L3069.27 1815.17L3081.94 1816.71L3070.36 1822.09L3075.37 1833.83L3064.92 1826.5L3057.25 1836.7Z" fill="#C39CF2" fill-opacity="0.35"/>
<path d="M1887.43 1988.25L1870.97 1992.64L1874.82 2009.24L1862.79 1997.18L1850.34 2008.81L1854.77 1992.36L1838.47 1987.4L1854.93 1983.01L1851.08 1966.41L1863.11 1978.48L1875.56 1966.84L1871.13 1983.29L1887.43 1988.25Z" fill="#E8CB63" fill-opacity="0.85"/>
<path d="M1638.77 510.348L1660.13 499.788L1666.02 476.699L1676.58 498.06L1699.67 503.948L1678.31 514.508L1672.42 537.597L1661.86 516.236L1638.77 510.348Z" fill="#E8CB63" fill-opacity="0.35"/>
<path d="M287.795 771.664L303.923 782.987L315.762 767.234L314.02 786.863L333.582 789.24L315.712 797.545L323.434 815.675L307.306 804.352L295.467 820.104L297.209 800.476L277.647 798.099L295.517 789.793L287.795 771.664Z" fill="#E8CB63" fill-opacity="0.6"/>
<path d="M1882.05 631.348L1868.96 612.877L1846.43 610.784L1864.9 597.702L1866.99 575.165L1880.07 593.636L1902.61 595.729L1884.14 608.811L1882.05 631.348Z" fill="#E8CB63" fill-opacity="0.9"/>
<path d="M2046.16 1150.78L2064.28 1138.59L2052.69 1120.08L2072.3 1129.68L2082.53 1110.39L2084.03 1132.18L2105.86 1131.39L2087.73 1143.58L2099.33 1162.08L2079.71 1152.48L2069.48 1171.78L2067.99 1149.99L2046.16 1150.78Z" fill="#C39CF2" fill-opacity="0.6"/>
<path d="M1407.61 1574.47L1431.43 1576.55L1440.78 1554.54L1446.16 1577.84L1469.98 1579.92L1449.48 1592.24L1454.86 1615.54L1436.81 1599.85L1416.31 1612.17L1425.66 1590.16L1407.61 1574.47Z" fill="#F481B1" fill-opacity="0.45"/>
<path d="M214.051 532.314L224.088 521.166L216.588 508.175L230.291 514.276L240.329 503.129L238.761 518.047L252.464 524.148L237.792 527.267L236.224 542.186L228.724 529.195L214.051 532.314Z" fill="#F481B1" fill-opacity="0.85"/>
<path d="M1244.95 690.073L1260.25 701.63L1272.29 686.716L1269.93 705.742L1288.87 708.717L1271.21 716.186L1278.11 734.076L1262.81 722.519L1250.76 737.434L1253.12 718.407L1234.18 715.432L1251.84 707.963L1244.95 690.073Z" fill="#F481B1" fill-opacity="0.6"/>
<path d="M2653.03 813.986L2669.24 801.321L2662.2 781.989L2679.26 793.493L2695.47 780.827L2689.8 800.603L2706.86 812.107L2686.3 812.825L2680.63 832.601L2673.59 813.268L2653.03 813.986Z" fill="#F481B1" fill-opacity="0.45"/>
<path d="M1966.81 415.851V386.291C1966.81 386.291 1861.99 305.673 1629.41 307.017C1396.82 308.36 1293.64 386.291 1293.64 386.291V415.851C1247.62 418.142 1238.11 433.073 1229.76 466.91H1197V1239.51H1229.76C1236.03 1275.64 1247.99 1290.08 1298.55 1295.94V1325.5C1298.55 1325.5 1431.22 1395.37 1634.32 1400.74C1837.42 1406.12 1970.09 1325.5 1970.09 1325.5V1295.94C2024.21 1287.5 2038.31 1274.91 2037.24 1239.51H2070V466.91H2040.52C2029.91 425.409 2019.01 408.007 1966.81 415.851Z" fill="#FFF8DF" stroke="#DEB62A" stroke-width="30" stroke-linejoin="round"/>
<path d="M959.424 713.24V688.463C959.424 688.463 872.49 620.888 679.604 622.014C486.719 623.14 401.143 688.463 401.143 688.463V713.24C362.983 715.161 355.095 727.675 348.167 756.038H321V1403.63H348.167C353.369 1433.93 363.289 1446.03 405.218 1450.94V1475.71C405.218 1475.71 515.244 1534.28 683.679 1538.78C852.114 1543.29 962.141 1475.71 962.141 1475.71V1450.94C1007.02 1443.87 1018.72 1433.31 1017.83 1403.63H1045V756.038H1020.55C1011.75 721.252 1002.71 706.665 959.424 713.24Z" fill="#FFF8DF" stroke="#DEB62A" stroke-width="30" stroke-linejoin="round"/>
<path d="M2893.42 713.24V688.463C2893.42 688.463 2806.49 620.888 2613.6 622.014C2420.72 623.14 2335.14 688.463 2335.14 688.463V713.24C2296.98 715.161 2289.1 727.675 2282.17 756.038H2255V1403.63H2282.17C2287.37 1433.93 2297.29 1446.03 2339.22 1450.94V1475.71C2339.22 1475.71 2449.24 1534.28 2617.68 1538.78C2786.11 1543.29 2896.14 1475.71 2896.14 1475.71V1450.94C2941.02 1443.87 2952.72 1433.31 2951.83 1403.63H2979V756.038H2954.55C2945.75 721.252 2936.71 706.665 2893.42 713.24Z" fill="#FFF8DF" stroke="#DEB62A" stroke-width="30" stroke-linejoin="round"/>
<path d="M1366.71 760.333H1409.38V771H1356.05V696.333H1409.38V707H1366.71V728.333H1398.71V739H1366.71V760.333ZM1430.74 739V771H1420.08V717.667H1430.74V728.333H1441.41V739H1430.74ZM1473.41 771H1462.74V728.333H1473.41V771ZM1462.74 728.333H1441.41V717.667H1462.74V728.333ZM1494.78 760.333H1484.11V728.333H1494.78V760.333ZM1537.44 728.333H1494.78V717.667H1537.44V728.333ZM1537.44 771H1494.78V760.333H1537.44V771ZM1558.81 739V771H1548.14V696.333H1558.81V728.333H1569.47V739H1558.81ZM1601.47 771H1590.81V728.333H1601.47V771ZM1590.81 728.333H1569.47V717.667H1590.81V728.333ZM1622.84 760.333H1612.17V728.333H1622.84V760.333ZM1654.84 739H1644.17V728.333H1654.84V717.667H1665.51V771H1654.84V760.333H1644.17V749.667H1654.84V739ZM1644.17 771H1622.84V760.333H1644.17V771ZM1644.17 728.333H1622.84V717.667H1644.17V728.333ZM1686.87 739V771H1676.2V717.667H1686.87V728.333H1697.54V739H1686.87ZM1729.54 771H1718.87V728.333H1729.54V771ZM1718.87 728.333H1697.54V717.667H1718.87V728.333ZM1761.57 717.667H1772.23V728.333H1761.57V760.333H1772.23V771H1750.9V728.333H1740.23V717.667H1750.9V696.333H1761.57V717.667ZM1825.56 728.333H1793.56V717.667H1825.56V728.333ZM1793.56 749.667V760.333H1782.89V728.333H1793.56V739H1825.56V728.333H1836.22V749.667H1793.56ZM1836.22 771H1793.56V760.333H1836.22V771ZM1857.59 760.333H1846.92V728.333H1857.59V760.333ZM1889.59 739H1878.92V728.333H1889.59V696.333H1900.26V771H1889.59V760.333H1878.92V749.667H1889.59V739ZM1878.92 771H1857.59V760.333H1878.92V771ZM1878.92 728.333H1857.59V717.667H1878.92V728.333ZM1489.43 879.333H1478.77V826H1489.43V879.333ZM1532.1 879.333H1521.43V868.667H1532.1V879.333ZM1532.1 836.667H1521.43V826H1532.1V836.667ZM1521.43 890H1489.43V879.333H1521.43V890ZM1521.43 826H1489.43V815.333H1521.43V826ZM1553.46 879.333H1542.8V847.333H1553.46V879.333ZM1585.46 847.333H1553.46V836.667H1585.46V847.333ZM1596.13 879.333H1585.46V847.333H1596.13V879.333ZM1585.46 890H1553.46V879.333H1585.46V890ZM1617.49 879.333H1606.83V847.333H1617.49V879.333ZM1649.49 858H1638.83V847.333H1649.49V815.333H1660.16V890H1649.49V879.333H1638.83V868.667H1649.49V858ZM1638.83 890H1617.49V879.333H1638.83V890ZM1638.83 847.333H1617.49V836.667H1638.83V847.333ZM1713.53 847.333H1681.53V836.667H1713.53V847.333ZM1681.53 868.667V879.333H1670.86V847.333H1681.53V858H1713.53V847.333H1724.19V868.667H1681.53ZM1724.19 890H1681.53V879.333H1724.19V890ZM1766.89 858H1756.22V847.333H1766.89V858ZM1777.56 847.333H1766.89V836.667H1777.56V847.333ZM1745.56 868.667V890H1734.89V836.667H1745.56V858H1756.22V868.667H1745.56Z" fill="#187A98"/>
<path d="M2481.93 946V986H2473.93V930H2481.93V938H2489.93V946H2481.93ZM2521.93 946H2513.93V938H2521.93V930H2529.93V986H2521.93V946ZM2513.93 954H2505.93V946H2513.93V954ZM2505.93 962H2497.93V954H2505.93V962ZM2497.93 954H2489.93V946H2497.93V954ZM2545.91 978H2537.91V954H2545.91V978ZM2569.91 962H2561.91V954H2569.91V946H2577.91V986H2569.91V978H2561.91V970H2569.91V962ZM2561.91 986H2545.91V978H2561.91V986ZM2561.91 954H2545.91V946H2561.91V954ZM2593.94 978H2585.94V954H2593.94V978ZM2617.94 978H2609.94V970H2617.94V962H2609.94V954H2617.94V946H2625.94V994H2617.94V978ZM2609.94 954H2593.94V946H2609.94V954ZM2609.94 986H2593.94V978H2609.94V986ZM2617.94 1002H2593.94V994H2617.94V1002ZM2641.96 986H2633.96V946H2641.96V986ZM2641.96 938H2633.96V930H2641.96V938ZM2657.99 978H2649.99V954H2657.99V978ZM2689.99 954H2657.99V946H2689.99V954ZM2689.99 986H2657.99V978H2689.99V986ZM2706.02 978H2698.02V954H2706.02V978ZM2730.02 962H2722.02V954H2730.02V946H2738.02V986H2730.02V978H2722.02V970H2730.02V962ZM2722.02 986H2706.02V978H2722.02V986ZM2722.02 954H2706.02V946H2722.02V954ZM2754.04 986H2746.04V930H2754.04V986ZM2421.92 1067H2413.92V1027H2421.92V1067ZM2453.92 1067H2445.92V1059H2453.92V1067ZM2453.92 1035H2445.92V1027H2453.92V1035ZM2445.92 1075H2421.92V1067H2445.92V1075ZM2445.92 1027H2421.92V1019H2445.92V1027ZM2469.94 1067H2461.94V1043H2469.94V1067ZM2493.94 1043H2469.94V1035H2493.94V1043ZM2501.94 1067H2493.94V1043H2501.94V1067ZM2493.94 1075H2469.94V1067H2493.94V1075ZM2517.96 1051V1075H2509.96V1035H2517.96V1043H2525.96V1051H2517.96ZM2549.96 1075H2541.96V1043H2549.96V1075ZM2541.96 1043H2525.96V1035H2541.96V1043ZM2565.99 1051V1075H2557.99V1035H2565.99V1043H2573.99V1051H2565.99ZM2597.99 1075H2589.99V1043H2597.99V1075ZM2589.99 1043H2573.99V1035H2589.99V1043ZM2638.01 1043H2614.01V1035H2638.01V1043ZM2614.01 1059V1067H2606.01V1043H2614.01V1051H2638.01V1043H2646.01V1059H2614.01ZM2646.01 1075H2614.01V1067H2646.01V1075ZM2662.04 1067H2654.04V1043H2662.04V1067ZM2694.04 1043H2662.04V1035H2694.04V1043ZM2694.04 1075H2662.04V1067H2694.04V1075ZM2718.06 1035H2726.06V1043H2718.06V1067H2726.06V1075H2710.06V1043H2702.06V1035H2710.06V1019H2718.06V1035ZM2742.05 1067H2734.05V1043H2742.05V1067ZM2766.05 1043H2742.05V1035H2766.05V1043ZM2774.05 1067H2766.05V1043H2774.05V1067ZM2766.05 1075H2742.05V1067H2766.05V1075ZM2806.07 1051H2798.07V1043H2806.07V1051ZM2814.07 1043H2806.07V1035H2814.07V1043ZM2790.07 1059V1075H2782.07V1035H2790.07V1051H2798.07V1059H2790.07Z" fill="#583D94"/>
<path d="M560.922 978H552.922V938H560.922V978ZM592.922 978H584.922V970H592.922V978ZM592.922 946H584.922V938H592.922V946ZM584.922 986H560.922V978H584.922V986ZM584.922 938H560.922V930H584.922V938ZM608.945 978H600.945V946H608.945V978ZM640.945 978H632.945V946H640.945V978ZM632.945 986H608.945V978H632.945V986ZM672.969 962H664.969V954H672.969V962ZM680.969 954H672.969V946H680.969V954ZM656.969 970V986H648.969V946H656.969V962H664.969V970H656.969ZM696.977 986H688.977V946H696.977V986ZM696.977 938H688.977V930H696.977V938ZM713.008 978H705.008V954H713.008V978ZM737.008 954H713.008V946H737.008V954ZM745.008 978H737.008V954H745.008V978ZM737.008 986H713.008V978H737.008V986ZM761.031 978H753.031V946H761.031V978ZM793.031 978H785.031V946H793.031V978ZM785.031 986H761.031V978H785.031V986ZM833.055 986H801.055V978H833.055V986ZM841.055 978H833.055V970H841.055V978ZM833.055 970H809.055V962H833.055V970ZM809.055 962H801.055V954H809.055V962ZM841.055 954H809.055V946H841.055V954ZM500.914 1027H492.914V1019H500.914V1027ZM484.914 1059V1075H476.914V1043H484.914V1051H508.914V1043H516.914V1075H508.914V1059H484.914ZM508.914 1043H500.914V1027H508.914V1043ZM492.914 1043H484.914V1027H492.914V1043ZM532.938 1067H524.938V1043H532.938V1067ZM556.938 1051H548.937V1043H556.938V1019H564.937V1075H556.938V1067H548.937V1059H556.938V1051ZM548.937 1075H532.938V1067H548.937V1075ZM548.937 1043H532.938V1035H548.937V1043ZM596.961 1075H588.961V1067H596.961V1075ZM588.961 1067H580.961V1059H588.961V1067ZM604.961 1067H596.961V1059H604.961V1067ZM580.961 1059H572.961V1035H580.961V1059ZM612.961 1059H604.961V1035H612.961V1059ZM652.984 1043H628.984V1035H652.984V1043ZM628.984 1059V1067H620.984V1043H628.984V1051H652.984V1043H660.984V1059H628.984ZM660.984 1075H628.984V1067H660.984V1075ZM677.008 1051V1075H669.008V1035H677.008V1043H685.008V1051H677.008ZM709.008 1075H701.008V1043H709.008V1075ZM701.008 1043H685.008V1035H701.008V1043ZM733.031 1035H741.031V1043H733.031V1067H741.031V1075H725.031V1043H717.031V1035H725.031V1019H733.031V1035ZM757.023 1067H749.023V1035H757.023V1067ZM789.023 1067H781.023V1035H789.023V1067ZM781.023 1075H757.023V1067H781.023V1075ZM821.047 1051H813.047V1043H821.047V1051ZM829.047 1043H821.047V1035H829.047V1043ZM805.047 1059V1075H797.047V1035H805.047V1051H813.047V1059H805.047ZM869.055 1043H845.055V1035H869.055V1043ZM845.055 1059V1067H837.055V1043H845.055V1051H869.055V1043H877.055V1059H845.055ZM877.055 1075H845.055V1067H877.055V1075ZM909.078 1051H901.078V1043H909.078V1051ZM917.078 1043H909.078V1035H917.078V1043ZM893.078 1059V1075H885.078V1035H893.078V1051H901.078V1059H893.078Z" fill="#D31F62"/>
<path d="M1384.01 1150.11H1390.23V1156.33H1384.01V1162.56H1377.79V1156.33H1371.57V1150.11H1377.79V1143.89H1384.01V1150.11ZM1427.56 1168.78H1421.34V1156.33H1427.56V1168.78ZM1421.34 1175H1402.67V1168.78H1421.34V1175ZM1402.67 1168.78H1396.45V1162.56H1402.67V1168.78ZM1402.67 1150.11H1421.34V1156.33H1396.45V1131.44H1427.56V1137.67H1402.67V1150.11ZM1458.67 1168.78H1452.45V1131.44H1458.67V1168.78ZM1477.34 1175H1458.67V1168.78H1477.34V1175ZM1483.56 1168.78H1477.34V1131.44H1483.56V1168.78ZM1496.02 1156.33V1175H1489.8V1143.89H1496.02V1150.11H1502.25V1156.33H1496.02ZM1520.91 1175H1514.69V1150.11H1520.91V1175ZM1514.69 1150.11H1502.25V1143.89H1514.69V1150.11ZM1533.37 1168.78H1527.15V1150.11H1533.37V1168.78ZM1552.04 1156.33H1545.82V1150.11H1552.04V1131.44H1558.26V1175H1552.04V1168.78H1545.82V1162.56H1552.04V1156.33ZM1545.82 1175H1533.37V1168.78H1545.82V1175ZM1545.82 1150.11H1533.37V1143.89H1545.82V1150.11ZM1589.39 1150.11H1570.73V1143.89H1589.39V1150.11ZM1570.73 1162.56V1168.78H1564.5V1150.11H1570.73V1156.33H1589.39V1150.11H1595.62V1162.56H1570.73ZM1595.62 1175H1570.73V1168.78H1595.62V1175ZM1620.52 1156.33H1614.3V1150.11H1620.52V1156.33ZM1626.74 1150.11H1620.52V1143.89H1626.74V1150.11ZM1608.08 1162.56V1175H1601.86V1143.89H1608.08V1156.33H1614.3V1162.56H1608.08ZM1657.86 1175H1632.97V1168.78H1657.86V1175ZM1664.08 1168.78H1657.86V1162.56H1664.08V1168.78ZM1657.86 1162.56H1639.19V1156.33H1657.86V1162.56ZM1639.19 1156.33H1632.97V1150.11H1639.19V1156.33ZM1664.08 1150.11H1639.19V1143.89H1664.08V1150.11ZM1682.77 1143.89H1688.99V1150.11H1682.77V1168.78H1688.99V1175H1676.55V1150.11H1670.32V1143.89H1676.55V1131.44H1682.77V1143.89ZM1701.43 1168.78H1695.21V1150.11H1701.43V1168.78ZM1720.1 1156.33H1713.87V1150.11H1720.1V1143.89H1726.32V1175H1720.1V1168.78H1713.87V1162.56H1720.1V1156.33ZM1713.87 1175H1701.43V1168.78H1713.87V1175ZM1713.87 1150.11H1701.43V1143.89H1713.87V1150.11ZM1738.78 1156.33V1175H1732.56V1143.89H1738.78V1150.11H1745V1156.33H1738.78ZM1763.67 1175H1757.45V1150.11H1763.67V1175ZM1757.45 1150.11H1745V1143.89H1757.45V1150.11ZM1776.13 1168.78H1769.91V1150.11H1776.13V1168.78ZM1794.8 1156.33H1788.58V1150.11H1794.8V1131.44H1801.02V1175H1794.8V1168.78H1788.58V1162.56H1794.8V1156.33ZM1788.58 1175H1776.13V1168.78H1788.58V1175ZM1788.58 1150.11H1776.13V1143.89H1788.58V1150.11ZM1813.48 1175H1807.26V1143.89H1813.48V1175ZM1813.48 1137.67H1807.26V1131.44H1813.48V1137.67ZM1825.95 1156.33V1175H1819.73V1143.89H1825.95V1150.11H1832.17V1156.33H1825.95ZM1850.84 1175H1844.62V1150.11H1850.84V1175ZM1844.62 1150.11H1832.17V1143.89H1844.62V1150.11ZM1863.3 1168.78H1857.08V1150.11H1863.3V1168.78ZM1881.97 1168.78H1875.75V1162.56H1881.97V1156.33H1875.75V1150.11H1881.97V1143.89H1888.19V1181.22H1881.97V1168.78ZM1875.75 1150.11H1863.3V1143.89H1875.75V1150.11ZM1875.75 1175H1863.3V1168.78H1875.75V1175ZM1881.97 1187.44H1863.3V1181.22H1881.97V1187.44ZM1499.18 1219.11H1505.4V1225.33H1499.18V1231.56H1492.96V1225.33H1486.74V1219.11H1492.96V1212.89H1499.18V1219.11ZM1542.73 1237.78H1536.51V1225.33H1542.73V1237.78ZM1536.51 1244H1517.84V1237.78H1536.51V1244ZM1517.84 1237.78H1511.62V1231.56H1517.84V1237.78ZM1517.84 1219.11H1536.51V1225.33H1511.62V1200.44H1542.73V1206.67H1517.84V1219.11ZM1573.84 1225.33V1244H1567.62V1200.44H1573.84V1219.11H1592.51V1200.44H1598.73V1244H1592.51V1225.33H1573.84ZM1611.19 1237.78H1604.97V1219.11H1611.19V1237.78ZM1629.86 1225.33H1623.64V1219.11H1629.86V1212.89H1636.08V1244H1629.86V1237.78H1623.64V1231.56H1629.86V1225.33ZM1623.64 1244H1611.19V1237.78H1623.64V1244ZM1623.64 1219.11H1611.19V1212.89H1623.64V1219.11ZM1648.55 1237.78H1642.32V1219.11H1648.55V1237.78ZM1673.44 1219.11H1648.55V1212.89H1673.44V1219.11ZM1673.44 1244H1648.55V1237.78H1673.44V1244ZM1704.56 1244H1698.34V1237.78H1704.56V1244ZM1685.9 1231.56V1244H1679.68V1200.44H1685.9V1225.33H1692.12V1231.56H1685.9ZM1698.34 1225.33H1692.12V1219.11H1698.34V1225.33ZM1704.56 1219.11H1698.34V1212.89H1704.56V1219.11ZM1698.34 1237.78H1692.12V1231.56H1698.34V1237.78ZM1735.68 1219.11H1717.02V1212.89H1735.68V1219.11ZM1717.02 1231.56V1237.78H1710.79V1219.11H1717.02V1225.33H1735.68V1219.11H1741.9V1231.56H1717.02ZM1741.9 1244H1717.02V1237.78H1741.9V1244ZM1766.81 1225.33H1760.59V1219.11H1766.81V1225.33ZM1773.03 1219.11H1766.81V1212.89H1773.03V1219.11ZM1754.37 1231.56V1244H1748.14V1212.89H1754.37V1225.33H1760.59V1231.56H1754.37Z" fill="#187A98"/>
<path d="M428.268 1315.67H433.602V1321H428.268V1326.33H422.935V1321H417.602V1315.67H422.935V1310.33H428.268V1315.67ZM465.596 1331.67H460.263V1321H465.596V1331.67ZM460.263 1337H444.263V1331.67H460.263V1337ZM444.263 1331.67H438.93V1326.33H444.263V1331.67ZM444.263 1315.67H460.263V1321H438.93V1299.67H465.596V1305H444.263V1315.67ZM502.93 1315.67H497.596V1305H502.93V1315.67ZM508.263 1326.33H502.93V1315.67H508.263V1326.33ZM492.263 1305V1337H486.93V1299.67H497.596V1305H492.263ZM513.596 1326.33V1299.67H518.93V1337H513.596V1331.67H508.263V1326.33H513.596ZM545.576 1315.67H529.576V1310.33H545.576V1315.67ZM529.576 1326.33V1331.67H524.242V1315.67H529.576V1321H545.576V1315.67H550.909V1326.33H529.576ZM550.909 1337H529.576V1331.67H550.909V1337ZM561.591 1331.67H556.258V1310.33H561.591V1331.67ZM566.924 1337H561.591V1331.67H566.924V1337ZM577.591 1326.33H572.258V1315.67H577.591V1326.33ZM588.258 1337H582.924V1331.67H588.258V1337ZM593.591 1331.67H588.258V1310.33H593.591V1331.67ZM572.258 1331.67H566.924V1326.33H572.258V1331.67ZM582.924 1331.67H577.591V1326.33H582.924V1331.67ZM620.232 1331.67H641.565V1337H614.898V1299.67H641.565V1305H620.232V1315.67H636.232V1321H620.232V1331.67ZM652.247 1337H646.914V1331.67H652.247V1337ZM657.581 1331.67H652.247V1326.33H657.581V1331.67ZM662.914 1326.33H657.581V1321H662.914V1326.33ZM652.247 1315.67H646.914V1310.33H652.247V1315.67ZM657.581 1321H652.247V1315.67H657.581V1321ZM668.247 1331.67H662.914V1326.33H668.247V1331.67ZM673.581 1337H668.247V1331.67H673.581V1337ZM668.247 1321H662.914V1315.67H668.247V1321ZM673.581 1315.67H668.247V1310.33H673.581V1315.67ZM700.263 1331.67V1315.67H705.596V1331.67H700.263ZM684.263 1326.33H689.596V1331.67H684.263V1347.67H678.93V1310.33H684.263V1315.67H689.596V1321H684.263V1326.33ZM689.596 1315.67V1310.33H700.263V1315.67H689.596ZM689.596 1337V1331.67H700.263V1337H689.596ZM732.279 1315.67H716.279V1310.33H732.279V1315.67ZM716.279 1326.33V1331.67H710.945V1315.67H716.279V1321H732.279V1315.67H737.612V1326.33H716.279ZM737.612 1337H716.279V1331.67H737.612V1337ZM758.961 1321H753.628V1315.67H758.961V1321ZM764.294 1315.67H758.961V1310.33H764.294V1315.67ZM748.294 1326.33V1337H742.961V1310.33H748.294V1321H753.628V1326.33H748.294ZM774.966 1337H769.633V1310.33H774.966V1337ZM774.966 1305H769.633V1299.67H774.966V1305ZM801.654 1315.67H785.654V1310.33H801.654V1315.67ZM785.654 1326.33V1331.67H780.32V1315.67H785.654V1321H801.654V1315.67H806.987V1326.33H785.654ZM806.987 1337H785.654V1331.67H806.987V1337ZM817.669 1321V1337H812.336V1310.33H817.669V1315.67H823.003V1321H817.669ZM839.003 1337H833.669V1315.67H839.003V1337ZM833.669 1315.67H823.003V1310.33H833.669V1315.67ZM849.685 1331.67H844.352V1315.67H849.685V1331.67ZM871.018 1315.67H849.685V1310.33H871.018V1315.67ZM871.018 1337H849.685V1331.67H871.018V1337ZM897.701 1315.67H881.701V1310.33H897.701V1315.67ZM881.701 1326.33V1331.67H876.367V1315.67H881.701V1321H897.701V1315.67H903.034V1326.33H881.701ZM903.034 1337H881.701V1331.67H903.034V1337ZM929.716 1337H908.383V1331.67H929.716V1337ZM935.049 1331.67H929.716V1326.33H935.049V1331.67ZM929.716 1326.33H913.716V1321H929.716V1326.33ZM913.716 1321H908.383V1315.67H913.716V1321ZM935.049 1315.67H913.716V1310.33H935.049V1315.67ZM606.979 1374.67H612.312V1380H606.979V1385.33H601.646V1380H596.312V1374.67H601.646V1369.33H606.979V1374.67ZM644.307 1390.67H638.974V1380H644.307V1390.67ZM638.974 1396H622.974V1390.67H638.974V1396ZM622.974 1390.67H617.641V1385.33H622.974V1390.67ZM622.974 1374.67H638.974V1380H617.641V1358.67H644.307V1364H622.974V1374.67ZM692.307 1358.67V1364H670.974V1374.67H686.974V1380H670.974V1396H665.641V1358.67H692.307ZM702.99 1390.67H697.656V1369.33H702.99V1390.67ZM724.323 1390.67H718.99V1369.33H724.323V1390.67ZM718.99 1396H702.99V1390.67H718.99V1396ZM735.005 1380V1396H729.672V1369.33H735.005V1374.67H740.339V1380H735.005ZM756.339 1396H751.005V1374.67H756.339V1396ZM751.005 1374.67H740.339V1369.33H751.005V1374.67Z" fill="#D31F62"/>
<path d="M496.703 656.464C449.802 656.464 372.521 654.205 350.134 654.205C345.321 530.961 470.12 136 703.732 136C937.344 136 1002.92 435.849 1008.52 622.46C990.733 618.671 976.935 609.035 957.873 609.035C936.393 609.035 913.37 606.529 893.749 615.936C870.225 627.213 839.725 622.811 814.183 622.586C797.479 622.439 775.196 621.567 759.481 615.308C746.874 610.287 736.343 602.944 722.577 600.503C700.73 596.629 677.036 597.07 655.05 599.373C618.367 603.216 578.364 613.435 550.751 638.145C545.467 642.873 542.292 654.089 535.701 655.962C524.286 659.205 508.455 656.464 496.703 656.464Z" fill="url(#paint0_radial_187_1536)" style="mix-blend-mode:lighten"/>
<path d="M699.436 524.959L702.964 625.936L750.377 589.059L788.982 507.206L803.058 441.551L699.436 524.959Z" fill="#D31F62"/>
<path d="M760.915 462.624L705.253 629.238L629.486 647.765L647.169 463.705L750.378 336.19L760.915 462.624Z" fill="#FF7AAC"/>
<path d="M760.915 462.626L729.306 425.749L750.379 336.19L760.915 462.626Z" fill="#FB99BD"/>
<path d="M787.256 503.463L803.063 441.552L795.74 506.473L750.381 589.06L702.967 625.937L753.855 563.588L787.256 503.463Z" fill="#FF97BD"/>
<path d="M729.308 425.747L646.501 466.107L637.944 646.07L711.823 627.683L760.917 462.625L729.308 425.747Z" fill="#F85894"/>
<path d="M690.053 633.267L729.308 425.749L646.474 466.205L637.944 646.072L690.053 633.267Z" fill="#FF97BD"/>
<path d="M678.763 479.723L632.027 647.396L604.583 681.175L565.785 661.151L617.263 421.244L678.763 479.723Z" fill="#D31F62"/>
<path d="M645.435 487.568L615.655 417.544L683.421 482.906L645.435 487.568Z" fill="#FFBCD5"/>
<path d="M606.638 678.776L644.173 484.405L682.545 481.959L662.247 648.436L606.638 678.776Z" fill="#FF80AF"/>
<path d="M2436.92 1302.67H2442.25V1308H2436.92V1313.33H2431.58V1308H2426.25V1302.67H2431.58V1297.33H2436.92V1302.67ZM2474.24 1318.67H2468.91V1308H2474.24V1318.67ZM2468.91 1324H2452.91V1318.67H2468.91V1324ZM2452.91 1318.67H2447.58V1313.33H2452.91V1318.67ZM2452.91 1302.67H2468.91V1308H2447.58V1286.67H2474.24V1292H2452.91V1302.67ZM2522.24 1286.67V1292H2500.91V1302.67H2516.91V1308H2500.91V1324H2495.58V1286.67H2522.24ZM2543.59 1308H2538.26V1302.67H2543.59V1308ZM2548.93 1302.67H2543.59V1297.33H2548.93V1302.67ZM2532.93 1313.33V1324H2527.59V1297.33H2532.93V1308H2538.26V1313.33H2532.93ZM2559.6 1324H2554.27V1297.33H2559.6V1324ZM2559.6 1292H2554.27V1286.67H2559.6V1292ZM2586.29 1302.67H2570.29V1297.33H2586.29V1302.67ZM2570.29 1313.33V1318.67H2564.95V1302.67H2570.29V1308H2586.29V1302.67H2591.62V1313.33H2570.29ZM2591.62 1324H2570.29V1318.67H2591.62V1324ZM2602.3 1308V1324H2596.97V1297.33H2602.3V1302.67H2607.64V1308H2602.3ZM2623.64 1324H2618.3V1302.67H2623.64V1324ZM2618.3 1302.67H2607.64V1297.33H2618.3V1302.67ZM2634.32 1318.67H2628.98V1302.67H2634.32V1318.67ZM2650.32 1308H2644.98V1302.67H2650.32V1286.67H2655.65V1324H2650.32V1318.67H2644.98V1313.33H2650.32V1308ZM2644.98 1324H2634.32V1318.67H2644.98V1324ZM2644.98 1302.67H2634.32V1297.33H2644.98V1302.67ZM2682.33 1324H2661V1318.67H2682.33V1324ZM2687.67 1318.67H2682.33V1313.33H2687.67V1318.67ZM2682.33 1313.33H2666.33V1308H2682.33V1313.33ZM2666.33 1308H2661V1302.67H2666.33V1308ZM2687.67 1302.67H2666.33V1297.33H2687.67V1302.67ZM2698.35 1308V1324H2693.02V1286.67H2698.35V1302.67H2703.68V1308H2698.35ZM2719.68 1324H2714.35V1302.67H2719.68V1324ZM2714.35 1302.67H2703.68V1297.33H2714.35V1302.67ZM2730.36 1324H2725.03V1297.33H2730.36V1324ZM2730.36 1292H2725.03V1286.67H2730.36V1292ZM2757.05 1318.67V1302.67H2762.39V1318.67H2757.05ZM2741.05 1313.33H2746.39V1318.67H2741.05V1334.67H2735.72V1297.33H2741.05V1302.67H2746.39V1308H2741.05V1313.33ZM2746.39 1302.67V1297.33H2757.05V1302.67H2746.39ZM2746.39 1324V1318.67H2757.05V1324H2746.39ZM2789.07 1324H2767.73V1318.67H2789.07V1324ZM2794.4 1318.67H2789.07V1313.33H2794.4V1318.67ZM2789.07 1313.33H2773.07V1308H2789.07V1313.33ZM2773.07 1308H2767.73V1302.67H2773.07V1308ZM2794.4 1302.67H2773.07V1297.33H2794.4V1302.67ZM2455.6 1361.67H2460.93V1367H2455.6V1372.33H2450.26V1367H2444.93V1361.67H2450.26V1356.33H2455.6V1361.67ZM2492.92 1377.67H2487.59V1367H2492.92V1377.67ZM2487.59 1383H2471.59V1377.67H2487.59V1383ZM2471.59 1377.67H2466.26V1372.33H2471.59V1377.67ZM2471.59 1361.67H2487.59V1367H2466.26V1345.67H2492.92V1351H2471.59V1361.67ZM2530.26 1345.67V1351H2524.92V1377.67H2530.26V1383H2514.26V1377.67H2519.59V1351H2514.26V1345.67H2530.26ZM2540.92 1367V1383H2535.59V1356.33H2540.92V1361.67H2546.25V1367H2540.92ZM2562.25 1383H2556.92V1361.67H2562.25V1383ZM2556.92 1361.67H2546.25V1356.33H2556.92V1361.67ZM2572.93 1377.67H2567.6V1361.67H2572.93V1377.67ZM2594.27 1361.67H2572.93V1356.33H2594.27V1361.67ZM2594.27 1383H2572.93V1377.67H2594.27V1383ZM2604.95 1383H2599.62V1345.67H2604.95V1383ZM2615.64 1377.67H2610.3V1356.33H2615.64V1377.67ZM2636.97 1377.67H2631.64V1356.33H2636.97V1377.67ZM2631.64 1383H2615.64V1377.67H2631.64V1383ZM2663.65 1383H2642.32V1377.67H2663.65V1383ZM2668.99 1377.67H2663.65V1372.33H2668.99V1377.67ZM2663.65 1372.33H2647.65V1367H2663.65V1372.33ZM2647.65 1367H2642.32V1361.67H2647.65V1367ZM2668.99 1361.67H2647.65V1356.33H2668.99V1361.67ZM2679.67 1383H2674.34V1356.33H2679.67V1383ZM2679.67 1351H2674.34V1345.67H2679.67V1351ZM2701.02 1383H2695.69V1377.67H2701.02V1383ZM2695.69 1377.67H2690.36V1372.33H2695.69V1377.67ZM2706.36 1377.67H2701.02V1372.33H2706.36V1377.67ZM2690.36 1372.33H2685.02V1356.33H2690.36V1372.33ZM2711.69 1372.33H2706.36V1356.33H2711.69V1372.33ZM2722.37 1383H2717.04V1356.33H2722.37V1383ZM2722.37 1351H2717.04V1345.67H2722.37V1351ZM2738.39 1356.33H2743.73V1361.67H2738.39V1377.67H2743.73V1383H2733.06V1361.67H2727.73V1356.33H2733.06V1345.67H2738.39V1356.33ZM2775.72 1367H2770.39V1356.33H2775.72V1367ZM2754.39 1367H2749.05V1356.33H2754.39V1367ZM2765.05 1388.33H2759.72V1377.67H2765.05V1388.33ZM2759.72 1393.67H2749.05V1388.33H2759.72V1393.67ZM2759.72 1377.67H2754.39V1367H2759.72V1377.67ZM2770.39 1377.67H2765.05V1367H2770.39V1377.67Z" fill="#6B49B5"/>
<path d="M1446.1 383.352C1400.39 386.456 1324.92 389.46 1303.11 390.942C1290.6 276.085 1387.19 -101.28 1614.87 -116.742C1842.55 -132.204 1925.47 143.675 1942.77 317.7C1925.19 315.336 1911.13 307.243 1892.55 308.505C1871.62 309.927 1849.02 309.109 1830.5 319.198C1808.28 331.294 1778.28 329.199 1753.37 330.679C1737.08 331.647 1715.31 332.308 1699.6 327.499C1686.99 323.641 1676.26 317.475 1662.69 316.105C1641.15 313.93 1618.09 315.911 1596.81 319.519C1561.3 325.537 1522.96 337.735 1497.61 362.655C1492.76 367.424 1490.38 378.116 1484.07 380.302C1473.15 384.088 1457.55 382.574 1446.1 383.352Z" fill="url(#paint1_radial_187_1536)" style="mix-blend-mode:lighten"/>
<path d="M1714.93 124.394L1712.04 282.682L1615.19 329.591L1553.72 171.327L1644.98 26.9899L1714.93 124.394Z" fill="#61CFF0"/>
<path d="M1655.14 101.297L1553.8 172.605L1615.19 329.593L1712.04 282.684L1714.94 124.396L1655.14 101.297Z" fill="#A5EAFF"/>
<path d="M1677.85 299.124L1655.14 101.297L1553.78 172.261L1615.19 329.593L1677.85 299.124Z" fill="#2BB1DA"/>
<path d="M1537.4 173.034L1592.74 295.808L1527.9 350.878L1473.81 358.737L1419.88 196.457L1537.4 173.034Z" fill="#2BB1DA"/>
<path d="M1489.71 209.3L1419.88 196.457L1537.4 173.033L1489.71 209.3Z" fill="#B3ECFF"/>
<path d="M1527.9 350.875L1489.7 209.298L1537.4 173.031L1592.73 295.805L1527.9 350.875Z" fill="#61CFF0"/>
<path d="M1714.93 124.395L1655.14 101.296L1645.16 26.9766L1714.93 124.395Z" fill="#E0F7FF"/>
<path d="M1874.1 214.325L1820.35 327.778L1760.74 306.673L1707.1 272.962L1760.84 159.509L1860.23 145.629L1874.1 214.325Z" fill="#AEE2F2"/>
<path d="M1860.23 145.629L1817.47 186.916L1874.1 214.324L1860.23 145.629Z" fill="#E8FAFF"/>
<path d="M1817.47 186.917L1860.23 145.629L1760.84 159.509L1707.1 272.962L1760.74 306.673L1817.47 186.917Z" fill="#2BB1DA"/>
<path d="M1760.84 159.509L1860.23 145.629L1817.47 186.917L1760.84 159.509Z" fill="#61CFF0"/>
<path d="M1663.58 222.815L1644.71 233.935L1685 251.089L1712.98 229.486L1692.83 220.909L1663.58 222.815Z" fill="#C6F1FF"/>
<path d="M1636.24 254.267L1644.71 233.935L1685 251.09L1686.29 270.786L1636.24 254.267Z" fill="#61CFF0"/>
<path d="M1685 251.09L1712.98 229.487L1723.37 238.699L1686.29 270.786L1685 251.09Z" fill="#2BB1DA"/>
<path d="M1691.42 349.572L1686.29 270.786L1723.37 238.699L1718.75 318.121L1691.42 349.572Z" fill="#61CFF0"/>
<path d="M1686.29 270.786L1636.24 254.267L1641.38 333.053L1691.42 349.573L1686.29 270.786Z" fill="#2BB1DA"/>
<path d="M2519.13 476.049L2511.23 711.38L2605.92 778.305L2678.87 541.123L2596.5 329.132L2519.13 476.049Z" fill="#9C73F5"/>
<path d="M2581.15 439.942L2678.71 543.023L2605.92 778.304L2511.23 711.379L2519.13 476.048L2581.15 439.942Z" fill="#8458E1"/>
<path d="M2544.66 734.827L2581.15 439.942L2678.76 542.51L2605.92 778.304L2544.66 734.827Z" fill="#6B49B5"/>
<path d="M2649.96 534.2L2630.34 768.549L2708.93 816.427L2763.85 794.631L2771.05 497.14L2649.96 534.2Z" fill="#8458E1"/>
<path d="M2706.58 562.539L2771.05 497.139L2649.95 534.2L2706.58 562.539Z" fill="#EBD3FF"/>
<path d="M2708.92 816.427L2706.58 562.54L2649.95 534.2L2630.33 768.55L2708.92 816.427Z" fill="#9E79EC"/>
<path d="M2519.13 476.047L2581.15 439.941L2596.82 323.257L2519.13 476.047Z" fill="#EBD3FF"/>
<path d="M2412.18 628.359C2362.62 611.521 2281.77 581.391 2258.11 573.354C2297.27 441.397 2570.93 68.8532 2817.79 152.72C3064.64 236.587 3026.28 576.972 2965.21 776.171C2947.78 765.782 2936.66 750.646 2916.51 743.802C2893.82 736.091 2870.39 725.178 2846.28 728.074C2817.37 731.545 2786.72 715.944 2759.81 706.537C2742.22 700.385 2718.98 691.464 2704.62 679.209C2693.1 669.377 2684.61 657.837 2670.94 650.315C2649.25 638.379 2624.05 630.34 2600 624.88C2559.85 615.771 2513.91 612.207 2475.87 628.405C2468.58 631.505 2461.2 642.217 2453.57 641.829C2440.34 641.158 2424.6 632.578 2412.18 628.359Z" fill="url(#paint2_radial_187_1536)" style="mix-blend-mode:lighten"/>
<rect x="1251" y="959" width="765" height="109" rx="37" fill="#DEB647"/>
<rect x="1259" y="972" width="746" height="83" rx="37" fill="#2297BB"/>
<rect x="1279" y="978" width="707" height="32" rx="16" fill="#5CBEDD"/>
<path d="M1565.91 1032H1557.75V995.312H1550.41V987.188H1565.91V1032ZM1626.59 1013.25C1626.59 1015.08 1626.35 1016.82 1625.88 1018.47C1625.42 1020.09 1624.76 1021.6 1623.91 1023C1623.05 1024.4 1622.04 1025.65 1620.88 1026.75C1619.71 1027.85 1618.43 1028.8 1617.03 1029.59C1615.66 1030.36 1614.19 1030.96 1612.62 1031.38C1611.06 1031.79 1609.47 1032 1607.84 1032H1593.19C1591.54 1032 1589.94 1031.79 1588.38 1031.38C1586.81 1030.96 1585.33 1030.36 1583.94 1029.59C1582.56 1028.8 1581.29 1027.85 1580.12 1026.75C1578.96 1025.65 1577.95 1024.4 1577.09 1023C1576.26 1021.6 1575.6 1020.09 1575.12 1018.47C1574.67 1016.82 1574.44 1015.08 1574.44 1013.25V1005.94C1574.44 1003.19 1574.95 1000.67 1575.97 998.375C1577.01 996.083 1578.4 994.115 1580.12 992.469C1581.85 990.802 1583.84 989.51 1586.09 988.594C1588.36 987.656 1590.73 987.188 1593.19 987.188H1607.84C1609.47 987.188 1611.06 987.396 1612.62 987.812C1614.19 988.229 1615.66 988.833 1617.03 989.625C1618.43 990.396 1619.71 991.333 1620.88 992.438C1622.04 993.542 1623.05 994.792 1623.91 996.188C1624.76 997.583 1625.42 999.104 1625.88 1000.75C1626.35 1002.38 1626.59 1004.1 1626.59 1005.94V1013.25ZM1618.41 1005.94C1618.41 1004.33 1618.11 1002.88 1617.53 1001.56C1616.95 1000.25 1616.17 999.125 1615.19 998.188C1614.23 997.25 1613.11 996.531 1611.84 996.031C1610.57 995.531 1609.24 995.292 1607.84 995.312H1593.19C1591.83 995.292 1590.51 995.531 1589.22 996.031C1587.95 996.51 1586.81 997.219 1585.81 998.156C1584.83 999.073 1584.04 1000.2 1583.44 1001.53C1582.85 1002.84 1582.56 1004.31 1582.56 1005.94V1013.25C1582.56 1014.88 1582.85 1016.34 1583.44 1017.66C1584.02 1018.97 1584.8 1020.09 1585.78 1021.03C1586.76 1021.95 1587.89 1022.66 1589.16 1023.16C1590.45 1023.66 1591.79 1023.9 1593.19 1023.88H1607.84C1609.45 1023.88 1610.9 1023.61 1612.19 1023.09C1613.5 1022.55 1614.61 1021.81 1615.53 1020.88C1616.45 1019.94 1617.16 1018.82 1617.66 1017.53C1618.16 1016.22 1618.41 1014.79 1618.41 1013.25V1005.94ZM1614.88 1000C1615.19 1000.46 1615.4 1000.96 1615.5 1001.5C1615.6 1002.02 1615.6 1002.54 1615.5 1003.06C1615.4 1003.56 1615.19 1004.04 1614.88 1004.5C1614.58 1004.94 1614.2 1005.31 1613.72 1005.62L1591.78 1020.28C1591.43 1020.55 1591.06 1020.74 1590.69 1020.84C1590.31 1020.95 1589.93 1021 1589.53 1021C1588.86 1021 1588.23 1020.84 1587.62 1020.53C1587.02 1020.22 1586.53 1019.77 1586.16 1019.19C1585.84 1018.73 1585.64 1018.24 1585.53 1017.72C1585.43 1017.18 1585.42 1016.66 1585.5 1016.16C1585.6 1015.64 1585.8 1015.16 1586.09 1014.72C1586.39 1014.26 1586.77 1013.88 1587.25 1013.56L1609.25 998.906C1609.71 998.594 1610.2 998.385 1610.72 998.281C1611.26 998.177 1611.78 998.177 1612.28 998.281C1612.8 998.385 1613.28 998.583 1613.72 998.875C1614.18 999.167 1614.56 999.542 1614.88 1000ZM1685.84 1013.25C1685.84 1015.08 1685.6 1016.82 1685.12 1018.47C1684.67 1020.09 1684.01 1021.6 1683.16 1023C1682.3 1024.4 1681.29 1025.65 1680.12 1026.75C1678.96 1027.85 1677.68 1028.8 1676.28 1029.59C1674.91 1030.36 1673.44 1030.96 1671.88 1031.38C1670.31 1031.79 1668.72 1032 1667.09 1032H1652.44C1650.79 1032 1649.19 1031.79 1647.62 1031.38C1646.06 1030.96 1644.58 1030.36 1643.19 1029.59C1641.81 1028.8 1640.54 1027.85 1639.38 1026.75C1638.21 1025.65 1637.2 1024.4 1636.34 1023C1635.51 1021.6 1634.85 1020.09 1634.38 1018.47C1633.92 1016.82 1633.69 1015.08 1633.69 1013.25V1005.94C1633.69 1003.19 1634.2 1000.67 1635.22 998.375C1636.26 996.083 1637.65 994.115 1639.38 992.469C1641.1 990.802 1643.09 989.51 1645.34 988.594C1647.61 987.656 1649.98 987.188 1652.44 987.188H1667.09C1668.72 987.188 1670.31 987.396 1671.88 987.812C1673.44 988.229 1674.91 988.833 1676.28 989.625C1677.68 990.396 1678.96 991.333 1680.12 992.438C1681.29 993.542 1682.3 994.792 1683.16 996.188C1684.01 997.583 1684.67 999.104 1685.12 1000.75C1685.6 1002.38 1685.84 1004.1 1685.84 1005.94V1013.25ZM1677.66 1005.94C1677.66 1004.33 1677.36 1002.88 1676.78 1001.56C1676.2 1000.25 1675.42 999.125 1674.44 998.188C1673.48 997.25 1672.36 996.531 1671.09 996.031C1669.82 995.531 1668.49 995.292 1667.09 995.312H1652.44C1651.08 995.292 1649.76 995.531 1648.47 996.031C1647.2 996.51 1646.06 997.219 1645.06 998.156C1644.08 999.073 1643.29 1000.2 1642.69 1001.53C1642.1 1002.84 1641.81 1004.31 1641.81 1005.94V1013.25C1641.81 1014.88 1642.1 1016.34 1642.69 1017.66C1643.27 1018.97 1644.05 1020.09 1645.03 1021.03C1646.01 1021.95 1647.14 1022.66 1648.41 1023.16C1649.7 1023.66 1651.04 1023.9 1652.44 1023.88H1667.09C1668.7 1023.88 1670.15 1023.61 1671.44 1023.09C1672.75 1022.55 1673.86 1021.81 1674.78 1020.88C1675.7 1019.94 1676.41 1018.82 1676.91 1017.53C1677.41 1016.22 1677.66 1014.79 1677.66 1013.25V1005.94ZM1674.12 1000C1674.44 1000.46 1674.65 1000.96 1674.75 1001.5C1674.85 1002.02 1674.85 1002.54 1674.75 1003.06C1674.65 1003.56 1674.44 1004.04 1674.12 1004.5C1673.83 1004.94 1673.45 1005.31 1672.97 1005.62L1651.03 1020.28C1650.68 1020.55 1650.31 1020.74 1649.94 1020.84C1649.56 1020.95 1649.18 1021 1648.78 1021C1648.11 1021 1647.48 1020.84 1646.88 1020.53C1646.27 1020.22 1645.78 1019.77 1645.41 1019.19C1645.09 1018.73 1644.89 1018.24 1644.78 1017.72C1644.68 1017.18 1644.67 1016.66 1644.75 1016.16C1644.85 1015.64 1645.05 1015.16 1645.34 1014.72C1645.64 1014.26 1646.02 1013.88 1646.5 1013.56L1668.5 998.906C1668.96 998.594 1669.45 998.385 1669.97 998.281C1670.51 998.177 1671.03 998.177 1671.53 998.281C1672.05 998.385 1672.53 998.583 1672.97 998.875C1673.43 999.167 1673.81 999.542 1674.12 1000ZM1742.34 1020.59C1742.34 1022.05 1742.06 1023.43 1741.5 1024.72C1740.96 1025.99 1740.21 1027.1 1739.25 1028.06C1738.29 1029.02 1737.17 1029.78 1735.88 1030.34C1734.6 1030.89 1733.24 1031.16 1731.78 1031.16C1730.3 1031.16 1728.92 1030.89 1727.62 1030.34C1726.35 1029.78 1725.23 1029.02 1724.25 1028.06C1723.29 1027.1 1722.53 1025.99 1721.97 1024.72C1721.43 1023.43 1721.16 1022.05 1721.16 1020.59C1721.16 1019.14 1721.43 1017.77 1721.97 1016.5C1722.53 1015.21 1723.29 1014.08 1724.25 1013.12C1725.23 1012.15 1726.35 1011.38 1727.62 1010.81C1728.92 1010.25 1730.3 1009.97 1731.78 1009.97C1733.24 1009.97 1734.6 1010.25 1735.88 1010.81C1737.17 1011.38 1738.29 1012.15 1739.25 1013.12C1740.21 1014.08 1740.96 1015.21 1741.5 1016.5C1742.06 1017.77 1742.34 1019.14 1742.34 1020.59ZM1732.09 991.281L1709.06 1031.62H1701.56L1724.62 991.281H1732.09ZM1713.03 1002.25C1713.03 1003.73 1712.75 1005.11 1712.19 1006.41C1711.65 1007.68 1710.89 1008.8 1709.91 1009.78C1708.95 1010.74 1707.82 1011.5 1706.53 1012.06C1705.24 1012.6 1703.86 1012.88 1702.41 1012.88C1700.95 1012.88 1699.57 1012.6 1698.28 1012.06C1697.01 1011.5 1695.9 1010.74 1694.94 1009.78C1693.98 1008.8 1693.22 1007.68 1692.66 1006.41C1692.11 1005.11 1691.84 1003.73 1691.84 1002.25C1691.84 1000.79 1692.11 999.427 1692.66 998.156C1693.22 996.865 1693.98 995.74 1694.94 994.781C1695.9 993.823 1697.01 993.073 1698.28 992.531C1699.57 991.969 1700.95 991.688 1702.41 991.688C1703.86 991.688 1705.24 991.969 1706.53 992.531C1707.82 993.073 1708.95 993.823 1709.91 994.781C1710.89 995.74 1711.65 996.865 1712.19 998.156C1712.75 999.427 1713.03 1000.79 1713.03 1002.25ZM1735.81 1020.59C1735.81 1020.03 1735.71 1019.51 1735.5 1019.03C1735.29 1018.53 1735 1018.09 1734.62 1017.72C1734.27 1017.34 1733.84 1017.05 1733.34 1016.84C1732.86 1016.61 1732.34 1016.5 1731.78 1016.5C1731.22 1016.5 1730.69 1016.61 1730.19 1016.84C1729.69 1017.05 1729.25 1017.34 1728.88 1017.72C1728.52 1018.09 1728.23 1018.53 1728 1019.03C1727.79 1019.51 1727.69 1020.03 1727.69 1020.59C1727.69 1021.16 1727.79 1021.69 1728 1022.19C1728.23 1022.67 1728.52 1023.09 1728.88 1023.47C1729.25 1023.82 1729.69 1024.1 1730.19 1024.31C1730.69 1024.52 1731.22 1024.62 1731.78 1024.62C1732.34 1024.62 1732.86 1024.52 1733.34 1024.31C1733.84 1024.1 1734.27 1023.82 1734.62 1023.47C1735 1023.09 1735.29 1022.67 1735.5 1022.19C1735.71 1021.69 1735.81 1021.16 1735.81 1020.59ZM1706.5 1002.25C1706.5 1001.69 1706.4 1001.17 1706.19 1000.69C1705.98 1000.19 1705.69 999.76 1705.31 999.406C1704.96 999.031 1704.53 998.74 1704.03 998.531C1703.53 998.323 1702.99 998.219 1702.41 998.219C1701.84 998.219 1701.31 998.323 1700.81 998.531C1700.33 998.74 1699.91 999.031 1699.53 999.406C1699.18 999.76 1698.9 1000.19 1698.69 1000.69C1698.48 1001.17 1698.38 1001.69 1698.38 1002.25C1698.38 1002.81 1698.48 1003.34 1698.69 1003.84C1698.9 1004.34 1699.18 1004.78 1699.53 1005.16C1699.91 1005.53 1700.33 1005.82 1700.81 1006.03C1701.31 1006.24 1701.84 1006.34 1702.41 1006.34C1702.99 1006.34 1703.53 1006.24 1704.03 1006.03C1704.53 1005.82 1704.96 1005.53 1705.31 1005.16C1705.69 1004.78 1705.98 1004.34 1706.19 1003.84C1706.4 1003.34 1706.5 1002.81 1706.5 1002.25Z" fill="white"/>
<rect x="2297" y="1144" width="632" height="80" rx="37" fill="#DEB647"/>
<rect x="2315" y="1157" width="599" height="54" rx="27" fill="#6B49B5"/>
<rect x="2334" y="1162" width="558" height="19" rx="9.5" fill="#9C73F5"/>
<path d="M2561.05 1200H2554.94V1172.48H2549.43V1166.39H2561.05V1200ZM2606.57 1185.94C2606.57 1187.31 2606.39 1188.62 2606.03 1189.85C2605.69 1191.07 2605.2 1192.2 2604.55 1193.25C2603.91 1194.3 2603.16 1195.23 2602.28 1196.06C2601.41 1196.89 2600.45 1197.6 2599.4 1198.2C2598.37 1198.77 2597.27 1199.22 2596.09 1199.53C2594.92 1199.84 2593.73 1200 2592.51 1200H2581.52C2580.28 1200 2579.08 1199.84 2577.91 1199.53C2576.73 1199.22 2575.62 1198.77 2574.58 1198.2C2573.55 1197.6 2572.59 1196.89 2571.72 1196.06C2570.84 1195.23 2570.09 1194.3 2569.45 1193.25C2568.82 1192.2 2568.33 1191.07 2567.97 1189.85C2567.62 1188.62 2567.45 1187.31 2567.45 1185.94V1180.45C2567.45 1178.39 2567.84 1176.5 2568.6 1174.78C2569.38 1173.06 2570.42 1171.59 2571.72 1170.35C2573.02 1169.1 2574.51 1168.13 2576.2 1167.45C2577.9 1166.74 2579.67 1166.39 2581.52 1166.39H2592.51C2593.73 1166.39 2594.92 1166.55 2596.09 1166.86C2597.27 1167.17 2598.37 1167.62 2599.4 1168.22C2600.45 1168.8 2601.41 1169.5 2602.28 1170.33C2603.16 1171.16 2603.91 1172.09 2604.55 1173.14C2605.2 1174.19 2605.69 1175.33 2606.03 1176.56C2606.39 1177.78 2606.57 1179.08 2606.57 1180.45V1185.94ZM2600.43 1180.45C2600.43 1179.25 2600.21 1178.16 2599.77 1177.17C2599.34 1176.19 2598.75 1175.34 2598.02 1174.64C2597.3 1173.94 2596.46 1173.4 2595.51 1173.02C2594.55 1172.65 2593.55 1172.47 2592.51 1172.48H2581.52C2580.5 1172.47 2579.51 1172.65 2578.54 1173.02C2577.59 1173.38 2576.73 1173.91 2575.98 1174.62C2575.25 1175.3 2574.66 1176.15 2574.2 1177.15C2573.77 1178.13 2573.55 1179.23 2573.55 1180.45V1185.94C2573.55 1187.16 2573.77 1188.26 2574.2 1189.24C2574.64 1190.23 2575.23 1191.07 2575.96 1191.77C2576.7 1192.46 2577.54 1192.99 2578.49 1193.37C2579.46 1193.74 2580.47 1193.92 2581.52 1193.91H2592.51C2593.71 1193.91 2594.8 1193.71 2595.77 1193.32C2596.75 1192.91 2597.59 1192.36 2598.27 1191.66C2598.96 1190.95 2599.49 1190.12 2599.87 1189.15C2600.24 1188.16 2600.43 1187.09 2600.43 1185.94V1180.45ZM2597.78 1176C2598.02 1176.34 2598.17 1176.72 2598.25 1177.12C2598.33 1177.52 2598.33 1177.91 2598.25 1178.3C2598.17 1178.67 2598.02 1179.03 2597.78 1179.38C2597.56 1179.7 2597.27 1179.98 2596.91 1180.22L2580.46 1191.21C2580.2 1191.41 2579.92 1191.55 2579.64 1191.63C2579.36 1191.71 2579.07 1191.75 2578.77 1191.75C2578.27 1191.75 2577.8 1191.63 2577.34 1191.4C2576.89 1191.16 2576.52 1190.83 2576.24 1190.39C2576.01 1190.05 2575.85 1189.68 2575.77 1189.29C2575.7 1188.88 2575.69 1188.49 2575.75 1188.12C2575.83 1187.73 2575.98 1187.37 2576.2 1187.04C2576.41 1186.7 2576.7 1186.41 2577.06 1186.17L2593.56 1175.18C2593.91 1174.95 2594.27 1174.79 2594.66 1174.71C2595.07 1174.63 2595.46 1174.63 2595.84 1174.71C2596.23 1174.79 2596.59 1174.94 2596.91 1175.16C2597.26 1175.38 2597.55 1175.66 2597.78 1176ZM2651.01 1185.94C2651.01 1187.31 2650.83 1188.62 2650.47 1189.85C2650.12 1191.07 2649.63 1192.2 2648.99 1193.25C2648.35 1194.3 2647.59 1195.23 2646.72 1196.06C2645.84 1196.89 2644.88 1197.6 2643.84 1198.2C2642.8 1198.77 2641.7 1199.22 2640.53 1199.53C2639.36 1199.84 2638.16 1200 2636.95 1200H2625.95C2624.72 1200 2623.52 1199.84 2622.34 1199.53C2621.17 1199.22 2620.06 1198.77 2619.02 1198.2C2617.98 1197.6 2617.03 1196.89 2616.16 1196.06C2615.28 1195.23 2614.52 1194.3 2613.88 1193.25C2613.26 1192.2 2612.77 1191.07 2612.41 1189.85C2612.06 1188.62 2611.89 1187.31 2611.89 1185.94V1180.45C2611.89 1178.39 2612.27 1176.5 2613.04 1174.78C2613.82 1173.06 2614.86 1171.59 2616.16 1170.35C2617.45 1169.1 2618.95 1168.13 2620.63 1167.45C2622.34 1166.74 2624.11 1166.39 2625.95 1166.39H2636.95C2638.16 1166.39 2639.36 1166.55 2640.53 1166.86C2641.7 1167.17 2642.8 1167.62 2643.84 1168.22C2644.88 1168.8 2645.84 1169.5 2646.72 1170.33C2647.59 1171.16 2648.35 1172.09 2648.99 1173.14C2649.63 1174.19 2650.12 1175.33 2650.47 1176.56C2650.83 1177.78 2651.01 1179.08 2651.01 1180.45V1185.94ZM2644.87 1180.45C2644.87 1179.25 2644.65 1178.16 2644.21 1177.17C2643.77 1176.19 2643.19 1175.34 2642.45 1174.64C2641.73 1173.94 2640.9 1173.4 2639.95 1173.02C2638.99 1172.65 2637.99 1172.47 2636.95 1172.48H2625.95C2624.94 1172.47 2623.95 1172.65 2622.98 1173.02C2622.02 1173.38 2621.17 1173.91 2620.42 1174.62C2619.69 1175.3 2619.09 1176.15 2618.64 1177.15C2618.2 1178.13 2617.98 1179.23 2617.98 1180.45V1185.94C2617.98 1187.16 2618.2 1188.26 2618.64 1189.24C2619.08 1190.23 2619.66 1191.07 2620.4 1191.77C2621.13 1192.46 2621.98 1192.99 2622.93 1193.37C2623.9 1193.74 2624.91 1193.92 2625.95 1193.91H2636.95C2638.15 1193.91 2639.23 1193.71 2640.2 1193.32C2641.19 1192.91 2642.02 1192.36 2642.71 1191.66C2643.4 1190.95 2643.93 1190.12 2644.3 1189.15C2644.68 1188.16 2644.87 1187.09 2644.87 1185.94V1180.45ZM2642.22 1176C2642.45 1176.34 2642.61 1176.72 2642.69 1177.12C2642.77 1177.52 2642.77 1177.91 2642.69 1178.3C2642.61 1178.67 2642.45 1179.03 2642.22 1179.38C2642 1179.7 2641.71 1179.98 2641.35 1180.22L2624.9 1191.21C2624.63 1191.41 2624.36 1191.55 2624.08 1191.63C2623.8 1191.71 2623.51 1191.75 2623.21 1191.75C2622.71 1191.75 2622.23 1191.63 2621.78 1191.4C2621.33 1191.16 2620.96 1190.83 2620.68 1190.39C2620.45 1190.05 2620.29 1189.68 2620.21 1189.29C2620.13 1188.88 2620.12 1188.49 2620.19 1188.12C2620.27 1187.73 2620.41 1187.37 2620.63 1187.04C2620.85 1186.7 2621.14 1186.41 2621.5 1186.17L2638 1175.18C2638.34 1174.95 2638.71 1174.79 2639.1 1174.71C2639.51 1174.63 2639.9 1174.63 2640.27 1174.71C2640.66 1174.79 2641.02 1174.94 2641.35 1175.16C2641.7 1175.38 2641.98 1175.66 2642.22 1176ZM2693.38 1191.45C2693.38 1192.54 2693.17 1193.57 2692.75 1194.54C2692.34 1195.49 2691.78 1196.33 2691.06 1197.05C2690.34 1197.77 2689.5 1198.34 2688.53 1198.76C2687.58 1199.16 2686.55 1199.37 2685.46 1199.37C2684.35 1199.37 2683.31 1199.16 2682.34 1198.76C2681.39 1198.34 2680.55 1197.77 2679.81 1197.05C2679.09 1196.33 2678.52 1195.49 2678.1 1194.54C2677.7 1193.57 2677.49 1192.54 2677.49 1191.45C2677.49 1190.35 2677.7 1189.33 2678.1 1188.38C2678.52 1187.41 2679.09 1186.56 2679.81 1185.84C2680.55 1185.11 2681.39 1184.53 2682.34 1184.11C2683.31 1183.69 2684.35 1183.48 2685.46 1183.48C2686.55 1183.48 2687.58 1183.69 2688.53 1184.11C2689.5 1184.53 2690.34 1185.11 2691.06 1185.84C2691.78 1186.56 2692.34 1187.41 2692.75 1188.38C2693.17 1189.33 2693.38 1190.35 2693.38 1191.45ZM2685.7 1169.46L2668.42 1199.72H2662.8L2680.09 1169.46H2685.7ZM2671.4 1177.69C2671.4 1178.8 2671.19 1179.84 2670.77 1180.8C2670.36 1181.76 2669.79 1182.6 2669.05 1183.34C2668.34 1184.05 2667.49 1184.62 2666.52 1185.05C2665.55 1185.45 2664.52 1185.66 2663.43 1185.66C2662.34 1185.66 2661.3 1185.45 2660.34 1185.05C2659.38 1184.62 2658.55 1184.05 2657.83 1183.34C2657.11 1182.6 2656.54 1181.76 2656.12 1180.8C2655.71 1179.84 2655.51 1178.8 2655.51 1177.69C2655.51 1176.59 2655.71 1175.57 2656.12 1174.62C2656.54 1173.65 2657.11 1172.8 2657.83 1172.09C2658.55 1171.37 2659.38 1170.8 2660.34 1170.4C2661.3 1169.98 2662.34 1169.77 2663.43 1169.77C2664.52 1169.77 2665.55 1169.98 2666.52 1170.4C2667.49 1170.8 2668.34 1171.37 2669.05 1172.09C2669.79 1172.8 2670.36 1173.65 2670.77 1174.62C2671.19 1175.57 2671.4 1176.59 2671.4 1177.69ZM2688.48 1191.45C2688.48 1191.02 2688.41 1190.63 2688.25 1190.27C2688.09 1189.9 2687.88 1189.57 2687.59 1189.29C2687.33 1189.01 2687.01 1188.79 2686.63 1188.63C2686.27 1188.46 2685.88 1188.38 2685.46 1188.38C2685.04 1188.38 2684.64 1188.46 2684.27 1188.63C2683.89 1188.79 2683.56 1189.01 2683.28 1189.29C2683.02 1189.57 2682.8 1189.9 2682.62 1190.27C2682.47 1190.63 2682.39 1191.02 2682.39 1191.45C2682.39 1191.87 2682.47 1192.27 2682.62 1192.64C2682.8 1193 2683.02 1193.32 2683.28 1193.6C2683.56 1193.87 2683.89 1194.08 2684.27 1194.23C2684.64 1194.39 2685.04 1194.47 2685.46 1194.47C2685.88 1194.47 2686.27 1194.39 2686.63 1194.23C2687.01 1194.08 2687.33 1193.87 2687.59 1193.6C2687.88 1193.32 2688.09 1193 2688.25 1192.64C2688.41 1192.27 2688.48 1191.87 2688.48 1191.45ZM2666.5 1177.69C2666.5 1177.27 2666.42 1176.88 2666.27 1176.52C2666.11 1176.14 2665.89 1175.82 2665.61 1175.55C2665.34 1175.27 2665.02 1175.05 2664.65 1174.9C2664.27 1174.74 2663.87 1174.66 2663.43 1174.66C2663.01 1174.66 2662.61 1174.74 2662.23 1174.9C2661.88 1175.05 2661.55 1175.27 2661.27 1175.55C2661.01 1175.82 2660.8 1176.14 2660.64 1176.52C2660.48 1176.88 2660.41 1177.27 2660.41 1177.69C2660.41 1178.11 2660.48 1178.51 2660.64 1178.88C2660.8 1179.26 2661.01 1179.59 2661.27 1179.87C2661.55 1180.15 2661.88 1180.37 2662.23 1180.52C2662.61 1180.68 2663.01 1180.76 2663.43 1180.76C2663.87 1180.76 2664.27 1180.68 2664.65 1180.52C2665.02 1180.37 2665.34 1180.15 2665.61 1179.87C2665.89 1179.59 2666.11 1179.26 2666.27 1178.88C2666.42 1178.51 2666.5 1178.11 2666.5 1177.69Z" fill="white"/>
<rect x="367" y="1144" width="632" height="80" rx="37" fill="#DEB647"/>
<rect x="385" y="1157" width="599" height="54" rx="27" fill="#D31F62"/>
<rect x="401" y="1162" width="569" height="19" rx="9.5" fill="#EF548E"/>
<path d="M631.055 1200H624.938V1172.48H619.43V1166.39H631.055V1200ZM676.57 1185.94C676.57 1187.31 676.391 1188.62 676.031 1189.85C675.688 1191.07 675.195 1192.2 674.555 1193.25C673.914 1194.3 673.156 1195.23 672.281 1196.06C671.406 1196.89 670.445 1197.6 669.398 1198.2C668.367 1198.77 667.266 1199.22 666.094 1199.53C664.922 1199.84 663.727 1200 662.508 1200H651.516C650.281 1200 649.078 1199.84 647.906 1199.53C646.734 1199.22 645.625 1198.77 644.578 1198.2C643.547 1197.6 642.594 1196.89 641.719 1196.06C640.844 1195.23 640.086 1194.3 639.445 1193.25C638.82 1192.2 638.328 1191.07 637.969 1189.85C637.625 1188.62 637.453 1187.31 637.453 1185.94V1180.45C637.453 1178.39 637.836 1176.5 638.602 1174.78C639.383 1173.06 640.422 1171.59 641.719 1170.35C643.016 1169.1 644.508 1168.13 646.195 1167.45C647.898 1166.74 649.672 1166.39 651.516 1166.39H662.508C663.727 1166.39 664.922 1166.55 666.094 1166.86C667.266 1167.17 668.367 1167.62 669.398 1168.22C670.445 1168.8 671.406 1169.5 672.281 1170.33C673.156 1171.16 673.914 1172.09 674.555 1173.14C675.195 1174.19 675.688 1175.33 676.031 1176.56C676.391 1177.78 676.57 1179.08 676.57 1180.45V1185.94ZM670.43 1180.45C670.43 1179.25 670.211 1178.16 669.773 1177.17C669.336 1176.19 668.75 1175.34 668.016 1174.64C667.297 1173.94 666.461 1173.4 665.508 1173.02C664.555 1172.65 663.555 1172.47 662.508 1172.48H651.516C650.5 1172.47 649.508 1172.65 648.539 1173.02C647.586 1173.38 646.734 1173.91 645.984 1174.62C645.25 1175.3 644.656 1176.15 644.203 1177.15C643.766 1178.13 643.547 1179.23 643.547 1180.45V1185.94C643.547 1187.16 643.766 1188.26 644.203 1189.24C644.641 1190.23 645.227 1191.07 645.961 1191.77C646.695 1192.46 647.539 1192.99 648.492 1193.37C649.461 1193.74 650.469 1193.92 651.516 1193.91H662.508C663.711 1193.91 664.797 1193.71 665.766 1193.32C666.75 1192.91 667.586 1192.36 668.273 1191.66C668.961 1190.95 669.492 1190.12 669.867 1189.15C670.242 1188.16 670.43 1187.09 670.43 1185.94V1180.45ZM667.781 1176C668.016 1176.34 668.172 1176.72 668.25 1177.12C668.328 1177.52 668.328 1177.91 668.25 1178.3C668.172 1178.67 668.016 1179.03 667.781 1179.38C667.562 1179.7 667.273 1179.98 666.914 1180.22L650.461 1191.21C650.195 1191.41 649.922 1191.55 649.641 1191.63C649.359 1191.71 649.07 1191.75 648.773 1191.75C648.273 1191.75 647.797 1191.63 647.344 1191.4C646.891 1191.16 646.523 1190.83 646.242 1190.39C646.008 1190.05 645.852 1189.68 645.773 1189.29C645.695 1188.88 645.688 1188.49 645.75 1188.12C645.828 1187.73 645.977 1187.37 646.195 1187.04C646.414 1186.7 646.703 1186.41 647.062 1186.17L663.562 1175.18C663.906 1174.95 664.273 1174.79 664.664 1174.71C665.07 1174.63 665.461 1174.63 665.836 1174.71C666.227 1174.79 666.586 1174.94 666.914 1175.16C667.258 1175.38 667.547 1175.66 667.781 1176ZM721.008 1185.94C721.008 1187.31 720.828 1188.62 720.469 1189.85C720.125 1191.07 719.633 1192.2 718.992 1193.25C718.352 1194.3 717.594 1195.23 716.719 1196.06C715.844 1196.89 714.883 1197.6 713.836 1198.2C712.805 1198.77 711.703 1199.22 710.531 1199.53C709.359 1199.84 708.164 1200 706.945 1200H695.953C694.719 1200 693.516 1199.84 692.344 1199.53C691.172 1199.22 690.062 1198.77 689.016 1198.2C687.984 1197.6 687.031 1196.89 686.156 1196.06C685.281 1195.23 684.523 1194.3 683.883 1193.25C683.258 1192.2 682.766 1191.07 682.406 1189.85C682.062 1188.62 681.891 1187.31 681.891 1185.94V1180.45C681.891 1178.39 682.273 1176.5 683.039 1174.78C683.82 1173.06 684.859 1171.59 686.156 1170.35C687.453 1169.1 688.945 1168.13 690.633 1167.45C692.336 1166.74 694.109 1166.39 695.953 1166.39H706.945C708.164 1166.39 709.359 1166.55 710.531 1166.86C711.703 1167.17 712.805 1167.62 713.836 1168.22C714.883 1168.8 715.844 1169.5 716.719 1170.33C717.594 1171.16 718.352 1172.09 718.992 1173.14C719.633 1174.19 720.125 1175.33 720.469 1176.56C720.828 1177.78 721.008 1179.08 721.008 1180.45V1185.94ZM714.867 1180.45C714.867 1179.25 714.648 1178.16 714.211 1177.17C713.773 1176.19 713.188 1175.34 712.453 1174.64C711.734 1173.94 710.898 1173.4 709.945 1173.02C708.992 1172.65 707.992 1172.47 706.945 1172.48H695.953C694.938 1172.47 693.945 1172.65 692.977 1173.02C692.023 1173.38 691.172 1173.91 690.422 1174.62C689.688 1175.3 689.094 1176.15 688.641 1177.15C688.203 1178.13 687.984 1179.23 687.984 1180.45V1185.94C687.984 1187.16 688.203 1188.26 688.641 1189.24C689.078 1190.23 689.664 1191.07 690.398 1191.77C691.133 1192.46 691.977 1192.99 692.93 1193.37C693.898 1193.74 694.906 1193.92 695.953 1193.91H706.945C708.148 1193.91 709.234 1193.71 710.203 1193.32C711.188 1192.91 712.023 1192.36 712.711 1191.66C713.398 1190.95 713.93 1190.12 714.305 1189.15C714.68 1188.16 714.867 1187.09 714.867 1185.94V1180.45ZM712.219 1176C712.453 1176.34 712.609 1176.72 712.688 1177.12C712.766 1177.52 712.766 1177.91 712.688 1178.3C712.609 1178.67 712.453 1179.03 712.219 1179.38C712 1179.7 711.711 1179.98 711.352 1180.22L694.898 1191.21C694.633 1191.41 694.359 1191.55 694.078 1191.63C693.797 1191.71 693.508 1191.75 693.211 1191.75C692.711 1191.75 692.234 1191.63 691.781 1191.4C691.328 1191.16 690.961 1190.83 690.68 1190.39C690.445 1190.05 690.289 1189.68 690.211 1189.29C690.133 1188.88 690.125 1188.49 690.188 1188.12C690.266 1187.73 690.414 1187.37 690.633 1187.04C690.852 1186.7 691.141 1186.41 691.5 1186.17L708 1175.18C708.344 1174.95 708.711 1174.79 709.102 1174.71C709.508 1174.63 709.898 1174.63 710.273 1174.71C710.664 1174.79 711.023 1174.94 711.352 1175.16C711.695 1175.38 711.984 1175.66 712.219 1176ZM763.383 1191.45C763.383 1192.54 763.172 1193.57 762.75 1194.54C762.344 1195.49 761.781 1196.33 761.062 1197.05C760.344 1197.77 759.5 1198.34 758.531 1198.76C757.578 1199.16 756.555 1199.37 755.461 1199.37C754.352 1199.37 753.312 1199.16 752.344 1198.76C751.391 1198.34 750.547 1197.77 749.812 1197.05C749.094 1196.33 748.523 1195.49 748.102 1194.54C747.695 1193.57 747.492 1192.54 747.492 1191.45C747.492 1190.35 747.695 1189.33 748.102 1188.38C748.523 1187.41 749.094 1186.56 749.812 1185.84C750.547 1185.11 751.391 1184.53 752.344 1184.11C753.312 1183.69 754.352 1183.48 755.461 1183.48C756.555 1183.48 757.578 1183.69 758.531 1184.11C759.5 1184.53 760.344 1185.11 761.062 1185.84C761.781 1186.56 762.344 1187.41 762.75 1188.38C763.172 1189.33 763.383 1190.35 763.383 1191.45ZM755.695 1169.46L738.422 1199.72H732.797L750.094 1169.46H755.695ZM741.398 1177.69C741.398 1178.8 741.188 1179.84 740.766 1180.8C740.359 1181.76 739.789 1182.6 739.055 1183.34C738.336 1184.05 737.492 1184.62 736.523 1185.05C735.555 1185.45 734.523 1185.66 733.43 1185.66C732.336 1185.66 731.305 1185.45 730.336 1185.05C729.383 1184.62 728.547 1184.05 727.828 1183.34C727.109 1182.6 726.539 1181.76 726.117 1180.8C725.711 1179.84 725.508 1178.8 725.508 1177.69C725.508 1176.59 725.711 1175.57 726.117 1174.62C726.539 1173.65 727.109 1172.8 727.828 1172.09C728.547 1171.37 729.383 1170.8 730.336 1170.4C731.305 1169.98 732.336 1169.77 733.43 1169.77C734.523 1169.77 735.555 1169.98 736.523 1170.4C737.492 1170.8 738.336 1171.37 739.055 1172.09C739.789 1172.8 740.359 1173.65 740.766 1174.62C741.188 1175.57 741.398 1176.59 741.398 1177.69ZM758.484 1191.45C758.484 1191.02 758.406 1190.63 758.25 1190.27C758.094 1189.9 757.875 1189.57 757.594 1189.29C757.328 1189.01 757.008 1188.79 756.633 1188.63C756.273 1188.46 755.883 1188.38 755.461 1188.38C755.039 1188.38 754.641 1188.46 754.266 1188.63C753.891 1188.79 753.562 1189.01 753.281 1189.29C753.016 1189.57 752.797 1189.9 752.625 1190.27C752.469 1190.63 752.391 1191.02 752.391 1191.45C752.391 1191.87 752.469 1192.27 752.625 1192.64C752.797 1193 753.016 1193.32 753.281 1193.6C753.562 1193.87 753.891 1194.08 754.266 1194.23C754.641 1194.39 755.039 1194.47 755.461 1194.47C755.883 1194.47 756.273 1194.39 756.633 1194.23C757.008 1194.08 757.328 1193.87 757.594 1193.6C757.875 1193.32 758.094 1193 758.25 1192.64C758.406 1192.27 758.484 1191.87 758.484 1191.45ZM736.5 1177.69C736.5 1177.27 736.422 1176.88 736.266 1176.52C736.109 1176.14 735.891 1175.82 735.609 1175.55C735.344 1175.27 735.023 1175.05 734.648 1174.9C734.273 1174.74 733.867 1174.66 733.43 1174.66C733.008 1174.66 732.609 1174.74 732.234 1174.9C731.875 1175.05 731.555 1175.27 731.273 1175.55C731.008 1175.82 730.797 1176.14 730.641 1176.52C730.484 1176.88 730.406 1177.27 730.406 1177.69C730.406 1178.11 730.484 1178.51 730.641 1178.88C730.797 1179.26 731.008 1179.59 731.273 1179.87C731.555 1180.15 731.875 1180.37 732.234 1180.52C732.609 1180.68 733.008 1180.76 733.43 1180.76C733.867 1180.76 734.273 1180.68 734.648 1180.52C735.023 1180.37 735.344 1180.15 735.609 1179.87C735.891 1179.59 736.109 1179.26 736.266 1178.88C736.422 1178.51 736.5 1178.11 736.5 1177.69Z" fill="white"/>
<ellipse cx="1633" cy="410.585" rx="202" ry="214.5" fill="#9DDEF3"/>
<path d="M1532.34 395.694L1572.57 221.203C1573.41 217.572 1576.62 215 1580.35 215H1676C1752 215 1759 235.5 1809 341C1847.15 421.496 1804.65 499.9 1775.18 533.441C1772.77 536.191 1768.77 536.733 1765.59 534.924L1536.18 404.446C1533.11 402.698 1531.54 399.14 1532.34 395.694Z" fill="#D6F5FF"/>
<ellipse cx="689.5" cy="708" rx="167.5" ry="178" fill="#FFC0D7"/>
<path d="M648.198 732.499L680.793 555.551C681.492 551.755 684.803 548.985 688.65 549.29C712.601 551.189 762.503 562.933 815 599.5C870.572 638.209 841.838 743.66 818.078 797.719C816.384 801.574 811.953 803.312 808.03 801.782L653.159 741.401C649.584 740.008 647.503 736.272 648.198 732.499Z" fill="#FFD6E5"/>
<path d="M847 708C847 801.365 775.921 876 689.5 876C603.079 876 532 801.365 532 708C532 614.635 603.079 540 689.5 540C775.921 540 847 614.635 847 708Z" stroke="#D31F62" stroke-width="20"/>
<ellipse cx="2623.5" cy="708" rx="167.5" ry="178" fill="#E0C7FF"/>
<path d="M2537.33 697.213L2569.78 556.206C2570.61 552.574 2573.84 550 2577.56 550H2654.72C2716.94 550 2722.67 566.819 2763.61 653.375C2794.52 718.735 2760.76 782.413 2736.67 810.396C2734.28 813.174 2730.27 813.728 2727.08 811.913L2541.17 705.957C2538.1 704.208 2536.54 700.654 2537.33 697.213Z" fill="#F1DFFF"/>
<path d="M2781 708C2781 801.365 2709.92 876 2623.5 876C2537.08 876 2466 801.365 2466 708C2466 614.635 2537.08 540 2623.5 540C2709.92 540 2781 614.635 2781 708Z" stroke="#583D94" stroke-width="20"/>
<ellipse cx="1683.59" cy="1797.95" rx="396.762" ry="381.593" transform="rotate(-8.48186 1683.59 1797.95)" fill="#95CE54"/>
<ellipse cx="131.901" cy="107.633" rx="131.901" ry="107.633" transform="matrix(0.890309 -0.455356 0.444522 0.895768 1210.4 1463.14)" fill="#95CE54"/>
<ellipse cx="132.423" cy="107.219" rx="132.423" ry="107.219" transform="matrix(0.90917 0.416426 -0.39954 0.916716 1828.74 1265.31)" fill="#95CE54"/>
<ellipse cx="62.3813" cy="52.1157" rx="62.3813" ry="52.1157" transform="matrix(0.953256 0.302164 -0.28527 0.958447 1862.66 1348.89)" fill="#171717"/>
<ellipse cx="1693.62" cy="1865.2" rx="356.987" ry="293.299" transform="rotate(-8.48186 1693.62 1865.2)" fill="#DFEAC7"/>
<ellipse cx="62.2731" cy="52.2041" rx="62.2731" ry="52.2041" transform="matrix(0.838605 -0.54474 0.531937 0.846784 1287.37 1480.4)" fill="#171717"/>
<path d="M1613.33 1508.81L1627.61 1516.94L1644.1 1519.61L1668.69 1515.94L1684.66 1508.43L1693.98 1496.78" stroke="#171717" stroke-width="8"/>
<ellipse cx="184.812" cy="158.942" rx="184.812" ry="158.942" transform="matrix(-0.993913 -0.11017 -0.100327 0.994955 2104.9 1272.43)" fill="#959595" style="mix-blend-mode:screen"/>
<path d="M1744.49 1383.44C1733.53 1452.66 1793.94 1523.98 1884.57 1539.43C1975.2 1554.87 2054.41 1507.35 2065.37 1438.13C2076.32 1368.91 2015.91 1297.59 1925.28 1282.14C1834.65 1266.69 1755.44 1314.21 1744.49 1383.44Z" stroke="#A0A0A0" stroke-width="20"/>
<path d="M1973.36 1509.5C2122.34 1429.82 1993.22 1312.98 1933.68 1304.04C1851.4 1291.68 1754.22 1331 1769.82 1418.77" stroke="#B8B8B8" stroke-width="23" stroke-linecap="round"/>
<path d="M2088.39 1424.62C2089.65 1332.56 2011.15 1260.34 1907.29 1258.24C1803.43 1256.13 1726.98 1320.97 1725.73 1413.04" stroke="#4D4D4D" stroke-width="27" stroke-linecap="round"/>
<path d="M2084.67 1433.39C2083.65 1508.04 2007.97 1562.05 1904.1 1559.95C1800.24 1557.84 1744.31 1477.21 1725.64 1419.2" stroke="#CF9740" stroke-width="27" stroke-linecap="round"/>
<ellipse cx="184.812" cy="158.942" rx="184.812" ry="158.942" transform="matrix(0.918523 -0.395367 0.386256 0.922392 1143.03 1415.87)" fill="#A0A0A0" style="mix-blend-mode:screen"/>
<path d="M1520.15 1416.89C1550.82 1479.91 1513.85 1565.75 1431.67 1606.96C1349.5 1648.18 1259.86 1625.84 1229.19 1562.83C1198.51 1499.81 1235.49 1413.97 1317.66 1372.75C1399.84 1331.54 1489.48 1353.88 1520.15 1416.89Z" stroke="#A0A0A0" stroke-width="20"/>
<path d="M1338.01 1604.25C1172.27 1571.5 1261.68 1422.08 1316.03 1396.15C1391.11 1360.32 1485.65 1373.28 1505.86 1448.89" stroke="#B8B8B8" stroke-width="23" stroke-linecap="round"/>
<path d="M1203.23 1556.63C1175.16 1468.93 1229.17 1376.96 1327.9 1344.64C1426.63 1312.32 1518.67 1352.04 1546.73 1439.73" stroke="#4D4D4D" stroke-width="27" stroke-linecap="round"/>
<path d="M1209.34 1563.92C1232.09 1635.03 1320.25 1664.61 1418.98 1632.29C1517.71 1599.98 1547.68 1506.54 1548.61 1445.61" stroke="#CF9740" stroke-width="27" stroke-linecap="round"/>
<rect width="215.482" height="110.373" rx="55.1865" transform="matrix(-0.887222 -0.461343 -0.509975 0.860189 1359.5 1772.18)" fill="#95CE54"/>
<path d="M1352.48 1768.85L1316.7 1750.25L1260.41 1845.19L1296.19 1863.8L1352.48 1768.85Z" fill="#95CE54"/>
<path d="M1295.02 1893.26L1379.85 1955.66L1453.65 1994.97L1503.94 2007.55L1565.65 2020.12L1649.09 2025.83L1739.36 2020.12L1820.5 2007.55L1903.58 1986.97L1980.49 1955.66L2059.35 1922.98L2026.21 1994.97L1903.58 2057.83L1828.5 2073.83L1745.07 2088.69L1693.65 2094.4H1649.09H1604.5L1559.93 2088.69L1503.94 2079.54L1461.65 2064.69L1396.45 2037.26L1328.22 1974.86L1295.02 1893.26Z" fill="#333333"/>
<path d="M1709.38 1431.07L1711.68 1448.08L1703.73 1446.43L1700.28 1445.71L1696.8 1446.18L1671.88 1449.54L1644.79 1453.19L1616.62 1456.99L1615.26 1457.17L1613.95 1457.53L1574.58 1468.3L1571.49 1469.14L1570.62 1469.71L1568.21 1451.85L1579.23 1446.16L1615.21 1436.33L1642.03 1432.71L1672.97 1428.54L1703.63 1429.13L1709.38 1431.07Z" stroke="#754C24" stroke-width="41"/>
<rect x="1878.9" y="1957.04" width="107.425" height="143.995" transform="rotate(-16.6789 1878.9 1957.04)" fill="#754C24"/>
<path d="M1956.41 2026.35L1981.35 1925.31L1878.73 1957.09L1956.41 2026.35Z" fill="#4D4D4D"/>
<ellipse cx="1956.24" cy="2025.81" rx="7.99974" ry="8.57115" transform="rotate(-17.206 1956.24 2025.81)" fill="#CF9740"/>
<rect width="85.7997" height="113.508" transform="matrix(0.956677 0.29115 -0.291381 0.956607 1394.87 1944.19)" fill="#754C24"/>
<path d="M1416.03 2023.67L1477.03 1968.39L1394.73 1944.15L1416.03 2023.67Z" fill="#4D4D4D"/>
<ellipse cx="1416.16" cy="2023.24" rx="6.38935" ry="6.75641" transform="rotate(16.4065 1416.16 2023.24)" fill="#CF9740"/>
<rect width="215.483" height="110.373" rx="55.1865" transform="matrix(0.978726 0.205173 -0.150419 0.988622 2066.85 1756.03)" fill="#95CE54"/>
<path d="M2074.39 1757.91L2113.86 1766.19L2097.26 1875.3L2057.79 1867.03L2074.39 1757.91Z" fill="#95CE54"/>
<rect width="152.044" height="110.373" rx="55.1865" transform="matrix(0.978726 0.205173 -0.150419 0.988622 2128.69 1768.84)" fill="#4D4D4D"/>
<rect x="2122.04" y="1768.05" width="72.7085" height="112.149" transform="rotate(12.2429 2122.04 1768.05)" fill="#4D4D4D"/>
<path d="M2173.21 1776.87L2164.31 1815.47L2127.23 1807.14L2120.11 1842.72L2156.23 1850.48L2147.77 1887.19" stroke="#DB9E3E" stroke-width="5"/>
<path d="M2209.65 1897.33L2220.59 1863.45L2238.77 1867.51L2247.41 1837.59L2230.51 1832.71L2238.81 1795.22" stroke="#DB9E3E" stroke-width="5"/>
<path d="M1638.72 287.625C1640.16 282.909 1646.84 282.909 1648.28 287.625L1673.29 369.347C1673.93 371.448 1675.87 372.884 1678.07 372.884H1759.6C1764.37 372.884 1766.43 378.928 1762.66 381.842L1696.19 433.12C1694.54 434.391 1693.85 436.551 1694.46 438.541L1719.73 521.107C1721.15 525.767 1715.75 529.505 1711.89 526.529L1646.55 476.123C1644.75 474.735 1642.25 474.735 1640.45 476.123L1575.11 526.529C1571.25 529.505 1565.85 525.767 1567.27 521.107L1592.54 438.541C1593.15 436.551 1592.46 434.391 1590.81 433.12L1524.34 381.842C1520.57 378.928 1522.63 372.884 1527.4 372.884H1608.93C1611.13 372.884 1613.07 371.448 1613.71 369.347L1638.72 287.625Z" fill="#2297BB"/>
<path d="M680.219 608.618C681.662 603.903 688.338 603.903 689.781 608.618L709.512 673.073C710.155 675.174 712.095 676.609 714.293 676.609H778.749C783.52 676.609 785.58 682.655 781.802 685.568L729.154 726.169C727.505 727.44 726.817 729.601 727.426 731.592L747.413 796.884C748.84 801.543 743.438 805.283 739.579 802.307L688.053 762.572C686.254 761.185 683.746 761.185 681.947 762.572L630.421 802.307C626.562 805.283 621.16 801.543 622.587 796.884L642.574 731.592C643.183 729.601 642.495 727.44 640.846 726.169L588.198 685.568C584.42 682.655 586.48 676.609 591.251 676.609H655.707C657.905 676.609 659.845 675.174 660.488 673.073L680.219 608.618Z" fill="#D31F62"/>
<path d="M2614.22 608.618C2615.66 603.903 2622.34 603.903 2623.78 608.618L2643.51 673.073C2644.16 675.174 2646.1 676.609 2648.29 676.609H2712.75C2717.52 676.609 2719.58 682.655 2715.8 685.568L2663.15 726.169C2661.5 727.44 2660.82 729.601 2661.43 731.592L2681.41 796.884C2682.84 801.543 2677.44 805.283 2673.58 802.307L2622.05 762.572C2620.25 761.185 2617.75 761.185 2615.95 762.572L2564.42 802.307C2560.56 805.283 2555.16 801.543 2556.59 796.884L2576.57 731.592C2577.18 729.601 2576.5 727.44 2574.85 726.169L2522.2 685.568C2518.42 682.655 2520.48 676.609 2525.25 676.609H2589.71C2591.9 676.609 2593.84 675.174 2594.49 673.073L2614.22 608.618Z" fill="#583D94"/>
<path d="M1631.25 371.597C1643.23 375.451 1649.07 350.723 1650.5 337.877C1656.92 313.106 1640.87 305.362 1637.67 312.587C1632.21 324.869 1616.28 366.78 1631.25 371.597Z" fill="#5CBEDD"/>
<path d="M675.091 675.668C684.852 678.838 689.615 658.498 690.777 647.931C696.006 627.555 682.934 621.185 680.32 627.128C675.877 637.231 662.891 671.706 675.091 675.668Z" fill="#FF97BD"/>
<path d="M2609.09 675.668C2618.85 678.838 2623.62 658.498 2624.78 647.931C2630.01 627.555 2616.93 621.185 2614.32 627.128C2609.88 637.231 2596.89 671.706 2609.09 675.668Z" fill="#8E62EA"/>
<path d="M1556.2 386.353C1552.78 394.123 1576.37 397.045 1588.6 397.535C1612.24 400.82 1619.28 390.33 1612.36 388.519C1600.59 385.44 1560.48 376.642 1556.2 386.353Z" fill="#5CBEDD"/>
<path d="M613.02 687.906C610.18 694.35 629.749 696.774 639.888 697.18C659.501 699.905 665.339 691.204 659.596 689.702C649.836 687.148 616.57 679.85 613.02 687.906Z" fill="#FF97BD"/>
<path d="M2547.02 687.906C2544.18 694.35 2563.75 696.774 2573.89 697.18C2593.5 699.905 2599.34 691.204 2593.6 689.702C2583.84 687.148 2550.57 679.85 2547.02 687.906Z" fill="#8E62EA"/>
<path d="M1725.79 2652.5L2591.69 2148.35L2591.69 2209.95L1783.1 2740.25L1725.79 2652.5Z" fill="#171717"/>
<path d="M1822.5 410.585C1822.5 522.864 1736.96 612.585 1633 612.585C1529.04 612.585 1443.5 522.864 1443.5 410.585C1443.5 298.306 1529.04 208.585 1633 208.585C1736.96 208.585 1822.5 298.306 1822.5 410.585Z" stroke="#2297BB" stroke-width="25"/>
</g>
<defs>
<radialGradient id="paint0_radial_187_1536" cx="0" cy="0" r="1" gradientUnits="userSpaceOnUse" gradientTransform="translate(681.893 504.77) rotate(-91.3972) scale(324.087 250.975)">
<stop stop-color="#D31F62"/>
<stop offset="1" stop-color="#D31F62" stop-opacity="0"/>
</radialGradient>
<radialGradient id="paint1_radial_187_1536" cx="0" cy="0" r="1" gradientUnits="userSpaceOnUse" gradientTransform="translate(1616.97 229.332) rotate(-95.339) scale(303.575 245.162)">
<stop stop-color="#2BB1DA"/>
<stop offset="0.9999" stop-color="#2BB1DA" stop-opacity="0"/>
<stop offset="1" stop-color="white" stop-opacity="0"/>
</radialGradient>
<radialGradient id="paint2_radial_187_1536" cx="0" cy="0" r="1" gradientUnits="userSpaceOnUse" gradientTransform="translate(2662.32 534.551) rotate(-72.6323) scale(361.68 280.088)">
<stop stop-color="#6B49B5"/>
<stop offset="1" stop-color="#6B49B5" stop-opacity="0"/>
</radialGradient>
<clipPath id="clip0_187_1536">
<rect width="3266" height="2155" fill="white"/>
</clipPath>
</defs>
</svg>
