<svg version="1.1" id="Layer_1" xmlns="http://www.w3.org/2000/svg" xmlns:xlink="http://www.w3.org/1999/xlink" x="0px" y="0px"
	 width="100%" viewBox="0 0 3266 2155" enable-background="new 0 0 3266 2155" xml:space="preserve">
<rect width="3266" height="2155" fill="#29203D"/>
<path d="M2502.09 788.248C2526.82 784.789 2536.49 775.261 2546.48 744.396C2548.15 776.061 2553.26 790.13 2580.02 799.678C2549.9 805.006 2541.7 819.891 2534.24 856.24C2535.45 820.917 2531.02 804.373 2502.09 788.248Z" fill="#EEE0B0"/>
<path d="M2452.58 288.559C2469.89 284.515 2476.02 278.267 2480.72 259.814C2484.37 277.747 2489.1 285.349 2508.86 288.559C2487.87 294.121 2483.2 303.303 2480.72 324.675C2478.83 304.412 2474.39 295.341 2452.58 288.559Z" fill="#EEE0B0"/>
<path d="M2365.1 749.004L2075.23 845.47C2068.99 844.702 2065.31 844.746 2062.46 835.181V806.884V584.368V566.361C2064.33 558.052 2067.55 555.342 2075.23 552.213L2222.56 516.842L2358.19 482.114C2367.06 481.589 2370.88 484.695 2376.27 494.333V516.842V709.131V736.142C2375.54 742.51 2373.8 745.594 2365.1 749.004Z" fill="#1A1A1A"/>
<path d="M2351.15 520.579L2086.23 588.213L2088.5 803.939L2353.27 721.923L2351.15 520.579Z" fill="#404F58"/>
<ellipse cx="2219.37" cy="537.381" rx="4.29227" ry="6.67687" fill="#0B0B0B"/>
<path d="M2378.59 728.148L2072.89 837.498C2063.22 840.853 2063.03 841.835 2062.49 844.56L2062.49 844.601C2061.95 847.358 2070.01 850.783 2072.89 851.73L2251.2 918.228C2258.1 920.861 2266.15 921.777 2266.15 921.777C2266.15 921.777 2274.68 921.914 2282.75 916.573L2593.19 779.627C2595.21 778.992 2597.06 777.761 2596.51 777.072C2595.96 776.383 2595.32 775.959 2593.19 775.694L2378.59 728.148Z" fill="#1A1A1A"/>
<path d="M2369.43 1255.44C2349.27 1256.45 2339.43 1263.81 2324.2 1271.13C2314.48 1275.8 2300.08 1288.56 2300.08 1288.56C2282.62 1302.06 2316.36 1364.19 2332.24 1355.99C2332.24 1355.99 2372.61 1335.09 2395.56 1315.88C2411.44 1302.59 2410.36 1282.45 2400.58 1266.93C2390.99 1251.71 2385.7 1254.61 2369.43 1255.44Z" fill="#444444"/>
<path d="M2382.64 1272.71C2381.05 1273.65 2376.4 1275.84 2376.28 1280.19C2376.15 1284.54 2381.66 1283.43 2385.82 1282.06C2390.83 1280.35 2393.35 1278.88 2396.96 1274.58C2397.72 1271.55 2397.08 1270.37 2394.57 1268.97C2389.83 1269.39 2384.23 1271.78 2382.64 1272.71Z" fill="#292929"/>
<path d="M2443.97 1119.77C2444.52 1157.12 2437.23 1240.38 2403.66 1274.7C2403.66 1274.7 2399.67 1271.91 2399.25 1268.94C2398.54 1264 2404.94 1264.68 2408.08 1261.25C2413.83 1254.98 2415.76 1250 2419.67 1242.05C2425.86 1229.46 2427.89 1221.43 2431.27 1207.48C2435.63 1189.47 2435.7 1178.71 2437.34 1160.11C2438.73 1144.4 2441.36 1135.42 2439.55 1119.77C2438.67 1112.14 2438.29 1107.65 2435.69 1100.57C2433.18 1093.74 2431.12 1090.09 2426.85 1084.56C2419.54 1075.11 2412.97 1072.8 2403.11 1067.28C2388.73 1059.23 2379.63 1057.08 2363.91 1053.84C2353.66 1051.72 2347.58 1053.17 2337.41 1050.63C2320.77 1046.48 2311.89 1041.2 2297.1 1031.43C2275.44 1017.12 2263.15 1006.81 2248.51 983.415C2237.41 965.675 2230.91 954.405 2227.53 932.841C2225.26 918.328 2227.53 895.07 2227.53 895.07L2231.4 896.991C2228.48 934.878 2243.83 1011.33 2337.41 1044.87C2372.93 1046.79 2443.97 1064.46 2443.97 1119.77Z" fill="#1A1A1A"/>
<path d="M677.488 1023.56L744.828 862.639L894.963 876.8L821.552 1046.73L677.488 1023.56Z" fill="#274E26"/>
<path d="M735.672 927.432L753.625 879.809L809.117 888.818L792.252 933.224L735.672 927.432Z" fill="#1A1A1A"/>
<path d="M791.023 967.746L817.137 897.931H868.256L809.359 1030.51L696.565 1012.58L719.346 958.779L791.023 967.746Z" fill="#C9B367"/>
<path d="M758.564 1011.9L767.456 976.146H822.472L806.356 1021.93L758.564 1011.9Z" fill="#1A1A1A"/>
<path d="M804.349 961.839L818.422 919.372L838.687 916.054L824.051 961.839H804.349Z" fill="#1A1A1A"/>
<path d="M1412.2 548.974L1273.82 626.885L1162.86 508.378L1310.81 427.749L1412.2 548.974Z" fill="#274E26"/>
<path d="M1324.28 572.339L1284.67 596.629L1245.03 549.289L1282.06 526.73L1324.28 572.339Z" fill="#1A1A1A"/>
<path d="M1294.08 511.022L1236.44 547.437L1196.38 511.106L1313.13 448.564L1391.99 542.849L1345.49 569.024L1294.08 511.022Z" fill="#C9B367"/>
<path d="M1346.97 501.202L1320.57 523.632L1277.45 484.538L1314.97 459.172L1346.97 501.202Z" fill="#1A1A1A"/>
<path d="M1281.76 502.331L1249.05 524.738L1231.67 513.043L1266.52 488.51L1281.76 502.331Z" fill="#1A1A1A"/>
<path d="M1036.96 476.335L930.255 315.557L1284.63 170.153L1412.9 301.465L1036.96 476.335Z" fill="#8B8B8B"/>
<path d="M1015.04 375.228L975.085 324.993L1063.31 283.66L1090.5 324.993L1015.04 375.228Z" fill="#187A98"/>
<path d="M1358.53 281.634L1279.88 205.445L1255.51 218.89L1338.04 298.921L1358.53 281.634Z" fill="#187A98"/>
<path d="M1318.47 312.616L1239.09 227.383H1208.78L1288.15 325.629L1318.47 312.616Z" fill="#187A98"/>
<path d="M1153.14 365.69L1100.99 284.729L1193.07 238.829L1257.42 319.153L1153.14 365.69Z" fill="#D9D9D9"/>
<path d="M419.369 1322.56L572.614 1298.81L597.987 1411.18L427.477 1440.17L419.369 1322.56Z" fill="#274E26"/>
<path d="M452.325 1342.43L559.824 1324.32L570.253 1401.03L456.107 1421.33L452.325 1342.43Z" fill="#8B8B8B"/>
<path d="M597.192 1490.23L622.598 1451.44L629.618 1440.73L663.551 1470.53L631.124 1520.04L597.192 1490.23Z" fill="#8B8B8B"/>
<path d="M633.113 1450.23L639.465 1440.53L661.94 1460.27L655.588 1469.97L633.113 1450.23Z" fill="#C9B367"/>
<path d="M606.948 1485.93L626.336 1456.33L651.896 1478.79L632.507 1508.39L606.948 1485.93Z" fill="#274E26"/>
<path d="M709.606 1219.01L694.226 1173.7L689.977 1161.18L729.615 1143.14L749.244 1200.96L709.606 1219.01Z" fill="#8B8B8B"/>
<path d="M698.803 1162.67L694.958 1151.34L721.212 1139.39L725.057 1150.72L698.803 1162.67Z" fill="#C9B367"/>
<path d="M711.516 1207.13L699.779 1172.55L729.637 1158.96L741.374 1193.53L711.516 1207.13Z" fill="#274E26"/>
<path d="M2218.5 339.948C2243.97 400.068 2245.6 519.305 2245.6 519.305L2233.43 522.507C2233.43 522.507 2236.43 409.23 2211.87 354.681C2181.48 287.206 2155.37 242.683 2093.53 216.961C2011.75 182.94 1947.48 185.595 1872.35 236.178C1826.93 266.755 1812.42 345.274 1763.97 368.774C1713.17 393.407 1677.41 378.315 1622.96 368.774C1571.69 359.789 1546.13 310.216 1495.78 324.575C1467.3 332.698 1449.35 342.189 1431.09 368.774C1415.68 391.2 1416.91 410.39 1408.41 437.313C1391.4 491.256 1392.07 526.369 1368.6 576.955C1339.81 638.997 1316.16 671.938 1267.41 714.034C1170.84 797.423 1080.85 816.257 964.387 780.652C951.246 776.635 931.209 768.482 931.209 768.482V749.905C931.209 749.905 951.13 763.138 964.387 768.482C1074.83 812.998 1171.22 785.457 1264.09 703.145C1304.31 667.495 1328.45 632.034 1353.12 580.798C1375.47 534.371 1377.16 496.654 1391.83 446.281C1402.41 409.924 1403.22 390.423 1423.9 360.446C1448.08 325.382 1455.33 320.875 1493.57 313.686C1549.05 303.256 1576.51 353.828 1632.36 361.087C1683.87 367.78 1716.87 380.372 1763.97 355.322C1811.71 329.932 1815.09 262.914 1860.18 231.694C1935.08 179.84 1998.1 165.001 2081.37 195.182C2154.7 221.762 2184.65 260.043 2218.5 339.948Z" fill="#1A1A1A"/>
<path d="M980.487 810.178L1007.52 754.887L857.817 700.487L822.471 754.887L980.487 810.178Z" fill="#1A1A1A"/>
<path d="M805.581 668.603C846.593 688.289 901.64 739.082 901.64 739.082V757.022C901.64 757.022 847.456 702.091 805.581 682.699C767.252 664.949 741.179 645.33 701.794 659.633C657.271 675.803 647.582 718.295 624.506 765.351C600.966 813.351 585.309 899.26 585.309 899.26L566.539 976.146H558.258L575.924 899.26C575.924 899.26 592.258 810.674 617.329 759.585C642.986 707.301 651.881 666.289 701.794 650.023C744.345 636.155 764.74 648.999 805.581 668.603Z" fill="#1A1A1A"/>
<path d="M544.496 958.023L532.504 1005.72L580.469 1020.02L584.965 967.562L544.496 958.023Z" fill="#1A1A1A"/>
<path d="M540.135 1032.35L544.223 1005.72L549.674 1008.14L544.223 1037.19L540.135 1032.35Z" fill="#C9B367"/>
<path d="M558.258 1034.55L563.164 1009.53L569.704 1011.81L563.164 1039.1L558.258 1034.55Z" fill="#C9B367"/>
<path d="M1810.68 339.429C1831.58 335.456 1838.74 335.728 1859.25 346.417L1863.11 362.298L1847.11 444.882C1837.67 461.363 1829.47 463.277 1810.68 456.316C1790.84 453.919 1787.56 438.503 1785.85 403.59C1786.93 377.588 1789.31 363.204 1810.68 339.429Z" fill="#404F58"/>
<path d="M2002.79 412.688C1989.23 396.997 1983.77 392.977 1963.26 389.715L1952.53 400.633L1923.55 478.799C1922.4 498.095 1927.55 504.551 1944.95 509.897C1960.88 519.664 1970.94 508.788 1989.49 480.766C2001.55 458.5 2006.9 445.126 2002.79 412.688Z" fill="#404F58"/>
<path d="M1899.23 229.348C1830.75 273.763 1842.29 256.172 1830.68 351.975L1855.56 364.11V316.201L1879.88 275.964L1918.03 261.275H1958.38L2005.93 297.687L2010.35 334.092L1997.64 374.322L1965.57 418.391L1982.16 436.274C2003.16 416.9 2043.3 363.847 2035.78 306.621C2026.38 235.089 1930.74 208.91 1899.23 229.348Z" fill="#404F58"/>
<path d="M1839.7 387.993C1839.7 387.993 1845.63 359.096 1857.81 358.158C1867.44 357.416 1870.44 360.697 1873.73 373.393C1877.03 386.089 1869.34 412.116 1869.34 412.116C1869.34 412.116 1870.45 444.287 1857.81 448.934C1850.59 451.591 1838.6 445.76 1838.6 445.76C1830.91 424.177 1839.7 387.993 1839.7 387.993Z" fill="#8B8B8B"/>
<path d="M1963.36 432.485C1963.36 432.485 1969.77 403.302 1958.49 395.058C1949.57 388.542 1945.32 389.619 1936.84 398.848C1928.37 408.077 1924.83 435.785 1924.83 435.785C1924.83 435.785 1910.3 463.579 1920.47 475.382C1926.28 482.129 1940.22 484.269 1940.22 484.269C1956.63 469.849 1963.36 432.485 1963.36 432.485Z" fill="#8B8B8B"/>
<path d="M569.959 475.013C569.231 477.419 568.419 479.806 567.523 482.173C566.624 484.524 565.656 486.771 564.618 488.913C563.596 491.054 562.524 493.053 561.404 494.913C560.281 496.756 559.14 498.38 557.981 499.785C556.836 501.17 555.685 502.302 554.529 503.179C553.387 504.037 552.269 504.554 551.176 504.729C550.726 504.801 550.299 504.787 549.894 504.687C549.489 504.587 549.125 504.423 548.803 504.195C548.479 503.95 548.214 503.647 548.007 503.285C547.8 502.923 547.669 502.515 547.615 502.063L546.211 490.305L535.442 506.285C535.159 506.66 534.835 506.959 534.468 507.183C534.116 507.387 533.739 507.522 533.337 507.586C532.903 507.656 532.484 507.64 532.079 507.541C531.69 507.438 531.334 507.273 531.012 507.044C530.688 506.8 530.415 506.498 530.192 506.138C529.985 505.776 529.854 505.369 529.8 504.916L527.049 481.887L533.317 480.883L535.101 495.816L545.912 479.779C546.308 479.255 546.804 478.887 547.401 478.676C548.013 478.446 548.631 478.413 549.257 478.576C549.88 478.724 550.393 479.037 550.794 479.516C551.209 479.977 551.454 480.522 551.53 481.152L553.319 496.134C554.513 494.608 555.569 493.031 556.488 491.401C557.407 489.772 558.241 488.115 558.99 486.43C559.753 484.727 560.45 483.018 561.08 481.303C561.725 479.569 562.346 477.847 562.944 476.137L569.959 475.013ZM604.235 496.23L597.968 497.234L595.892 479.852C595.793 479.028 595.51 478.439 595.042 478.086C594.572 477.717 593.919 477.599 593.083 477.733L581.777 479.544L581.024 473.241L592.331 471.43C592.925 471.335 593.561 471.307 594.237 471.347C594.911 471.371 595.587 471.476 596.265 471.664C596.959 471.85 597.631 472.129 598.281 472.503C598.93 472.86 599.519 473.334 600.048 473.924C600.575 474.499 601.027 475.192 601.402 476.005C601.778 476.818 602.03 477.765 602.159 478.848L604.235 496.23ZM581.623 499.852L575.355 500.856L570.902 463.572L577.17 462.568L581.623 499.852ZM612.564 462.704L606.296 463.708L605.616 458.011L611.884 457.007L612.564 462.704ZM616.337 494.291L610.069 495.295L606.939 469.09L613.207 468.086L616.337 494.291ZM633.814 491.492L631.018 491.94C630.118 492.084 629.135 492.085 628.07 491.942C627.021 491.797 626.013 491.448 625.046 490.895C624.077 490.326 623.237 489.53 622.525 488.507C621.811 487.468 621.357 486.133 621.162 484.501L617.766 456.065L624.034 455.061L627.43 483.497C627.523 484.273 627.838 484.856 628.376 485.248C628.912 485.623 629.542 485.753 630.265 485.637L633.062 485.189L633.814 491.492ZM663.783 468.829C663.887 469.702 663.847 470.672 663.664 471.739C663.478 472.79 663.092 473.807 662.505 474.79C661.932 475.755 661.126 476.617 660.087 477.376C659.063 478.133 657.764 478.638 656.189 478.89L644.883 480.701L644.168 474.713L655.474 472.902C656.326 472.766 656.954 472.402 657.358 471.81C657.761 471.202 657.915 470.51 657.823 469.734C657.724 468.91 657.382 468.306 656.796 467.923C656.225 467.536 655.571 467.402 654.831 467.521L643.525 469.332C642.673 469.468 642.046 469.84 641.644 470.448C641.24 471.04 641.084 471.724 641.177 472.5L642.228 481.299C642.328 482.14 642.663 482.753 643.234 483.139C643.82 483.523 644.499 483.653 645.27 483.53L656.528 481.726L657.246 487.738L645.94 489.549C645.072 489.688 644.114 489.685 643.065 489.541C642.031 489.393 641.04 489.049 640.092 488.51C639.157 487.951 638.334 487.169 637.625 486.163C636.913 485.14 636.462 483.837 636.273 482.253L635.216 473.405C635.112 472.532 635.153 471.57 635.339 470.52C635.522 469.452 635.901 468.437 636.473 467.472C637.06 466.489 637.865 465.618 638.889 464.862C639.928 464.102 641.235 463.596 642.81 463.344L654.116 461.533C654.984 461.394 655.934 461.398 656.968 461.546C658.017 461.691 659.009 462.042 659.943 462.601C660.892 463.14 661.723 463.922 662.434 464.944C663.144 465.95 663.594 467.245 663.783 468.829ZM699.173 440.135L697.222 442.72C697.208 442.739 696.969 443.074 696.506 443.724C696.058 444.356 695.506 445.219 694.85 446.312C694.194 447.405 693.495 448.678 692.751 450.132C692.023 451.582 691.365 453.129 690.775 454.772C690.183 456.398 689.729 458.085 689.414 459.832C689.112 461.56 689.06 463.248 689.257 464.897C689.456 466.562 689.903 468.178 690.598 469.747C691.309 471.313 692.141 472.794 693.094 474.189C694.045 475.569 695.04 476.842 696.081 478.01C697.137 479.175 698.109 480.18 698.996 481.026C699.883 481.872 700.617 482.529 701.197 482.996C701.795 483.477 702.103 483.724 702.121 483.737L704.605 485.612L695.926 487.002C695.267 486.416 694.51 485.706 693.657 484.871C692.822 484.049 691.957 483.117 691.063 482.074C690.169 481.032 689.281 479.906 688.399 478.697C687.516 477.471 686.706 476.176 685.97 474.812C685.232 473.431 684.594 472.001 684.057 470.523C683.534 469.025 683.178 467.485 682.989 465.901C682.8 464.317 682.783 462.731 682.937 461.141C683.105 459.533 683.384 457.957 683.772 456.412C684.159 454.851 684.635 453.35 685.2 451.909C685.763 450.452 686.353 449.081 686.969 447.797C687.585 446.512 688.199 445.343 688.81 444.29C689.436 443.218 689.997 442.296 690.495 441.525L699.173 440.135ZM726.996 456.282L716.052 458.036L718.429 477.938L712.089 478.954L709.712 459.051L701.564 460.356L700.811 454.053L708.959 452.748L707.937 444.191L714.277 443.175L715.299 451.733L726.244 449.98L726.996 456.282ZM759.342 453.522C759.446 454.395 759.407 455.365 759.223 456.432C759.037 457.483 758.651 458.5 758.064 459.484C757.491 460.448 756.685 461.31 755.646 462.07C754.623 462.827 753.323 463.331 751.748 463.583L740.442 465.394L739.727 459.407L751.033 457.596C751.885 457.459 752.513 457.095 752.917 456.503C753.32 455.895 753.475 455.203 753.382 454.428C753.284 453.604 752.941 453 752.355 452.616C751.785 452.23 751.13 452.096 750.391 452.214L739.084 454.025C738.233 454.161 737.606 454.534 737.203 455.142C736.799 455.733 736.643 456.417 736.736 457.193L737.787 465.993C737.887 466.833 738.222 467.446 738.793 467.833C739.379 468.216 740.058 468.347 740.829 468.223L752.087 466.42L752.805 472.432L741.499 474.243C740.631 474.382 739.673 474.379 738.624 474.234C737.591 474.086 736.6 473.743 735.651 473.203C734.716 472.645 733.894 471.862 733.184 470.856C732.472 469.833 732.022 468.53 731.832 466.946L730.776 458.098C730.671 457.226 730.712 456.264 730.898 455.213C731.082 454.146 731.46 453.13 732.032 452.165C732.619 451.182 733.424 450.312 734.448 449.555C735.487 448.795 736.794 448.29 738.369 448.037L749.675 446.226C750.543 446.087 751.494 446.092 752.527 446.239C753.576 446.384 754.568 446.736 755.503 447.294C756.452 447.834 757.282 448.615 757.994 449.637C758.703 450.644 759.153 451.939 759.342 453.522ZM790.894 466.331L773.899 469.053C773.031 469.192 772.064 469.19 770.999 469.048C769.934 468.906 768.918 468.558 767.951 468.004C766.998 467.432 766.158 466.636 765.43 465.617C764.716 464.578 764.262 463.242 764.067 461.61L763.048 453.077C762.976 452.479 762.965 451.839 763.015 451.155C763.08 450.47 763.219 449.78 763.431 449.088C763.641 448.379 763.936 447.689 764.314 447.019C764.709 446.346 765.201 445.732 765.789 445.177C766.394 444.619 767.106 444.134 767.925 443.723C768.744 443.312 769.692 443.02 770.769 442.848L787.764 440.125L788.517 446.428L771.522 449.15C770.702 449.282 770.1 449.592 769.717 450.082C769.349 450.569 769.217 451.249 769.321 452.122L770.335 460.606C770.433 461.43 770.725 462.026 771.211 462.393C771.698 462.76 772.358 462.876 773.194 462.742L790.141 460.028L790.894 466.331ZM825.053 460.859L818.785 461.863L816.709 444.482C816.611 443.657 816.328 443.069 815.86 442.715C815.39 442.346 814.737 442.228 813.901 442.362L802.595 444.173L801.842 437.87L813.148 436.059C813.743 435.964 814.379 435.936 815.055 435.976C815.729 436 816.405 436.106 817.083 436.294C817.776 436.479 818.449 436.758 819.099 437.132C819.748 437.489 820.337 437.963 820.866 438.554C821.393 439.128 821.844 439.821 822.22 440.634C822.595 441.447 822.848 442.395 822.977 443.478L825.053 460.859ZM802.441 464.481L796.173 465.485L791.72 428.201L797.988 427.197L802.441 464.481ZM859.671 455.314L853.403 456.318L851.666 441.773C851.567 440.949 851.335 440.236 850.968 439.636C850.616 439.017 850.171 438.512 849.632 438.121C849.094 437.729 848.481 437.465 847.793 437.328C847.12 437.173 846.405 437.156 845.65 437.277L834.681 439.033L837.058 458.936L830.791 459.94L828.034 436.862C827.982 436.425 828.014 436.009 828.131 435.611C828.245 435.197 828.43 434.83 828.687 434.509C828.941 434.172 829.252 433.891 829.618 433.668C829.985 433.445 830.385 433.298 830.819 433.229L844.945 430.966C845.733 430.84 846.571 430.796 847.46 430.835C848.365 430.871 849.268 431.023 850.168 431.291C851.082 431.539 851.962 431.909 852.806 432.4C853.665 432.871 854.444 433.496 855.143 434.274C855.856 435.032 856.457 435.949 856.945 437.024C857.434 438.098 857.763 439.347 857.933 440.769L859.671 455.314ZM867.758 421.827L861.491 422.831L860.81 417.134L867.078 416.13L867.758 421.827ZM871.531 453.414L865.263 454.418L862.133 428.213L868.401 427.209L871.531 453.414ZM902.798 448.406L885.802 451.128C884.934 451.267 883.968 451.266 882.903 451.123C881.837 450.981 880.821 450.633 879.854 450.08C878.902 449.508 878.061 448.712 877.334 447.692C876.62 446.653 876.166 445.318 875.971 443.685L874.951 435.152C874.88 434.554 874.869 433.914 874.918 433.231C874.984 432.545 875.123 431.856 875.335 431.163C875.545 430.454 875.839 429.764 876.218 429.094C876.613 428.422 877.104 427.808 877.693 427.252C878.298 426.694 879.01 426.209 879.829 425.798C880.648 425.387 881.596 425.095 882.672 424.923L899.668 422.2L900.42 428.503L883.425 431.226C882.606 431.357 882.004 431.667 881.62 432.157C881.252 432.644 881.121 433.324 881.225 434.197L882.238 442.681C882.337 443.506 882.629 444.101 883.115 444.468C883.601 444.835 884.262 444.951 885.098 444.818L902.045 442.103L902.798 448.406ZM933.654 434.619C933.758 435.491 933.719 436.461 933.535 437.528C933.349 438.579 932.963 439.596 932.376 440.58C931.804 441.544 930.997 442.406 929.958 443.166C928.935 443.923 927.636 444.427 926.061 444.68L914.754 446.491C913.887 446.63 912.928 446.627 911.879 446.482C910.846 446.334 909.855 445.991 908.906 445.451C907.971 444.892 907.149 444.11 906.439 443.104C905.727 442.081 905.277 440.778 905.088 439.194C904.983 438.322 905.023 437.352 905.207 436.285C905.391 435.218 905.769 434.202 906.342 433.237C906.928 432.254 907.734 431.384 908.757 430.627C909.796 429.867 911.104 429.361 912.678 429.109L923.985 427.298L924.703 433.31L913.397 435.121C912.545 435.258 911.918 435.63 911.515 436.238C911.111 436.83 910.955 437.513 911.048 438.289C911.146 439.113 911.489 439.717 912.075 440.101C912.675 440.466 913.345 440.589 914.085 440.471L925.342 438.668C926.194 438.531 926.822 438.167 927.227 437.575C927.631 436.983 927.787 436.3 927.694 435.524L926.643 426.724C926.545 425.9 926.209 425.287 925.637 424.884C925.081 424.479 924.417 424.338 923.646 424.462L909.881 426.667L909.166 420.679L922.931 418.474C923.798 418.335 924.749 418.339 925.782 418.487C926.831 418.632 927.823 418.983 928.758 419.542C929.707 420.082 930.537 420.863 931.249 421.885C931.959 422.892 932.408 424.187 932.597 425.77L933.654 434.619ZM976.632 415.974L954.02 419.597L953.34 413.9L975.952 410.278L976.632 415.974ZM977.99 427.344L955.378 430.966L954.698 425.269L977.31 421.647L977.99 427.344ZM1005.85 411.294L983.238 414.916L982.557 409.22L1005.17 405.598L1005.85 411.294ZM1007.21 422.664L984.596 426.286L983.915 420.589L1006.53 416.967L1007.21 422.664ZM1055.83 423.893L1038.83 426.616C1037.96 426.755 1037 426.753 1035.93 426.611C1034.87 426.469 1033.85 426.121 1032.88 425.567C1031.93 424.995 1031.09 424.199 1030.36 423.179C1029.65 422.141 1029.2 420.805 1029 419.173L1027.98 410.64C1027.91 410.042 1027.9 409.401 1027.95 408.718C1028.01 408.032 1028.15 407.343 1028.36 406.65C1028.57 405.941 1028.87 405.252 1029.25 404.582C1029.64 403.909 1030.13 403.295 1030.72 402.74C1031.33 402.182 1032.04 401.697 1032.86 401.286C1033.68 400.875 1034.63 400.583 1035.7 400.41L1052.7 397.688L1053.45 403.991L1036.45 406.713C1035.64 406.845 1035.03 407.155 1034.65 407.645C1034.28 408.132 1034.15 408.812 1034.25 409.685L1035.27 418.169C1035.37 418.993 1035.66 419.589 1036.14 419.956C1036.63 420.323 1037.29 420.439 1038.13 420.305L1055.07 417.591L1055.83 423.893ZM1088.11 409.705C1088.24 410.788 1088.22 411.787 1088.05 412.704C1087.88 413.604 1087.61 414.422 1087.24 415.156C1086.87 415.875 1086.41 416.516 1085.87 417.08C1085.33 417.628 1084.75 418.1 1084.12 418.496C1083.52 418.89 1082.88 419.214 1082.23 419.467C1081.58 419.702 1080.96 419.867 1080.37 419.963L1069.06 421.774C1068.19 421.913 1067.23 421.911 1066.16 421.769C1065.1 421.626 1064.08 421.278 1063.11 420.725C1062.16 420.153 1061.32 419.357 1060.59 418.337C1059.88 417.299 1059.43 415.963 1059.23 414.331L1058.21 405.798C1058.02 404.182 1058.14 402.77 1058.59 401.562C1059.05 400.335 1059.67 399.305 1060.46 398.471C1061.26 397.619 1062.15 396.956 1063.14 396.484C1064.13 396.013 1065.06 395.707 1065.93 395.568L1077.24 393.757C1078.85 393.5 1080.25 393.572 1081.44 393.973C1082.63 394.375 1083.63 394.965 1084.43 395.743C1085.22 396.505 1085.84 397.379 1086.26 398.364C1086.71 399.347 1086.98 400.283 1087.09 401.172L1088.11 409.705ZM1080.83 402.224C1080.72 401.352 1080.43 400.74 1079.95 400.389C1079.46 400.038 1078.81 399.929 1077.99 400.06L1066.73 401.863C1065.9 401.997 1065.29 402.317 1064.91 402.823C1064.52 403.313 1064.38 403.97 1064.48 404.794L1065.5 413.327C1065.6 414.151 1065.89 414.747 1066.37 415.113C1066.86 415.48 1067.52 415.597 1068.36 415.463L1079.62 413.66C1080.47 413.523 1081.08 413.203 1081.44 412.7C1081.81 412.197 1081.94 411.533 1081.84 410.709L1080.83 402.224ZM1121.81 404.307C1121.94 405.389 1121.92 406.389 1121.75 407.305C1121.58 408.206 1121.31 409.023 1120.94 409.758C1120.57 410.477 1120.11 411.118 1119.57 411.682C1119.03 412.229 1118.45 412.702 1117.82 413.098C1117.22 413.492 1116.58 413.816 1115.93 414.069C1115.28 414.304 1114.66 414.469 1114.07 414.564L1102.76 416.375C1101.9 416.514 1100.93 416.513 1099.86 416.37C1098.8 416.228 1097.78 415.88 1096.82 415.327C1095.86 414.755 1095.02 413.959 1094.29 412.939C1093.58 411.9 1093.13 410.565 1092.93 408.933L1091.91 400.399C1091.72 398.783 1091.85 397.371 1092.29 396.164C1092.75 394.937 1093.37 393.907 1094.16 393.073C1094.96 392.22 1095.85 391.558 1096.84 391.086C1097.84 390.614 1098.77 390.309 1099.63 390.17L1110.94 388.359C1112.55 388.101 1113.95 388.174 1115.14 388.575C1116.34 388.977 1117.33 389.567 1118.13 390.345C1118.92 391.107 1119.54 391.981 1119.97 392.966C1120.41 393.949 1120.69 394.885 1120.79 395.773L1121.81 404.307ZM1114.53 396.826C1114.43 395.953 1114.13 395.342 1113.65 394.991C1113.16 394.64 1112.51 394.53 1111.69 394.662L1100.43 396.465C1099.6 396.599 1098.99 396.919 1098.61 397.425C1098.22 397.914 1098.08 398.571 1098.18 399.396L1099.2 407.929C1099.3 408.753 1099.59 409.348 1100.08 409.715C1100.56 410.082 1101.22 410.199 1102.06 410.065L1113.32 408.261C1114.17 408.125 1114.78 407.805 1115.14 407.302C1115.51 406.799 1115.64 406.135 1115.54 405.311L1114.53 396.826ZM1139.67 410.463L1136.87 410.911C1135.97 411.056 1134.99 411.056 1133.93 410.914C1132.88 410.769 1131.87 410.42 1130.9 409.867C1129.93 409.297 1129.09 408.501 1128.38 407.479C1127.67 406.44 1127.21 405.105 1127.02 403.473L1123.62 375.037L1129.89 374.033L1133.29 402.469C1133.38 403.244 1133.69 403.828 1134.23 404.219C1134.77 404.595 1135.4 404.724 1136.12 404.608L1138.92 404.161L1139.67 410.463ZM1157.43 389.904C1157.62 391.488 1157.63 393.084 1157.47 394.692C1157.31 396.281 1157.04 397.856 1156.65 399.417C1156.27 400.962 1155.79 402.463 1155.23 403.92C1154.66 405.361 1154.06 406.725 1153.43 408.012C1152.81 409.297 1152.2 410.466 1151.59 411.519C1150.98 412.588 1150.43 413.509 1149.93 414.28L1141.25 415.67L1143.2 413.085C1143.22 413.066 1143.45 412.733 1143.89 412.085C1144.34 411.453 1144.89 410.59 1145.55 409.497C1146.21 408.404 1146.9 407.132 1147.62 405.681C1148.37 404.228 1149.03 402.689 1149.6 401.065C1150.19 399.423 1150.64 397.737 1150.94 396.009C1151.26 394.262 1151.32 392.564 1151.12 390.916C1150.92 389.267 1150.47 387.66 1149.76 386.094C1149.06 384.509 1148.24 383.027 1147.28 381.648C1146.35 380.25 1145.35 378.968 1144.29 377.803C1143.25 376.636 1142.29 375.629 1141.4 374.783C1140.52 373.937 1139.78 373.28 1139.2 372.813C1138.62 372.33 1138.32 372.081 1138.3 372.068L1135.82 370.193L1144.5 368.803C1145.16 369.389 1145.91 370.101 1146.74 370.938C1147.58 371.76 1148.44 372.692 1149.34 373.734C1150.25 374.774 1151.14 375.907 1152.03 377.133C1152.91 378.342 1153.72 379.637 1154.46 381.018C1155.19 382.382 1155.82 383.813 1156.35 385.31C1156.88 386.789 1157.25 388.32 1157.43 389.904ZM1192.62 367.271L1189.51 367.77C1189.1 367.834 1188.69 367.949 1188.27 368.116C1187.86 368.264 1187.49 368.463 1187.16 368.713C1186.83 368.964 1186.57 369.261 1186.38 369.604C1186.19 369.947 1186.13 370.337 1186.18 370.773L1186.18 370.821L1187.2 379.33C1187.35 380.575 1187.3 381.702 1187.06 382.712C1186.82 383.706 1186.46 384.596 1185.98 385.381C1186.76 386.145 1187.35 387.007 1187.74 387.965C1188.15 388.921 1188.41 389.835 1188.51 390.707L1189.54 399.289C1189.6 399.855 1189.8 400.284 1190.13 400.577C1190.46 400.854 1190.83 401.049 1191.26 401.163C1191.68 401.26 1192.09 401.3 1192.5 401.285C1192.91 401.253 1193.22 401.219 1193.45 401.182L1196.56 400.684L1197.32 407.06L1194.16 407.566C1193.5 407.671 1192.79 407.712 1192.01 407.687C1191.26 407.677 1190.49 407.577 1189.72 407.388C1188.96 407.213 1188.21 406.945 1187.48 406.585C1186.77 406.222 1186.11 405.75 1185.52 405.17C1184.94 404.587 1184.45 403.892 1184.04 403.084C1183.65 402.274 1183.39 401.327 1183.26 400.245L1182.25 391.76C1182.15 390.903 1181.85 390.301 1181.34 389.953C1180.86 389.602 1180.22 389.49 1179.44 389.616C1178.99 389.688 1178.56 389.674 1178.15 389.574C1177.75 389.458 1177.38 389.286 1177.06 389.058C1176.75 388.811 1176.5 388.506 1176.29 388.144C1176.08 387.782 1175.95 387.383 1175.9 386.946C1175.85 386.51 1175.88 386.093 1176 385.696C1176.11 385.282 1176.29 384.916 1176.53 384.597C1176.78 384.26 1177.09 383.981 1177.44 383.76C1177.8 383.521 1178.2 383.358 1178.63 383.272C1179.5 383.133 1180.12 382.819 1180.51 382.329C1180.89 381.824 1181.03 381.159 1180.93 380.334L1179.91 371.777C1179.75 370.387 1179.88 369.106 1180.31 367.933C1180.74 366.76 1181.38 365.727 1182.23 364.834C1183.07 363.942 1184.05 363.207 1185.18 362.632C1186.32 362.053 1187.51 361.665 1188.75 361.467L1191.86 360.969L1192.62 367.271Z" fill="#2BB1DA"/>
<path d="M2353.96 1050.88C2353.79 1052.12 2353.47 1053.21 2353.01 1054.15C2352.58 1055.08 2352.05 1055.87 2351.43 1056.54C2350.81 1057.2 2350.12 1057.73 2349.36 1058.14C2348.6 1058.54 2347.83 1058.85 2347.05 1059.05C2346.26 1059.25 2345.48 1059.36 2344.69 1059.38C2343.91 1059.4 2343.19 1059.35 2342.52 1059.23L2318.44 1054.77L2319.31 1048.48L2343.38 1052.94C2344.58 1053.16 2345.56 1052.98 2346.32 1052.39C2347.09 1051.81 2347.55 1050.92 2347.72 1049.72C2347.8 1049.14 2347.78 1048.6 2347.67 1048.08C2347.56 1047.56 2347.37 1047.1 2347.08 1046.68C2346.81 1046.27 2346.45 1045.92 2345.99 1045.64C2345.55 1045.36 2345.05 1045.16 2344.47 1045.06L2330.12 1042.4C2329.11 1042.21 2328.04 1041.83 2326.92 1041.26C2325.81 1040.68 2324.8 1039.89 2323.9 1038.89C2323.02 1037.9 2322.34 1036.69 2321.84 1035.26C2321.37 1033.83 2321.26 1032.18 2321.52 1030.29C2321.78 1028.41 2322.33 1026.88 2323.16 1025.71C2324.01 1024.53 2324.99 1023.63 2326.1 1023C2327.22 1022.37 2328.39 1021.98 2329.6 1021.84C2330.82 1021.69 2331.94 1021.7 2332.95 1021.89L2354.19 1025.82L2353.32 1032.11L2332.08 1028.18C2330.89 1027.96 2329.92 1028.15 2329.14 1028.75C2328.39 1029.36 2327.93 1030.25 2327.76 1031.45C2327.6 1032.66 2327.79 1033.68 2328.35 1034.51C2328.93 1035.32 2329.81 1035.84 2330.99 1036.06L2345.35 1038.72L2345.39 1038.73C2346.06 1038.87 2346.76 1039.1 2347.49 1039.41C2348.22 1039.71 2348.93 1040.11 2349.62 1040.6C2350.32 1041.1 2350.97 1041.68 2351.57 1042.35C2352.16 1043.01 2352.67 1043.76 2353.08 1044.61C2353.5 1045.47 2353.8 1046.42 2353.96 1047.46C2354.13 1048.5 2354.13 1049.64 2353.96 1050.88ZM2385.31 1069.73C2385.16 1070.81 2384.89 1071.75 2384.5 1072.56C2384.11 1073.38 2383.64 1074.07 2383.11 1074.63C2382.57 1075.21 2381.97 1075.67 2381.31 1076.01C2380.66 1076.37 2379.98 1076.63 2379.29 1076.8C2378.6 1076.97 2377.93 1077.06 2377.25 1077.07C2376.58 1077.09 2375.94 1077.05 2375.35 1076.94L2364.09 1074.85L2364.96 1068.57L2376.22 1070.65C2377.05 1070.8 2377.71 1070.7 2378.18 1070.34C2378.66 1069.99 2378.95 1069.4 2379.07 1068.57L2383.02 1039.91L2389.26 1041.07L2385.31 1069.73ZM2376.92 1065.6L2365.66 1063.51C2364.76 1063.35 2363.82 1063.02 2362.84 1062.52C2361.87 1062.03 2361 1061.35 2360.21 1060.5C2359.43 1059.62 2358.83 1058.58 2358.41 1057.36C2357.99 1056.12 2357.89 1054.69 2358.11 1053.06L2360.5 1035.75L2366.75 1036.9L2364.36 1054.22C2364.24 1055.04 2364.37 1055.71 2364.74 1056.22C2365.12 1056.74 2365.73 1057.08 2366.57 1057.23L2377.78 1059.31L2376.92 1065.6ZM2417.91 1064.13C2417.76 1065.21 2417.49 1066.16 2417.1 1066.98C2416.71 1067.79 2416.25 1068.48 2415.71 1069.06C2415.17 1069.62 2414.57 1070.08 2413.92 1070.44C2413.26 1070.78 2412.59 1071.03 2411.89 1071.2C2411.21 1071.37 2410.52 1071.47 2409.83 1071.49C2409.16 1071.5 2408.53 1071.45 2407.93 1071.34L2391.03 1068.21L2391.9 1061.92L2408.75 1065.04C2409.6 1065.2 2410.27 1065.1 2410.76 1064.74C2411.26 1064.39 2411.56 1063.8 2411.67 1062.98C2411.82 1061.28 2411.1 1060.29 2409.5 1059.99L2399.82 1058.2C2398.45 1057.95 2397.31 1057.49 2396.42 1056.83C2395.53 1056.17 2394.82 1055.42 2394.32 1054.58C2393.82 1053.74 2393.5 1052.88 2393.34 1051.99C2393.2 1051.11 2393.18 1050.3 2393.28 1049.58C2393.48 1048.17 2393.89 1047.04 2394.52 1046.18C2395.15 1045.31 2395.88 1044.64 2396.71 1044.18C2397.55 1043.73 2398.42 1043.45 2399.34 1043.36C2400.26 1043.24 2401.1 1043.26 2401.87 1043.4L2417.21 1046.24L2416.34 1052.53L2401.05 1049.7C2400.73 1049.64 2400.47 1049.63 2400.26 1049.68C2400.08 1049.71 2399.93 1049.78 2399.81 1049.89C2399.72 1049.99 2399.65 1050.11 2399.62 1050.25C2399.58 1050.38 2399.56 1050.51 2399.54 1050.64C2399.52 1050.9 2399.54 1051.11 2399.6 1051.27C2399.66 1051.43 2399.74 1051.55 2399.84 1051.63C2399.96 1051.72 2400.09 1051.79 2400.24 1051.83C2400.4 1051.86 2400.55 1051.89 2400.69 1051.92L2410.37 1053.71C2411.97 1054 2413.29 1054.54 2414.33 1055.33C2415.37 1056.12 2416.17 1057.02 2416.74 1058.03C2417.3 1059.03 2417.67 1060.08 2417.83 1061.16C2418.01 1062.26 2418.04 1063.24 2417.91 1064.13ZM2446.99 1058.2L2436.1 1056.19L2433.36 1076.04L2427.04 1074.87L2429.78 1055.02L2421.67 1053.52L2422.54 1047.23L2430.65 1048.73L2431.83 1040.19L2438.14 1041.36L2436.96 1049.9L2447.86 1051.92L2446.99 1058.2ZM2478.6 1066.48C2478.48 1067.35 2478.19 1068.27 2477.75 1069.23C2477.31 1070.17 2476.68 1071.02 2475.87 1071.76C2475.08 1072.49 2474.1 1073.04 2472.91 1073.42C2471.74 1073.8 2470.38 1073.84 2468.81 1073.55L2457.55 1071.47L2458.37 1065.49L2469.63 1067.58C2470.48 1067.73 2471.17 1067.6 2471.71 1067.17C2472.24 1066.72 2472.57 1066.11 2472.67 1065.34C2472.79 1064.52 2472.61 1063.82 2472.15 1063.26C2471.7 1062.69 2471.11 1062.34 2470.37 1062.21L2459.11 1060.12C2458.27 1059.97 2457.57 1060.11 2457.03 1060.56C2456.5 1060.99 2456.18 1061.59 2456.07 1062.36L2454.86 1071.14C2454.74 1071.98 2454.91 1072.68 2455.36 1073.24C2455.82 1073.81 2456.44 1074.16 2457.21 1074.31L2468.42 1076.38L2467.59 1082.38L2456.33 1080.29C2455.47 1080.13 2454.55 1079.81 2453.58 1079.32C2452.63 1078.83 2451.77 1078.16 2451 1077.32C2450.25 1076.47 2449.66 1075.45 2449.24 1074.24C2448.81 1073.03 2448.71 1071.63 2448.93 1070.05L2450.15 1061.22C2450.27 1060.35 2450.55 1059.44 2450.99 1058.5C2451.44 1057.54 2452.05 1056.69 2452.84 1055.96C2453.65 1055.22 2454.64 1054.66 2455.81 1054.28C2456.99 1053.9 2458.37 1053.86 2459.94 1054.15L2471.2 1056.23C2472.06 1056.39 2472.97 1056.72 2473.92 1057.21C2474.88 1057.7 2475.74 1058.37 2476.5 1059.22C2477.27 1060.06 2477.86 1061.09 2478.29 1062.31C2478.71 1063.51 2478.81 1064.9 2478.6 1066.48ZM2503.55 1089.03L2497.31 1087.88L2499.7 1070.54C2499.82 1069.72 2499.68 1069.06 2499.31 1068.56C2498.94 1068.04 2498.33 1067.71 2497.48 1067.55L2489.37 1066.05L2486.63 1085.9L2480.38 1084.75L2483.56 1061.72C2483.62 1061.29 2483.76 1060.9 2483.97 1060.56C2484.18 1060.2 2484.45 1059.91 2484.78 1059.69C2485.11 1059.45 2485.47 1059.29 2485.88 1059.2C2486.29 1059.11 2486.7 1059.11 2487.14 1059.19L2498.4 1061.27C2499.26 1061.43 2500.17 1061.75 2501.12 1062.24C2502.07 1062.73 2502.94 1063.4 2503.75 1064.24L2504.01 1062.31L2512.46 1063.87C2513.06 1063.98 2513.67 1064.17 2514.31 1064.44C2514.94 1064.69 2515.56 1065.02 2516.16 1065.43C2516.78 1065.84 2517.35 1066.33 2517.88 1066.91C2518.41 1067.47 2518.85 1068.12 2519.21 1068.87C2519.57 1069.59 2519.83 1070.41 2519.98 1071.32C2520.13 1072.22 2520.14 1073.21 2519.99 1074.29L2517.59 1091.63L2511.35 1090.48L2513.75 1073.14C2513.86 1072.32 2513.74 1071.66 2513.38 1071.16C2513.04 1070.65 2512.44 1070.32 2511.6 1070.16L2505.98 1069.12C2506.08 1069.93 2506.07 1070.79 2505.94 1071.69L2503.55 1089.03ZM2529 1090.5C2528.94 1090.93 2528.8 1091.33 2528.57 1091.68C2528.36 1092.02 2528.09 1092.31 2527.76 1092.55C2527.45 1092.77 2527.09 1092.93 2526.68 1093.02C2526.29 1093.11 2525.89 1093.12 2525.47 1093.04C2525.04 1092.96 2524.65 1092.81 2524.28 1092.57C2523.94 1092.35 2523.64 1092.07 2523.39 1091.74C2523.16 1091.4 2522.99 1091.03 2522.88 1090.63C2522.77 1090.21 2522.75 1089.79 2522.81 1089.35C2522.87 1088.93 2523 1088.55 2523.21 1088.21C2523.43 1087.85 2523.69 1087.56 2524 1087.34C2524.32 1087.1 2524.68 1086.94 2525.07 1086.84C2525.48 1086.74 2525.9 1086.72 2526.34 1086.8C2526.75 1086.88 2527.13 1087.04 2527.48 1087.29C2527.84 1087.52 2528.13 1087.81 2528.37 1088.15C2528.62 1088.47 2528.79 1088.85 2528.9 1089.26C2529.03 1089.67 2529.06 1090.08 2529 1090.5ZM2562.89 1090.96C2562.74 1092.05 2562.47 1093 2562.08 1093.82C2561.69 1094.62 2561.22 1095.31 2560.68 1095.89C2560.14 1096.45 2559.55 1096.91 2558.89 1097.27C2558.24 1097.61 2557.56 1097.87 2556.86 1098.03C2556.18 1098.21 2555.5 1098.3 2554.81 1098.32C2554.13 1098.33 2553.5 1098.28 2552.91 1098.17L2541.65 1096.09C2540.78 1095.93 2539.86 1095.6 2538.88 1095.1C2537.9 1094.61 2537.01 1093.93 2536.23 1093.07C2535.46 1092.21 2534.86 1091.16 2534.42 1089.94C2534 1088.7 2533.9 1087.27 2534.13 1085.64L2535.3 1077.13C2535.53 1075.52 2536 1074.21 2536.73 1073.2C2537.48 1072.18 2538.33 1071.41 2539.29 1070.87C2540.27 1070.33 2541.29 1069.99 2542.36 1069.88C2543.43 1069.76 2544.39 1069.78 2545.26 1069.94L2556.52 1072.03C2558.12 1072.32 2559.44 1072.86 2560.48 1073.65C2561.52 1074.44 2562.32 1075.34 2562.89 1076.36C2563.45 1077.35 2563.82 1078.4 2563.98 1079.48C2564.16 1080.58 2564.18 1081.56 2564.06 1082.45L2562.89 1090.96ZM2557.81 1081.34C2557.93 1080.47 2557.81 1079.79 2557.43 1079.29C2557.06 1078.79 2556.46 1078.47 2555.65 1078.31L2544.44 1076.24C2543.6 1076.09 2542.94 1076.19 2542.45 1076.54C2541.96 1076.88 2541.66 1077.46 2541.54 1078.28L2540.37 1086.8C2540.26 1087.62 2540.39 1088.29 2540.76 1088.8C2541.13 1089.32 2541.73 1089.65 2542.56 1089.81L2553.77 1091.88C2554.62 1092.04 2555.29 1091.94 2555.76 1091.58C2556.24 1091.22 2556.53 1090.63 2556.65 1089.81L2557.81 1081.34ZM2595.81 1102.86C2595.75 1103.31 2595.61 1103.72 2595.4 1104.08C2595.18 1104.43 2594.91 1104.73 2594.59 1104.97C2594.28 1105.19 2593.92 1105.35 2593.51 1105.44C2593.12 1105.53 2592.71 1105.54 2592.28 1105.46L2578.16 1102.84C2577.39 1102.7 2576.58 1102.46 2575.73 1102.12C2574.89 1101.78 2574.07 1101.34 2573.27 1100.8C2572.48 1100.24 2571.73 1099.59 2571.01 1098.84C2570.31 1098.08 2569.72 1097.22 2569.25 1096.26C2568.78 1095.28 2568.43 1094.19 2568.22 1092.99C2568.02 1091.8 2568.02 1090.49 2568.22 1089.07L2570.22 1074.56L2576.46 1075.72L2574.46 1090.23C2574.35 1091.05 2574.38 1091.82 2574.56 1092.53C2574.76 1093.23 2575.07 1093.86 2575.48 1094.41C2575.9 1094.97 2576.41 1095.44 2577.01 1095.81C2577.64 1096.18 2578.33 1096.43 2579.08 1096.57L2590 1098.59L2592.74 1078.73L2598.98 1079.89L2595.81 1102.86ZM2627.57 1091.63L2616.67 1089.61L2613.93 1109.47L2607.62 1108.3L2610.36 1088.44L2602.24 1086.94L2603.11 1080.65L2611.23 1082.15L2612.4 1073.62L2618.72 1074.78L2617.54 1083.32L2628.44 1085.34L2627.57 1091.63ZM2633.19 1109.78C2633.13 1110.22 2632.98 1110.61 2632.75 1110.97C2632.54 1111.31 2632.27 1111.6 2631.95 1111.83C2631.64 1112.06 2631.28 1112.21 2630.87 1112.3C2630.48 1112.4 2630.08 1112.4 2629.66 1112.33C2629.23 1112.25 2628.83 1112.09 2628.47 1111.86C2628.13 1111.63 2627.83 1111.35 2627.58 1111.02C2627.34 1110.68 2627.17 1110.31 2627.07 1109.91C2626.96 1109.5 2626.94 1109.07 2627 1108.63C2627.05 1108.22 2627.19 1107.84 2627.4 1107.49C2627.61 1107.14 2627.87 1106.85 2628.18 1106.62C2628.51 1106.39 2628.87 1106.22 2629.26 1106.13C2629.67 1106.02 2630.09 1106.01 2630.52 1106.09C2630.94 1106.16 2631.32 1106.33 2631.66 1106.57C2632.02 1106.8 2632.32 1107.09 2632.55 1107.43C2632.8 1107.76 2632.98 1108.13 2633.09 1108.55C2633.21 1108.95 2633.25 1109.36 2633.19 1109.78ZM2667.46 1110.32C2667.31 1111.4 2667.04 1112.35 2666.65 1113.17C2666.26 1113.98 2665.79 1114.67 2665.25 1115.24C2664.72 1115.81 2664.12 1116.27 2663.46 1116.62C2662.81 1116.97 2662.13 1117.22 2661.44 1117.39C2660.76 1117.56 2660.08 1117.66 2659.4 1117.68C2658.73 1117.69 2658.09 1117.64 2657.5 1117.53L2646.24 1115.45L2647.11 1109.16L2658.37 1111.24C2659.2 1111.4 2659.86 1111.29 2660.33 1110.94C2660.81 1110.58 2661.1 1109.99 2661.22 1109.17L2662.39 1100.7C2662.51 1099.83 2662.38 1099.14 2662 1098.65C2661.65 1098.15 2661.06 1097.83 2660.24 1097.67L2649.03 1095.6C2648.18 1095.44 2647.51 1095.54 2647.02 1095.9C2646.53 1096.24 2646.23 1096.82 2646.12 1097.64L2642.59 1123.15L2636.35 1122L2639.87 1096.48C2640.02 1095.4 2640.29 1094.46 2640.68 1093.66C2641.07 1092.85 2641.54 1092.17 2642.07 1091.61C2642.63 1091.03 2643.23 1090.57 2643.89 1090.23C2644.55 1089.87 2645.21 1089.61 2645.89 1089.44C2646.59 1089.27 2647.28 1089.18 2647.95 1089.17C2648.64 1089.15 2649.28 1089.2 2649.85 1089.3L2661.11 1091.39C2662.18 1091.59 2663.12 1091.9 2663.93 1092.33C2664.75 1092.76 2665.44 1093.26 2666.02 1093.83C2666.61 1094.41 2667.09 1095.03 2667.46 1095.71C2667.84 1096.39 2668.13 1097.09 2668.32 1097.81C2668.52 1098.5 2668.64 1099.2 2668.68 1099.88C2668.73 1100.57 2668.72 1101.21 2668.63 1101.81L2667.46 1110.32ZM2697.02 1104.48L2682.98 1101.88C2682.13 1101.73 2681.46 1101.82 2680.97 1102.18C2680.48 1102.52 2680.17 1103.1 2680.06 1103.92L2677.67 1121.26L2671.43 1120.11L2673.82 1102.77C2673.97 1101.69 2674.24 1100.74 2674.63 1099.94C2675.02 1099.14 2675.48 1098.45 2676.02 1097.89C2676.57 1097.32 2677.18 1096.86 2677.83 1096.52C2678.49 1096.16 2679.16 1095.89 2679.84 1095.72C2680.53 1095.55 2681.22 1095.46 2681.89 1095.46C2682.59 1095.44 2683.22 1095.48 2683.8 1095.59L2697.89 1098.19L2697.02 1104.48ZM2709.1 1094.76L2702.85 1093.61L2703.64 1087.92L2709.88 1089.08L2709.1 1094.76ZM2704.75 1126.28L2698.51 1125.12L2702.11 1098.98L2708.36 1100.13L2704.75 1126.28ZM2739.51 1132.71L2733.27 1131.55L2735.27 1117.04C2735.38 1116.22 2735.34 1115.46 2735.14 1114.76C2734.96 1114.05 2734.66 1113.42 2734.25 1112.86C2733.83 1112.3 2733.31 1111.84 2732.69 1111.48C2732.08 1111.1 2731.41 1110.85 2730.65 1110.71L2719.73 1108.69L2716.99 1128.54L2710.75 1127.39L2713.93 1104.36C2713.99 1103.93 2714.12 1103.54 2714.33 1103.2C2714.55 1102.84 2714.82 1102.55 2715.14 1102.33C2715.47 1102.09 2715.84 1101.93 2716.24 1101.84C2716.65 1101.75 2717.07 1101.74 2717.5 1101.82L2731.57 1104.43C2732.35 1104.57 2733.17 1104.81 2734.01 1105.15C2734.86 1105.49 2735.68 1105.94 2736.48 1106.5C2737.29 1107.05 2738.04 1107.7 2738.72 1108.45C2739.42 1109.2 2740.01 1110.06 2740.48 1111.04C2740.97 1112 2741.31 1113.09 2741.51 1114.28C2741.71 1115.47 2741.71 1116.78 2741.51 1118.2L2739.51 1132.71ZM2770.55 1118.09L2759.65 1116.07L2756.91 1135.93L2750.6 1134.76L2753.34 1114.91L2745.23 1113.4L2746.09 1107.12L2754.21 1108.62L2755.39 1100.08L2761.7 1101.25L2760.52 1109.79L2771.42 1111.8L2770.55 1118.09ZM2795.18 1101.97L2792.67 1103.78C2792.65 1103.79 2792.34 1104.03 2791.73 1104.5C2791.14 1104.95 2790.4 1105.59 2789.49 1106.42C2788.59 1107.24 2787.6 1108.23 2786.53 1109.37C2785.47 1110.51 2784.45 1111.77 2783.47 1113.14C2782.5 1114.5 2781.64 1115.96 2780.9 1117.53C2780.17 1119.08 2779.7 1120.68 2779.47 1122.32C2779.24 1123.98 2779.26 1125.68 2779.53 1127.42C2779.82 1129.16 2780.24 1130.86 2780.8 1132.51C2781.36 1134.16 2781.99 1135.71 2782.69 1137.18C2783.41 1138.65 2784.08 1139.94 2784.72 1141.05C2785.35 1142.16 2785.89 1143.04 2786.32 1143.68C2786.77 1144.34 2787 1144.68 2787.02 1144.7L2788.92 1147.34L2780.28 1145.74C2779.79 1144.95 2779.25 1144.02 2778.65 1142.93C2778.05 1141.86 2777.46 1140.68 2776.87 1139.38C2776.28 1138.08 2775.71 1136.7 2775.18 1135.24C2774.64 1133.77 2774.19 1132.26 2773.83 1130.7C2773.48 1129.13 2773.23 1127.55 2773.09 1125.95C2772.96 1124.34 2773.01 1122.75 2773.23 1121.17C2773.45 1119.59 2773.83 1118.06 2774.38 1116.59C2774.94 1115.11 2775.61 1113.7 2776.37 1112.35C2777.13 1110.98 2777.96 1109.71 2778.86 1108.52C2779.77 1107.31 2780.68 1106.2 2781.59 1105.18C2782.5 1104.16 2783.38 1103.25 2784.23 1102.44C2785.1 1101.63 2785.87 1100.94 2786.54 1100.37L2795.18 1101.97ZM2799.88 1109.81L2804.28 1110.62L2800.39 1122.4L2794.48 1121.31L2799.88 1109.81ZM2808.74 1111.45L2813.11 1112.25L2809.22 1124.03L2803.32 1122.94L2808.74 1111.45ZM2842.06 1151.69L2835.82 1150.54L2838.21 1133.2C2838.33 1132.37 2838.21 1131.71 2837.85 1131.22C2837.49 1130.71 2836.9 1130.37 2836.06 1130.22L2824.81 1128.13L2825.67 1121.85L2836.93 1123.93C2837.52 1124.04 2838.14 1124.23 2838.78 1124.49C2839.41 1124.74 2840.03 1125.07 2840.63 1125.48C2841.25 1125.89 2841.82 1126.39 2842.35 1126.97C2842.88 1127.53 2843.32 1128.18 2843.68 1128.92C2844.04 1129.65 2844.29 1130.47 2844.45 1131.37C2844.6 1132.28 2844.61 1133.27 2844.46 1134.35L2842.06 1151.69ZM2819.54 1147.52L2813.3 1146.37L2818.44 1109.17L2824.68 1110.33L2819.54 1147.52ZM2858.46 1122.41L2852.22 1121.25L2853.01 1115.57L2859.25 1116.73L2858.46 1122.41ZM2854.11 1153.92L2847.87 1152.77L2851.48 1126.62L2857.72 1127.78L2854.11 1153.92ZM2875.21 1136.25L2870.85 1135.44L2874.74 1123.66L2880.64 1124.75L2875.21 1136.25ZM2866.36 1134.61L2861.99 1133.8L2865.88 1122.02L2871.78 1123.11L2866.36 1134.61ZM2898.9 1144.43C2898.68 1146.01 2898.29 1147.54 2897.73 1149.02C2897.18 1150.49 2896.52 1151.91 2895.76 1153.27C2895 1154.62 2894.17 1155.9 2893.26 1157.1C2892.36 1158.29 2891.45 1159.39 2890.52 1160.41C2889.6 1161.43 2888.72 1162.35 2887.87 1163.15C2887.02 1163.97 2886.26 1164.66 2885.59 1165.23L2876.95 1163.63L2879.47 1161.81C2879.48 1161.8 2879.79 1161.56 2880.38 1161.09C2880.97 1160.64 2881.71 1160 2882.61 1159.17C2883.51 1158.35 2884.5 1157.36 2885.56 1156.22C2886.63 1155.08 2887.65 1153.83 2888.61 1152.47C2889.59 1151.1 2890.44 1149.63 2891.16 1148.08C2891.9 1146.51 2892.39 1144.91 2892.61 1143.26C2892.84 1141.62 2892.81 1139.93 2892.53 1138.19C2892.26 1136.44 2891.84 1134.74 2891.28 1133.1C2890.74 1131.44 2890.11 1129.88 2889.39 1128.41C2888.69 1126.94 2888.03 1125.65 2887.39 1124.54C2886.76 1123.43 2886.22 1122.55 2885.79 1121.91C2885.35 1121.25 2885.13 1120.91 2885.11 1120.89L2883.21 1118.26L2891.85 1119.86C2892.34 1120.64 2892.87 1121.58 2893.46 1122.66C2894.05 1123.73 2894.64 1124.91 2895.24 1126.21C2895.84 1127.52 2896.42 1128.9 2896.95 1130.38C2897.49 1131.83 2897.94 1133.34 2898.29 1134.92C2898.65 1136.47 2898.9 1138.05 2899.02 1139.66C2899.16 1141.26 2899.12 1142.85 2898.9 1144.43ZM2911.18 1140.92C2911.12 1141.36 2910.97 1141.75 2910.74 1142.11C2910.53 1142.45 2910.26 1142.74 2909.94 1142.97C2909.63 1143.2 2909.27 1143.35 2908.86 1143.44C2908.47 1143.54 2908.07 1143.55 2907.65 1143.47C2907.22 1143.39 2906.82 1143.23 2906.46 1143C2906.11 1142.77 2905.82 1142.49 2905.57 1142.16C2905.33 1141.82 2905.16 1141.45 2905.06 1141.05C2904.95 1140.64 2904.93 1140.21 2904.99 1139.78C2905.04 1139.36 2905.18 1138.98 2905.39 1138.63C2905.6 1138.28 2905.86 1137.99 2906.17 1137.76C2906.5 1137.53 2906.86 1137.36 2907.25 1137.27C2907.66 1137.16 2908.08 1137.15 2908.51 1137.23C2908.93 1137.31 2909.31 1137.47 2909.65 1137.71C2910.01 1137.94 2910.31 1138.23 2910.54 1138.57C2910.79 1138.9 2910.97 1139.27 2911.08 1139.69C2911.2 1140.09 2911.24 1140.5 2911.18 1140.92ZM2903.6 1167.65L2899.23 1166.84L2903.12 1155.08L2909.02 1156.17L2903.6 1167.65Z" fill="#2BB1DA"/>
<path d="M681.009 1633.87L674.741 1634.88L674.06 1629.18L680.328 1628.17L681.009 1633.87ZM684.781 1665.46L678.514 1666.46L675.384 1640.26L681.651 1639.25L684.781 1665.46ZM710.743 1646.48L702.257 1647.84L703.276 1656.37L697.659 1657.27L696.64 1648.74L688.131 1650.1L687.453 1644.43L695.963 1643.06L694.944 1634.53L700.56 1633.63L701.58 1642.16L710.065 1640.8L710.743 1646.48ZM737.357 1642.21L728.871 1643.57L729.89 1652.11L724.273 1653.01L723.254 1644.47L714.744 1645.84L714.067 1640.16L722.577 1638.8L721.557 1630.27L727.174 1629.37L728.194 1637.9L736.679 1636.54L737.357 1642.21ZM748.011 1631.86C748.063 1632.3 748.024 1632.72 747.893 1633.14C747.777 1633.54 747.592 1633.9 747.337 1634.24C747.097 1634.56 746.793 1634.83 746.427 1635.05C746.077 1635.27 745.693 1635.42 745.275 1635.49C744.841 1635.55 744.421 1635.54 744.016 1635.44C743.627 1635.34 743.272 1635.17 742.95 1634.94C742.642 1634.7 742.385 1634.4 742.18 1634.05C741.973 1633.69 741.843 1633.29 741.791 1632.86C741.741 1632.44 741.774 1632.03 741.891 1631.63C742.005 1631.22 742.182 1630.85 742.423 1630.53C742.677 1630.19 742.98 1629.92 743.33 1629.69C743.695 1629.46 744.094 1629.3 744.528 1629.23C744.945 1629.16 745.35 1629.19 745.741 1629.31C746.146 1629.41 746.502 1629.58 746.81 1629.83C747.132 1630.06 747.397 1630.35 747.604 1630.71C747.825 1631.06 747.961 1631.44 748.011 1631.86ZM747.485 1659.96L743.098 1660.66L743.859 1648.11L749.79 1647.16L747.485 1659.96Z" fill="#2BB1DA"/>
<path d="M691.149 1060.11L684.966 1058.67L685.946 1053.02L692.129 1054.45L691.149 1060.11ZM685.718 1091.45L679.535 1090.02L684.041 1064.01L690.224 1065.45L685.718 1091.45ZM720.151 1099.45L713.969 1098.02L716.47 1083.58C716.611 1082.77 716.595 1082 716.421 1081.3C716.265 1080.58 715.99 1079.93 715.595 1079.35C715.2 1078.78 714.698 1078.29 714.09 1077.9C713.5 1077.5 712.833 1077.21 712.088 1077.04L701.268 1074.52L697.846 1094.27L691.663 1092.83L695.631 1069.93C695.706 1069.5 695.855 1069.12 696.077 1068.79C696.302 1068.44 696.581 1068.16 696.914 1067.95C697.249 1067.73 697.621 1067.58 698.029 1067.51C698.438 1067.44 698.856 1067.45 699.284 1067.55L713.219 1070.79C713.996 1070.97 714.797 1071.25 715.623 1071.63C716.464 1072.01 717.27 1072.49 718.041 1073.09C718.83 1073.67 719.553 1074.36 720.208 1075.14C720.882 1075.92 721.437 1076.81 721.874 1077.81C722.329 1078.8 722.634 1079.9 722.788 1081.1C722.942 1082.3 722.897 1083.61 722.653 1085.02L720.151 1099.45ZM751.611 1086.22L740.814 1083.71L737.392 1103.46L731.138 1102.01L734.56 1082.26L726.523 1080.39L727.606 1074.14L735.644 1076L737.115 1067.51L743.37 1068.97L741.898 1077.46L752.695 1079.97L751.611 1086.22ZM779.422 1080.62L773.239 1079.19L774.218 1073.53L780.401 1074.97L779.422 1080.62ZM773.99 1111.97L767.807 1110.53L772.313 1084.53L778.496 1085.96L773.99 1111.97ZM821.888 1102.23L799.582 1097.04L800.562 1091.39L822.868 1096.57L821.888 1102.23ZM819.933 1113.51L797.627 1108.33L798.607 1102.67L820.913 1107.86L819.933 1113.51ZM882.433 1122.15C882.188 1123.56 881.774 1124.86 881.19 1126.04C880.624 1127.21 879.923 1128.26 879.087 1129.18C878.251 1130.11 877.315 1130.89 876.28 1131.53C875.245 1132.18 874.144 1132.68 872.976 1133.04C871.827 1133.39 870.63 1133.59 869.385 1133.63C868.141 1133.68 866.9 1133.56 865.663 1133.27L854.511 1130.68C853.258 1130.39 852.065 1129.94 850.932 1129.35C849.798 1128.75 848.752 1128.03 847.792 1127.19C846.852 1126.34 846.011 1125.38 845.271 1124.33C844.53 1123.27 843.928 1122.13 843.464 1120.9C843.016 1119.68 842.718 1118.4 842.57 1117.07C842.441 1115.72 842.499 1114.34 842.743 1112.93L843.719 1107.3C844.086 1105.18 844.81 1103.33 845.893 1101.75C846.991 1100.17 848.308 1098.9 849.843 1097.94C851.382 1096.96 853.068 1096.32 854.902 1096.01C856.755 1095.69 858.617 1095.75 860.488 1096.18L871.641 1098.77C872.878 1099.06 874.063 1099.5 875.196 1100.1C876.329 1100.7 877.367 1101.42 878.307 1102.28C879.267 1103.12 880.117 1104.06 880.857 1105.12C881.598 1106.18 882.2 1107.32 882.664 1108.54C883.127 1109.77 883.424 1111.06 883.553 1112.4C883.701 1113.74 883.653 1115.11 883.408 1116.52L882.433 1122.15ZM877.178 1115.08C877.392 1113.84 877.364 1112.67 877.095 1111.55C876.827 1110.44 876.382 1109.44 875.762 1108.54C875.158 1107.65 874.406 1106.9 873.505 1106.29C872.605 1105.68 871.622 1105.26 870.557 1105.03L859.404 1102.44C858.377 1102.18 857.338 1102.13 856.288 1102.29C855.257 1102.43 854.299 1102.78 853.413 1103.32C852.545 1103.85 851.793 1104.58 851.155 1105.5C850.536 1106.41 850.118 1107.49 849.902 1108.74L848.926 1114.37C848.709 1115.62 848.736 1116.8 849.004 1117.91C849.273 1119.03 849.718 1120.03 850.338 1120.93C850.961 1121.8 851.722 1122.55 852.622 1123.16C853.539 1123.77 854.529 1124.19 855.594 1124.42L866.747 1127.02C867.968 1127.3 869.105 1127.36 870.157 1127.18C871.228 1127 872.175 1126.63 872.997 1126.07C873.82 1125.51 874.508 1124.77 875.06 1123.87C875.616 1122.95 875.997 1121.89 876.202 1120.71L877.178 1115.08ZM875.283 1109.88C875.459 1110.29 875.551 1110.71 875.558 1111.15C875.568 1111.57 875.498 1111.97 875.35 1112.35C875.204 1112.72 874.981 1113.05 874.682 1113.35C874.402 1113.63 874.059 1113.85 873.652 1114.01L855.004 1121.41C854.698 1121.55 854.395 1121.63 854.096 1121.65C853.797 1121.66 853.497 1121.63 853.195 1121.56C852.688 1121.45 852.225 1121.21 851.807 1120.87C851.389 1120.52 851.077 1120.09 850.869 1119.57C850.692 1119.16 850.599 1118.75 850.589 1118.33C850.582 1117.9 850.644 1117.49 850.774 1117.12C850.923 1116.74 851.137 1116.41 851.417 1116.12C851.701 1115.82 852.045 1115.59 852.452 1115.44L871.148 1108.04C871.538 1107.88 871.939 1107.81 872.349 1107.82C872.775 1107.84 873.171 1107.93 873.538 1108.1C873.92 1108.27 874.259 1108.51 874.553 1108.81C874.863 1109.12 875.106 1109.47 875.283 1109.88ZM896.115 1116.57C896.04 1117.01 895.882 1117.4 895.641 1117.74C895.418 1118.07 895.139 1118.35 894.804 1118.57C894.487 1118.78 894.125 1118.92 893.716 1118.99C893.324 1119.07 892.922 1119.06 892.509 1118.96C892.081 1118.86 891.691 1118.69 891.338 1118.44C891.001 1118.2 890.714 1117.9 890.476 1117.57C890.256 1117.21 890.099 1116.84 890.005 1116.43C889.913 1116.01 889.904 1115.58 889.979 1115.15C890.052 1114.73 890.199 1114.36 890.422 1114.02C890.647 1113.68 890.918 1113.4 891.234 1113.19C891.57 1112.97 891.934 1112.82 892.326 1112.74C892.737 1112.65 893.157 1112.66 893.585 1112.76C893.997 1112.85 894.37 1113.03 894.704 1113.29C895.057 1113.54 895.343 1113.84 895.563 1114.19C895.801 1114.53 895.966 1114.91 896.057 1115.33C896.168 1115.74 896.187 1116.16 896.115 1116.57ZM887.631 1142.98L883.303 1141.97L887.587 1130.38L893.437 1131.74L887.631 1142.98Z" fill="#2BB1DA"/>
<path d="M489.68 1457.06C576.919 1507.82 491.421 1535.78 519.709 1608.54C541.718 1665.15 530.63 1696.52 593.154 1724.91C653.558 1752.33 730.553 1746.66 794.164 1724.91C908.751 1685.72 925.556 1635.68 918.89 1532.23C915.237 1475.53 826.903 1458.7 841.597 1403.27C850.531 1369.57 896.472 1361.58 895.149 1327.08C893.408 1281.64 805.334 1291.53 794.164 1247.04C774.962 1170.56 926.472 1195.8 1012.97 1166.36C1083.13 1142.48 1064.63 1133.16 1108.59 1081.54C1154.55 1027.58 1146.43 970.071 1108.59 911.861C1061.39 839.232 1012.78 922.307 964.768 850.05C929.281 796.639 898.864 733.828 954.057 693.816C999.675 660.746 1055.12 717.225 1108.59 693.816C1157.52 672.4 1146.45 622.781 1194.28 599.691C1272.69 561.835 1307.37 586.146 1390.89 556.93C1446.66 537.422 1460.74 404.238 1515.52 382.855C1634.79 336.297 1709.04 537.609 1813.51 470.612C1871.86 433.189 1873.44 522.115 1934.83 488.278C1999.21 452.799 2070.86 449.226 2132.21 488.278C2208.71 536.971 2083.56 634.345 2148.28 693.816C2194.83 736.595 2267.9 703.488 2313.53 746.961C2399.99 829.354 2186.68 900.771 2196.48 1010.13C2207.03 1128.03 2277.85 1190.64 2383.15 1269.45C2436.88 1309.67 2526.57 1294.35 2537.68 1353.97C2552.25 1432.1 2388.85 1382.43 2313.53 1430.17C2200.53 1501.79 2210.85 1545.64 2250.37 1659.57C2284.07 1756.75 2480.7 1581.39 2591.84 1617.6C2650.39 1636.68 2750.1 1680.41 2783.56 1637.63C2833.72 1573.51 2713.06 1537.78 2766.39 1475.48C2888.28 1333.11 3044.58 1420.72 2939.12 1269.45C2900.23 1213.66 2876.15 1221.55 2836.05 1166.36C2775.5 1083.04 2815.8 1012.68 2836.05 916.642C2853.24 835.111 2948.74 793.821 2916.38 715.586C2883.29 635.61 2763.71 663.718 2697.58 599.691C2629.41 533.693 2712.24 407.046 2591.24 394.794L2281.4 363.419C2160.4 351.166 2048.35 425.096 1934.83 363.419C1827.69 305.206 1892.42 182.55 1791.01 117.542C1708.51 64.6591 1633.68 58.2478 1535.49 86.6881C1458.81 108.894 1454.77 138.42 1390.89 180.291C1255.58 268.995 1152.71 313.986 980.833 314.115C843.875 314.218 759.097 166.209 644.982 229.595C572.726 269.73 557.726 323.233 543.232 394.794C521.329 502.937 655.225 553.09 644.982 662.441C636.739 750.444 634.664 827.821 543.232 871.821C469.157 907.468 395.913 832.64 324.432 871.821C262.915 905.54 270.58 956.661 234.157 1010.13C192.079 1071.89 169.466 1095.27 171.081 1166.36C172.861 1244.76 179.049 1276.32 266.289 1327.08L489.68 1457.06Z" fill="#532A75" fill-opacity="0.42"/>
<path d="M880.656 584.823C905.001 577.746 913.625 566.812 920.24 534.519C925.375 565.903 932.029 579.206 959.824 584.823C930.293 594.557 923.725 610.625 920.24 648.026C917.586 612.566 911.339 596.692 880.656 584.823Z" fill="#EEE0B0"/>
<path d="M2660.52 1192.8C2673.42 1188.75 2678 1182.51 2681.5 1164.05C2684.22 1181.99 2687.75 1189.59 2702.49 1192.8C2686.83 1198.36 2683.35 1207.54 2681.5 1228.91C2680.1 1208.65 2676.78 1199.58 2660.52 1192.8Z" fill="#EEE0B0"/>
<path d="M404.69 1079.71C417.596 1075.61 422.168 1069.27 425.675 1050.55C428.397 1068.74 431.924 1076.46 446.659 1079.71C431.004 1085.36 427.522 1094.67 425.675 1116.36C424.268 1095.8 420.956 1086.6 404.69 1079.71Z" fill="#EEE0B0"/>
<path d="M2094.89 453.573C2108.09 449.529 2112.77 443.281 2116.35 424.828C2119.14 442.761 2122.74 450.363 2137.81 453.573C2121.8 459.135 2118.24 468.317 2116.35 489.689C2114.91 469.426 2111.53 460.355 2094.89 453.573Z" fill="#EEE0B0"/>
<path d="M1493.97 166.89C1506.88 162.787 1511.45 156.447 1514.96 137.723C1517.68 155.92 1521.21 163.633 1535.94 166.89C1520.29 172.535 1516.81 181.851 1514.96 203.537C1513.55 182.977 1510.24 173.773 1493.97 166.89Z" fill="#EEE0B0"/>
<path d="M635.52 338.581C648.425 334.477 652.997 328.138 656.504 309.413C659.226 327.611 662.753 335.324 677.488 338.581C661.833 344.226 658.351 353.542 656.504 375.228C655.097 354.668 651.785 345.463 635.52 338.581Z" fill="#EEE0B0"/>
<path d="M2375.45 1508.36C2400.18 1504.9 2409.85 1495.37 2419.84 1464.5C2421.51 1496.17 2426.62 1510.24 2453.38 1519.79C2423.26 1525.11 2415.06 1540 2407.6 1576.35C2408.81 1541.02 2404.37 1524.48 2375.45 1508.36Z" fill="#EEE0B0"/>
<path d="M2458.96 845.092C2483.86 845.528 2494.55 837.597 2508.04 808.576C2506.01 840.213 2509.44 854.952 2534.83 868.594C2504.37 869.167 2494.52 882.635 2482.89 917.486C2488.2 882.675 2485.73 865.589 2458.96 845.092Z" fill="#EEE0B0"/>
<path d="M732.811 1535.8C756.569 1528.72 764.986 1517.79 771.441 1485.5C776.453 1516.88 782.946 1530.18 810.072 1535.8C781.252 1545.53 774.842 1561.6 771.441 1599C768.852 1563.54 762.755 1547.67 732.811 1535.8Z" fill="#EEE0B0"/>
<path d="M895.917 992.112C920.262 985.035 928.886 974.101 935.501 941.808C940.636 973.192 947.29 986.495 975.086 992.112C945.554 1001.85 938.986 1017.91 935.501 1055.31C932.847 1019.86 926.6 1003.98 895.917 992.112Z" fill="#EEE0B0"/>
<path d="M294.045 1146.63C318.39 1139.56 327.014 1128.62 333.629 1096.33C338.764 1127.71 345.418 1141.02 373.213 1146.63C343.682 1156.37 337.114 1172.44 333.629 1209.84C330.975 1174.38 324.728 1158.5 294.045 1146.63Z" fill="#EEE0B0"/>
<path d="M1607.51 267.634C1632.41 266.718 1642.76 258.216 1655.07 228.494C1654.32 260.207 1658.34 274.744 1684.26 286.993C1653.85 289.218 1644.55 303.206 1634.35 338.65C1638.25 303.588 1635.09 286.656 1607.51 267.634Z" fill="#D6CDAE"/>
<path d="M1661.78 575.574C1646.34 577.666 1639.35 584.786 1623.97 587.263C1591.35 592.52 1573.16 573.348 1540.11 575.574C1507.6 577.764 1488.51 582.985 1460.37 597.723C1428.91 614.197 1414.13 629.369 1394.38 656.786C1369.81 690.891 1372.7 717.069 1359.32 755.84C1341.3 808.064 1345.26 842.672 1314.64 889.963C1295.95 918.827 1276.78 929.624 1255.52 957.025C1229.24 990.906 1207.79 1008.27 1195.72 1048.08C1179.1 1102.88 1186.3 1138.06 1168.91 1192.66C1158.96 1223.88 1116.92 1226.83 1122.82 1258.86C1127.4 1283.71 1129.3 1333.05 1154.79 1343.7C1192.64 1359.51 1197 1265.92 1230.41 1243.49C1251.57 1229.29 1286.36 1169.1 1286.36 1169.1L1484.94 1076.26L1566.71 957.025L1661.78 1006.86L1743.77 1076.26C1743.77 1076.26 1929.45 1159.32 1942.97 1197.44C1969.32 1271.67 2015.82 1338.59 2074.54 1285.35C2120.65 1243.55 2070.32 1226.84 2074.54 1210.29C2082.54 1178.93 2080.69 1199.84 2074.54 1166.64C2071.3 1149.11 2044.53 1146.09 2034.58 1130.98C2014.1 1099.87 2040.99 1083.63 2034.58 1047.98C2028.02 1011.46 2001.8 1023.71 1982.94 990.804C1957.77 946.907 1906.47 952.794 1915.44 904.114C1918.62 886.855 1928.33 879.191 1933.31 862.277C1945.15 822.084 1947.87 795.311 1933.31 755.84C1918.75 716.368 1893.12 701.583 1862.51 670.321C1846.86 654.345 1838.79 644.559 1820.57 630.946C1790.41 608.409 1769.92 598.237 1732.59 587.263C1705.87 579.411 1689.58 571.808 1661.78 575.574Z" fill="#7F4520"/>
<path d="M1561.84 1027.85V978.054L1669.43 985.432V1010.64L1673.74 1053.06L1762.27 1069.66L1626.4 1190.78L1454.87 1069.66L1550.78 1045.07L1561.84 1027.85Z" fill="#95612C"/>
<path d="M1467.74 848.332C1462.85 811.132 1467.67 803.085 1472.03 767.256C1474.68 745.548 1464 731.281 1472.03 710.939C1484.34 679.762 1501.79 666.505 1528.6 646.385C1552.38 628.531 1567.55 617.756 1596.84 612.571C1631.08 606.508 1652.96 612.635 1684.76 626.711C1712.07 638.802 1726.03 650.207 1746.24 672.207C1766.79 694.59 1777.36 709.725 1786.81 738.606C1797 769.706 1796.5 789.759 1792.35 822.219C1789.58 843.881 1785.09 855.596 1778.21 876.322C1767.34 909.06 1765.23 931.418 1741.93 956.862C1718.06 982.938 1697.13 992.821 1662.62 1000.51C1627.14 1008.42 1604.33 1005.06 1569.79 993.75C1528.64 980.277 1508.85 953.22 1485.87 916.531C1470.3 891.683 1471.57 877.403 1467.74 848.332Z" fill="#C3813C"/>
<path d="M1729.29 1053.49C1742.31 1053.49 1751.13 1057.33 1764.06 1055.95C1775.07 1054.78 1782.19 1054.5 1793.16 1055.95C1809.26 1058.09 1812.92 1069.9 1824.38 1079.93C1853.91 1105.78 1867.18 1123.72 1886.12 1156.18C1897.96 1176.47 1915.92 1210.29 1915.92 1210.29C1915.92 1210.29 1870.46 1213.23 1845.67 1219.51C1823.51 1225.13 1796.21 1237.9 1778.11 1247.12L1781.97 1435.33L1798.74 1547.24C1798.74 1547.24 1768.21 1553.88 1734.5 1558.75C1696.18 1564.28 1702.69 1559.92 1675.97 1563.67C1661.43 1565.7 1625.9 1609.17 1625.9 1609.17C1625.9 1609.17 1608.59 1584.57 1582.33 1584.57C1568.61 1584.57 1556.32 1558.75 1556.32 1558.75C1556.32 1558.75 1551.6 1563.67 1530.31 1563.67C1501.77 1563.67 1497.15 1572.89 1497.15 1572.89H1469.83H1411.31L1417.05 1539.86C1417.05 1539.86 1422.26 1455.46 1424.14 1415.66C1427.46 1345.48 1384.4 1237.96 1384.4 1237.96C1384.4 1237.96 1331.74 1245.57 1299.96 1237.96C1274.27 1231.8 1239.64 1210.29 1239.64 1210.29C1239.64 1210.29 1278.92 1160.97 1299.96 1127.28C1316.88 1100.17 1311.06 1075.05 1338.99 1055.95C1358.46 1042.63 1373.93 1039.22 1398.6 1036.89C1433.81 1033.57 1504.3 1042.82 1504.3 1042.82L1519.26 1069.26L1542.67 1103.7L1590.79 1147.97L1647.68 1111.29L1700.19 1047.35C1700.19 1047.35 1718.9 1053.49 1729.29 1053.49Z" fill="#4E135F"/>
<path d="M1422.93 1144.67L1434.69 1036.17H1440.92L1458.22 1129.34C1514.3 1145.34 1544.05 1158.77 1590.34 1200.68C1624.96 1155.31 1653.43 1145.19 1710.71 1138.18L1725.24 1049.73L1737 1053.27L1748.76 1154.1L1799.26 1233.11V1263.9V1326.28L1792.34 1406.47L1808.95 1483.12L1715.56 1497.28H1635.57C1627.95 1454.84 1623.28 1446.37 1612.82 1398.42C1604.26 1437.77 1601.76 1451.91 1596.22 1497.28H1561.29L1434.69 1490.2L1393.88 1475.46L1409.79 1406.47L1400.11 1348.09L1372.43 1268.49V1227.22L1422.93 1144.67Z" fill="#4A21A4"/>
<path d="M1505.33 1552.6C1465.32 1550.54 1403.5 1540.92 1403.5 1540.92C1403.5 1540.92 1350.47 1708.97 1330.76 1819.35C1311.57 1926.84 1302.99 1988.19 1302.99 2097.16C1302.99 2124.57 1302.99 2153.66 1302.99 2153.66C1302.99 2153.66 1382.57 2152.98 1402.88 2153.66C1427.68 2154.49 1466.31 2153.66 1466.31 2153.66H1528.31H1576.96H1629.64C1629.64 2153.66 1634.03 2113.88 1629.64 2027.71L1651.46 2153.66H1756.28H1803.54H1844.54H1930.35H2007.14C2007.14 2153.66 1978.94 1991.35 1959.59 1925.06C1930.34 1824.88 1861.07 1675.53 1861.07 1675.53L1803.54 1528.02C1803.54 1528.02 1756.42 1536.04 1726.18 1540.92C1697.02 1545.63 1651.46 1552.6 1651.46 1552.6L1623.69 1595.01L1589.3 1552.6C1589.3 1552.6 1538.07 1554.28 1505.33 1552.6Z" fill="#4A21A4"/>
<path d="M1240.51 1282.58L1255.62 1218.9C1287.97 1231.87 1294.31 1242.87 1373.66 1241.03V1282.58L1375.41 1298.92L1417.57 1266.6L1488.27 1318.24L1461.22 1353.9C1461.22 1353.9 1417.19 1438.35 1372.08 1476.86C1338.03 1505.92 1273.09 1534.65 1273.09 1534.65C1273.09 1534.65 1251.83 1535.84 1240.51 1529.73C1220.46 1518.92 1222.61 1498.63 1215.91 1476.86C1203.69 1437.11 1204.71 1411.6 1211 1370.5C1216.47 1334.7 1240.51 1282.58 1240.51 1282.58Z" fill="#C3813C"/>
<path d="M1348.1 1313.94L1381.04 1293.9L1372.43 1267.47L1299.53 1287.5L1271.86 1348.98L1260.18 1404.31C1260.18 1404.31 1278.46 1362.03 1299.53 1342.83C1315.84 1327.97 1348.1 1313.94 1348.1 1313.94Z" fill="#95612C"/>
<path d="M1833.24 1218.9C1810.62 1226.76 1799.11 1235.5 1799.11 1235.5V1328.33C1799.11 1359.07 1821.49 1378.09 1833.24 1400.88C1849.24 1431.91 1879.96 1477.11 1879.96 1477.11C1879.96 1477.11 1837.06 1539.51 1802.5 1573.02C1772.29 1602.31 1764.73 1643.22 1724.1 1654.18C1696.98 1661.49 1670.79 1649.27 1645.72 1661.96C1630.56 1669.63 1621.34 1653.73 1613.75 1668.93C1601.98 1692.51 1613.75 1735.95 1613.75 1735.95C1613.75 1735.95 1625.79 1728.05 1645.72 1748.76C1672.77 1776.85 1686.25 1774.28 1715.74 1748.76C1734.77 1732.29 1731.83 1759 1741.93 1735.95C1747.48 1723.28 1761.05 1698.55 1772.67 1691.07C1825.23 1657.25 1887.32 1657.62 1934.37 1609.91C1963.78 1580.08 1982.64 1529.37 1982.64 1529.37V1488.8C1982.64 1488.8 1981.23 1420.77 1968.18 1379.36C1956.37 1341.89 1948.08 1322.11 1934.37 1285.3C1922.78 1254.2 1907.31 1209.67 1907.31 1209.67C1907.31 1209.67 1856.14 1210.93 1833.24 1218.9Z" fill="#C3813C"/>
<path d="M1783.74 1592.08L1855.67 1509.7C1855.67 1509.7 1882.96 1544.83 1907.31 1557.65C1927.16 1568.11 1962.65 1573.02 1962.65 1573.02C1962.65 1573.02 1945.82 1600.16 1931.29 1614.22C1912.96 1631.95 1898.21 1636.37 1876.57 1649.87C1835.7 1675.4 1785.2 1681.34 1769.6 1711.36C1753.99 1741.37 1760.88 1736.56 1735.78 1759.25C1714.91 1778.12 1692.2 1782.38 1664.23 1779.28C1623.26 1774.74 1615.65 1771.12 1606.06 1731.03C1599.58 1703.94 1589.1 1692.15 1606.06 1670.06C1617.51 1655.15 1627.46 1649.61 1645.63 1644.79C1665.82 1639.43 1681.08 1636.96 1701.97 1636.96H1735.78L1783.74 1592.08Z" fill="#4C1559"/>
<path d="M2118.19 1291.44C2118.19 1291.44 2094.48 1276.5 2077.62 1276.69C2058.38 1276.9 2032.74 1296.98 2032.74 1296.98C2032.74 1296.98 2024.04 1323.57 2031.51 1337.55C2040.78 1354.91 2058.56 1352.96 2077.62 1357.84C2106.69 1365.3 2125.73 1366.5 2154.47 1357.84C2171.43 1352.73 2195.04 1337.55 2195.04 1337.55C2195.04 1337.55 2155.81 1323.93 2145.25 1314.81L2118.19 1291.44Z" fill="#7F4520"/>
<path d="M1086.92 1347.82C1086.92 1347.82 1101.26 1322.07 1116.93 1313.11C1134.8 1302.89 1168.64 1306.36 1168.64 1306.36C1168.64 1306.36 1190.14 1324.62 1190.31 1340.74C1190.53 1360.75 1173.12 1368.68 1157.99 1383.22C1134.91 1405.38 1117.94 1416.72 1087.01 1424.8C1068.76 1429.56 1039.27 1429.23 1039.27 1429.23C1039.27 1429.23 1068.61 1396.23 1073.75 1382.63L1086.92 1347.82Z" fill="#7F4520"/>
<path d="M1157.27 1308.9C1146.83 1306.02 1129.71 1308.9 1129.71 1308.9L1122.82 1281.16C1122.82 1281.16 1139.78 1274.14 1151.07 1274.23C1164.79 1274.33 1173.18 1276.94 1184.83 1285.02C1192.93 1290.63 1202.75 1303.51 1202.75 1303.51L1188.97 1332.02C1188.97 1332.02 1171.62 1312.87 1157.27 1308.9Z" fill="#4E135F"/>
<path d="M2052.93 1295.66C2040.75 1305.14 2030.51 1315.71 2030.51 1315.71L2005.71 1300.93C2005.71 1300.93 2006.56 1289.82 2017.1 1277.37C2029.9 1262.25 2039.93 1254.85 2057.74 1247.8C2070.11 1242.9 2090.38 1241.38 2090.38 1241.38L2102.35 1277.33C2102.35 1277.33 2069.66 1282.65 2052.93 1295.66Z" fill="#4E135F"/>
<path d="M1456.83 775.664C1446.4 784.795 1426.54 793.811 1426.54 793.811L1466.69 631.94L1611.1 590.565L1745.65 625.407L1837.23 743V875.835C1837.23 875.835 1817.91 862.597 1808.35 851.155C1795.74 836.068 1789.99 825.412 1785.1 806.151C1779.73 785.035 1791.53 771.055 1785.1 750.258C1780.11 734.139 1775.71 724.269 1763.26 713.239C1744.44 696.56 1723.77 709.533 1701.27 698.721C1684.74 690.779 1676.86 683.483 1662.53 671.864C1642.65 655.749 1616.03 625.407 1616.03 625.407C1616.03 625.407 1595.9 641.838 1585.04 654.443C1569.99 671.903 1570.92 689.797 1553.34 704.528C1532.48 722.003 1508.6 708.723 1487.82 726.304C1470.61 740.876 1473.81 760.796 1456.83 775.664Z" fill="#7F4520"/>
<path d="M1438.83 1462.36L1401.33 1449.45L1398.26 1459.29C1398.26 1459.29 1422.57 1470.21 1438.83 1475.27C1490.3 1491.29 1586.39 1488.8 1586.39 1488.8C1586.39 1488.8 1590.69 1447.6 1599.3 1416.86C1602.84 1404.23 1612.82 1378.75 1612.82 1378.75C1612.82 1378.75 1618.42 1389.2 1622.66 1404.57C1627.58 1422.4 1635.57 1456.21 1635.57 1456.21L1642.33 1488.8C1642.33 1488.8 1687.29 1485.62 1709.35 1484.49C1747.36 1482.55 1805.87 1470.97 1805.87 1470.97L1802.8 1458.06C1802.8 1458.06 1744.94 1467.67 1707.5 1469.12C1688.55 1469.86 1649.71 1474.66 1649.71 1474.66C1649.71 1474.66 1639.88 1423.63 1629.42 1395.96C1622.88 1378.63 1612.82 1359.69 1612.82 1359.69C1612.82 1359.69 1597.41 1384.23 1591.92 1401.49C1583.31 1428.54 1575.94 1474.66 1575.94 1474.66C1525.52 1478.44 1489.27 1473.12 1438.83 1462.36Z" fill="#CCAA3A"/>
<path d="M1470.3 1566.39C1442.71 1562.59 1400.72 1550.33 1400.72 1550.33L1397.03 1558.04C1397.03 1558.04 1441.13 1572.42 1470.3 1576.67C1510.54 1582.54 1574.35 1576.67 1574.35 1576.67C1591.03 1600.48 1602.51 1613.03 1625.46 1634.5C1647.79 1610.78 1658.35 1597.06 1672.25 1571.53C1672.25 1571.53 1702.19 1568.17 1733.21 1561.89L1812.64 1545.83L1808.94 1534.91C1808.94 1534.91 1761.46 1546.04 1730.75 1551.61C1704.88 1556.31 1664.25 1561.89 1664.25 1561.89C1652.16 1584.77 1643.63 1597.55 1625.46 1620.37C1604 1599.24 1594.36 1587.43 1578.66 1566.39C1578.66 1566.39 1512.25 1572.18 1470.3 1566.39Z" fill="#CCAA3A"/>
<path d="M1870.25 1561.91C1856.61 1548.56 1842.91 1521.59 1842.91 1521.59L1848.4 1516.47C1848.4 1516.47 1858.7 1529.71 1865.57 1537.97C1873.93 1548 1877.4 1554.91 1887.6 1563.14C1899.47 1572.72 1907.51 1577.37 1922.39 1581.2C1935.67 1584.62 1957.54 1583 1957.54 1583L1952.14 1591.57C1952.14 1591.57 1922.66 1592.72 1905.67 1586.2C1889.94 1580.16 1882.2 1573.61 1870.25 1561.91Z" fill="#CCAA3A"/>
<path d="M1507.03 1336.32L1551.74 1040.56H1547.34L1403.76 1025.67L1346.45 1040.56L1226.17 1234.71L1190.9 1496.17L1202.24 1993.2L1194.95 2153.66H1385.24H1453.91L1440.28 1974.44L1507.03 1336.32Z" fill="#762C87" fill-opacity="0.61"/>
<path d="M1561.22 1028.61L1544.39 1034.5L1536.26 1040.08L1509.82 1214.99L1479.5 1500.13L1431.13 1990.54L1453.91 2154.61H1468.7L1447.25 1990.54L1493.05 1500.13L1524.65 1214.99L1561.22 1028.61Z" fill="#CFA936"/>
<path d="M1448.67 1234.63L1405.02 1278.89L1330.63 1318.24C1330.63 1318.24 1336.58 1351.85 1347.84 1369.88C1360.63 1390.35 1371.33 1401.8 1393.34 1411.69C1407.9 1418.23 1433.3 1420.3 1433.3 1420.3L1448.67 1400.62L1497.24 1318.24L1515.07 1299.18C1515.07 1299.18 1535.74 1292.12 1545.19 1282.58C1553.6 1274.1 1562.44 1268.02 1569.79 1258.6C1577.2 1249.1 1585.16 1237.08 1585.16 1237.08L1598.07 1211.88C1598.07 1211.88 1604.03 1185.68 1596.84 1182.98C1591.41 1180.94 1582.7 1198.35 1581.47 1202.66C1579.12 1210.88 1565.48 1218.64 1565.48 1218.64L1560.57 1205.12C1560.57 1205.12 1578.21 1157.03 1590.69 1124.58C1593.76 1116.58 1596.99 1107.82 1594.38 1100.6C1593.06 1096.96 1590.39 1093.87 1587 1091.99C1582.08 1089.27 1577.03 1094.25 1574.71 1099.37C1568.56 1112.89 1559.34 1131.34 1559.34 1131.34L1547.65 1161.46L1540.89 1171.3V1151.01C1540.89 1151.01 1544.86 1121.25 1545.19 1087.07C1545.25 1081.55 1546.47 1073.88 1542.12 1070.47C1538.77 1067.85 1535.82 1068.94 1531.87 1070.4L1531.67 1070.47C1525.23 1072.85 1525.34 1080.41 1523.68 1087.07C1516.91 1114.12 1514.45 1141.18 1514.45 1141.18L1508.31 1167L1505.23 1148.55C1505.23 1148.55 1504 1119.04 1502.77 1091.99C1502.58 1087.67 1495.08 1084.17 1491.09 1085.84C1486.86 1087.62 1484.42 1096.07 1483.71 1100.6C1480.64 1120.27 1480.64 1146.71 1480.64 1146.71V1176.83L1475.11 1179.29L1469.57 1174.37L1467.11 1163.31C1467.11 1163.31 1465.27 1133.8 1458.51 1126.42C1455.31 1122.93 1450.39 1126.93 1448.67 1131.34C1444.37 1142.41 1448.67 1169.46 1448.67 1169.46L1452.97 1211.88L1448.67 1234.63Z" fill="#4C1559"/>
<path d="M1350.92 1371.37C1339.42 1354.33 1330.63 1322.8 1330.63 1322.8L1337.39 1318.49C1337.39 1318.49 1345.43 1334.71 1350.92 1344.93C1357.58 1357.34 1359.79 1365.41 1368.75 1376.29C1379.16 1388.94 1386.59 1395.56 1401.33 1402.72C1414.47 1409.12 1437.6 1411.95 1437.6 1411.95L1430.23 1419.94C1430.23 1419.94 1399.26 1415.04 1382.89 1404.57C1367.72 1394.87 1360.98 1386.29 1350.92 1371.37Z" fill="#CCAA3A"/>
<path d="M1329.63 1306.94L1373.38 1284.76L1405.42 1248.41L1460.26 1422.79L1448.55 1643.38L1500.31 2050.06L1244.6 2073.48L1226.11 1777.71L1244.6 1382.73L1276.02 1334.67L1329.63 1306.94Z" fill="#6B0E83" fill-opacity="0.62"/>
<path d="M1460.39 1423.24C1450.03 1354.69 1406.29 1254.16 1406.29 1254.16L1390.92 1258.47C1390.92 1258.47 1432.69 1356.51 1441.95 1423.24C1454 1510.04 1425.21 1559.39 1425.35 1647.02C1425.6 1807.05 1482.53 2052.8 1482.53 2052.8H1500.97C1500.97 2052.8 1450.56 1806.79 1448.71 1647.02C1447.7 1559.52 1473.47 1509.77 1460.39 1423.24Z" fill="#CFA936"/>
<path d="M1668.34 759.29C1664.74 758.732 1662.03 750.075 1665.56 748.589C1671.5 746.086 1677.93 745.464 1684.82 746.097C1696.38 747.159 1701.22 747.454 1712.46 750.382C1721.85 752.825 1728.01 756.397 1736.15 762.27C1743.47 767.55 1750.91 781.675 1750.91 781.675C1750.91 781.675 1742.78 774.431 1736.15 770.594C1722.45 762.658 1712.53 761.019 1697.14 759.29C1686.21 758.061 1678.1 760.803 1668.34 759.29Z" fill="#7F4520"/>
<path d="M1585.27 758.459C1588.87 757.887 1591.55 749.22 1588.01 747.747C1582.07 745.267 1575.63 744.671 1568.74 745.33C1557.19 746.437 1552.35 746.751 1541.11 749.723C1531.74 752.203 1525.59 755.799 1517.47 761.703C1510.17 767.011 1502.79 781.165 1502.79 781.165C1502.79 781.165 1510.86 773.503 1517.47 769.64C1531.14 761.651 1540.12 758.131 1555.5 756.342C1566.43 755.071 1575.52 760.01 1585.27 758.459Z" fill="#7F4520"/>
<path d="M1564.5 1302.94C1533.2 1298.09 1515.94 1279.98 1486.76 1267.65C1463.67 1257.89 1449.32 1217.42 1425.24 1210.42C1398.54 1202.65 1360.18 1225.36 1355.13 1198.02C1352.35 1182.94 1364.1 1175.83 1368.96 1161.29C1375.29 1142.39 1370.38 1127.76 1382.79 1112.17C1396.39 1095.1 1449.59 1107.09 1468.64 1096.43C1499.79 1079 1473.83 1043.95 1508.7 1036.34C1537.96 1029.96 1558.2 1030.62 1585.01 1043.97C1605.78 1054.31 1609.23 1071.71 1628.88 1084.03C1652.05 1098.55 1676.6 1087.39 1694.7 1107.88C1709.28 1124.39 1712.32 1139.27 1712.82 1161.29C1713.75 1201.69 1670.02 1194.02 1636.52 1216.62C1603.84 1238.65 1603.45 1308.97 1564.5 1302.94Z" fill="#703CAA" fill-opacity="0.57"/>
<path d="M1465.3 1135.04C1479.97 1131.35 1485.16 1125.66 1489.15 1108.83C1492.24 1125.18 1496.25 1132.11 1512.99 1135.04C1495.2 1140.11 1491.25 1148.48 1489.15 1167.97C1487.55 1149.49 1483.79 1141.22 1465.3 1135.04Z" fill="#EEE0B0"/>
<path d="M1522.53 1096.81C1531.33 1094.61 1534.45 1091.21 1536.84 1081.17C1538.7 1090.93 1541.1 1095.06 1551.15 1096.81C1540.47 1099.84 1538.1 1104.83 1536.84 1116.46C1535.88 1105.44 1533.62 1100.5 1522.53 1096.81Z" fill="#EEE0B0"/>
<path d="M1546.38 1249.43C1555.18 1247.22 1558.29 1243.83 1560.69 1233.78C1562.54 1243.54 1564.95 1247.68 1574.99 1249.43C1564.32 1252.45 1561.94 1257.45 1560.69 1269.08C1559.73 1258.05 1557.47 1253.12 1546.38 1249.43Z" fill="#EEE0B0"/>
<path d="M1647.87 1149.34C1654.09 1146.98 1656.07 1144.25 1656.95 1136.77C1659.14 1143.68 1661.24 1146.47 1668.71 1146.87C1661.2 1149.99 1659.89 1153.81 1659.97 1162.35C1658.33 1154.44 1656.26 1151.06 1647.87 1149.34Z" fill="#EEE0B0"/>
<path d="M1389.95 1174.07C1398.75 1171.87 1401.86 1168.47 1404.26 1158.43C1406.11 1168.19 1408.52 1172.33 1418.56 1174.07C1407.89 1177.1 1405.52 1182.09 1404.26 1193.72C1403.3 1182.7 1401.04 1177.76 1389.95 1174.07Z" fill="#EEE0B0"/>
<path d="M1537.54 1139.12C1546.6 1139.45 1550.54 1137.05 1555.64 1128.08C1554.7 1137.96 1555.86 1142.61 1565.02 1147.08C1553.93 1147.02 1550.26 1151.15 1545.81 1161.97C1547.96 1151.12 1547.16 1145.75 1537.54 1139.12Z" fill="#EEE0B0"/>
<path d="M1680.22 807.398C1681.41 801.162 1681.76 797.513 1685.92 792.28C1687.31 790.534 1691.34 789.331 1693.62 788.501C1698.06 786.881 1701.36 786.882 1705.67 788.501C1709.51 789.947 1712.15 791.994 1714.46 794.98C1717.72 799.176 1718.17 802.315 1718.89 807.275L1718.9 807.398C1719.42 810.956 1718.74 813.1 1717.72 816.577C1716.53 820.611 1715.3 823.278 1711.37 825.756C1706.93 828.565 1702.89 828.638 1697.42 827.916C1693.15 827.352 1690.55 826.545 1687.27 824.136C1684.16 821.84 1682.74 819.941 1681.57 816.577C1680.37 813.141 1679.54 810.936 1680.22 807.398Z" fill="#221E23"/>
<path d="M1571.96 808.371C1570.82 802.424 1570.48 798.946 1566.53 793.956C1565.21 792.291 1561.38 791.144 1559.21 790.352C1554.99 788.808 1551.84 788.808 1547.75 790.352C1544.09 791.731 1541.58 793.683 1539.38 796.53C1536.28 800.531 1535.85 803.524 1535.17 808.253L1535.16 808.371C1534.67 811.763 1535.31 813.807 1536.28 817.123C1537.41 820.969 1538.59 823.512 1542.32 825.874C1546.55 828.553 1550.38 828.622 1555.59 827.934C1559.66 827.396 1562.13 826.627 1565.24 824.33C1568.21 822.141 1569.56 820.33 1570.67 817.123C1571.81 813.846 1572.6 811.744 1571.96 808.371Z" fill="#221E23"/>
<path d="M1620.74 842.806C1624.45 839.036 1631.95 835.736 1631.95 835.736L1628.82 833.071C1628.82 833.071 1618.69 837.733 1615.16 842.806C1612.54 846.574 1610.22 853.429 1610.22 853.429C1610.22 853.429 1606.26 854.246 1603 857.292C1597.14 862.767 1595.78 872.589 1602.09 877.573C1604.65 879.597 1607.26 880.47 1607.26 880.47C1607.26 880.47 1615.05 884.274 1620.74 884.567C1625.61 884.818 1634.19 880.599 1634.19 880.599L1633.74 876.157C1633.74 876.157 1626.1 880.59 1622.07 880.47C1618.42 880.362 1615.93 879.728 1612.55 878.352C1609.37 877.054 1605.91 875.772 1603.91 873.025C1601.45 869.641 1603.7 864.682 1605.73 861.038C1607.88 857.181 1615.16 855.711 1615.16 855.711C1615.16 855.711 1616.3 847.302 1620.74 842.806Z" fill="#7E5326"/>
<ellipse cx="1731.96" cy="844.993" rx="30.0459" ry="17.646" fill="#B05D2E"/>
<path d="M1663.28 932.27C1663.28 942.015 1641.72 954.208 1625.13 954.208C1608.53 954.208 1586.5 942.015 1586.5 932.27C1586.5 922.524 1608.53 918.916 1625.13 918.916C1641.72 918.916 1663.28 922.524 1663.28 932.27Z" fill="#B76B41"/>
<ellipse cx="1520.2" cy="845.47" rx="30.9997" ry="19.0768" fill="#B05D2E"/>
<circle cx="1627.03" cy="755.333" r="7.15379" fill="#D4333A"/>
<ellipse cx="1697.14" cy="802.071" rx="7.6307" ry="6.19995" fill="#EED9D9"/>
<ellipse cx="1697.14" cy="802.071" rx="7.6307" ry="6.19995" fill="#EED9D9"/>
<ellipse cx="1697.14" cy="802.071" rx="7.6307" ry="6.19995" fill="#EED9D9"/>
<ellipse cx="1697.14" cy="802.071" rx="7.6307" ry="6.19995" fill="#EED9D9"/>
<ellipse cx="1550.25" cy="803.502" rx="6.67687" ry="5.72303" fill="#EED9D9"/>
<ellipse cx="1550.25" cy="803.502" rx="6.67687" ry="5.72303" fill="#EED9D9"/>
<ellipse cx="1550.25" cy="803.502" rx="6.67687" ry="5.72303" fill="#EED9D9"/>
<ellipse cx="1550.25" cy="803.502" rx="6.67687" ry="5.72303" fill="#EED9D9"/>
<path d="M1578.87 925.593C1589.83 933.223 1599.85 937.039 1614.16 937.039C1628.46 937.039 1636.37 936.703 1646.11 935.131C1658.51 933.131 1669.48 925.593 1669.48 925.593" stroke="#7B4F20" stroke-width="7" stroke-linecap="round"/>
<path d="M1689.49 795.875C1679.02 798.307 1663.97 821.624 1663.97 821.624C1663.97 821.624 1662.9 813.228 1665.56 805.951C1667.31 801.17 1673.54 795.875 1673.54 795.875C1673.54 795.875 1682.5 787.87 1689.49 785.8C1697.89 783.311 1704.76 784.514 1711.82 786.919L1729.9 793.077C1736.96 795.481 1737.58 799.703 1741.59 804.832C1744.64 808.713 1744.88 812.188 1748.51 815.467C1750.21 817.008 1751.14 818.135 1753.29 818.826C1755.48 819.528 1759.14 818.826 1759.14 818.826C1759.14 818.826 1756.3 820.201 1754.36 820.505C1752.71 820.761 1751.76 820.585 1750.1 820.505C1746.11 820.312 1743.66 820.506 1740 818.826C1734.07 816.105 1733.94 810.136 1728.83 805.951C1721.65 800.058 1716.52 797.632 1707.57 795.875C1700.63 794.514 1696.38 794.274 1689.49 795.875Z" fill="#292220"/>
<path d="M1564.22 798.149C1574.06 800.456 1588.21 822.578 1588.21 822.578C1588.21 822.578 1589.21 814.612 1586.71 807.709C1585.07 803.173 1579.21 798.149 1579.21 798.149C1579.21 798.149 1570.79 790.555 1564.22 788.59C1556.32 786.229 1549.86 787.371 1543.22 789.653L1526.23 795.494C1519.6 797.775 1519.01 801.781 1515.24 806.646C1512.38 810.329 1512.15 813.626 1508.74 816.737C1507.14 818.198 1506.26 819.267 1504.24 819.923C1502.19 820.59 1498.74 819.923 1498.74 819.923C1498.74 819.923 1501.41 821.228 1503.24 821.516C1504.79 821.759 1505.68 821.592 1507.24 821.516C1510.99 821.333 1513.29 821.517 1516.74 819.923C1522.31 817.342 1522.44 811.678 1527.23 807.709C1533.98 802.117 1538.81 799.816 1547.22 798.149C1553.75 796.858 1557.74 796.63 1564.22 798.149Z" fill="#292220"/>
<rect x="516.273" y="1672" width="2303.14" height="36.0549" fill="#554343"/>
<rect x="516.273" y="1778.56" width="2303.14" height="35.2537" fill="#554343"/>
<rect x="470" y="1708.05" width="46.2732" height="70.5073" fill="#554343"/>
<rect x="2819.42" y="1708.05" width="46.2732" height="70.5073" fill="#554343"/>
<rect x="515.917" y="1707.59" width="1392.42" height="71.1705" fill="#CFA936"/>
<rect x="1893.41" y="1707.59" width="629.055" height="71.1705" fill="#E6CB7A"/>
<rect x="2389.31" y="1707.59" width="268.611" height="71.1705" fill="#FAEAB8"/>
<path d="M522.111 1969.89H511V1958.78H522.111V1969.89ZM555.444 1981H522.111V1969.89H555.444V1981ZM566.556 1969.89H555.444V1947.67H566.556V1969.89ZM555.444 1914.33H522.111V1903.22H555.444V1914.33ZM566.556 1925.44H555.444V1914.33H566.556V1925.44ZM522.111 1936.56H511V1914.33H522.111V1936.56ZM555.444 1947.67H522.111V1936.56H555.444V1947.67ZM588.81 1969.89H577.699V1925.44H588.81V1969.89ZM633.255 1969.89H622.144V1925.44H633.255V1969.89ZM622.144 1981H588.81V1969.89H622.144V1981ZM688.843 1969.89V1936.56H699.954V1969.89H688.843ZM655.51 1936.56H666.621V1947.67H655.51V1958.78H666.621V1969.89H655.51V1981H644.398V1903.22H655.51V1936.56ZM666.621 1981V1969.89H688.843V1981H666.621ZM666.621 1936.56V1925.44H688.843V1936.56H666.621ZM755.542 1981H744.431V1936.56H755.542V1981ZM744.431 1925.44V1936.56H722.209V1981H711.098V1925.44H744.431ZM777.764 1936.56H755.542V1925.44H777.764V1936.56ZM788.875 1981H777.764V1936.56H788.875V1981ZM811.076 1981H799.965V1925.44H811.076V1981ZM811.076 1914.33H799.965V1903.22H811.076V1914.33ZM844.453 1925.44H855.564V1936.56H844.453V1969.89H855.564V1981H833.342V1936.56H822.23V1925.44H833.342V1903.22H844.453V1925.44ZM888.886 1925.44H899.997V1936.56H888.886V1969.89H899.997V1981H877.775V1936.56H866.664V1925.44H877.775V1903.22H888.886V1925.44ZM922.209 1981H911.098V1925.44H922.209V1981ZM922.209 1914.33H911.098V1903.22H922.209V1914.33ZM944.474 1947.67V1981H933.363V1925.44H944.474V1936.56H955.586V1947.67H944.474ZM988.919 1981H977.808V1936.56H988.919V1981ZM977.808 1936.56H955.586V1925.44H977.808V1936.56ZM1011.17 1969.89H1000.06V1936.56H1011.17V1969.89ZM1044.51 1969.89H1033.4V1958.78H1044.51V1947.67H1033.4V1936.56H1044.51V1925.44H1055.62V1992.11H1044.51V1969.89ZM1033.4 1936.56H1011.17V1925.44H1033.4V1936.56ZM1033.4 1981H1011.17V1969.89H1033.4V1981ZM1044.51 2003.22H1011.17V1992.11H1044.51V2003.22ZM1077.87 1981H1066.76V1969.89H1077.87V1981ZM1100.14 1981H1089.03V1969.89H1100.14V1981ZM1122.4 1981H1111.29V1969.89H1122.4V1981ZM2143.73 1981H2110.39V1969.89H2143.73V1981ZM2154.84 1925.44H2143.73V1914.33H2154.84V1925.44ZM2143.73 1914.33H2110.39V1903.22H2143.73V1914.33ZM2110.39 1947.67V1969.89H2099.28V1914.33H2110.39V1936.56H2143.73V1947.67H2110.39ZM2154.84 1969.89H2143.73V1947.67H2154.84V1969.89ZM2199.31 1947.67H2188.2V1936.56H2199.31V1947.67ZM2177.09 1969.89H2165.98V1914.33H2177.09V1969.89ZM2221.54 1969.89H2210.42V1914.33H2221.54V1969.89ZM2210.42 1914.33H2177.09V1903.22H2210.42V1914.33ZM2210.42 1981H2177.09V1969.89H2210.42V1981ZM2243.79 1981H2232.68V1958.78H2243.79V1981ZM2288.24 1925.44H2277.12V1903.22H2288.24V1925.44ZM2254.9 1958.78H2243.79V1947.67H2254.9V1958.78ZM2266.01 1947.67H2254.9V1936.56H2266.01V1947.67ZM2277.12 1936.56H2266.01V1925.44H2277.12V1936.56ZM2254.9 1925.44H2232.68V1903.22H2254.9V1925.44ZM2288.24 1981H2266.01V1958.78H2288.24V1981ZM2343.79 1969.89H2332.68V1936.56H2343.79V1969.89ZM2388.24 1936.56H2343.79V1925.44H2388.24V1936.56ZM2388.24 1981H2343.79V1969.89H2388.24V1981ZM2410.49 1969.89H2399.38V1936.56H2410.49V1969.89ZM2443.82 1936.56H2410.49V1925.44H2443.82V1936.56ZM2454.93 1969.89H2443.82V1936.56H2454.93V1969.89ZM2443.82 1981H2410.49V1969.89H2443.82V1981ZM2510.52 1981H2499.41V1936.56H2510.52V1981ZM2499.41 1925.44V1936.56H2477.19V1981H2466.08V1925.44H2499.41ZM2532.74 1936.56H2510.52V1925.44H2532.74V1936.56ZM2543.86 1981H2532.74V1936.56H2543.86V1981ZM2599.39 1969.89V1936.56H2610.5V1969.89H2599.39ZM2566.06 1958.78H2577.17V1969.89H2566.06V2003.22H2554.95V1925.44H2566.06V1936.56H2577.17V1947.67H2566.06V1958.78ZM2577.17 1936.56V1925.44H2599.39V1936.56H2577.17ZM2577.17 1981V1969.89H2599.39V1981H2577.17ZM2632.76 1981H2621.64V1903.22H2632.76V1981ZM2688.35 1936.56H2655.02V1925.44H2688.35V1936.56ZM2655.02 1958.78V1969.89H2643.91V1936.56H2655.02V1947.67H2688.35V1936.56H2699.47V1958.78H2655.02ZM2699.47 1981H2655.02V1969.89H2699.47V1981ZM2732.83 1925.44H2743.94V1936.56H2732.83V1969.89H2743.94V1981H2721.72V1936.56H2710.61V1925.44H2721.72V1903.22H2732.83V1925.44ZM2799.49 1936.56H2766.15V1925.44H2799.49V1936.56ZM2766.15 1958.78V1969.89H2755.04V1936.56H2766.15V1947.67H2799.49V1936.56H2810.6V1958.78H2766.15ZM2810.6 1981H2766.15V1969.89H2810.6V1981Z" fill="#CFA936"/>
</svg>
