<?xml version="1.0" encoding="UTF-8" standalone="no" ?>
<!DOCTYPE svg PUBLIC "-//W3C//DTD SVG 1.1//EN" "http://www.w3.org/Graphics/SVG/1.1/DTD/svg11.dtd">
<svg xmlns="http://www.w3.org/2000/svg" xmlns:xlink="http://www.w3.org/1999/xlink" version="1.1" width="1080" height="1080" viewBox="0 0 1080 1080" xml:space="preserve">
<desc>Created with Fabric.js 5.2.4</desc>
<defs>
</defs>
<rect x="0" y="0" width="100%" height="100%" fill="transparent"></rect>
<g transform="matrix(1 0 0 1 540 540)" id="acb22ae2-30aa-45ce-97a2-01f79acff2f8"  >
<rect style="stroke: none; stroke-width: 1; stroke-dasharray: none; stroke-linecap: butt; stroke-dashoffset: 0; stroke-linejoin: miter; stroke-miterlimit: 4; fill: rgb(255,255,255); fill-rule: nonzero; opacity: 1; visibility: hidden;" vector-effect="non-scaling-stroke"  x="-540" y="-540" rx="0" ry="0" width="1080" height="1080" />
</g>
<g transform="matrix(1 0 0 1 540 540)" id="c6cc2bb5-b9ad-4a5a-ab05-798a0f8fd7a9"  >
</g>
<g transform="matrix(7.75 0 0 7.75 540 540)"  >
<path style="stroke: none; stroke-width: 1; stroke-dasharray: none; stroke-linecap: butt; stroke-dashoffset: 0; stroke-linejoin: miter; stroke-miterlimit: 4; fill: rgb(222,182,42); fill-rule: nonzero; opacity: 1;" vector-effect="non-scaling-stroke"  transform=" translate(-770.6, -45.24)" d="M 744.562 66.0174 C 719.778 47.6273 715.394 23.1973 716.299 13.281 C 725.72 11.4781 751.627 9.40468 779.889 15.5347 C 808.151 21.6648 821.739 57.4534 825 74.5815 C 808.514 79.3894 769.345 84.4076 744.562 66.0174 Z" stroke-linecap="round" />
</g>
<g transform="matrix(7.75 0 0 7.75 716.86 650.03)"  >
<path style="stroke: none; stroke-width: 1; stroke-dasharray: none; stroke-linecap: butt; stroke-dashoffset: 0; stroke-linejoin: miter; stroke-miterlimit: 4; fill: rgb(166,135,27); fill-rule: nonzero; opacity: 1;" vector-effect="non-scaling-stroke"  transform=" translate(-795.42, -56.44)" d="M 797.882 47.0171 C 796.688 45.3025 794.151 45.3025 792.958 47.0171 L 782.227 62.4302 C 780.843 64.4192 782.266 67.1442 784.69 67.1442 L 806.15 67.1442 C 808.573 67.1442 809.997 64.4192 808.612 62.4302 L 797.882 47.0171 Z" stroke-linecap="round" />
</g>
<g transform="matrix(7.75 0 0 7.75 387.87 418.59)"  >
<path style="stroke: none; stroke-width: 1; stroke-dasharray: none; stroke-linecap: butt; stroke-dashoffset: 0; stroke-linejoin: miter; stroke-miterlimit: 4; fill: rgb(166,135,27); fill-rule: nonzero; opacity: 1;" vector-effect="non-scaling-stroke"  transform=" translate(-752.97, -26.58)" d="M 744.9 15.1931 C 742.76 14.1939 740.318 15.3921 740.345 17.4287 L 740.579 35.353 C 740.607 37.5346 743.408 39.0215 745.529 37.9806 L 764.13 28.8506 C 766.25 27.8097 766.026 25.0578 763.734 23.9874 L 744.9 15.1931 Z" stroke-linecap="round" />
</g>
</svg>