<?xml version="1.0" encoding="UTF-8" standalone="no" ?>
<!DOCTYPE svg PUBLIC "-//W3C//DTD SVG 1.1//EN" "http://www.w3.org/Graphics/SVG/1.1/DTD/svg11.dtd">
<svg xmlns="http://www.w3.org/2000/svg" xmlns:xlink="http://www.w3.org/1999/xlink" version="1.1" width="1080" height="1080" viewBox="0 0 1080 1080" xml:space="preserve">
<desc>Created with Fabric.js 5.2.4</desc>
<defs>
</defs>
<rect x="0" y="0" width="100%" height="100%" fill="transparent"></rect>
<g transform="matrix(1 0 0 1 540 540)" id="acb22ae2-30aa-45ce-97a2-01f79acff2f8"  >
<rect style="stroke: none; stroke-width: 1; stroke-dasharray: none; stroke-linecap: butt; stroke-dashoffset: 0; stroke-linejoin: miter; stroke-miterlimit: 4; fill: rgb(255,255,255); fill-rule: nonzero; opacity: 1; visibility: hidden;" vector-effect="non-scaling-stroke"  x="-540" y="-540" rx="0" ry="0" width="1080" height="1080" />
</g>
<g transform="matrix(1 0 0 1 540 540)" id="c6cc2bb5-b9ad-4a5a-ab05-798a0f8fd7a9"  >
</g>
<g transform="matrix(1 0 0 1 875.25 285.74)"  >
<path style="stroke: none; stroke-width: 1; stroke-dasharray: none; stroke-linecap: butt; stroke-dashoffset: 0; stroke-linejoin: miter; stroke-miterlimit: 4; fill: #D7316E; fill-rule: nonzero; opacity: 1;" vector-effect="non-scaling-stroke"  transform=" translate(-770.6, -45.24)" d="M 744.562 66.0174 C 719.778 47.6273 715.394 23.1973 716.299 13.281 C 725.72 11.4781 751.627 9.40468 779.889 15.5347 C 808.151 21.6648 821.739 57.4534 825 74.5815 C 808.514 79.3894 769.345 84.4076 744.562 66.0174 Z" stroke-linecap="round" />
</g>
<g transform="matrix(1 0 0 1 875.25 789.26)"  >
<path style="stroke: none; stroke-width: 1; stroke-dasharray: none; stroke-linecap: butt; stroke-dashoffset: 0; stroke-linejoin: miter; stroke-miterlimit: 4; fill: #D7316E; fill-rule: nonzero; opacity: 1;" vector-effect="non-scaling-stroke"  transform=" translate(-770.6, -548.76)" d="M 744.562 527.986 C 719.778 546.377 715.394 570.807 716.299 580.723 C 725.72 582.526 751.627 584.599 779.889 578.469 C 808.151 572.339 821.739 536.55 825 519.422 C 808.514 514.615 769.345 509.596 744.562 527.986 Z" stroke-linecap="round" />
</g>
<g transform="matrix(1 0 0 1 209.03 285.74)"  >
<path style="stroke: none; stroke-width: 1; stroke-dasharray: none; stroke-linecap: butt; stroke-dashoffset: 0; stroke-linejoin: miter; stroke-miterlimit: 4; fill: #D7316E; fill-rule: nonzero; opacity: 1;" vector-effect="non-scaling-stroke"  transform=" translate(-104.37, -45.24)" d="M 130.403 66.0174 C 155.187 47.6273 159.571 23.1973 158.665 13.281 C 149.244 11.4781 123.337 9.40468 95.0753 15.5347 C 66.8131 21.6648 53.2255 57.4534 49.9645 74.5815 C 66.4508 79.3894 105.619 84.4076 130.403 66.0174 Z" stroke-linecap="round" />
</g>
<g transform="matrix(1 0 0 1 209.03 788.36)"  >
<path style="stroke: none; stroke-width: 1; stroke-dasharray: none; stroke-linecap: butt; stroke-dashoffset: 0; stroke-linejoin: miter; stroke-miterlimit: 4; fill: #D7316E; fill-rule: nonzero; opacity: 1;" vector-effect="non-scaling-stroke"  transform=" translate(-104.37, -547.86)" d="M 130.403 527.085 C 155.187 545.475 159.571 569.905 158.665 579.822 C 149.244 581.624 123.337 583.698 95.0753 577.568 C 66.8131 571.438 53.2255 535.649 49.9645 518.521 C 66.4508 513.713 105.619 508.695 130.403 527.085 Z" stroke-linecap="round" />
</g>
<g transform="matrix(1 0 0 1 179.08 296.94)"  >
<path style="stroke: none; stroke-width: 1; stroke-dasharray: none; stroke-linecap: butt; stroke-dashoffset: 0; stroke-linejoin: miter; stroke-miterlimit: 4; fill: rgb(255,255,255); fill-rule: nonzero; opacity: 1;" vector-effect="non-scaling-stroke"  transform=" translate(-74.42, -56.44)" d="M 71.9599 47.0171 C 73.1536 45.3025 75.6905 45.3025 76.8841 47.0171 L 87.6143 62.4302 C 88.999 64.4192 87.5757 67.1442 85.1522 67.1442 L 63.6919 67.1442 C 61.2683 67.1442 59.8451 64.4192 61.2298 62.4302 L 71.9599 47.0171 Z" stroke-linecap="round" />
</g>
<g transform="matrix(1 0 0 1 900.08 296.94)"  >
<path style="stroke: none; stroke-width: 1; stroke-dasharray: none; stroke-linecap: butt; stroke-dashoffset: 0; stroke-linejoin: miter; stroke-miterlimit: 4; fill: rgb(255,255,255); fill-rule: nonzero; opacity: 1;" vector-effect="non-scaling-stroke"  transform=" translate(-795.42, -56.44)" d="M 797.882 47.0171 C 796.688 45.3025 794.151 45.3025 792.958 47.0171 L 782.227 62.4302 C 780.843 64.4192 782.266 67.1442 784.69 67.1442 L 806.15 67.1442 C 808.573 67.1442 809.997 64.4192 808.612 62.4302 L 797.882 47.0171 Z" stroke-linecap="round" />
</g>
<g transform="matrix(1 0 0 1 900.08 783.06)"  >
<path style="stroke: none; stroke-width: 1; stroke-dasharray: none; stroke-linecap: butt; stroke-dashoffset: 0; stroke-linejoin: miter; stroke-miterlimit: 4; fill: rgb(255,255,255); fill-rule: nonzero; opacity: 1;" vector-effect="non-scaling-stroke"  transform=" translate(-795.42, -542.56)" d="M 797.882 551.983 C 796.688 553.697 794.151 553.697 792.958 551.983 L 782.227 536.57 C 780.843 534.581 782.266 531.856 784.69 531.856 L 806.15 531.856 C 808.573 531.856 809.997 534.581 808.612 536.57 L 797.882 551.983 Z" stroke-linecap="round" />
</g>
<g transform="matrix(1 0 0 1 181.25 783.06)"  >
<path style="stroke: none; stroke-width: 1; stroke-dasharray: none; stroke-linecap: butt; stroke-dashoffset: 0; stroke-linejoin: miter; stroke-miterlimit: 4; fill: rgb(255,255,255); fill-rule: nonzero; opacity: 1;" vector-effect="non-scaling-stroke"  transform=" translate(-76.6, -542.56)" d="M 74.1337 551.983 C 75.3274 553.697 77.8643 553.697 79.058 551.983 L 89.7881 536.57 C 91.1728 534.581 89.7496 531.856 87.326 531.856 L 65.8657 531.856 C 63.4422 531.856 62.0189 534.581 63.4036 536.57 L 74.1337 551.983 Z" stroke-linecap="round" />
</g>
<g transform="matrix(1 0 0 1 221.53 267.08)"  >
<path style="stroke: none; stroke-width: 1; stroke-dasharray: none; stroke-linecap: butt; stroke-dashoffset: 0; stroke-linejoin: miter; stroke-miterlimit: 4; fill: rgb(255,255,255); fill-rule: nonzero; opacity: 1;" vector-effect="non-scaling-stroke"  transform=" translate(-116.87, -26.58)" d="M 124.942 15.1931 C 127.083 14.1939 129.524 15.3921 129.497 17.4287 L 129.263 35.353 C 129.235 37.5346 126.434 39.0215 124.313 37.9806 L 105.712 28.8506 C 103.592 27.8097 103.816 25.0578 106.108 23.9874 L 124.942 15.1931 Z" stroke-linecap="round" />
</g>
<g transform="matrix(1 0 0 1 857.63 267.08)"  >
<path style="stroke: none; stroke-width: 1; stroke-dasharray: none; stroke-linecap: butt; stroke-dashoffset: 0; stroke-linejoin: miter; stroke-miterlimit: 4; fill: rgb(255,255,255); fill-rule: nonzero; opacity: 1;" vector-effect="non-scaling-stroke"  transform=" translate(-752.97, -26.58)" d="M 744.9 15.1931 C 742.76 14.1939 740.318 15.3921 740.345 17.4287 L 740.579 35.353 C 740.607 37.5346 743.408 39.0215 745.529 37.9806 L 764.13 28.8506 C 766.25 27.8097 766.026 25.0578 763.734 23.9874 L 744.9 15.1931 Z" stroke-linecap="round" />
</g>
<g transform="matrix(1 0 0 1 857.63 812.92)"  >
<path style="stroke: none; stroke-width: 1; stroke-dasharray: none; stroke-linecap: butt; stroke-dashoffset: 0; stroke-linejoin: miter; stroke-miterlimit: 4; fill: rgb(255,255,255); fill-rule: nonzero; opacity: 1;" vector-effect="non-scaling-stroke"  transform=" translate(-752.97, -572.42)" d="M 744.9 583.807 C 742.76 584.806 740.318 583.608 740.345 581.571 L 740.579 563.647 C 740.607 561.465 743.408 559.979 745.529 561.019 L 764.13 570.149 C 766.25 571.19 766.026 573.942 763.734 575.013 L 744.9 583.807 Z" stroke-linecap="round" />
</g>
<g transform="matrix(1 0 0 1 223.71 812.92)"  >
<path style="stroke: none; stroke-width: 1; stroke-dasharray: none; stroke-linecap: butt; stroke-dashoffset: 0; stroke-linejoin: miter; stroke-miterlimit: 4; fill: rgb(255,255,255); fill-rule: nonzero; opacity: 1;" vector-effect="non-scaling-stroke"  transform=" translate(-119.05, -572.42)" d="M 127.116 583.807 C 129.256 584.806 131.697 583.608 131.671 581.571 L 131.437 563.647 C 131.409 561.465 128.608 559.979 126.487 561.019 L 107.886 570.149 C 105.766 571.19 105.989 573.942 108.282 575.013 L 127.116 583.807 Z" stroke-linecap="round" />
</g>
</svg>