<svg width="423" height="749" viewBox="0 0 423 749" fill="none" xmlns="http://www.w3.org/2000/svg">
<path d="M345.5 715.5V6H417.5V748.5L354 744L345.5 715.5Z" fill="#F6F1E2"/>
<path d="M417.5 748.5L354 744V6.5H417.5V748.5Z" fill="#88A9CA"/>
<g style="mix-blend-mode:multiply">
<path d="M400 373.5L393 339.5L387.5 368L390.5 394.5L400 431L393 467L403 481V512L417.5 555V417.5L414 413.5V402L411 391L408 386L403 382.5L400 373.5Z" fill="#4E23AA"/>
</g>
<g style="mix-blend-mode:multiply">
<path d="M375 18.5V6.5H345V63.5L350.5 70.5L354.5 102L358.5 104L360.5 139.5L368.5 168L390 190.5L393 224H400L403 201V185L393 168L375 157.5V147.5V105.5L393 94.5V70.5V54.5L375 37.5V18.5Z" fill="#4E23AA"/>
</g>
<path d="M354.5 4V100L345 63.5V4H354.5Z" fill="#805FE3"/>
<path d="M354.5 34.9529L345 21.0902V17L354.5 29.5V34.9529Z" fill="#B79FFF"/>
<path d="M354.5 51.9529L345 38.0902V26L354.5 38.5V51.9529Z" fill="#B79FFF"/>
<path d="M375 6.5V18.5V37.5L393 54.5V70.5V94.5L375 105.5V147.5V157.5L393 168L403 185.5V202.5L400 224.5H382.5L370 244L364.5 250.5V256L370 259.5V266.5H375V270L382.5 277.5L393 286L395.5 294.5L375 315L393 339.5L400 373.5L403 382.5L408 386L411 391L414 402V413.5L417.5 417.5" stroke="#4E23AA" stroke-opacity="0.5" stroke-width="10" stroke-linecap="round" style="mix-blend-mode:hard-light"/>
<path d="M375 6.5V18.5V37.5L393 54.5V70.5V94.5L375 105.5V147.5V157.5L393 168L403 185.5V202.5L400 224.5H382.5L370 244L364.5 250.5V256L370 259.5V266.5H375V270L382.5 277.5L393 286L395.5 294.5L375 315L393 339.5L400 373.5L403 382.5L408 386L411 391L414 402V413.5L417.5 417.5" stroke="#4E23AA" stroke-opacity="0.5" stroke-width="5" stroke-linecap="round" style="mix-blend-mode:hard-light"/>
<path d="M375 6.5V18.5V37.5L393 54.5V70.5V94.5L375 105.5V147.5V157.5L393 168L403 185.5V202.5L400 224.5H382.5L370 244L364.5 250.5V256L370 259.5V266.5H375V270L382.5 277.5L393 286L395.5 294.5L375 315L393 339.5L400 373.5L403 382.5L408 386L411 391L414 402V413.5L417.5 417.5" stroke="url(#paint0_radial_1179_4747)" stroke-width="1.3" stroke-linecap="round"/>
<path d="M273 678V6H336.5V678L316 693.5L273 678Z" fill="#F6F1E2"/>
<path d="M336.5 678L316 693.5V6H336.5V678Z" fill="#B9C9D9"/>
<path d="M326.5 5V16.5L311 30.5L305.5 59.5V99L319 128.5L326.5 155.5V199L330.5 230.5V242.5L326.5 256.5L322.5 269L319 274.5L311.5 294V316L293.5 328.5L316 350.5L322.5 336L333.5 327.5L330.5 303V274.5L333.5 256.5" stroke="#F7B149" stroke-opacity="0.5" stroke-width="10" stroke-linecap="round" style="mix-blend-mode:hard-light"/>
<path d="M326.5 5V16.5L311 30.5L305.5 59.5V99L319 128.5L326.5 155.5V199L330.5 230.5V242.5L326.5 256.5L322.5 269L319 274.5L311.5 294V316L293.5 328.5L316 350.5L322.5 336L333.5 327.5L330.5 303V274.5L333.5 256.5" stroke="#F7B149" stroke-opacity="0.5" stroke-width="5" stroke-linecap="round" style="mix-blend-mode:hard-light"/>
<g style="mix-blend-mode:overlay">
<path d="M326.5 5V16.5L311 30.5L305.5 59.5V99L319 128.5L326.5 155.5V199L330.5 230.5V242.5L326.5 256.5L322.5 269L319 274.5L311.5 294V316L293.5 328.5L316 350.5L322.5 336L333.5 327.5L330.5 303V274.5L333.5 256.5" stroke="url(#paint1_radial_1179_4747)" stroke-width="1.3" stroke-linecap="round"/>
</g>
<g style="mix-blend-mode:multiply">
<path d="M319 128.5L305.5 99V148L293.5 230.5L305.5 274.5L293.5 328.5L311.5 316V294L319 274.5L322.5 269L326.5 256.5L330.5 242.5V230.5L326.5 199V155.5L319 128.5Z" fill="#FFE99A"/>
</g>
<mask id="mask0_1179_4747" style="mask-type:alpha" maskUnits="userSpaceOnUse" x="293" y="99" width="38" height="230">
<g style="mix-blend-mode:multiply">
<path d="M319 128.5L305.5 99V148L293.5 230.5L305.5 274.5L293.5 328.5L311.5 316V294L319 274.5L322.5 269L326.5 256.5L330.5 242.5V230.5L326.5 199V155.5L319 128.5Z" fill="#FDEFBB"/>
</g>
</mask>
<g mask="url(#mask0_1179_4747)">
<path d="M331 220L300 164.118V144L331 199.882V220Z" fill="url(#paint2_linear_1179_4747)"/>
<path d="M329 240L298 184.118L298.5 174.559L328.5 229.441L329 240Z" fill="url(#paint3_linear_1179_4747)"/>
</g>
<g style="mix-blend-mode:multiply">
<path d="M280 499L284 458L290.5 463L306.5 451L319.5 458L316.5 472.5L326.5 481.5L330 495.5H337V533L330 572.5L326.5 597L319.5 589L316.5 572.5L306.5 562V550L295.5 556.5V526L280 499Z" fill="#FFE99A"/>
</g>
<mask id="mask1_1179_4747" style="mask-type:alpha" maskUnits="userSpaceOnUse" x="280" y="451" width="57" height="146">
<g style="mix-blend-mode:multiply">
<path d="M280 499L284 458L290.5 463L306.5 451L319.5 458L316.5 472.5L326.5 481.5L330 495.5H337V533L330 572.5L326.5 597L319.5 589L316.5 572.5L306.5 562V550L295.5 556.5V526L280 499Z" fill="#FAE9AE"/>
</g>
</mask>
<g mask="url(#mask1_1179_4747)">
<path d="M316 558L279 527.5L282.5 506L316 536V558Z" fill="url(#paint4_linear_1179_4747)"/>
<path d="M316 489L279 458.5L277 451L316 484V489Z" fill="url(#paint5_linear_1179_4747)"/>
</g>
<path d="M184.5 670.5V6H242.5V651L235 673.5L184.5 670.5Z" fill="#F6F1E2"/>
<path d="M242.5 651L235 673.5V6H242.5V651Z" fill="#B9C9D9"/>
<path d="M208.5 186L220 209.5V248L208.5 283V300.5L220 341L230.5 360.5" stroke="#2BB1DA" stroke-opacity="0.2" stroke-width="10" stroke-linecap="round" style="mix-blend-mode:hard-light"/>
<path d="M208.5 186L220 209.5V248L208.5 283V300.5L220 341L230.5 360.5" stroke="#2BB1DA" stroke-opacity="0.5" stroke-width="5" stroke-linecap="round" style="mix-blend-mode:hard-light"/>
<path d="M199.5 5.5V12.5V34.5L214 40V64.5L207 105L199.5 128L207 144.5L208.5 148V155.5L214 175" stroke="#2BB1DA" stroke-opacity="0.2" stroke-width="10" stroke-linecap="round" style="mix-blend-mode:hard-light"/>
<g style="mix-blend-mode:multiply">
<path d="M207 105L214 64.5V121.5L218.5 150.5V181L220.5 205.5V250L208.5 284L211.5 245L195 181L208.5 186L214 175L208.5 155.5V148L207 144.5L199.5 128L207 105Z" fill="url(#paint6_linear_1179_4747)"/>
</g>
<mask id="mask2_1179_4747" style="mask-type:alpha" maskUnits="userSpaceOnUse" x="195" y="64" width="26" height="220">
<g style="mix-blend-mode:multiply">
<path d="M207 105L214 64.5V121.5L218.5 150.5V181L220.5 205.5V250L208.5 284L211.5 245L195 181L208.5 186L214 175L208.5 155.5V148L207 144.5L199.5 128L207 105Z" fill="url(#paint7_linear_1179_4747)"/>
</g>
</mask>
<g mask="url(#mask2_1179_4747)">
<path d="M238 300L207 244.118L199 232.5L238 279.882V300Z" fill="#7AE2FF"/>
<path d="M222 234L191 178.118V158L222 213.882V234Z" fill="url(#paint8_linear_1179_4747)"/>
</g>
<path d="M199.5 5.5V12.5V34.5L214 40V64.5L207 105L199.5 128L207 144.5L208.5 148V155.5L214 175" stroke="#2BB1DA" stroke-opacity="0.5" stroke-width="5" style="mix-blend-mode:hard-light"/>
<path d="M208.5 186L220 209.5V248L208.5 283V300.5L220 341L230.5 360.5" stroke="url(#paint9_radial_1179_4747)" stroke-width="1.3" stroke-linecap="round"/>
<path d="M199.5 5.5V12.5V34.5L214 40V64.5L207 105L199.5 128L207 144.5L208.5 148V155.5L214 175" stroke="url(#paint10_radial_1179_4747)" stroke-width="1.3" stroke-linecap="round"/>
<path d="M199.5 490.5L184.5 428.5V434.5V464.5L199.5 505.5V553.5L208 567L204 590L199.5 621L216 573L204 534.5L208 512.5L199.5 490.5Z" fill="url(#paint11_linear_1179_4747)"/>
<mask id="mask3_1179_4747" style="mask-type:alpha" maskUnits="userSpaceOnUse" x="184" y="428" width="32" height="193">
<path d="M199.5 490.5L184.5 428.5V434.5V464.5L199.5 505.5V553.5L208 567L204 590L199.5 621L216 573L204 534.5L208 512.5L199.5 490.5Z" fill="#D9D9D9"/>
</mask>
<g mask="url(#mask3_1179_4747)">
<path d="M215 565L184 509.118V489L215 544.882V565Z" fill="#A2EBFF"/>
<path d="M215 528L184 474.203V469L215 519.731V528Z" fill="#A2EBFF"/>
</g>
<path d="M211 414.5L216 358.5V331.5L226.5 358.5L218 409L221.5 440L211 414.5Z" fill="url(#paint12_linear_1179_4747)"/>
<path d="M106.854 679.5L88.5 658.435V6L151.5 6V671.475L106.854 679.5Z" fill="#B9C9D9"/>
<path d="M151.5 671.5L107.5 679.5V6H151.5V671.5Z" fill="#F6F1E2"/>
<path d="M92 537L100.5 526L107.5 517.056V536.879L107 537L100.5 545L88.5 575V561.5L92 537Z" fill="url(#paint13_linear_1179_4747)"/>
<mask id="mask4_1179_4747" style="mask-type:alpha" maskUnits="userSpaceOnUse" x="88" y="517" width="20" height="58">
<path d="M92 537L100.5 526L107.5 517.056V536.879L107 537L100.5 545L88.5 575V561.5L92 537Z" fill="url(#paint14_linear_1179_4747)"/>
</mask>
<g mask="url(#mask4_1179_4747)">
<path d="M107.5 529.5L98.5 522.5V525.5L107.5 532.5V529.5Z" fill="#EAD0FF"/>
<path d="M110 536.9L95 525V530.1L110 542V536.9Z" fill="#EAD0FF"/>
</g>
<g style="mix-blend-mode:multiply">
<path d="M135 432.5L122.5 390L116 443L122.5 486.5L109.5 514.5L107.5 517V536.889L116 535L122.5 550.5C122.618 535.618 135 514.5 135 514.5L142 486.5L135 432.5Z" fill="url(#paint15_linear_1179_4747)"/>
</g>
<mask id="mask5_1179_4747" style="mask-type:alpha" maskUnits="userSpaceOnUse" x="107" y="390" width="35" height="161">
<g style="mix-blend-mode:multiply">
<path d="M135 432.5L122.5 390L116 443L122.5 486.5L109.5 514.5L107.5 517V536.889L116 535L122.5 550.5C122.618 535.618 135 514.5 135 514.5L142 486.5L135 432.5Z" fill="url(#paint16_linear_1179_4747)"/>
</g>
</mask>
<g mask="url(#mask5_1179_4747)">
<path d="M137 488.135L119.5 472.5L114 495.703L133.167 508L137 488.135Z" fill="url(#paint17_linear_1179_4747)"/>
<path d="M143 398.135L117 394V426.5L139.167 418L143 398.135Z" fill="url(#paint18_linear_1179_4747)"/>
</g>
<g style="mix-blend-mode:multiply">
<path d="M128 44L114.5 29.5L148.5 53.5L142 103.5L146 110.5L142 146.5L151.5 218L142 231L146 209.5L135 160.5L119 146.5L125.5 140.5L136.5 133.5L135 116H127V103.5L131.5 96V90L136.5 79.5L142 56.5L128 44Z" fill="url(#paint19_linear_1179_4747)"/>
</g>
<path d="M110 6L114.5 29.5L128 44L142 56.5L136.5 79.5L131.5 90V96L127 103.5V116H135L136.5 133.5L125.5 140.5L119 146.5L135 160.5L146 209.5L142 231L126.5 240V246.5V265.5L135 281V309V324L142 335V359L135 374.5L122.5 390L135 432.5L142 486.5L135 514.5L122.5 550.5L128.5 577L142 593L128.5 634.5V653.5L140 672L143 673" stroke="#8E54BD" stroke-opacity="0.5" stroke-width="10" stroke-miterlimit="16" stroke-linecap="round" stroke-linejoin="round" style="mix-blend-mode:hard-light"/>
<path d="M110 6L114.5 29.5L128 44L142 56.5L136.5 79.5L131.5 90V96L127 103.5V116H135L136.5 133.5L125.5 140.5L119 146.5L135 160.5L146 209.5L142 231L126.5 240V246.5V265.5L135 281V309V324L142 335V359L135 374.5L122.5 390L135 432.5L142 486.5L135 514.5L122.5 550.5L128.5 577L142 593L128.5 634.5V653.5L140 672L143 673" stroke="#8E54BD" stroke-opacity="0.5" stroke-width="5" stroke-miterlimit="16" stroke-linecap="round" stroke-linejoin="round" style="mix-blend-mode:hard-light"/>
<path d="M110 6L114.5 29.5L128 44L142 56.5L136.5 79.5L131.5 90V96L127 103.5V116H135L136.5 133.5L125.5 140.5L119 146.5L135 160.5L146 209.5L142 231L126.5 240V246.5V265.5L135 281V309V324L142 335V359L135 374.5L122.5 390L135 432.5L142 486.5L135 514.5L122.5 550.5L128.5 577L142 593L128.5 634.5V653.5L140 672L143 673" stroke="url(#paint20_radial_1179_4747)" stroke-width="1.3" stroke-linecap="round"/>
<path d="M0 706V6H73V689L33.5 709L0 706Z" fill="#88A9CA"/>
<path d="M73 689L32.9999 709L32 6H73V689Z" fill="#F6F1E2"/>
<g style="mix-blend-mode:multiply">
<path d="M11 698L14 707L33 709L51 700L52.5 691.5L48 677.5V657L55 649.5L48 626.5L43 607L35 599L31 590.5L33 582L41 572.5L52.5 558.5L45 539L33 518.5L31 522.5L26 531.5L20 540.5L17.5 558.5L11 580L14 596.5L15.5 610.5V629L11 644L15.5 659.5L18 672L12.5 685L11 691.5V698Z" fill="url(#paint21_linear_1179_4747)"/>
</g>
<path d="M11 698L14 707L33 709V518.5L31 522.5L26 531.5L20 540.5L17.5 558.5L11 580L14 596.5L15.5 610.5V629L11 644L15.5 659.5L18 672L12.5 685L11 691.5V698Z" fill="url(#paint22_linear_1179_4747)"/>
<mask id="mask6_1179_4747" style="mask-type:alpha" maskUnits="userSpaceOnUse" x="11" y="518" width="22" height="191">
<path d="M11 698L14 707L33 709V518.5L31 522.5L26 531.5L20 540.5L17.5 558.5L11 580L14 596.5L15.5 610.5V629L11 644L15.5 659.5L18 672L12.5 685L11 691.5V698Z" fill="url(#paint23_linear_1179_4747)"/>
</mask>
<g mask="url(#mask6_1179_4747)">
<path d="M33 689.5L0 664.5V644L33 669V689.5Z" fill="#FFADCB"/>
<path d="M33 663L0 639.09V632L33 654.547V663Z" fill="#FFADCB"/>
<path d="M33 558L0 534.09V527L33 549.547V558Z" fill="#FFADCB"/>
</g>
<path d="M14 707L11 698V691.5L12.5 685L18 672L15.5 659.5L11 644L15.5 629V610.5L14 596.5L11 580L17.5 558.5L20 540.5L26 531.5L31 522.5L33 518.5L45 539L52.5 558.5L41 572.5L33 582L31 590.5L35 599L43 607L48 626.5L55 649.5L48 657V677.5L52.5 691.5L51 700" stroke="#FA4588" stroke-opacity="0.5" stroke-width="10" style="mix-blend-mode:hard-light"/>
<path d="M14 707L11 698V691.5L12.5 685L18 672L15.5 659.5L11 644L15.5 629V610.5L14 596.5L11 580L17.5 558.5L20 540.5L26 531.5L31 522.5L33 518.5L45 539L52.5 558.5L41 572.5L33 582L31 590.5L35 599L43 607L48 626.5L55 649.5L48 657V677.5L52.5 691.5L51 700" stroke="#FA4588" stroke-opacity="0.5" stroke-width="10" style="mix-blend-mode:hard-light"/>
<path d="M14 707L11 698V691.5L12.5 685L18 672L15.5 659.5L11 644L15.5 629V610.5L14 596.5L11 580L17.5 558.5L20 540.5L26 531.5L31 522.5L33 518.5L45 539L52.5 558.5L41 572.5L33 582L31 590.5L35 599L43 607L48 626.5L55 649.5L48 657V677.5L52.5 691.5L51 700" stroke="#FA4588" stroke-opacity="0.5" stroke-width="5"/>
<path d="M33.5 206.5V159L18 123L0 109.5V116V182L33.5 206.5Z" fill="url(#paint24_linear_1179_4747)"/>
<g style="mix-blend-mode:multiply">
<path d="M33.5 206.5V159L39.5 169.5L66.5 175L74.5 183.5V197.5H59L43.5 205.75L33.5 206.5Z" fill="url(#paint25_linear_1179_4747)"/>
</g>
<g style="mix-blend-mode:multiply">
<path d="M74 110V52L66.5 77.5L48.5 86L53.5 97L74 110Z" fill="#FA4588"/>
</g>
<path d="M14 707L11 698V691.5L12.5 685L18 672L15.5 659.5L11 644L15.5 629V610.5L14 596.5L11 580L17.5 558.5L20 540.5L26 531.5L31 522.5L33 518.5L45 539L52.5 558.5L41 572.5L33 582L31 590.5L35 599L43 607L48 626.5L55 649.5L48 657V677.5L52.5 691.5L51 700" stroke="url(#paint26_radial_1179_4747)" stroke-width="1.3" stroke-linecap="round"/>
<path d="M33 194L0 169V160L33 185V194Z" fill="#FFADCB"/>
<path d="M33 179L0 155.09V151L33 173.547V179Z" fill="#FFADCB"/>
<path d="M61.2 201L34 179.136V174L68 201.458L61.2 201Z" fill="url(#paint27_linear_1179_4747)"/>
<path d="M73.5 99.5L53.5 83.5L64 78.5L73.5 90V99.5Z" fill="url(#paint28_linear_1179_4747)"/>
<path d="M44 205.5L33 207V185L50 202.5L44 205.5Z" fill="url(#paint29_linear_1179_4747)"/>
<defs>
<radialGradient id="paint0_radial_1179_4747" cx="0" cy="0" r="1" gradientUnits="userSpaceOnUse" gradientTransform="translate(365 256.5) rotate(64.1981) scale(218.26 237.875)">
<stop offset="0.019916" stop-color="#FFFBEF"/>
<stop offset="1" stop-color="#FFFBEF" stop-opacity="0"/>
</radialGradient>
<radialGradient id="paint1_radial_1179_4747" cx="0" cy="0" r="1" gradientUnits="userSpaceOnUse" gradientTransform="translate(293.877 215.158) rotate(66.5368) scale(180.074 182.92)">
<stop offset="0.019916" stop-color="#FFFBEF"/>
<stop offset="1" stop-color="#FFFBEF" stop-opacity="0"/>
</radialGradient>
<linearGradient id="paint2_linear_1179_4747" x1="319" y1="149.5" x2="315.5" y2="220" gradientUnits="userSpaceOnUse">
<stop offset="0.401285" stop-color="#FFF4D1"/>
<stop offset="0.743196" stop-color="#F4E2A6" stop-opacity="0.31"/>
</linearGradient>
<linearGradient id="paint3_linear_1179_4747" x1="317" y1="169.5" x2="313.5" y2="240" gradientUnits="userSpaceOnUse">
<stop offset="0.401285" stop-color="#FFF4D1"/>
<stop offset="0.743196" stop-color="#F4E2A6" stop-opacity="0.31"/>
</linearGradient>
<linearGradient id="paint4_linear_1179_4747" x1="305" y1="504" x2="301.5" y2="574.5" gradientUnits="userSpaceOnUse">
<stop offset="0.401285" stop-color="#FFF4D1"/>
<stop offset="0.743196" stop-color="#F4E2A6" stop-opacity="0.31"/>
</linearGradient>
<linearGradient id="paint5_linear_1179_4747" x1="305" y1="452" x2="301.5" y2="522.5" gradientUnits="userSpaceOnUse">
<stop offset="0.401285" stop-color="#FFF4D1"/>
<stop offset="0.743196" stop-color="#F4E2A6" stop-opacity="0.31"/>
</linearGradient>
<linearGradient id="paint6_linear_1179_4747" x1="207.75" y1="64.5" x2="207.75" y2="284" gradientUnits="userSpaceOnUse">
<stop stop-color="#7ACAEB"/>
<stop offset="1" stop-color="#4EC6F9"/>
</linearGradient>
<linearGradient id="paint7_linear_1179_4747" x1="207.75" y1="64.5" x2="207.75" y2="284" gradientUnits="userSpaceOnUse">
<stop stop-color="#7ACAEB"/>
<stop offset="1" stop-color="#4EC6F9"/>
</linearGradient>
<linearGradient id="paint8_linear_1179_4747" x1="210" y1="163.5" x2="206.5" y2="234" gradientUnits="userSpaceOnUse">
<stop offset="0.401285" stop-color="#A2EBFF"/>
<stop offset="0.743196" stop-color="#A2EBFF" stop-opacity="0"/>
</linearGradient>
<radialGradient id="paint9_radial_1179_4747" cx="0" cy="0" r="1" gradientUnits="userSpaceOnUse" gradientTransform="translate(208.708 292.144) rotate(64.7015) scale(92.279 99.156)">
<stop offset="0.019916" stop-color="#FFFBEF"/>
<stop offset="1" stop-color="#FFFBEF" stop-opacity="0"/>
</radialGradient>
<radialGradient id="paint10_radial_1179_4747" cx="0" cy="0" r="1" gradientUnits="userSpaceOnUse" gradientTransform="translate(199.637 108.602) rotate(72.2179) scale(85.1042 68.832)">
<stop offset="0.019916" stop-color="#FFFBEF"/>
<stop offset="1" stop-color="#FFFBEF" stop-opacity="0"/>
</radialGradient>
<linearGradient id="paint11_linear_1179_4747" x1="200.25" y1="428.5" x2="200.25" y2="621" gradientUnits="userSpaceOnUse">
<stop stop-color="#7ACAEB"/>
<stop offset="1" stop-color="#4EC6F9"/>
</linearGradient>
<linearGradient id="paint12_linear_1179_4747" x1="218.75" y1="331.5" x2="218.75" y2="440" gradientUnits="userSpaceOnUse">
<stop stop-color="#7ACAEB"/>
<stop offset="1" stop-color="#4EC6F9"/>
</linearGradient>
<linearGradient id="paint13_linear_1179_4747" x1="99.1265" y1="522.701" x2="99.0908" y2="575" gradientUnits="userSpaceOnUse">
<stop stop-color="#CF9DF7"/>
<stop offset="1" stop-color="#9A36E9"/>
<stop offset="1" stop-color="#AC43FF"/>
</linearGradient>
<linearGradient id="paint14_linear_1179_4747" x1="99.1265" y1="522.701" x2="99.0908" y2="575" gradientUnits="userSpaceOnUse">
<stop stop-color="#CF9DF7"/>
<stop offset="1" stop-color="#9A36E9"/>
<stop offset="1" stop-color="#AC43FF"/>
</linearGradient>
<linearGradient id="paint15_linear_1179_4747" x1="124.958" y1="411.757" x2="124.805" y2="550.5" gradientUnits="userSpaceOnUse">
<stop stop-color="#B982E6"/>
<stop offset="1" stop-color="#9A36E9"/>
</linearGradient>
<linearGradient id="paint16_linear_1179_4747" x1="124.958" y1="411.757" x2="124.805" y2="550.5" gradientUnits="userSpaceOnUse">
<stop stop-color="#B982E6"/>
<stop offset="1" stop-color="#9A36E9"/>
</linearGradient>
<linearGradient id="paint17_linear_1179_4747" x1="115.278" y1="481.514" x2="136.645" y2="492.203" gradientUnits="userSpaceOnUse">
<stop offset="0.172735" stop-color="#B37AFF"/>
<stop offset="1" stop-color="#763BC5" stop-opacity="0"/>
</linearGradient>
<linearGradient id="paint18_linear_1179_4747" x1="121.278" y1="391.514" x2="142.645" y2="402.203" gradientUnits="userSpaceOnUse">
<stop offset="0.172735" stop-color="#B37AFF"/>
<stop offset="1" stop-color="#763BC5" stop-opacity="0"/>
</linearGradient>
<linearGradient id="paint19_linear_1179_4747" x1="133.223" y1="56.8144" x2="132.998" y2="231" gradientUnits="userSpaceOnUse">
<stop stop-color="#B982E6"/>
<stop offset="1" stop-color="#9A36E9"/>
</linearGradient>
<radialGradient id="paint20_radial_1179_4747" cx="0" cy="0" r="1" gradientUnits="userSpaceOnUse" gradientTransform="translate(110.34 411.718) rotate(78.5606) scale(325.357 175.902)">
<stop offset="0.019916" stop-color="#FFFBEF"/>
<stop offset="1" stop-color="#FFFBEF" stop-opacity="0"/>
</radialGradient>
<linearGradient id="paint21_linear_1179_4747" x1="59.9254" y1="518.5" x2="61" y2="750.5" gradientUnits="userSpaceOnUse">
<stop offset="0.150105" stop-color="#FF659E"/>
<stop offset="1" stop-color="#FF005E"/>
</linearGradient>
<linearGradient id="paint22_linear_1179_4747" x1="59.9254" y1="518.5" x2="61" y2="750.5" gradientUnits="userSpaceOnUse">
<stop offset="0.150105" stop-color="#FF659E"/>
<stop offset="1" stop-color="#FF005E"/>
</linearGradient>
<linearGradient id="paint23_linear_1179_4747" x1="59.9254" y1="518.5" x2="61" y2="750.5" gradientUnits="userSpaceOnUse">
<stop offset="0.150105" stop-color="#FF659E"/>
<stop offset="1" stop-color="#FF005E"/>
</linearGradient>
<linearGradient id="paint24_linear_1179_4747" x1="37.25" y1="109.5" x2="37.25" y2="206.5" gradientUnits="userSpaceOnUse">
<stop stop-color="#FF659E"/>
<stop offset="1" stop-color="#FF005E"/>
</linearGradient>
<linearGradient id="paint25_linear_1179_4747" x1="37.25" y1="109.5" x2="37.25" y2="228" gradientUnits="userSpaceOnUse">
<stop stop-color="#FF659E"/>
<stop offset="1" stop-color="#FF005E"/>
</linearGradient>
<radialGradient id="paint26_radial_1179_4747" cx="0" cy="0" r="1" gradientUnits="userSpaceOnUse" gradientTransform="translate(11.4151 633.159) rotate(48.8101) scale(119.759 165.067)">
<stop offset="0.019916" stop-color="#FFFBEF"/>
<stop offset="1" stop-color="#FFFBEF" stop-opacity="0"/>
</radialGradient>
<linearGradient id="paint27_linear_1179_4747" x1="51" y1="171" x2="51" y2="201" gradientUnits="userSpaceOnUse">
<stop stop-color="#D7126C"/>
<stop offset="1" stop-color="#D7126C" stop-opacity="0"/>
</linearGradient>
<linearGradient id="paint28_linear_1179_4747" x1="74" y1="78" x2="74" y2="108" gradientUnits="userSpaceOnUse">
<stop stop-color="#D7126C"/>
<stop offset="1" stop-color="#D7126C" stop-opacity="0"/>
</linearGradient>
<linearGradient id="paint29_linear_1179_4747" x1="41.5" y1="185" x2="41.5" y2="207" gradientUnits="userSpaceOnUse">
<stop stop-color="#D7126C"/>
<stop offset="1" stop-color="#D7126C" stop-opacity="0"/>
</linearGradient>
</defs>
</svg>
