<svg width="140" height="140" viewBox="0 0 140 140" fill="none" xmlns="http://www.w3.org/2000/svg">
<circle cx="70" cy="70" r="65" fill="#0490BB" stroke="#00617E" stroke-width="10"/>
<path d="M34.637 102.668C35.2316 103.579 36.2752 104.046 36.9972 104.349C40.5891 105.848 42.6278 105.842 47.0751 107.079C49.5506 107.771 50.3454 108.172 51.3041 107.82C53.191 107.122 53.1607 104.434 53.7067 104.477C53.9858 104.501 54.0344 105.205 54.5865 107.031C54.8535 107.911 54.987 108.348 55.0658 108.481C56.0123 110.083 60.2656 109.488 66.0599 110.131C71.7693 110.768 74.3479 112.091 75.4886 111.084C76.0286 110.605 75.6402 110.143 76.2227 106.697C76.4472 105.368 76.5989 104.895 76.8234 104.877C77.2056 104.853 77.6971 106.254 78.0551 107.274C78.1521 107.559 78.3584 108.153 78.5829 109.003C78.9652 110.459 78.8438 110.55 78.9894 110.738C79.7721 111.776 84.7413 110.932 97.3978 107.195C102.968 105.55 105.407 104.713 106.274 102.857C106.833 101.649 106.062 101.376 106.499 98.2697C106.905 95.3755 107.737 94.065 106.735 93.3005C105.613 92.4511 103.21 93.0335 103.131 92.712C103.059 92.4086 105.334 92.2569 106.553 91.0313C107.263 90.3214 107.275 89.5812 107.263 87.7549C107.233 82.4096 107.087 82.1366 106.735 82.0031C105.31 81.4631 103.908 84.4239 99.0785 85.3462C96.0994 85.9165 93.6542 85.7466 93.2963 86.6325C92.9868 87.4152 94.7039 88.21 94.4491 88.5194C93.8605 89.2354 83.8008 85.7163 84.1952 84.8305C84.4258 84.3208 87.8599 85.4129 93.2963 84.9518C98.4596 84.5089 103.295 82.8525 103.131 82.0091C103.004 81.3235 99.3757 81.8211 92.5864 80.3649C90.6994 79.9584 89.4617 79.5943 86.9316 79.2121C85.1599 78.9391 82.7269 78.66 81.2768 78.6357C73.9475 78.5204 69.0814 84.6909 67.0853 83.7626C65.3136 82.9374 69.1603 78.0472 66.9033 76.4393C64.992 75.0802 60.6235 77.4222 50.5821 80.1889C40.4435 82.986 35.7292 83.1316 35.7352 84.3087C35.7413 85.7224 42.5671 86.681 52.8088 88.1857C63.4449 89.7572 64.7554 88.6408 73.5955 89.2657C76.5018 89.472 77.2542 89.3446 78.3342 88.9866C79.2867 88.6711 80.1301 88.1796 81.1494 88.392C81.7561 88.5194 82.4235 88.9077 82.3629 89.2232C82.2597 89.7875 79.9905 89.3749 78.8377 90.285C77.5211 91.3286 79.1836 92.9061 79.1411 96.4191C79.1047 99.1858 78.049 100.163 78.9591 100.86C80.6883 102.177 85.9972 99.8654 86.2217 100.211C86.4219 100.527 82.824 103.354 77.6849 103.833C71.1383 104.44 69.0147 100.593 60.0714 99.6955C53.6218 99.0463 49.0227 100.478 48.9924 100.345C48.9499 100.163 57.3411 97.3595 66.2904 99.198C70.9684 100.157 73.3468 102.335 75.5068 101.382C77.0115 100.721 77.236 99.113 77.6971 95.9034C77.9216 94.3198 78.4252 90.7947 76.605 90.1637C76.247 90.0423 76.0589 90.1151 74.8818 90.1819C73.8382 90.2365 73.4863 90.2061 70.5619 90.1273C64.8586 89.9816 63.008 90.018 58.6941 89.8421C53.6279 89.6358 51.0917 89.5327 49.2108 89.2718C40.037 87.9915 36.797 84.7152 34.6431 85.9893C32.5135 87.2513 35.1952 90.9524 34.3155 96.2735C34.0788 97.7175 34.273 99.1798 34.2123 100.636C34.1881 101.243 34.1577 101.934 34.6431 102.675L34.637 102.668Z" fill="#DDEFF5"/>
<path opacity="0.5" d="M61.9101 30.8344C60.1021 30.9679 56.9774 31.5201 56.8924 32.5151C56.8439 33.1036 57.8571 33.7711 58.7733 33.9591C59.9746 34.214 60.7755 33.5951 62.3227 32.958C65.3807 31.696 67.389 31.9933 67.389 31.6111C67.389 31.1621 64.6465 30.6342 61.9101 30.8344Z" fill="#E97784"/>
<path d="M65.5815 58.9498C64.1496 57.8516 66.4309 53.7865 68.4695 46.3236C70.6659 38.2904 69.7801 36.6037 72.0068 34.6743C75.1618 31.944 80.4768 32.2655 84.0808 34.1768C87.4604 35.9666 90.8459 39.9529 89.9298 42.8167C89.2988 44.7886 87.1873 44.4609 83.2921 46.6695C76.3207 50.6193 75.4288 55.9889 68.1419 58.7435C67.0194 59.1682 66.1397 59.3806 65.5754 58.9498H65.5815Z" fill="#F16C7F"/>
<path opacity="0.75" d="M68.1482 58.7417C67.9843 58.8266 66.7223 59.4516 65.5817 58.948C63.0516 57.8255 64.5684 52.6318 62.5055 44.5319C61.8624 42.0079 61.0858 39.405 59.0896 36.5534C56.2804 32.5428 53.4227 31.6024 53.7624 30.2918C54.2114 28.5748 60.6064 27.331 66.7648 28.7204C71.3942 29.764 72.2193 31.4628 76.7213 31.7662C81.2294 32.0696 83.5956 30.5831 84.257 31.6085C85.0093 32.7855 82.0727 35.0668 77.0368 42.2385C73.1659 47.7537 71.2182 50.5447 70.7996 52.2739C70.1807 54.8404 70.1443 57.7224 68.1482 58.7477V58.7417Z" fill="#E34A5C"/>
<path opacity="0.95" d="M67.3289 59.2872C69.325 58.723 68.4817 53.6325 69.8043 45.4355C71.2969 36.1827 72.5711 34.4171 71.3272 32.3118C69.0277 28.4226 61.122 29.2599 56.3894 31.3046C55.8676 31.5291 49.4666 34.3625 49.776 37.5843C50.0308 40.2661 54.5874 39.5137 58.0397 43.7427C61.8864 48.4509 59.684 53.59 64.5621 57.9221C65.4358 58.6987 66.4066 59.5421 67.3289 59.2812V59.2872Z" fill="#E04153"/>
<path opacity="0.5" d="M57.6149 36.875C56.7291 34.9334 56.6563 34.5997 56.1709 34.3752C54.3871 33.5258 50.6375 35.8253 51.0804 37.688C51.3534 38.8529 53.2161 39.5082 53.8228 39.7084C54.7451 40.2302 56.0677 41.0736 57.4329 42.3416C59.4412 44.2104 60.3634 45.9275 60.7335 45.7758C61.1643 45.6059 60.412 43.2821 60.1389 42.4448C59.5079 40.5093 59.1378 40.1999 57.621 36.881L57.6149 36.875Z" fill="#E97784"/>
<path opacity="0.5" d="M58.6891 32.8269C58.6467 33.1909 58.8469 33.5974 59.1503 33.7673C59.848 34.1556 60.7278 33.0332 62.4388 32.3718C64.174 31.6983 65.7637 31.8925 66.4068 31.9714C68.9066 32.2747 70.4234 33.6581 70.5266 33.4943C70.6236 33.3426 69.3434 32.0988 67.5171 31.3646C66.4978 30.9581 65.5756 30.8125 64.9143 30.764C62.2082 30.5577 58.8408 31.5102 58.6952 32.8329L58.6891 32.8269Z" fill="#E97784"/>
<path opacity="0.5" d="M73.4143 34.8302C73.4386 34.3933 75.7624 34.2235 76.4359 34.1689C78.2682 34.0354 80.6284 33.8594 80.9318 34.6785C81.1077 35.1518 80.5859 35.9284 80.0217 36.0619C79.6091 36.1529 79.3846 35.8556 78.8446 35.619C77.437 34.994 76.6118 35.9709 74.6642 35.4673C74.5489 35.4369 73.4022 35.1396 73.4204 34.8302H73.4143Z" fill="#E97784"/>
<path d="M84.4263 36.5266C86.1494 36.4477 87.4175 38.638 87.8726 39.8394C87.9818 40.1245 88.5339 41.5989 88.0546 41.9447C87.642 42.2481 86.5256 41.6717 85.9128 40.8344C85.3425 40.0578 85.6519 39.6573 85.1301 38.9778C84.2867 37.8796 82.8184 38.0738 82.7638 37.552C82.7274 37.1454 83.5647 36.5569 84.4202 36.5205L84.4263 36.5266Z" fill="#E97784"/>
<path opacity="0.5" d="M83.1458 32.0978C83.3036 32.383 82.9759 32.9655 82.6422 32.9958C82.4541 33.014 82.3753 32.8441 82.0901 32.6924C81.7018 32.4922 81.3256 32.5407 81.0101 32.565C80.1667 32.6257 80.1364 32.4437 78.6863 32.4437C77.036 32.4437 76.6901 32.6803 74.9792 32.6257C74.2086 32.6014 73.5291 32.5225 73.3106 32.0978C73.2439 31.9643 73.1954 31.752 73.2924 31.6488C73.4987 31.4122 74.2571 31.8187 74.7425 32.0129C75.8529 32.4558 76.951 32.292 79.1596 31.9765C79.1596 31.9765 80.3488 31.8066 82.5512 31.8794C82.715 31.8794 83.0366 31.8976 83.1458 32.0978Z" fill="#E97784"/>
<path opacity="0.5" d="M69.9072 30.1925C69.9254 30.1197 67.9475 29.513 66.3214 29.1247C59.1923 27.4319 54.9208 29.1611 54.7145 29.6283C54.6721 29.7253 54.6357 29.8406 54.6357 29.8406C54.5689 30.053 54.4294 30.4898 54.5265 30.6536C54.7631 31.048 56.6015 30.3685 57.0808 30.1865C58.3246 29.7193 58.5855 29.4826 59.2469 29.246C60.3451 28.8456 61.2127 28.9062 62.9115 29.0215C64.2221 29.1125 65.7086 29.4038 68.6695 29.9802C69.349 30.1136 69.889 30.2229 69.9011 30.1865L69.9072 30.1925Z" fill="#E97784"/>
<path d="M64.0642 71.0104C64.8711 71.1621 65.9996 71.5019 67.0614 72.321C67.6014 72.7336 68.1839 73.1947 68.463 74.032C68.6571 74.6205 68.6207 75.1544 68.5661 75.4821C68.2446 75.567 67.8016 75.658 67.2617 75.6884C66.661 75.7187 65.2655 75.7126 63.9549 74.9906C63.6941 74.845 62.9538 74.0805 61.4795 72.5455C60.7939 71.8356 60.175 71.1742 59.1253 70.6039C58.7916 70.4219 58.5004 70.2945 58.3002 70.2156C58.5671 70.07 58.9433 69.8698 59.4105 69.6695C60.9455 69.0021 63.9731 67.6916 66.7217 68.9415C68.2264 69.6271 70.0769 71.2774 70.0951 73.3888C70.1012 74.2625 69.7917 74.9663 69.5491 75.4032C69.4762 74.7843 69.2214 73.498 68.1657 72.5515C67.8138 72.236 67.4801 72.054 67.1706 71.8902C66.5578 71.5626 65.5264 71.1257 64.0702 71.0165L64.0642 71.0104Z" fill="#3AD052"/>
<path opacity="0.5" d="M63.9611 70.0931C63.3665 69.9718 62.4564 69.7412 61.2672 69.8929C60.5694 69.9839 60.0052 70.166 59.6229 70.3176C59.8899 70.0264 60.2903 69.6502 60.8485 69.3165C62.5171 68.3215 65.1806 68.006 67.1646 69.4743C68.5177 70.4754 68.9181 72.0347 69.0516 72.7871C68.3478 72.156 66.479 70.6149 63.9611 70.0992V70.0931Z" fill="#6AED7F"/>
<path opacity="0.5" d="M68.3415 74.6934C67.929 74.0381 66.8854 72.5637 64.9195 71.5687C62.9416 70.5676 61.1214 70.604 60.3508 70.6646C61.8859 71.2046 62.8324 71.9388 63.4088 72.5031C64.2521 73.3282 64.4584 73.8986 65.2533 74.3839C65.8175 74.7298 66.758 75.0331 68.3415 74.6873V74.6934Z" fill="#6AED7F"/>
<path d="M78.2922 67.5976C77.6127 67.543 76.4296 67.5369 75.0947 68.0648C74.755 68.1983 73.2927 68.805 72.0368 70.334C71.5696 70.9043 71.2662 71.4382 71.0721 71.8265C71.3208 72.0814 71.7577 72.4636 72.4008 72.6638C73.0864 72.8701 73.7903 72.8094 74.67 72.4939C76.3203 71.9054 77.3215 70.8861 78.3772 69.9396C79.3115 69.0962 80.6706 67.9798 82.4787 66.7846C81.7567 66.2506 78.99 64.3273 75.7379 64.3394C75.0523 64.3394 73.5597 64.3637 71.9943 65.207C71.6181 65.4073 71.1874 65.6439 70.7444 66.105C69.5856 67.3124 69.4764 68.8657 69.446 69.3632C69.3611 70.5706 69.6766 71.5292 69.9132 72.0874C70.1256 71.5596 71.0478 69.4178 73.4262 68.1983C75.6651 67.0455 77.728 67.458 78.2922 67.5976Z" fill="#3AD052"/>
<path opacity="0.5" d="M75.7374 66.5242C77.2906 66.1784 78.771 66.233 79.0137 66.2451C80.0755 66.2876 80.9735 66.4575 81.653 66.6334C81.1859 66.3179 80.4517 65.875 79.487 65.517C78.498 65.1469 74.4693 63.624 71.7875 65.7779C70.2039 67.046 69.8156 69.0118 69.7064 69.9523C70.5255 69.1514 72.7037 67.1977 75.7374 66.5242Z" fill="#6AED7F"/>
<path opacity="0.5" d="M71.7456 71.2863C72.1703 70.6856 72.9772 69.7027 74.3121 68.92C75.9078 67.9796 77.4185 67.8157 78.177 67.7854C77.8554 68.1555 77.3518 68.744 76.7572 69.5025C75.7136 70.8373 75.5377 71.2135 75.0341 71.4986C74.5608 71.7717 73.5961 72.069 71.7395 71.2863H71.7456Z" fill="#6AED7F"/>
<path d="M66.6425 83.5399C65.2834 83.2122 69.6034 78.7224 69.2879 74.4813C69.2636 74.1961 69.1241 73.6561 68.8632 72.5822C68.4627 70.9137 67.8681 68.4564 66.7699 65.7807C65.7628 63.3295 65.0225 60.8419 63.7545 58.421C63.2205 57.4078 62.7109 56.5341 63.6756 55.9759C65.3926 54.9808 71.0049 55.4359 71.5389 56.4612C71.8483 57.0558 70.2951 57.4927 69.0088 58.4331C65.5868 60.9147 67.3524 64.5005 70.3982 70.7074C70.6045 71.126 71.2173 72.3395 71.5389 74.0262C71.5995 74.3357 71.6845 74.8393 71.727 75.5431C71.9454 78.8498 72.0667 80.7307 69.6762 82.3264C68.8328 82.8846 67.2614 83.6915 66.6304 83.5399H66.6425Z" fill="#3AD052"/>
<path opacity="0.5" d="M70.4831 57.1951C70.2101 57.5592 69.0876 56.6187 67.4312 56.4307C67.2006 56.4064 65.1317 56.1758 64.5431 57.2073C64.0274 58.1052 64.8708 59.5432 64.6888 59.6282C64.5795 59.6767 64.258 59.1731 64.1002 58.7484C63.9485 58.3358 63.9303 57.9657 63.9364 57.7351C63.9364 57.7351 63.9303 57.1769 64.1548 56.7462C64.9861 55.1383 69.9795 55.2657 70.4892 56.7826C70.5074 56.8432 70.5862 57.0677 70.4892 57.2012L70.4831 57.1951Z" fill="#6AED7F"/>
</svg>
