<svg width="140" height="140" viewBox="0 0 140 140" fill="none" xmlns="http://www.w3.org/2000/svg">
<circle cx="70" cy="70" r="65" fill="#4E23AA" stroke="#2A057A" stroke-width="10"/>
<path d="M53.8041 47.6768C55.1954 46.5844 56.5989 46.2407 67.5703 46.5721C80.7141 46.971 82.1419 47.5663 83.4478 48.5912C85.2235 49.9843 86.5842 53.8262 89.2203 61.4607C91.7038 68.6288 92.9303 72.262 92.4788 74.5634C91.4475 79.7984 87.048 82.9528 82.5752 86.1625C78.3343 89.2004 74.8134 91.7289 69.9928 91.6614C65.4407 91.5939 62.1761 89.0899 55.6469 84.0759C50.387 80.0377 47.757 78.0186 46.7624 74.7843C46.0424 72.4461 46.5488 71.2617 49.2337 60.8163C51.9247 50.3403 52.0589 49.0392 53.798 47.6645L53.8041 47.6768Z" fill="url(#paint0_radial_2148_3929)" stroke="#F1F2F2" stroke-width="2" stroke-miterlimit="10"/>
<path d="M45.463 38.8191C47.1044 38.8069 48.4896 41.1942 49.5391 42.9985C50.7778 45.1281 51.1684 47.0367 51.2538 47.497C52.1752 52.333 49.6001 54.5915 47.8306 62.1033C46.5003 67.7555 47.3302 69.1425 45.3714 73.7269C43.8154 77.3662 42.2716 78.8698 41.1671 79.7167C39.0558 81.3308 35.1139 83.1597 33.1674 81.6806C31.7822 80.625 32.2826 78.6182 32.7524 71.7508C33.442 61.6062 32.6243 61.9499 33.5457 58.6665C34.3024 55.9846 34.5769 56.7149 39.5501 47.3436C43.9069 39.126 44.8101 38.8314 45.463 38.8253V38.8191Z" fill="#322D41" stroke="#E6E7E8" stroke-width="2" stroke-miterlimit="10"/>
<path d="M45.8048 76.9411C48.386 76.4317 49.6918 80.7399 54.5979 84.8395C61.1514 90.3199 66.4968 89.0496 67.8881 93.4437C68.5837 95.6469 67.3572 96.3282 68.0528 100.851C68.6813 104.969 69.975 106.233 69.2305 107.148C68.0711 108.572 64.7944 105.724 56.7336 104.27C55.1654 103.987 51.7299 103.404 47.8734 101.158C47.7453 101.084 47.6355 101.011 47.5378 100.949C43.8156 98.5927 41.7165 95.5426 39.4709 92.2286C34.4978 84.8948 34.0096 84.2013 34.4246 83.4096C35.2911 81.7526 38.3055 83.1518 41.8263 80.7092C44.3648 78.954 44.2183 77.2418 45.811 76.9288L45.8048 76.9411Z" fill="#322D41" stroke="#E6E7E8" stroke-width="2" stroke-miterlimit="10"/>
<path d="M94.6817 77.0288C91.4904 76.3475 90.0259 82.4171 83.7347 86.8236C76.7845 91.6842 70.9143 89.6957 68.9556 94.2433C68.1623 96.0844 68.3759 98.214 68.6627 101.013C68.9922 104.241 69.1814 106.112 70.4689 107.076C71.9883 108.211 73.2575 106.745 81.6539 104.431C84.7537 103.578 88.2319 102.719 91.6856 100.159C91.9602 99.957 92.2165 99.7544 92.4728 99.5335C93.4064 98.7234 94.2119 97.9133 94.9075 97.1462C96.7747 95.0718 98.1477 92.7827 98.1477 92.7827C101.815 86.8911 107.118 83.8778 106.3 82.2944C105.708 81.1468 102.956 82.7854 99.5023 81.1099C96.4879 79.6493 96.5734 77.4338 94.6817 77.0349V77.0288Z" fill="#322D41" stroke="#E6E7E8" stroke-width="2" stroke-miterlimit="10"/>
<path d="M95.4322 40.0641C94.1569 39.9413 92.8022 40.8619 90.0868 42.7092C87.4447 44.5012 86.1449 45.434 85.4127 46.7412C82.8376 51.3256 90.3797 55.4927 91.9541 67.0366C92.4971 71.0135 92.1188 74.2784 94.6817 77.0339C96.2072 78.6726 98.1903 79.5011 99.7097 80.1393C102.62 81.3606 105.409 82.5266 107.124 81.4036C108.369 80.5935 108.387 78.961 108.137 69.4976C107.929 61.5746 107.868 60.7645 107.459 59.3039C106.91 57.3155 106.495 56.8552 102.633 49.9939C98.2208 42.1446 97.3604 40.2482 95.42 40.0641H95.4322Z" fill="#322D41" stroke="#E6E7E8" stroke-width="2" stroke-miterlimit="10"/>
<path d="M69.3645 32.4797C67.2959 32.492 67.1738 32.7559 59.1863 34.462C50.8265 36.2479 47.2873 36.7389 47.1531 38.1443C47.0554 39.1446 48.8067 39.3901 50.558 42.0597C50.9729 42.698 51.2414 43.2442 51.4306 43.7229C52.1079 45.4536 52.3459 46.2759 52.5534 46.681C53.609 48.7983 60.6264 46.3005 67.784 46.1286C76.516 45.92 79.6342 49.3138 84.052 46.546C85.425 45.6868 85.9254 44.8521 88.8726 42.9619C92.7474 40.4764 94.5231 40.2125 94.5048 39.3533C94.4804 38.0461 90.3859 37.5797 81.4892 35.2292C73.4772 33.1119 72.5741 32.4736 69.3645 32.4859V32.4797Z" fill="#322D41" stroke="#E6E7E8" stroke-width="2" stroke-miterlimit="10"/>
<path d="M34.8395 71.8535C34.7724 72.2524 34.6748 72.9397 34.6626 73.6455C34.6626 73.8235 34.6504 74.5968 34.8334 75.1246C34.9006 75.3209 34.9738 75.4314 35.0287 75.4928C35.0958 75.3148 35.2057 75.0141 35.2911 74.6152C35.3887 74.1917 35.4314 73.7867 35.4498 73.3202C35.4742 72.4426 35.3704 71.9946 35.2789 71.5037C35.1996 71.0679 35.1019 70.4297 35.0287 69.5398C34.8701 70.0308 34.2843 71.8842 34.0158 73.7683C33.9609 74.1672 33.8388 75.0264 33.8693 75.8242C33.8754 76.0144 33.8815 76.2354 33.9303 76.4318C34.0585 76.9473 34.3392 76.8061 34.4307 76.7632C34.6504 76.6527 34.8518 76.3458 34.9738 76.1372C34.8945 76.0819 34.5711 75.8242 34.5405 74.609C34.51 73.4614 34.7602 72.2094 34.8334 71.8658L34.8395 71.8535Z" fill="#36B24A" stroke="white" stroke-width="0.25" stroke-miterlimit="10"/>
<path opacity="0.75" d="M37.0849 73.0662C38.5311 71.7774 39.483 70.5316 40.8498 68.7212C42.296 66.8064 43.5713 65.0941 44.4439 63.0259C45.2372 61.148 44.9382 60.7491 44.8589 60.6632C44.6697 60.4606 44.3524 60.5281 44.2181 60.5527C43.2113 60.7675 41.6919 62.2772 41.0878 63.5108C40.8498 64.0017 40.9597 64.0324 40.6057 64.9407C40.3006 65.7263 39.9772 66.3277 39.7393 66.7696C37.1337 71.6301 36.7798 72.428 35.7058 73.6431C35.1688 74.2507 34.6746 74.711 34.6929 74.803C34.7234 74.9442 36.0048 74.0298 37.0849 73.0662Z" fill="#E34A5C" stroke="white" stroke-width="0.25" stroke-miterlimit="10"/>
<path opacity="0.95" d="M41.0147 63.199C41.753 61.7629 42.949 59.4492 43.4189 56.8901C43.7911 54.8648 43.3822 54.5089 43.2724 54.4291C43.0222 54.2511 42.7049 54.3616 42.5646 54.4107C41.5516 54.7728 40.3129 56.528 39.9773 57.872C39.8431 58.4059 39.9712 58.4182 39.8187 59.394C39.6722 60.3514 39.3549 61.3763 39.3549 61.3763C38.8057 63.1131 38.1101 65.0831 37.7379 66.3167C37.6646 66.5621 36.4931 70.4285 36.9324 70.5328C37.2131 70.6003 38.4884 68.1332 41.0147 63.199Z" fill="#E04153" stroke="white" stroke-width="0.25" stroke-miterlimit="10"/>
<path d="M35.828 71.8952C36.0111 71.2569 36.0599 70.723 36.1209 69.9436C36.1881 69.1212 36.243 68.3909 36.1087 67.6299C35.9867 66.9425 35.828 66.8812 35.7853 66.8689C35.6938 66.8443 35.6145 66.9241 35.5779 66.9548C35.3216 67.2003 35.1568 67.9183 35.2117 68.3847C35.2361 68.5689 35.2728 68.5566 35.3399 68.888C35.3948 69.1703 35.4131 69.4035 35.4253 69.5753C35.5718 71.4656 35.6145 71.7601 35.529 72.3063C35.4863 72.5825 35.4253 72.8035 35.4497 72.828C35.4863 72.8648 35.6877 72.3616 35.828 71.8829V71.8952Z" fill="#F16C7F" stroke="white" stroke-width="0.25" stroke-miterlimit="10"/>
<path opacity="0.95" d="M47.6657 43.6198C47.623 43.1779 47.5619 42.4721 47.2751 41.8155C47.0494 41.2938 46.8907 41.2754 46.8541 41.2754C46.7626 41.2754 46.7015 41.3429 46.6771 41.3797C46.4819 41.6129 46.4453 42.2021 46.5734 42.558C46.6222 42.6992 46.6588 42.6869 46.7748 42.9324C46.8907 43.1718 46.97 43.4541 46.97 43.4541C47.1043 43.9328 47.2385 44.4912 47.3423 44.8288C47.3606 44.8963 47.6779 45.958 47.7999 45.915C47.8792 45.8905 47.8121 45.1356 47.6718 43.6259L47.6657 43.6198Z" fill="#E04153" stroke="white" stroke-width="0.25" stroke-miterlimit="10"/>
<path d="M38.1283 62.1103C37.9269 59.8457 38.3296 58.1028 38.9398 55.5866C39.5806 52.9231 40.1786 50.5542 41.8017 48.3694C43.2784 46.3809 44.212 46.43 44.4439 46.4546C44.9625 46.5159 45.3104 46.8719 45.4568 47.0315C46.5247 48.173 46.5247 50.6585 45.6704 52.0393C45.3287 52.5917 45.1395 52.4996 44.3829 53.4325C43.736 54.2364 43.3516 54.9422 43.077 55.4638C40.0138 61.1652 39.4097 62.0244 39.2083 63.8655C39.1046 64.7922 39.1534 65.5778 39.0009 65.6146C38.7629 65.676 38.2869 63.8103 38.1344 62.1226L38.1283 62.1103Z" fill="#F16C7F" stroke="white" stroke-width="0.25" stroke-miterlimit="10"/>
<path opacity="0.75" d="M42.4118 50.0645C42.2775 49.1439 42.3385 48.4013 42.4301 47.3273C42.5277 46.192 42.6253 45.1732 43.0281 44.1667C43.3942 43.2523 43.6688 43.2093 43.742 43.2032C43.8946 43.1909 44.0105 43.3198 44.0593 43.375C44.4132 43.774 44.4926 44.7989 44.2912 45.4248C44.2119 45.6765 44.1508 45.6458 43.9617 46.0815C43.7969 46.4559 43.7115 46.7689 43.6444 47.0021C42.9365 49.549 42.784 49.9417 42.7901 50.715C42.7901 51.1017 42.8328 51.4208 42.7901 51.4453C42.723 51.4822 42.5216 50.7518 42.4179 50.0645H42.4118Z" fill="#E34A5C" stroke="white" stroke-width="0.25" stroke-miterlimit="10"/>
<path d="M38.1283 72.8274C37.9574 73.0422 37.6584 73.4042 37.3411 73.7541C37.2618 73.8461 36.914 74.2205 36.6455 74.4291C36.5479 74.5028 36.4868 74.5335 36.4502 74.5519C36.5234 74.4475 36.6455 74.2634 36.8163 74.0425C36.9933 73.8093 37.1703 73.5945 37.3838 73.3613C37.7805 72.9255 38.0001 72.7353 38.232 72.5205C38.4395 72.3302 38.7446 72.0479 39.1595 71.6306C38.9582 71.9191 38.2015 72.9931 37.3777 73.9995C37.2069 74.2143 36.8286 74.6685 36.4624 75.049C36.377 75.141 36.2733 75.2454 36.1756 75.3251C35.9254 75.5399 35.9499 75.3865 35.956 75.3374C35.9743 75.2208 36.0841 75.0122 36.1634 74.871C36.2 74.871 36.3587 74.8342 36.9201 74.2512C37.4449 73.6988 37.9818 73.0115 38.1283 72.8212V72.8274Z" fill="#36B24A" stroke="white" stroke-width="0.25" stroke-miterlimit="10"/>
<path d="M76.6991 94.0664C75.1736 95.5148 75.1187 99.3259 76.7296 100.903C76.992 101.161 77.3765 101.431 78.3955 101.695C78.7433 101.787 85.7179 103.34 88.4638 99.0129C88.7689 98.5343 88.6591 98.5588 89.1473 97.5216C91.6735 92.2008 94.5842 91.7037 94.8771 88.5615C95.054 86.659 94.1509 85.0572 93.9069 85.094C93.6567 85.1247 93.8397 86.8554 92.9488 88.1135C92.8756 88.2178 92.6437 88.5308 92.3203 88.899C92.0701 89.1813 91.765 89.5004 91.3928 89.8257C90.7277 90.4149 89.1107 91.6852 88.4455 91.5748C88.3723 91.5625 88.3174 91.538 88.2747 91.495C87.9574 91.2004 88.3723 90.0896 88.6225 89.6048C89.5805 87.7452 91.8505 87.7575 91.8017 87.2972C91.7589 86.8922 89.9466 86.4442 88.5493 87.2359C88.1282 87.4752 87.7682 87.8127 87.457 88.1135C86.92 88.6351 86.6149 89.1138 86.0047 89.7643C86.0047 89.7643 85.541 90.2614 84.8514 90.8567C84.5585 91.1084 83.0025 92.4094 80.1224 93.2318C77.6633 93.9376 77.3948 93.3914 76.693 94.0603L76.6991 94.0664Z" fill="#FF8FA3" stroke="#F1F2F2" stroke-width="0.25" stroke-miterlimit="10"/>
<path d="M91.3136 87.1623C91.283 87.058 90.1359 87.0642 88.8117 87.7515C86.7614 88.8132 85.7119 90.7771 83.9362 92.0782C83.3687 92.4955 82.9721 92.7226 82.9721 92.7226C82.1056 93.2258 81.6296 93.2749 80.5801 94.1648C80.574 94.1648 80.4703 94.2568 80.3604 94.355C79.0668 95.5088 78.2735 96.2207 77.8342 97.1106C77.7976 97.1904 76.9372 98.9824 77.5535 100.216C78.4505 102.008 81.9652 101.658 84.0704 100.836C86.6699 99.817 88.2137 97.6506 88.7446 96.8835C89.4341 95.8832 89.1534 95.9752 89.9589 94.6987C92.0885 91.3417 93.9374 90.8876 94.3035 88.5493C94.4561 87.5858 94.3035 86.6039 94.1388 86.5793C93.9679 86.5548 93.8459 87.5122 93.2723 88.5064C92.9306 89.0955 92.4973 89.5865 91.3502 90.4457C89.3365 91.9554 87.75 93.1521 87.2252 92.6489C86.7614 92.2009 87.2069 90.4948 88.049 89.341C89.3121 87.6042 91.3319 87.3035 91.2952 87.1685L91.3136 87.1623Z" fill="#FCA4B2" stroke="#F1F2F2" stroke-width="0.25" stroke-miterlimit="10"/>
<path opacity="0.95" d="M88.5008 99.011C87.7137 99.9438 87.0485 100.742 85.9258 100.895C85.1569 101.006 84.4308 100.748 82.9846 100.238C80.8733 99.4897 79.8542 98.741 79.6895 98.876C79.5186 99.0171 80.3302 100.091 81.6299 100.785C83.308 101.674 85.8037 101.938 87.3719 101.141C88.6229 100.508 88.1347 99.7781 89.8799 98.4893C91.0576 97.6179 92.1437 97.311 92.0278 97.133C91.918 96.9673 90.7891 97.0226 89.9226 97.4644C89.2148 97.8327 89.1842 98.2009 88.5069 99.0049L88.5008 99.011Z" fill="#EC6073" stroke="#F1F2F2" stroke-width="0.25" stroke-miterlimit="10"/>
<path opacity="0.95" d="M76.6565 93.06C76.8701 93.1214 75.7168 95.116 76.443 97.3437C77.0532 99.2278 78.6092 100.038 78.4505 100.216C78.2736 100.425 75.9365 99.6513 75.247 97.7733C74.4354 95.5456 76.4003 92.9925 76.6565 93.06Z" fill="#EC6073" stroke="#F1F2F2" stroke-width="0.25" stroke-miterlimit="10"/>
<path d="M86.6089 94.9033C86.8164 95.0751 86.7432 95.1979 86.9751 95.3697C87.1764 95.5108 87.3107 95.4863 87.2985 95.5845C87.2741 95.7993 86.5906 96.2841 86.1452 96.3025C85.7119 96.3148 85.6875 95.8913 85.6692 95.5906C85.657 95.3574 85.6875 94.8542 85.9499 94.7192C86.2123 94.5841 86.5784 94.8849 86.6028 94.9094L86.6089 94.9033Z" fill="#F9B9C2" stroke="#F1F2F2" stroke-width="0.25" stroke-miterlimit="10"/>
<path opacity="0.75" d="M85.4371 93.085C85.5225 93.1034 85.8215 93.1771 85.8093 93.4348C85.8093 93.4655 85.791 93.6926 85.5896 93.8153C85.4127 93.9197 85.1808 93.9012 85.0832 93.8153C84.9794 93.7294 85.0832 93.6312 85.016 93.3857C84.9672 93.2077 84.8879 93.1586 84.9428 93.1034C85.0221 93.0236 85.2784 93.0359 85.4371 93.0727V93.085Z" fill="#F9B9C2" stroke="#F1F2F2" stroke-width="0.25" stroke-miterlimit="10"/>
<path d="M92.5584 90.506C92.3143 90.819 92.0458 91.1504 91.7468 91.4941C91.4234 91.8684 91.1061 92.2244 90.7949 92.5496" stroke="#F1F2F2" stroke-width="0.25" stroke-miterlimit="10"/>
<path d="M90.3432 93.1348C90.2578 93.2207 90.1662 93.3066 90.0808 93.3987" stroke="#F1F2F2" stroke-width="0.25" stroke-miterlimit="10"/>
<path d="M95.0967 67.2698C95.3798 67.2698 95.6092 67.039 95.6092 66.7543C95.6092 66.4696 95.3798 66.2388 95.0967 66.2388C94.8136 66.2388 94.5841 66.4696 94.5841 66.7543C94.5841 67.039 94.8136 67.2698 95.0967 67.2698Z" fill="#A51478" stroke="white" stroke-width="0.25" stroke-miterlimit="10"/>
<path d="M97.0859 64.6771C97.6319 64.6771 98.0745 64.232 98.0745 63.6829C98.0745 63.1338 97.6319 62.6887 97.0859 62.6887C96.54 62.6887 96.0974 63.1338 96.0974 63.6829C96.0974 64.232 96.54 64.6771 97.0859 64.6771Z" fill="#A51478" stroke="white" stroke-width="0.25" stroke-miterlimit="10"/>
<path opacity="0.75" d="M102.248 78.717C103.926 78.717 105.287 77.3487 105.287 75.6608C105.287 73.9728 103.926 72.6045 102.248 72.6045C100.57 72.6045 99.2094 73.9728 99.2094 75.6608C99.2094 77.3487 100.57 78.717 102.248 78.717Z" fill="#A51478" stroke="white" stroke-width="0.25" stroke-miterlimit="10"/>
<path d="M96.0974 55.5541C96.8995 55.5541 97.5497 54.9001 97.5497 54.0934C97.5497 53.2868 96.8995 52.6328 96.0974 52.6328C95.2953 52.6328 94.6451 53.2868 94.6451 54.0934C94.6451 54.9001 95.2953 55.5541 96.0974 55.5541Z" fill="#0C7291" stroke="white" stroke-width="0.25" stroke-miterlimit="10"/>
<path d="M102.937 57.2305C103.318 57.2305 103.627 56.92 103.627 56.537C103.627 56.154 103.318 55.8435 102.937 55.8435C102.557 55.8435 102.248 56.154 102.248 56.537C102.248 56.92 102.557 57.2305 102.937 57.2305Z" fill="#0C7291" stroke="white" stroke-width="0.25" stroke-miterlimit="10"/>
<path opacity="0.75" d="M101.876 62.8838C102.843 62.8838 103.627 62.0952 103.627 61.1224C103.627 60.1497 102.843 59.3611 101.876 59.3611C100.909 59.3611 100.125 60.1497 100.125 61.1224C100.125 62.0952 100.909 62.8838 101.876 62.8838Z" fill="#A51478" stroke="white" stroke-width="0.25" stroke-miterlimit="10"/>
<path opacity="0.75" d="M100.168 61.8265C100.784 61.8265 101.284 61.3237 101.284 60.7034C101.284 60.0831 100.784 59.5803 100.168 59.5803C99.551 59.5803 99.051 60.0831 99.051 60.7034C99.051 61.3237 99.551 61.8265 100.168 61.8265Z" fill="#33479F" stroke="white" stroke-width="0.25" stroke-miterlimit="10"/>
<path opacity="0.75" d="M93.37 59.8284C94.1687 59.8284 94.8162 59.1772 94.8162 58.3739C94.8162 57.5706 94.1687 56.9194 93.37 56.9194C92.5713 56.9194 91.9238 57.5706 91.9238 58.3739C91.9238 59.1772 92.5713 59.8284 93.37 59.8284Z" fill="#A51478" stroke="white" stroke-width="0.25" stroke-miterlimit="10"/>
<path d="M101.15 52.6417C101.595 52.6417 101.956 52.279 101.956 51.8316C101.956 51.3842 101.595 51.0215 101.15 51.0215C100.705 51.0215 100.345 51.3842 100.345 51.8316C100.345 52.279 100.705 52.6417 101.15 52.6417Z" fill="#A51478" stroke="white" stroke-width="0.25" stroke-miterlimit="10"/>
<path opacity="0.75" d="M90.6851 54.096C91.2041 54.096 91.6248 53.6729 91.6248 53.1509C91.6248 52.6289 91.2041 52.2058 90.6851 52.2058C90.1661 52.2058 89.7454 52.6289 89.7454 53.1509C89.7454 53.6729 90.1661 54.096 90.6851 54.096Z" fill="#33479F" stroke="white" stroke-width="0.25" stroke-miterlimit="10"/>
<path opacity="0.75" d="M96.8967 53.5491C97.3989 53.5491 97.806 53.1397 97.806 52.6346C97.806 52.1296 97.3989 51.7202 96.8967 51.7202C96.3946 51.7202 95.9875 52.1296 95.9875 52.6346C95.9875 53.1397 96.3946 53.5491 96.8967 53.5491Z" fill="#A51478" stroke="white" stroke-width="0.17" stroke-miterlimit="10"/>
<path d="M93.9435 49.6695C95.0623 49.6695 95.9693 48.7573 95.9693 47.632C95.9693 46.5067 95.0623 45.5945 93.9435 45.5945C92.8246 45.5945 91.9176 46.5067 91.9176 47.632C91.9176 48.7573 92.8246 49.6695 93.9435 49.6695Z" fill="#A51478" stroke="white" stroke-width="0.25" stroke-miterlimit="10"/>
<path opacity="0.75" d="M99.6061 75.6612C100.738 75.6612 101.656 74.738 101.656 73.5992C101.656 72.4603 100.738 71.5371 99.6061 71.5371C98.4737 71.5371 97.5558 72.4603 97.5558 73.5992C97.5558 74.738 98.4737 75.6612 99.6061 75.6612Z" fill="#33479F" stroke="white" stroke-width="0.25" stroke-miterlimit="10"/>
<path d="M95.5481 70.7124C95.9053 70.7124 96.1949 70.4212 96.1949 70.0619C96.1949 69.7026 95.9053 69.4114 95.5481 69.4114C95.1908 69.4114 94.9012 69.7026 94.9012 70.0619C94.9012 70.4212 95.1908 70.7124 95.5481 70.7124Z" fill="#0C7291" stroke="white" stroke-width="0.25" stroke-miterlimit="10"/>
<path d="M104.799 66.5275C105.581 66.5275 106.215 65.8901 106.215 65.1037C106.215 64.3174 105.581 63.6799 104.799 63.6799C104.017 63.6799 103.383 64.3174 103.383 65.1037C103.383 65.8901 104.017 66.5275 104.799 66.5275Z" fill="#0C7291" stroke="white" stroke-width="0.25" stroke-miterlimit="10"/>
<path d="M62.8293 56.4952C64.1413 53.2917 67.4059 51.4137 70.6033 51.9108C74.3927 52.5 77.1508 56.2743 76.5284 60.1407C75.9731 63.5774 72.8916 66.2041 69.2609 66.1857L69.3646 76.6065" stroke="#E6E7E8" stroke-width="8" stroke-linecap="round" stroke-linejoin="round"/>
<path d="M69.7246 86.6113C71.4501 86.6113 72.8488 85.2045 72.8488 83.4691C72.8488 81.7337 71.4501 80.3269 69.7246 80.3269C67.9991 80.3269 66.6003 81.7337 66.6003 83.4691C66.6003 85.2045 67.9991 86.6113 69.7246 86.6113Z" fill="#E6E7E8"/>
<path d="M61.6637 93.1455C61.6515 93.1824 62.0238 93.3665 62.7804 93.6856C62.3899 94.7841 62.2923 95.1524 62.335 95.1708C62.3777 95.1892 62.5729 94.8578 63.0794 93.8083C63.952 94.0907 64.312 94.1827 64.3242 94.1459C64.3364 94.1091 64.0069 93.9372 63.1526 93.5567C63.4638 92.5502 63.5432 92.1943 63.5005 92.1759C63.4638 92.1636 63.2991 92.4827 62.8903 93.4585C62.0909 93.2131 61.682 93.1087 61.6637 93.1455Z" fill="#D2F1FB" stroke="#DDF4FC" stroke-width="0.5" stroke-miterlimit="10"/>
<path d="M58.7532 101.369C58.7898 101.442 59.5342 101.135 60.9804 100.448C62.0483 102.449 62.4571 103.068 62.5425 103.032C62.6219 102.995 62.4022 102.283 61.5418 100.172C63.0856 99.2696 63.6836 98.8707 63.647 98.7971C63.6104 98.7296 62.927 98.9873 61.2794 99.736C60.2299 97.9747 59.821 97.3978 59.7539 97.4346C59.6868 97.4714 59.9309 98.1343 60.8035 99.9877C59.4 100.835 58.7227 101.289 58.7593 101.362L58.7532 101.369Z" fill="#D2F1FB" stroke="#DDF4FC" stroke-width="0.5" stroke-miterlimit="10"/>
<path d="M56.3798 96.665C56.8801 95.8365 56.6482 94.6582 55.8733 93.4124L56.3798 96.665Z" fill="#4CC9F0"/>
<path d="M56.3798 96.665C56.8801 95.8365 56.6482 94.6582 55.8733 93.4124" stroke="white" stroke-width="0.25" stroke-miterlimit="10"/>
<path d="M55.4708 97.7626C55.8919 97.5908 56.2275 97.3269 56.441 96.9709L55.4708 97.7626Z" fill="#4CC9F0"/>
<path d="M55.4708 97.7626C55.8919 97.5908 56.2275 97.3269 56.441 96.9709" stroke="white" stroke-width="0.25" stroke-miterlimit="10"/>
<path d="M50.5892 97.2662C52.5358 98.0456 54.3298 98.2298 55.4709 97.7633L50.5892 97.2662Z" fill="#4CC9F0"/>
<path d="M50.5892 97.2662C52.5358 98.0456 54.3298 98.2298 55.4709 97.7633" stroke="white" stroke-width="0.25" stroke-miterlimit="10"/>
<path d="M46.0002 94.3889C46.6349 94.9658 47.3671 95.5243 48.1787 96.0337C48.9902 96.543 49.8018 96.9542 50.5951 97.2672" fill="#4CC9F0"/>
<path d="M46.0002 94.3889C46.6349 94.9658 47.3671 95.5243 48.1787 96.0337C48.9902 96.543 49.8018 96.9542 50.5951 97.2672" stroke="white" stroke-width="0.25" stroke-miterlimit="10"/>
<path d="M43.6145 91.2075C44.0172 92.2201 44.8471 93.3371 45.9943 94.3865L43.6145 91.2075Z" fill="#4CC9F0"/>
<path d="M43.6145 91.2075C44.0172 92.2201 44.8471 93.3371 45.9943 94.3865" stroke="white" stroke-width="0.25" stroke-miterlimit="10"/>
<path d="M44.4564 88.1957C44.0963 88.3675 43.8095 88.613 43.6143 88.9321C43.2482 89.5397 43.2726 90.3314 43.6143 91.209" fill="#4CC9F0"/>
<path d="M44.4564 88.1957C44.0963 88.3675 43.8095 88.613 43.6143 88.9321C43.2482 89.5397 43.2726 90.3314 43.6143 91.209" stroke="white" stroke-width="0.25" stroke-miterlimit="10"/>
<path d="M48.6606 88.3495C46.952 87.7972 45.4326 87.7358 44.4563 88.1961L48.6606 88.3495Z" fill="#4CC9F0"/>
<path d="M48.6606 88.3495C46.952 87.7972 45.4326 87.7358 44.4563 88.1961" stroke="white" stroke-width="0.25" stroke-miterlimit="10"/>
<path d="M51.8763 89.8786C50.7901 89.1973 49.6918 88.688 48.6605 88.3566L51.8763 89.8786Z" fill="#4CC9F0"/>
<path d="M51.8763 89.8786C50.7901 89.1973 49.6918 88.688 48.6605 88.3566" stroke="white" stroke-width="0.25" stroke-miterlimit="10"/>
<path d="M55.8731 93.4123C55.6717 93.0809 55.4277 92.7495 55.1531 92.4181L55.8731 93.4123Z" fill="#4CC9F0"/>
<path d="M55.8731 93.4123C55.6717 93.0809 55.4277 92.7495 55.1531 92.4181" stroke="white" stroke-width="0.25" stroke-miterlimit="10"/>
<path d="M53.3953 93.1081C54.036 92.39 54.0299 91.1872 53.4929 89.8186L53.3953 93.1081Z" fill="#A5E3F7"/>
<path d="M53.3953 93.1081C54.036 92.39 54.0299 91.1872 53.4929 89.8186" stroke="white" stroke-width="0.25" stroke-miterlimit="10"/>
<path d="M52.2974 94.0106C52.7428 93.9247 53.1211 93.7283 53.3957 93.4153L52.2974 94.0106Z" fill="#A5E3F7"/>
<path d="M52.2974 94.0106C52.7428 93.9247 53.1211 93.7283 53.3957 93.4153" stroke="white" stroke-width="0.25" stroke-miterlimit="10"/>
<path d="M47.5984 92.5935C49.368 93.7289 51.101 94.2505 52.3031 94.0112L47.5984 92.5935Z" fill="#A5E3F7"/>
<path d="M47.5984 92.5935C49.368 93.7289 51.101 94.2505 52.3031 94.0112" stroke="white" stroke-width="0.25" stroke-miterlimit="10"/>
<path d="M43.614 88.8857C44.1327 89.5731 44.749 90.2605 45.4507 90.9171C46.1525 91.5738 46.8786 92.1323 47.5986 92.5925" fill="#A5E3F7"/>
<path d="M43.614 88.8857C44.1327 89.5731 44.749 90.2605 45.4507 90.9171C46.1525 91.5738 46.8786 92.1323 47.5986 92.5925" stroke="white" stroke-width="0.25" stroke-miterlimit="10"/>
<path d="M41.8567 85.3154C42.0642 86.3894 42.6744 87.6414 43.6141 88.8934L41.8567 85.3154Z" fill="#A5E3F7"/>
<path d="M41.8567 85.3154C42.0642 86.3894 42.6744 87.6414 43.6141 88.8934" stroke="white" stroke-width="0.25" stroke-miterlimit="10"/>
<path d="M43.2354 82.517C42.8449 82.6152 42.5215 82.7993 42.2713 83.0816C41.8015 83.6094 41.6794 84.3949 41.8564 85.3155" fill="#A5E3F7"/>
<path d="M43.2354 82.517C42.8449 82.6152 42.5215 82.7993 42.2713 83.0816C41.8015 83.6094 41.6794 84.3949 41.8564 85.3155" stroke="white" stroke-width="0.25" stroke-miterlimit="10"/>
<path d="M47.3363 83.4663C45.762 82.601 44.2731 82.2451 43.2296 82.5151L47.3363 83.4663Z" fill="#A5E3F7"/>
<path d="M47.3363 83.4663C45.762 82.601 44.2731 82.2451 43.2296 82.5151" stroke="white" stroke-width="0.25" stroke-miterlimit="10"/>
<path d="M50.2161 85.5756C49.2764 84.698 48.2879 83.9861 47.3359 83.4645L50.2161 85.5756Z" fill="#A5E3F7"/>
<path d="M50.2161 85.5756C49.2764 84.698 48.2879 83.9861 47.3359 83.4645" stroke="white" stroke-width="0.25" stroke-miterlimit="10"/>
<path d="M53.493 89.8126C53.3527 89.4505 53.1757 89.0762 52.9683 88.6957L53.493 89.8126Z" fill="#A5E3F7"/>
<path d="M53.493 89.8126C53.3527 89.4505 53.1757 89.0762 52.9683 88.6957" stroke="white" stroke-width="0.25" stroke-miterlimit="10"/>
<g opacity="0.9">
<path d="M61.0536 98.0619C61.3038 97.1229 60.7668 96.0612 59.6807 95.0792L61.0536 98.0619Z" fill="#12ABDA"/>
<path d="M61.0536 98.0619C61.3038 97.1229 60.7668 96.0612 59.6807 95.0792" stroke="white" stroke-width="0.25" stroke-miterlimit="10"/>
<path d="M60.4797 99.3709C60.8398 99.0825 61.0838 98.7388 61.1937 98.3337L60.4797 99.3709Z" fill="#12ABDA"/>
<path d="M60.4797 99.3709C60.8398 99.0825 61.0838 98.7388 61.1937 98.3337" stroke="white" stroke-width="0.25" stroke-miterlimit="10"/>
<path d="M55.6594 100.283C57.7402 100.473 59.5159 100.142 60.48 99.3748L55.6594 100.283Z" fill="#12ABDA"/>
<path d="M55.6594 100.283C57.7402 100.473 59.5159 100.142 60.48 99.3748" stroke="white" stroke-width="0.25" stroke-miterlimit="10"/>
<path d="M50.4607 98.8279C51.2295 99.2022 52.0838 99.5336 52.9991 99.7853C53.9144 100.037 54.8114 100.209 55.6596 100.282" fill="#12ABDA"/>
<path d="M50.4607 98.8279C51.2295 99.2022 52.0838 99.5336 52.9991 99.7853C53.9144 100.037 54.8114 100.209 55.6596 100.282" stroke="white" stroke-width="0.25" stroke-miterlimit="10"/>
<path d="M47.306 96.4448C47.965 97.304 49.0695 98.1387 50.4608 98.8199L47.306 96.4448Z" fill="#12ABDA"/>
<path d="M47.306 96.4448C47.965 97.304 49.0695 98.1387 50.4608 98.8199" stroke="white" stroke-width="0.25" stroke-miterlimit="10"/>
<path d="M47.2874 93.3219C46.9884 93.5919 46.7749 93.9049 46.6772 94.267C46.4942 94.9544 46.7322 95.7092 47.2997 96.4518" fill="#12ABDA"/>
<path d="M47.2874 93.3219C46.9884 93.5919 46.7749 93.9049 46.6772 94.267C46.4942 94.9544 46.7322 95.7092 47.2997 96.4518" stroke="white" stroke-width="0.25" stroke-miterlimit="10"/>
<path d="M51.3697 92.2725C49.5818 92.2296 48.099 92.5978 47.2875 93.322L51.3697 92.2725Z" fill="#12ABDA"/>
<path d="M51.3697 92.2725C49.5818 92.2296 48.099 92.5978 47.2875 93.322" stroke="white" stroke-width="0.25" stroke-miterlimit="10"/>
<path d="M54.8785 92.8184C53.652 92.4747 52.456 92.2968 51.3699 92.2722L54.8785 92.8184Z" fill="#12ABDA"/>
<path d="M54.8785 92.8184C53.652 92.4747 52.456 92.2968 51.3699 92.2722" stroke="white" stroke-width="0.25" stroke-miterlimit="10"/>
<path d="M59.6809 95.0823C59.3941 94.8246 59.0707 94.573 58.7168 94.3336L59.6809 95.0823Z" fill="#12ABDA"/>
<path d="M59.6809 95.0823C59.3941 94.8246 59.0707 94.573 58.7168 94.3336" stroke="white" stroke-width="0.25" stroke-miterlimit="10"/>
</g>
<path d="M50.8692 91.4142C50.857 91.4633 51.3635 91.6167 52.3764 91.8622C52.1018 93.3229 52.0591 93.8077 52.114 93.82C52.169 93.8322 52.352 93.3842 52.7731 91.9543C53.9263 92.1323 54.3962 92.1752 54.4023 92.1261C54.4145 92.077 53.963 91.9236 52.8097 91.629C52.9927 90.2973 53.0232 89.837 52.9744 89.8247C52.9256 89.8124 52.7792 90.2543 52.468 91.5554C51.4123 91.4081 50.8753 91.359 50.8692 91.4081V91.4142Z" fill="#D2F1FB" stroke="#DDF4FC" stroke-width="0.5" stroke-miterlimit="10"/>
<path d="M39.5073 84.6762C39.4707 84.7805 40.4836 85.2408 42.5522 86.057C41.5698 89.052 41.3379 90.0584 41.4478 90.1014C41.5637 90.1444 42.0702 89.2483 43.3577 86.3639C45.7314 87.0697 46.7077 87.2906 46.7382 87.1924C46.7748 87.0881 45.8656 86.6462 43.5347 85.6888C44.3035 82.9455 44.4866 81.9759 44.3828 81.9452C44.2791 81.9084 43.852 82.7921 42.8268 85.4433C40.6423 84.8296 39.5378 84.5719 39.5012 84.6823L39.5073 84.6762Z" fill="#D2F1FB" stroke="#DDF4FC" stroke-width="0.5" stroke-miterlimit="10"/>
<path opacity="0.75" d="M58.6128 44.2368C58.0453 44.1632 57.6304 43.979 57.0263 43.7152C56.3917 43.4328 55.8242 43.1751 55.3421 42.6964C54.9028 42.2607 54.9455 42.0581 54.9577 42.009C54.9882 41.8986 55.092 41.8372 55.1347 41.8127C55.452 41.6347 56.0683 41.7697 56.3795 42.0275C56.5076 42.1318 56.4771 42.1686 56.6785 42.3834C56.8554 42.5675 57.0141 42.6903 57.1361 42.7823C58.442 43.7643 58.6311 43.9422 59.0827 44.0834C59.3085 44.157 59.5037 44.1877 59.5098 44.2245C59.5159 44.2798 59.04 44.2859 58.6189 44.2307L58.6128 44.2368Z" fill="#E34A5C" stroke="white" stroke-width="0.23" stroke-miterlimit="10"/>
<path d="M72.0008 36.0891C72.3816 36.0891 72.6903 35.7786 72.6903 35.3956C72.6903 35.0126 72.3816 34.7021 72.0008 34.7021C71.62 34.7021 71.3113 35.0126 71.3113 35.3956C71.3113 35.7786 71.62 36.0891 72.0008 36.0891Z" fill="#A51478" stroke="white" stroke-width="0.23" stroke-miterlimit="10"/>
<path d="M62.622 37.4387C63.0064 36.9539 63.3847 36.6225 63.94 36.1561C64.5258 35.659 65.0445 35.2233 65.6913 34.9103C66.2771 34.628 66.4113 34.7139 66.4419 34.7446C66.509 34.7998 66.4968 34.9041 66.4907 34.9532C66.4419 35.2846 65.9903 35.8001 65.6059 36.0088C65.4533 36.0947 65.4411 36.0579 65.1543 36.1868C64.9102 36.2972 64.7211 36.4139 64.5868 36.4936C63.0796 37.4081 62.8356 37.5369 62.4633 37.899C62.2803 38.0831 62.1399 38.2488 62.1094 38.2427C62.0606 38.2366 62.3291 37.807 62.6159 37.4449L62.622 37.4387Z" fill="#F16C7F" stroke="white" stroke-width="0.23" stroke-miterlimit="10"/>
<path d="M66.8445 44.1654C66.5211 43.7971 66.8567 43.1466 66.9726 42.9134C67.2045 42.4654 67.5523 42.2138 67.7415 42.0972C67.7293 42.3181 67.7232 42.6372 67.7842 42.9993C67.9001 43.6989 68.1381 43.9444 67.9978 44.1654C67.8208 44.4477 67.1313 44.4968 66.8384 44.1654H66.8445Z" fill="#FCA4B2" stroke="white" stroke-width="0.23" stroke-miterlimit="10"/>
<path d="M58.2466 39.2317C60.8827 40.1216 63.5187 41.0114 66.1548 41.9013" stroke="#E6E7E8" stroke-linecap="round" stroke-linejoin="round"/>
<path d="M56.5318 38.1918C57.0171 38.1918 57.4105 37.7961 57.4105 37.3081C57.4105 36.82 57.0171 36.4243 56.5318 36.4243C56.0465 36.4243 55.6531 36.82 55.6531 37.3081C55.6531 37.7961 56.0465 38.1918 56.5318 38.1918Z" fill="#0C7291" stroke="white" stroke-width="0.23" stroke-miterlimit="10"/>
<path opacity="0.75" d="M60.7545 45.5278C62.1396 45.5278 63.2624 44.3986 63.2624 43.0055C63.2624 41.6124 62.1396 40.4832 60.7545 40.4832C59.3694 40.4832 58.2466 41.6124 58.2466 43.0055C58.2466 44.3986 59.3694 45.5278 60.7545 45.5278Z" fill="#A51478" stroke="white" stroke-width="0.23" stroke-miterlimit="10"/>
<path d="M53.56 38.2174C53.9444 38.2481 54.4936 38.2911 55.0611 38.647C55.4516 38.8925 56.2876 39.5615 56.135 40.1568C55.9825 40.752 54.9391 40.9607 54.2922 40.93C52.9925 40.8809 52.1626 39.8376 51.9796 39.5921C52.5349 39.6781 53.0962 39.764 53.6515 39.8499C53.5417 39.6474 53.322 39.3037 52.9254 39.0337C52.2359 38.5611 51.5097 38.6225 51.2961 38.647C51.8026 38.4138 52.602 38.1438 53.5661 38.2174H53.56Z" fill="#FF8FA3" stroke="white" stroke-width="0.23" stroke-miterlimit="10"/>
<path opacity="0.95" d="M85.0347 41.9353C85.2116 41.5671 85.5045 40.9656 85.5961 40.309C85.6693 39.7873 85.5534 39.6891 85.5228 39.6707C85.4557 39.6216 85.3703 39.6523 85.3276 39.6646C85.0591 39.7566 84.7479 40.2108 84.6747 40.5545C84.6441 40.6956 84.6747 40.6956 84.6503 40.9472C84.6258 41.1927 84.5526 41.4628 84.5526 41.4628C84.4306 41.9108 84.2658 42.4201 84.1804 42.7393C84.1621 42.8006 83.8997 43.801 84.0217 43.8317C84.1011 43.8501 84.4123 43.2118 85.0286 41.9414L85.0347 41.9353Z" fill="#E04153" stroke="white" stroke-width="0.23" stroke-miterlimit="10"/>
<path opacity="0.75" d="M79.6283 45.6675C81.5897 45.6675 83.1797 44.0684 83.1797 42.0957C83.1797 40.1231 81.5897 38.5239 79.6283 38.5239C77.6669 38.5239 76.0769 40.1231 76.0769 42.0957C76.0769 44.0684 77.6669 45.6675 79.6283 45.6675Z" fill="#33479F" stroke="white" stroke-width="0.23" stroke-miterlimit="10"/>
<path d="M69.8892 37.458C70.6276 36.9302 72.4948 35.7519 75.1003 35.7089C77.6998 35.6721 80.9644 36.7706 81.001 37.9305C81.0315 38.9002 78.8165 40.2933 69.1265 42.1897C73.227 42.1529 77.3276 42.116 81.4343 42.0792" stroke="#E6E7E8" stroke-linecap="round" stroke-linejoin="round"/>
<path opacity="0.95" d="M86.3833 37.8731C86.6213 38.1922 86.8471 38.6218 86.7678 39.0821C86.6579 39.7572 85.9745 39.9536 86.0416 40.377C86.1087 40.8005 86.8898 41.1687 87.5488 41.0398C88.3299 40.8925 88.8974 40.0579 88.8302 39.3398C88.7448 38.4561 87.6831 37.6337 86.3894 37.8731H86.3833Z" fill="#EC6073" stroke="white" stroke-width="0.23" stroke-miterlimit="10"/>
<path d="M67.3205 37.3832C67.3449 37.4507 68.0649 37.2727 69.4745 36.8431C70.1823 38.8131 70.4752 39.433 70.5545 39.4084C70.6339 39.3839 70.5301 38.7026 70.0237 36.6651C71.5553 36.0514 72.1533 35.763 72.1289 35.6955C72.1044 35.628 71.4515 35.7691 69.8406 36.2355C69.1206 34.4865 68.8216 33.9034 68.7544 33.928C68.6873 33.9525 68.8216 34.5908 69.3707 36.3951C67.9795 36.9781 67.296 37.3034 67.3205 37.3709V37.3832Z" fill="#D2F1FB" stroke="#DDF4FC" stroke-width="0.5" stroke-miterlimit="10"/>
<path d="M81.6175 39.2303C81.5809 39.2671 81.9226 39.6476 82.6365 40.3657C81.6785 41.4335 81.3978 41.814 81.4405 41.8508C81.4832 41.8938 81.8555 41.6054 82.9172 40.6418C83.7776 41.3721 84.1437 41.6483 84.1803 41.6115C84.2109 41.5747 83.918 41.2249 83.1186 40.3963C83.9363 39.3899 84.1925 39.0216 84.1559 38.9909C84.1193 38.9603 83.7776 39.2487 82.8684 40.1631C82.069 39.5065 81.6541 39.1935 81.6175 39.2303Z" fill="#D2F1FB" stroke="#DDF4FC" stroke-width="0.5" stroke-miterlimit="10"/>
<path d="M66.3375 39.0327C63.7502 40.0515 61.1629 41.0764 58.5696 42.0951" stroke="#E6E7E8" stroke-linecap="round" stroke-linejoin="round"/>
<path d="M57.978 42.6601C57.978 42.6601 58.2465 42.5865 58.7469 42.3656C59.0947 43.059 59.2289 43.2738 59.2595 43.2616C59.29 43.2493 59.2167 43.0038 58.9421 42.2796C59.4791 41.9851 59.6866 41.85 59.6744 41.8316C59.6622 41.8071 59.4303 41.893 58.8567 42.1323C58.515 41.5186 58.3808 41.3222 58.3564 41.3345C58.3319 41.3468 58.4113 41.5739 58.692 42.2121C58.2038 42.4883 57.9719 42.6417 57.9841 42.6663L57.978 42.6601Z" fill="#D2F1FB" stroke="white" stroke-width="0.25" stroke-miterlimit="10"/>
<defs>
<radialGradient id="paint0_radial_2148_3929" cx="0" cy="0" r="1" gradientUnits="userSpaceOnUse" gradientTransform="translate(69.5168 69.0584) scale(22.7667 22.8975)">
<stop stop-color="#58595B"/>
<stop offset="0.43" stop-color="#494851"/>
<stop offset="1" stop-color="#322D41"/>
</radialGradient>
</defs>
</svg>
