<svg width="140" height="140" viewBox="0 0 140 140" fill="none" xmlns="http://www.w3.org/2000/svg">
<circle cx="70" cy="70" r="65" fill="#D7316E" stroke="#8E1E4D" stroke-width="10"/>
<path d="M97.5747 120.02C98.2118 120.074 98.952 119.225 100.426 117.526C102.265 115.402 103.181 114.341 103.333 113.315C103.678 110.961 101.245 110.106 98.145 104.675C96.7799 102.285 95.9001 100.076 95.8273 99.9003C94.3469 96.1628 93.9525 93.2869 93.3215 93.3293C92.7997 93.3597 93.0667 95.3012 91.4649 97.1457C91.1615 97.4976 90.3788 98.3652 89.1047 98.8567C87.6121 99.4331 86.6838 98.9416 86.429 99.3967C86.0407 100.082 87.9215 101.605 89.5658 103.626C90.9552 105.331 91.653 106.817 93.0606 109.79C96.0639 116.137 95.9911 119.886 97.5747 120.026V120.02Z" fill="#6F4E37"/>
<path d="M86.8232 98.2252C87.3511 98.5225 88.2005 98.7349 89.0863 98.5893C89.9297 98.4497 90.4818 98.0129 90.7731 97.7823C92.3748 96.5142 92.7146 94.4756 92.7814 94.0084C93.109 91.6664 91.8348 91.09 90.7367 87.395C89.5171 83.2874 90.1239 80.727 88.4493 79.9867C88.067 79.8169 88.0974 79.9807 86.8596 79.8654C84.2567 79.6227 83.8381 78.8886 81.5628 78.7369C80.8044 78.6883 79.8882 78.6762 78.8628 79.0645C78.153 79.3375 77.5462 79.5681 77.3157 80.0171C76.6665 81.2973 79.9428 82.978 82.3212 87.0916C84.105 90.1738 84.8513 93.3228 84.8513 93.3228C85.3913 95.5859 85.4399 97.4425 86.8293 98.2313L86.8232 98.2252Z" fill="#6F4E37"/>
<path d="M89.1714 79.7254C88.959 79.9499 88.2795 79.8467 86.9204 79.6344C84.5177 79.2582 84.2143 78.6818 82.5762 78.609C82.0362 78.5847 80.6832 78.524 79.2149 79.1611C78.0256 79.6768 77.6191 80.2714 77.0488 80.1137C76.1994 79.8831 76.0295 78.2449 75.8232 77.262C74.9192 72.9906 70.8783 70.1025 68.3482 68.3066C64.6835 65.7037 61.7287 65.4064 61.8561 64.5812C61.9836 63.75 64.9505 64.1201 67.9053 63.2889C76.2115 60.9469 78.9175 50.6203 80.762 51.2634C82.2607 51.7913 79.1117 58.1316 81.3384 65.7583C83.5955 73.5003 90.2392 78.5908 89.1774 79.7314L89.1714 79.7254Z" fill="#6F4E37"/>
<path opacity="0.5" d="M85.786 77.6864C85.7132 77.7774 85.6222 77.7471 82.6613 77.3345C81.4842 77.1707 80.6894 77.0736 79.8096 77.4376C79.4395 77.5893 79.118 77.8017 78.8631 77.9655C77.6921 78.73 77.5586 79.2336 77.2128 79.2396C76.424 79.2518 76.3391 76.5579 75.065 74.0035C73.2994 70.4662 69.7682 68.2699 68.8641 67.6631C67.0075 66.4193 65.7334 65.9825 65.7273 65.3879C65.7273 64.7872 67.1835 64.6234 68.1482 64.3989C73.7241 63.1005 75.7081 57.6884 77.4312 58.3497C78.8692 58.9019 77.2189 62.5726 78.76 67.3719C80.7258 73.4938 86.417 76.8976 85.7799 77.6925L85.786 77.6864Z" fill="#A87653"/>
<path opacity="0.5" d="M87.4059 96.327C87.7942 96.594 88.1946 96.6365 88.4919 96.6668C89.754 96.7942 91.0766 96.0722 91.5317 95.2713C92.3083 93.8819 90.3182 92.5531 88.6133 88.5062C87.1086 84.9386 87.0418 82.1598 85.1367 80.6672C84.1174 79.8724 82.9464 79.5144 82.9464 79.5144C81.9392 79.211 81.114 79.2292 80.8107 79.2474C79.9066 79.296 78.681 79.3627 78.408 79.9452C78.044 80.7279 79.7004 81.735 82.3518 85.0478C83.268 86.1885 84.087 87.2199 84.9001 88.7732C85.5493 90.0049 85.9861 90.8482 86.2774 92.086C86.7688 94.1671 86.4412 95.6536 87.4059 96.327Z" fill="#A87653"/>
<path opacity="0.5" d="M99.6738 115.814C99.1823 117.076 97.7868 118.253 96.81 117.992C95.5237 117.646 96.0515 115.116 94.4862 110.184C93.303 106.483 92.6417 104.383 90.6637 102.593C89.7051 101.732 88.164 100.682 88.4067 100.124C88.5159 99.8691 88.9163 99.9237 90.0449 99.5415C90.4938 99.3898 91.137 99.1653 91.6588 98.8498C93.0118 98.0186 93.2606 96.6473 93.5457 96.7323C93.8673 96.8172 93.4547 98.419 93.6428 100.191C93.7459 101.137 94.0068 101.962 95.3599 104.492C97.4228 108.382 98.6605 109.911 99.5706 112.956C99.8436 113.866 100.062 114.819 99.6677 115.82L99.6738 115.814Z" fill="#A87653"/>
<path d="M62.0562 62.1864C71.5761 62.1864 79.2936 54.469 79.2936 44.949C79.2936 35.4291 71.5761 27.7117 62.0562 27.7117C52.5363 27.7117 44.8188 35.4291 44.8188 44.949C44.8188 54.469 52.5363 62.1864 62.0562 62.1864Z" fill="#4CC9F0"/>
<g opacity="0.5">
<path d="M59.4108 31.7111C61.7043 32.6515 62.3777 35.5942 63.4638 40.3146C64.6955 45.6781 66.8615 55.1189 62.3595 58.1223C59.071 60.3126 54.1322 57.8128 53.5255 57.4973C47.9071 54.5668 44.9462 47.0069 47.0091 40.8121C48.9871 34.8903 55.5823 30.1457 59.4108 31.7111Z" fill="#A5E3F7"/>
</g>
<path d="M63.8704 22.0686C63.8704 22.1232 64.4104 22.1475 65.4844 22.1536C65.5632 23.6704 65.636 24.1619 65.6967 24.1619C65.7574 24.1619 65.8302 23.6704 65.903 22.1475C67.0983 22.0443 67.5776 21.9715 67.5776 21.923C67.5776 21.8684 67.0861 21.832 65.8666 21.8138C65.7331 20.4486 65.6482 19.9814 65.5936 19.9814C65.539 19.9814 65.5026 20.4547 65.5026 21.8259C64.4104 21.9351 63.8644 22.014 63.8644 22.0686H63.8704Z" fill="#D2F1FB" stroke="#DDF4FC" stroke-miterlimit="10"/>
<path d="M50.941 36.9528C50.8136 36.886 49.3635 38.6516 48.6901 41.0179C47.6829 44.5491 48.8964 47.7466 48.9449 47.7405C48.9813 47.7405 48.7022 46.4724 48.9874 44.5976C49.0359 44.2943 49.042 44.3064 49.2361 43.4024C49.7761 40.848 49.7336 40.575 50.0249 39.5193C50.4921 37.8386 51.026 36.9952 50.941 36.9528Z" fill="#D2F1FB" stroke="#D2F1FB" stroke-width="0.98" stroke-miterlimit="10" stroke-linecap="round"/>
<path opacity="0.9" d="M72.7349 35.5981C73.6753 36.5568 76.6544 39.8332 76.9881 44.863C77.5038 52.702 71.0967 57.568 70.6113 57.926" stroke="#12ABDA" stroke-width="1.15" stroke-miterlimit="10" stroke-linecap="round"/>
<path d="M29.8689 33.2257C29.8811 33.4198 31.8287 33.523 35.7239 33.523C36.0151 39.02 36.276 40.8038 36.4884 40.8038C36.7068 40.8038 36.9617 39.0139 37.2408 33.5048C41.5728 33.1407 43.302 32.8738 43.296 32.6857C43.2899 32.4976 41.5182 32.352 37.1012 32.2852C36.6097 27.3343 36.3064 25.6415 36.1122 25.6536C35.9181 25.6658 35.7846 27.3707 35.7846 32.3338C31.8287 32.7282 29.8507 33.0255 29.8628 33.2196L29.8689 33.2257Z" fill="#D2F1FB" stroke="#DDF4FC" stroke-miterlimit="10"/>
<path d="M87.0354 44.9427C87.0354 45.0398 88.0001 45.0884 89.9114 45.0884C90.057 47.7883 90.1844 48.6681 90.2875 48.6681C90.3967 48.6681 90.5181 47.7883 90.6576 45.0823C92.7873 44.9003 93.6367 44.7729 93.6367 44.6819C93.6367 44.5908 92.763 44.518 90.5909 44.4877C90.3482 42.0547 90.1965 41.2235 90.1055 41.2295C90.0084 41.2295 89.9417 42.0729 89.9478 44.512C88.0001 44.7061 87.0294 44.8517 87.0354 44.9488V44.9427Z" fill="#D2F1FB" stroke="#DDF4FC" stroke-miterlimit="10"/>
<path d="M42.3673 63.1758C42.3673 63.2729 43.332 63.3215 45.2433 63.3215C45.3889 66.0214 45.5163 66.9012 45.6194 66.9012C45.7287 66.9012 45.85 66.0214 45.9896 63.3154C48.1192 63.1334 48.9686 63.0059 48.9686 62.9149C48.9686 62.8239 48.0949 62.7511 45.9228 62.7208C45.6801 60.2878 45.5284 59.4565 45.4374 59.4565C45.3403 59.4565 45.2736 60.2999 45.2797 62.739C43.332 62.9331 42.3613 63.0788 42.3673 63.1758Z" fill="#D2F1FB" stroke="#DDF4FC" stroke-miterlimit="10"/>
</svg>
