<svg width="140" height="140" viewBox="0 0 140 140" fill="none" xmlns="http://www.w3.org/2000/svg">
<circle cx="70" cy="70" r="65" fill="#7937AE" stroke="#4E1E74" stroke-width="10"/>
<path d="M77.657 75.1987C77.5228 75.1987 77.2482 75.1987 76.9614 75.3635C76.5952 75.5771 76.4549 75.9127 76.4061 76.053C76.2901 76.352 76.2962 76.6205 76.3146 76.7731" stroke="#C6CDEC" stroke-width="0.29" stroke-miterlimit="10" stroke-linecap="round"/>
<path d="M74.8682 78.3533C74.8255 78.3533 74.7278 78.3594 74.6241 78.4326C74.4716 78.5424 74.4532 78.7133 74.4471 78.7438" stroke="#C6CDEC" stroke-width="0.29" stroke-miterlimit="10" stroke-linecap="round"/>
<path d="M72.1592 75.2832C72.0982 75.2832 71.8541 75.3137 71.6711 75.5151C71.4087 75.808 71.5063 76.1924 71.5185 76.2229" stroke="#C6CDEC" stroke-width="0.29" stroke-miterlimit="10" stroke-linecap="round"/>
<path d="M79.6893 83.475C88.1345 87.8746 111.859 90.712 111.853 92.7196C111.847 93.9339 103.225 92.1338 94.566 97.1618C88.6837 100.579 86.8104 104.808 79.6893 106.693C76.6688 107.493 74.2463 107.462 72.7208 107.438C71.1587 107.419 67.5219 107.395 59.6441 105.339C54.8418 104.082 51.3698 102.843 47.2753 101.372C40.1787 98.8216 42.8514 99.5111 34.5587 96.4235C28.3224 94.1047 24.1914 92.7623 23.8924 90.1262C23.8741 89.9553 23.8924 89.4428 24.1059 88.6678C25.9182 81.9983 37.9392 80.1799 56.5992 77.3608C61.2185 76.6651 64.2878 76.3844 67.6805 77.5743C69.2182 78.1174 71.7323 79.3927 76.7481 81.9556C78.3835 82.7916 79.5917 83.4201 79.6893 83.4689V83.475Z" fill="#AB7145"/>
<path d="M81.099 107.383C80.6596 108.329 81.1112 108.927 80.9342 110.855C80.7633 112.704 80.2508 113.272 80.4827 113.461C81.3369 114.156 87.2986 105.455 96.2564 101.727C99.6491 100.317 101.339 99.6092 103.499 99.4139C106.294 99.1577 108.143 99.7007 109.321 98.4193C110.224 97.4369 110.474 95.6551 109.748 94.6788C108.698 93.2753 105.861 93.8977 102.737 94.5811C100.931 94.9778 97.6843 95.7161 93.962 97.9983C92.1985 99.0783 92.8454 98.9624 88.3909 102.111C86.786 103.246 85.3216 104.613 83.5825 105.534C82.3438 106.187 81.5261 106.468 81.099 107.389V107.383Z" fill="#F1F2F2"/>
<path d="M77.1995 108.367C76.4428 109.325 76.6991 110.283 75.8143 112.223C75.0272 113.956 74.3804 114.17 74.4963 114.664C74.7526 115.713 78.1697 116.671 79.7013 114.011C80.7387 112.205 80.8424 108.849 79.8905 107.781C79.1827 106.988 77.9134 107.464 77.1995 108.367Z" fill="#AB7145"/>
<path d="M24.2034 93.4811C24.9601 92.9991 26.1194 93.5788 26.5527 93.7862C32.8439 96.8616 49.2644 102.939 53.9325 104.532C57.1299 105.624 58.7226 106.167 60.7851 106.497C68.9679 107.796 72.6657 107.925 72.6657 107.925C73.5261 107.955 75.1797 107.992 75.6618 108.938C76.0218 109.639 75.5825 110.542 75.1187 111.507C74.6794 112.416 73.941 113.941 72.6291 114.588C70.6337 115.577 68.0526 114.155 67.3569 113.795C58.5944 109.255 26.9737 106.698 24.2705 100.535C24.0875 100.12 23.5749 98.6312 23.4773 96.7457C23.4223 95.629 23.343 94.0181 24.1973 93.475L24.2034 93.4811Z" fill="#AB7145"/>
<path d="M84.4487 110.586C84.4487 110.586 86.2549 108.834 88.0306 107.138C91.4661 103.855 96.5491 101.903 97.7023 101.463C100.363 100.444 101.693 99.9316 103.536 99.8095C105.434 99.6814 107.331 99.9743 108.924 99.2848C109.113 99.1993 109.864 98.8637 110.028 99.0773C110.15 99.2298 109.906 99.6082 109.845 99.7058C109.119 100.835 106.367 100.652 103.719 101.152C103.212 101.25 101.571 101.872 98.2759 103.117C94.7062 104.471 94.0228 104.825 93.5164 105.118C91.8322 106.089 90.9047 107.004 89.5744 108.218C86.0475 111.434 80.7204 115.76 80.1834 115.248C79.9943 115.071 80.4275 114.332 80.5617 114.1C81.1292 113.13 81.8615 112.886 83.027 111.928C83.2527 111.745 83.2832 111.708 84.4365 110.592L84.4487 110.586Z" fill="#AB7145"/>
<g opacity="0.9">
<path d="M91.5458 93.565C89.5017 93.565 87.2561 93.1745 84.6628 92.723C79.1587 91.7649 75.5341 91.1303 72.7333 87.1701C69.2063 82.1726 68.1812 73.7151 70.3474 67.4911C71.6593 63.72 73.911 61.5111 76.0894 59.3754C78.6462 56.8674 81.2883 54.2741 82.466 49.063C82.8199 47.4825 83.0213 45.835 83.0518 44.163C83.0518 44.0593 83.1189 43.9617 83.2105 43.925C83.2471 43.9067 83.2837 43.9006 83.3203 43.9006C83.3813 43.9006 83.4485 43.925 83.4973 43.9678C85.2852 45.536 87.3599 46.5733 89.5017 46.97C90.1668 47.092 90.8441 47.153 91.5214 47.153C93.1568 47.153 94.7738 46.7991 96.3359 46.1096C96.3725 46.0913 96.4092 46.0852 96.4458 46.0852C96.5068 46.0852 96.5678 46.1035 96.6166 46.1462C96.696 46.2072 96.7326 46.3109 96.7082 46.4086C96.3909 47.867 96.2139 49.3497 96.1834 50.8203C96.0797 56.2145 98.0994 59.5035 100.235 62.9756C102.011 65.8618 103.848 68.8457 104.348 73.1171C105.111 79.6585 102.566 87.3837 98.4228 91.0876C96.5068 92.8023 94.3894 93.565 91.558 93.565H91.5458Z" fill="url(#paint0_linear_2148_4087)"/>
<path d="M83.3139 44.1644C84.4061 45.1224 86.5052 46.6907 89.4464 47.2276C90.1725 47.3619 90.8621 47.4168 91.515 47.4168C93.7056 47.4168 95.4447 46.7883 96.4393 46.3489C96.2196 47.3375 95.9451 48.8996 95.9084 50.8095C95.7071 60.9145 102.993 63.9472 104.073 73.149C104.836 79.6599 102.285 87.2691 98.2333 90.8876C96.2013 92.6999 94.0412 93.2979 91.5455 93.2979C89.5196 93.2979 87.2741 92.9074 84.7051 92.4559C79.2926 91.51 75.6863 90.8876 72.9526 87.0129C69.6148 82.2838 68.4005 73.8935 70.5972 67.5779C73.4225 59.45 80.5252 58.8459 82.7281 49.1193C83.1918 47.0568 83.2955 45.2811 83.32 44.1644M83.32 43.6274C83.2467 43.6274 83.1735 43.6396 83.1003 43.6763C82.9111 43.7617 82.783 43.9508 82.783 44.1583C82.7525 45.812 82.5572 47.4473 82.2094 49.0033C81.05 54.1351 78.5482 56.5881 75.906 59.1815C73.7093 61.3416 71.4332 63.5689 70.0969 67.4009C67.9062 73.6982 68.9497 82.2594 72.5194 87.318C75.3812 91.3758 79.256 92.047 84.6197 92.9806C87.2314 93.4383 89.483 93.8288 91.5516 93.8288C94.4562 93.8288 96.6285 93.0417 98.5933 91.2843C102.798 87.5254 105.385 79.7026 104.61 73.0819C104.103 68.7495 102.255 65.7412 100.461 62.8305C98.3431 59.389 96.3417 56.1366 96.4515 50.8156C96.482 49.3633 96.6529 47.8989 96.9702 46.4588C97.0129 46.2635 96.9397 46.056 96.7871 45.9279C96.6895 45.8486 96.5675 45.8059 96.4454 45.8059C96.3722 45.8059 96.299 45.8181 96.2257 45.8547C94.7002 46.532 93.1137 46.8798 91.5211 46.8798C90.8621 46.8798 90.1969 46.8188 89.5501 46.7029C87.4571 46.3184 85.4252 45.2994 83.6739 43.7617C83.5762 43.6763 83.4481 43.6274 83.32 43.6274Z" fill="#D1D3D4"/>
</g>
<path d="M40.8987 86.0601C40.8987 86.0601 40.8377 86.0479 40.8133 86.0357C40.0871 85.694 39.4708 85.2363 38.9888 84.6688C38.043 83.5644 36.7982 80.6964 39.062 73.8988C40.2275 70.3901 41.393 68.529 42.7476 66.3689C43.5836 65.0386 44.5294 63.5253 45.5729 61.4323C47.2509 58.0884 48.4591 54.3967 49.1792 50.4731C49.1914 50.3938 49.2463 50.3205 49.3195 50.2839C49.3561 50.2656 49.3988 50.2534 49.4416 50.2534C49.4782 50.2534 49.5148 50.2595 49.5514 50.2778C50.2775 50.6073 51.0281 50.8636 51.7847 51.0345C52.9868 51.303 53.9876 51.3152 55.6412 51.3274H55.9646C56.6847 51.3274 57.2766 51.3091 57.7037 51.2908H57.7159C57.7891 51.2908 57.8562 51.3213 57.9112 51.3762C57.9661 51.4311 57.9905 51.5043 57.9844 51.5837C57.6488 55.6049 58.0027 59.4309 59.0339 62.9578C59.7174 65.2949 60.4374 66.9119 61.133 68.468C62.1155 70.6708 63.0491 72.7455 63.6166 76.4616C64.0315 79.1587 64.8004 84.1746 61.9263 86.6947C61.1758 87.3537 60.2421 87.7931 59.1377 88.0128C59.1194 88.0128 59.1011 88.0128 59.0828 88.0128C59.0705 88.0128 40.8987 86.054 40.8987 86.054V86.0601Z" fill="url(#paint1_linear_2148_4087)"/>
<path d="M49.4415 50.5228C50.369 50.95 51.1684 51.1696 51.7237 51.2978C52.9258 51.5663 53.9143 51.5785 55.6351 51.5968C55.751 51.5968 55.8608 51.5968 55.9707 51.5968C56.6907 51.5968 57.2826 51.5785 57.7097 51.5602C57.2887 56.6309 58.0149 60.463 58.7654 63.032C60.4374 68.7679 62.3839 70.2629 63.3419 76.4991C63.7935 79.4342 64.4464 84.1145 61.7432 86.4943C60.8462 87.2814 59.815 87.6048 59.0766 87.7513C53.0234 87.0984 46.9763 86.4455 40.9231 85.7925C40.441 85.5668 39.7698 85.1762 39.1901 84.4989C38.6958 83.9253 36.8286 81.454 39.3121 73.9851C41.2038 68.2919 43.1015 66.9617 45.8047 61.5553C47.0129 59.1389 48.5262 55.4838 49.4293 50.5228M49.4293 49.9858C49.3439 49.9858 49.2584 50.0041 49.1791 50.0469C49.0327 50.1262 48.9289 50.2665 48.8984 50.4252C48.1845 54.3244 46.9824 57.9917 45.3165 61.3173C44.2731 63.3981 43.3761 64.8382 42.5035 66.2294C41.1427 68.4018 39.9712 70.2812 38.7935 73.8204C36.493 80.7462 37.7927 83.6995 38.7691 84.8467C39.2755 85.4386 39.9223 85.9207 40.6851 86.2807C40.74 86.3051 40.7949 86.3234 40.856 86.3295L50.0944 87.3241L59.0095 88.2883C59.0095 88.2883 59.0461 88.2883 59.0644 88.2883C59.101 88.2883 59.1376 88.2883 59.1681 88.2761C60.3214 88.0442 61.2977 87.5804 62.0849 86.897C65.0688 84.2792 64.2816 79.1657 63.8606 76.4198C63.287 72.6732 62.3473 70.5741 61.3588 68.359C60.6631 66.8091 59.9492 65.2043 59.2719 62.8794C58.2528 59.3952 57.905 55.6119 58.2284 51.6456C58.2284 51.6151 58.2345 51.5907 58.2345 51.5602C58.2345 51.2612 57.9965 51.0232 57.6975 51.0232H57.6914C57.6914 51.0232 57.6792 51.0232 57.6731 51.0232C57.1056 51.0476 56.5321 51.0598 55.9585 51.0598H55.6229C53.8472 51.0476 52.9502 51.0293 51.8213 50.773C51.083 50.6082 50.3507 50.3581 49.6429 50.0347C49.5696 50.0041 49.4964 49.9858 49.4171 49.9858H49.4293Z" fill="#D1D3D4"/>
<path d="M47.1165 77.7683C48.8373 79.1839 48.7031 79.6172 49.8502 80.0931C51.8944 80.9413 53.4321 79.8185 54.7014 80.9535C55.1041 81.3135 55.6411 82.0397 55.4763 82.6804C55.0736 84.2486 50.6862 84.389 48.7641 84.3645C43.8703 84.3035 41.4234 84.2364 40.3128 82.6987C38.5676 80.2823 39.7453 75.7241 41.704 75.0712C43.2112 74.5708 45.3409 76.3221 47.1043 77.7744L47.1165 77.7683Z" fill="#0C7291"/>
<path opacity="0.75" d="M39.7759 77.9322C38.342 79.1404 38.287 82.1731 39.5563 83.9488C40.7217 85.578 42.4669 85.401 48.99 86.0845C57.4413 86.9754 59.3268 87.7808 61.1696 86.1882C63.0063 84.6017 63.1162 81.9595 63.1528 80.6903C63.1894 79.4577 63.3603 74.0757 60.8767 73.02C57.9234 71.763 55.3483 78.3593 48.7764 78.8475C44.2548 79.1831 41.6493 76.3517 39.7759 77.9261V77.9322Z" fill="#33479F"/>
<path opacity="0.75" d="M46.8543 74.8443C47.3497 74.8443 47.7513 74.4427 47.7513 73.9473C47.7513 73.4519 47.3497 73.0503 46.8543 73.0503C46.3589 73.0503 45.9573 73.4519 45.9573 73.9473C45.9573 74.4427 46.3589 74.8443 46.8543 74.8443Z" fill="#33479F"/>
<path opacity="0.75" d="M52.2728 76.1203C53.176 76.1203 53.9081 75.3881 53.9081 74.485C53.9081 73.5818 53.176 72.8496 52.2728 72.8496C51.3696 72.8496 50.6375 73.5818 50.6375 74.485C50.6375 75.3881 51.3696 76.1203 52.2728 76.1203Z" fill="#33479F"/>
<path opacity="0.75" d="M49.5451 77.3457C49.8754 77.3457 50.1431 77.0779 50.1431 76.7477C50.1431 76.4174 49.8754 76.1497 49.5451 76.1497C49.2149 76.1497 48.9471 76.4174 48.9471 76.7477C48.9471 77.0779 49.2149 77.3457 49.5451 77.3457Z" fill="#33479F"/>
<path d="M78.0783 77.2056C78.5726 75.9424 81.8005 78.5175 86.5418 77.1384C90.1237 76.095 90.4288 74.002 93.5591 73.5443C96.5247 73.1111 100.766 74.3315 101.522 77.6571C102.309 81.1048 99.1303 85.785 95.9939 87.5729C91.0573 90.3859 85.9194 86.2183 83.1186 83.9544C80.4764 81.8126 77.584 78.4626 78.0783 77.2056Z" fill="#980F88"/>
<path opacity="0.75" d="M76.5343 67.3886C75.3383 66.3513 74.2278 65.3384 73.0928 65.8265C70.6276 66.8944 69.5658 74.4243 70.8167 80.2212C71.0608 81.3501 71.8053 84.6452 74.0935 87.385C75.2529 88.7762 77.0774 90.3445 83.4662 91.6259C89.91 92.9195 93.1318 93.5663 95.4506 92.2239C101.687 88.6298 104.793 76.6454 102.791 74.107C101.071 71.9224 97.2446 78.8299 90.9778 77.4143C87.042 76.5234 82.2763 72.3801 76.5282 67.3886H76.5343Z" fill="#A51478"/>
<path opacity="0.75" d="M91.4661 70.1517C93.3095 70.1517 94.8039 68.6573 94.8039 66.8139C94.8039 64.9705 93.3095 63.4761 91.4661 63.4761C89.6227 63.4761 88.1283 64.9705 88.1283 66.8139C88.1283 68.6573 89.6227 70.1517 91.4661 70.1517Z" fill="#980F88"/>
<path d="M91.564 64.068C91.3565 64.0436 90.7646 64.0009 90.1361 64.3426C89.5076 64.6844 89.2208 65.203 89.1293 65.3922" stroke="#F7B0EF" stroke-width="0.43" stroke-miterlimit="10" stroke-linecap="round"/>
<path opacity="0.75" d="M81.4407 67.8409C82.4517 67.8409 83.2713 67.0213 83.2713 66.0103C83.2713 64.9993 82.4517 64.1797 81.4407 64.1797C80.4297 64.1797 79.6101 64.9993 79.6101 66.0103C79.6101 67.0213 80.4297 67.8409 81.4407 67.8409Z" fill="#980F88"/>
<path d="M81.3553 64.6013C81.2455 64.6013 80.7878 64.6257 80.4095 64.9918C79.9335 65.4556 79.9885 66.0841 80.0007 66.1634" stroke="#F7B0EF" stroke-width="0.43" stroke-miterlimit="10" stroke-linecap="round"/>
<path opacity="0.75" d="M85.962 72.7321C86.636 72.7321 87.1824 72.1857 87.1824 71.5117C87.1824 70.8377 86.636 70.2913 85.962 70.2913C85.288 70.2913 84.7416 70.8377 84.7416 71.5117C84.7416 72.1857 85.288 72.7321 85.962 72.7321Z" fill="#980F88"/>
<path d="M86.0294 70.7479C85.9378 70.7418 85.7121 70.7296 85.4985 70.8699C85.4192 70.9248 85.3581 70.9798 85.3154 71.0347" stroke="#F7B0EF" stroke-width="0.43" stroke-miterlimit="10" stroke-linecap="round"/>
<path d="M48.4287 48.5863C49.4172 48.806 51.2784 49.0684 53.3042 48.3667C55.2996 47.6771 56.5017 46.3835 57.0936 45.6269C56.221 43.0213 55.5376 41.1053 55.3118 40.611C55.2325 40.434 55.1349 40.2693 55.0006 40.1228C54.9335 40.0496 54.726 39.8299 54.366 39.6896C53.2432 39.2563 51.4126 39.7201 51.4126 39.7201C50.9122 39.8482 50.5217 39.9825 50.1068 40.135C49.283 40.4279 48.8559 40.6232 48.746 40.672C48.2396 40.91 47.8795 41.1358 47.7819 41.1907C46.9215 41.7216 46.4944 41.9901 46.2198 42.5881C46.1161 42.8138 45.9818 43.1983 45.9635 43.7902L46.1344 44.1746C46.8971 45.6452 47.666 47.1158 48.4287 48.5863Z" fill="#A97C50"/>
<path opacity="0.5" d="M47.9894 46.2819C48.0626 46.2514 47.8795 45.7816 47.7453 45.0188C47.6355 44.4208 47.5866 43.7984 47.5988 43.5604C47.6782 42.1448 50.9366 41.144 51.3943 41.0037C51.0404 40.9732 50.5217 40.961 49.9115 41.0586C49.2891 41.1562 48.2884 41.3271 47.428 42.0959C47.0252 42.456 46.6225 42.816 46.5615 43.3713C46.5127 43.774 46.7995 44.3049 47.3792 45.3422C47.6416 45.8182 47.9161 46.3124 47.9955 46.2758L47.9894 46.2819Z" fill="#D5BDA6"/>
<path d="M49.9786 48.7326L49.6918 46.4504L50.9549 48.5984" fill="#543E28"/>
<path d="M52.468 48.5196L51.9738 45.9446L53.2796 48.062" fill="#543E28"/>
<path d="M54.7685 47.6105L54.3901 45.2002L55.7509 46.805" fill="#543E28"/>
<path d="M85.5414 38.4472C86.2614 39.6432 87.7686 41.7606 90.3925 43.1214C92.9798 44.4699 95.4206 44.4394 96.7325 44.3113C98.5143 40.9674 99.7896 38.4594 100.07 37.7638C100.168 37.5197 100.241 37.2634 100.266 36.9889C100.278 36.8485 100.296 36.4397 100.095 35.9393C99.4601 34.4016 97.2573 33.0103 97.2573 33.0103C96.6532 32.6259 96.1467 32.3696 95.6036 32.095C94.5297 31.5458 93.9256 31.3018 93.773 31.2468C93.053 30.9662 92.4916 30.8197 92.339 30.777C90.9905 30.4231 90.3193 30.2461 89.4589 30.5329C89.1294 30.6427 88.6168 30.8746 88.0127 31.4116L87.7869 31.9486C87.0425 34.1148 86.2919 36.2749 85.5475 38.4411L85.5414 38.4472Z" fill="#A97C50"/>
<path opacity="0.5" d="M87.4388 35.8113C87.5364 35.854 87.8415 35.2255 88.4701 34.3651C88.9643 33.6878 89.5379 33.047 89.7881 32.8335C91.2831 31.5704 95.3776 33.883 95.9572 34.2125C95.646 33.8281 95.1701 33.2972 94.4928 32.7786C93.8032 32.2477 92.6866 31.4117 91.0939 31.2775C90.3556 31.2164 89.6111 31.1554 88.9887 31.6192C88.5372 31.9548 88.2809 32.748 87.7866 34.3102C87.5609 35.0302 87.329 35.7685 87.4327 35.8113H87.4388Z" fill="#D5BDA6"/>
<path d="M86.8718 40.1315L88.8855 37.6846L87.9336 40.9919" fill="#543E28"/>
<path d="M89.4468 42.4256L91.5581 39.4844L90.6794 42.81" fill="#543E28"/>
<path d="M92.5464 43.8663L94.5967 41.1997L94.2855 44.086" fill="#543E28"/>
<path d="M81.349 109.222C81.6053 108.881 81.9287 108.502 82.3192 108.13C82.6914 107.77 82.8379 107.66 82.8928 107.624C83.2833 107.367 83.5213 107.361 84.0034 107.16C84.3146 107.032 84.522 106.897 84.9492 106.635C86.2672 105.817 87.5242 104.829 87.5242 104.829C89.2206 103.499 88.824 103.92 91.454 101.9C92.6561 100.978 92.9673 100.716 93.7544 100.179C94.6026 99.5994 95.2494 99.1539 96.1159 98.7085C96.9763 98.2691 97.2875 98.2203 100.57 97.1464C102.541 96.4995 102.615 96.4568 103.219 96.2982C104.329 96.0114 105.44 95.7307 106.892 95.7063C107.96 95.688 108.851 95.8222 109.461 95.9443" stroke="#A7A9AC" stroke-width="0.75" stroke-miterlimit="10" stroke-linecap="round"/>
<path d="M81.05 110.627C81.3063 110.285 81.6297 109.907 82.0203 109.534C82.3925 109.174 82.5389 109.064 82.5939 109.028C82.9844 108.772 83.2224 108.765 83.7044 108.564C84.0156 108.436 84.2231 108.302 84.6503 108.039C85.9683 107.222 87.2253 106.233 87.2253 106.233C88.9217 104.903 88.525 105.324 91.155 103.304C92.3571 102.383 92.6683 102.12 93.4555 101.583C94.3037 101.004 94.9505 100.558 95.817 100.113C96.6773 99.6734 96.9885 99.6246 100.271 98.5507C102.242 97.9038 102.316 97.8611 102.92 97.7025C104.03 97.4157 105.141 97.135 106.593 97.1106C107.661 97.0923 108.552 97.2265 109.162 97.3486" stroke="#A7A9AC" stroke-width="0.75" stroke-miterlimit="10" stroke-linecap="round"/>
<path d="M80.8301 108.4C81.0864 108.058 81.4098 107.679 81.8003 107.307C82.1725 106.947 82.319 106.837 82.3739 106.801C82.7644 106.544 83.0024 106.538 83.4845 106.337C83.7957 106.209 84.0031 106.075 84.4303 105.812C85.7483 104.995 87.0053 104.006 87.0053 104.006C88.7017 102.676 88.3051 103.097 90.935 101.077C92.1371 100.156 92.4483 99.8933 93.2355 99.3563C94.0837 98.7766 94.7305 98.3312 95.597 97.8857C96.4574 97.4464 96.7686 97.3976 100.051 96.3236C102.022 95.6768 102.096 95.6341 102.7 95.4754C103.81 95.1886 104.921 94.9079 106.373 94.8835C107.441 94.8652 108.332 94.9995 108.942 95.1215" stroke="#A7A9AC" stroke-width="0.75" stroke-miterlimit="10" stroke-linecap="round"/>
<path d="M81.05 111.952C81.3063 111.611 81.6297 111.232 82.0203 110.86C82.3925 110.5 82.5389 110.39 82.5939 110.354C82.9844 110.097 83.2224 110.091 83.7044 109.89C84.0156 109.762 84.2231 109.628 84.6503 109.365C85.9683 108.548 87.2253 107.559 87.2253 107.559C88.9217 106.229 88.525 106.65 91.155 104.63C92.3571 103.709 92.6683 103.446 93.4555 102.909C94.3037 102.33 94.9505 101.884 95.817 101.439C96.6773 100.999 96.9885 100.951 100.271 99.8766C102.242 99.2298 102.316 99.187 102.92 99.0284C104.03 98.7416 105.141 98.4609 106.593 98.4365C107.661 98.4182 108.552 98.5524 109.162 98.6745" stroke="#A7A9AC" stroke-width="0.75" stroke-miterlimit="10" stroke-linecap="round"/>
<defs>
<linearGradient id="paint0_linear_2148_4087" x1="86.8412" y1="93.565" x2="86.8412" y2="43.9006" gradientUnits="userSpaceOnUse">
<stop stop-color="#C4D2D7" stop-opacity="0.9"/>
<stop offset="1" stop-color="#DDEBEF"/>
</linearGradient>
<linearGradient id="paint1_linear_2148_4087" x1="50.906" y1="88.025" x2="50.906" y2="50.2534" gradientUnits="userSpaceOnUse">
<stop stop-color="#D1D3D4" stop-opacity="0.9"/>
<stop offset="1" stop-color="#F1F2F2" stop-opacity="0.9"/>
</linearGradient>
</defs>
</svg>
