<svg width="140" height="140" viewBox="0 0 140 140" fill="none" xmlns="http://www.w3.org/2000/svg">
<circle cx="70" cy="70" r="65" fill="#DEB62A" stroke="#8C6E08" stroke-width="10"/>
<path d="M52.7463 33.6645C55.7133 36.1419 57.6973 42.8419 54.0326 46.9608C50.5317 50.8966 44.1914 49.8775 41.1213 47.4367C39.7379 46.3384 40.1202 45.8258 38.1179 43.1226C34.6474 38.4484 32.3843 38.662 29.5448 34.415C27.858 31.8949 26.687 28.8988 27.2088 28.5143C27.5183 28.2886 28.4223 28.972 29.0836 29.4785C30.2 30.3266 30.4124 30.8758 31.4317 31.7972C31.8322 32.1573 32.6816 32.92 33.8768 33.4692C34.8598 33.9207 37.1714 34.7201 37.8388 33.9024C38.3788 33.2373 37.6447 31.5776 36.771 30.4853C34.4411 27.5624 30.4609 27.8553 30.4791 27.0987C30.4973 26.4885 33.1063 25.506 35.7941 26.1162C38.3303 26.6959 38.4031 27.9957 41.4004 29.2466C44.3734 30.4914 45.2774 29.57 48.4264 30.8941C49.2576 31.242 51.0657 32.2549 52.7463 33.6584V33.6645Z" fill="#FE5694"/>
<path opacity="0.95" d="M55.5191 32.8958C55.1065 33.0483 57.4 36.8743 56.1076 41.4264C55.0155 45.2707 52.0728 47.1074 52.3823 47.4491C52.7342 47.8396 57.1755 45.9724 58.4072 42.122C59.8694 37.5516 55.9984 32.7249 55.5191 32.9019V32.8958Z" fill="#D8316E"/>
<path d="M31.5044 26.8608C31.5105 26.6167 33.2639 26.4764 33.3367 26.4703C33.3367 26.4703 34.3743 26.391 35.2965 26.5252C37.8266 26.9035 39.58 29.5701 42.9414 30.5953C45.1924 31.2848 45.4836 30.4122 47.4919 31.2604C47.9773 31.4679 50.8229 32.6639 51.7148 35.3304C52.8736 38.7964 50.1433 43.1593 46.6 44.575C46.2905 44.6971 43.451 45.7832 40.8239 44.4774C39.4344 43.7879 39.307 43.0251 37.5778 40.9992C34.3743 37.2343 32.7967 37.4845 30.1453 33.8721C28.5799 31.7424 27.7972 29.8325 28.0217 29.6739C28.3433 29.4481 30.2363 32.9995 34.174 34.5616C34.3682 34.6409 38.4272 36.2091 39.6104 34.7202C40.66 33.4022 39.2645 29.9179 36.9165 28.3253C34.5623 26.7266 31.4983 27.1842 31.5044 26.8608Z" fill="#FF74A7"/>
<path opacity="0.95" d="M36.7101 43.8234C38.3604 45.6907 39.7559 47.2711 41.6428 47.503C42.9413 47.6616 44.0152 47.0697 46.163 45.8859C49.2938 44.1591 50.6589 42.5115 50.9744 42.78C51.3081 43.0607 50.4223 45.349 48.5839 46.8928C46.2116 48.882 42.2556 49.6387 39.3918 48.1315C37.1105 46.9294 37.608 45.3795 34.271 42.8654C32.0139 41.163 30.127 40.6199 30.2483 40.2477C30.3636 39.8937 32.2202 39.912 33.7977 40.7602C35.0962 41.4559 35.2903 42.2186 36.7101 43.8234Z" fill="#D8316E"/>
<path d="M41.3095 38.2232C41.1639 38.7235 41.2974 38.8822 41.1154 39.4131C40.9637 39.8585 40.8059 39.9378 40.8605 40.1087C40.9819 40.4809 41.9345 40.725 42.4259 40.3345C42.8992 39.9561 42.7354 39.1568 42.6261 38.5954C42.5412 38.156 42.2803 37.2712 41.9345 37.2712C41.5886 37.2712 41.3277 38.156 41.3095 38.2232Z" fill="#FFB4D8"/>
<path opacity="0.75" d="M41.7645 33.8353C41.6795 33.9512 41.3883 34.3601 41.5218 34.8177C41.5339 34.8666 41.6553 35.2693 41.9283 35.3059C42.1649 35.3364 42.4076 35.0862 42.4804 34.8421C42.5532 34.592 42.4016 34.5004 42.3591 34.0062C42.3287 33.64 42.3955 33.4753 42.3105 33.4326C42.1892 33.3655 41.9162 33.6278 41.7645 33.8353Z" fill="#FFB4D8"/>
<path d="M32.9242 35.7827C33.3307 36.1244 33.7676 36.4722 34.2408 36.8201C34.7565 37.2045 35.2541 37.5462 35.7394 37.8574" stroke="white" stroke-width="0.75" stroke-miterlimit="10" stroke-linecap="round"/>
<path d="M36.4795 38.4985C36.613 38.5779 36.7465 38.6511 36.8799 38.7304" stroke="white" stroke-width="0.75" stroke-miterlimit="10" stroke-linecap="round"/>
<path d="M113.499 56.7917C107.08 67.2079 100.654 77.624 94.2351 88.0402C91.2196 86.1608 88.7745 84.6902 87.112 83.7078C84.139 81.9504 82.8831 81.2669 82.6222 79.9306C82.3006 78.2647 83.775 76.8369 85.2797 75.0795C85.9532 74.2923 87.9311 71.0949 91.8931 64.6877C96.0128 58.0304 98.0757 54.6987 98.5005 53.0756C98.8524 51.7209 99.1315 50.1466 100.363 49.5425C100.988 49.2374 102.244 48.9933 106.704 51.7331C108.439 52.801 110.841 54.4302 113.499 56.7856V56.7917Z" fill="#CECECE" stroke="#928484" stroke-width="2" stroke-miterlimit="10"/>
<path d="M71.992 68.9641C73.6241 71.9419 68.2059 76.5978 63.71 83.7554C56.9874 94.4584 55.9499 104.997 52.6978 104.716C52.1517 104.667 52.1517 104.374 48.2807 102.306C45.7689 100.963 45.69 101.049 45.4898 100.786C43.6271 98.3088 51.4418 92.103 56.5081 81.6075C60.5793 73.1745 61.2831 65.2724 64.7779 65.0344C66.0945 64.9429 68.1635 65.9131 68.2909 65.9741C69.8684 66.7247 71.4398 67.9756 71.9859 68.9702L71.992 68.9641Z" fill="#CECECE" stroke="#928484" stroke-width="2" stroke-miterlimit="10"/>
<path d="M49.7734 114.888L38.7308 109.183C39.3133 108.243 40.1506 106.779 40.9333 104.869C41.8737 102.574 41.9405 101.58 42.8324 101.153C43.7121 100.725 44.5494 101.269 47.7833 102.934C52.619 105.43 53.7172 105.747 53.881 106.858C54.0084 107.743 53.4017 108.188 52.0305 110.483C50.9566 112.283 50.2285 113.839 49.7795 114.888H49.7734Z" fill="#CECECE" stroke="#928484" stroke-width="2" stroke-miterlimit="10"/>
<path d="M96.9227 52.282C97.5901 54.32 96.2492 55.632 90.3457 65.1634C84.8305 74.0601 84.0781 76.0189 81.9242 76.2446C78.6114 76.5986 77.7195 72.2539 71.6218 67.7018C62.7635 61.0872 55.4948 63.406 53.9719 58.8356C53.5775 57.664 53.7899 56.6937 59.6206 45.9237C64.5655 36.7889 65.2147 36.0018 66.4828 35.6539C70.7057 34.4885 72.8899 40.6088 82.7372 45.6613C91.0313 49.9144 95.7942 48.8099 96.9348 52.2759L96.9227 52.282Z" fill="#CECECE" stroke="#928484" stroke-width="2" stroke-miterlimit="10"/>
<path d="M87.6398 41.3237C87.9189 42.8858 87.0634 44.5944 85.4798 45.5524C84.8427 45.5524 83.514 45.4731 82.0942 44.6737C80.9171 44.0147 80.2133 43.1543 79.8553 42.6478C79.7036 40.7989 80.5895 39.1026 82.0153 38.4191C84.1996 37.3757 87.209 38.9256 87.6398 41.3237Z" fill="#CECECE" stroke="#928484" stroke-width="2" stroke-miterlimit="10"/>
<path opacity="0.9" d="M111.97 55.8811C109.883 54.6485 108.232 53.5806 107.122 52.8423C104.307 50.975 102.875 49.834 101.34 50.2428C100.236 50.5357 99.6227 51.4388 99.6227 51.4388C99.289 51.8964 99.2162 52.287 99.0766 52.769C98.3546 55.3075 97.0198 56.4913 97.4809 57.0404C97.6387 57.2296 97.9178 57.2357 98.033 57.2357C99.4346 57.2601 99.562 54.4776 101.322 53.544C103.233 52.5372 106.922 53.7759 108.894 55.6675C109.385 56.1373 110.186 57.0527 110.987 56.8635C111.472 56.7476 111.782 56.2716 111.964 55.8872L111.97 55.8811Z" fill="#E4E6E8"/>
<path opacity="0.9" d="M59.1659 48.7419C56.6298 53.1231 54.221 56.644 55.2464 57.7423C55.5012 58.0169 55.8774 58.0352 55.9502 58.0413C57.6066 58.1329 58.632 54.4595 61.15 49.7609C63.4009 45.5627 65.1969 42.4751 67.6299 42.17C68.7645 42.0296 69.2863 42.7741 71.5615 44.4033C78.6057 49.4314 80.6201 47.2713 86.2809 51.6586C87.3609 52.4946 88.8292 53.7699 90.3097 53.3611C91.4079 53.0621 92.3665 51.8722 92.1359 51.201C91.8932 50.487 90.3521 50.4565 89.5694 50.3955C86.9666 50.2002 84.5275 48.7113 79.6615 45.7336C75.5296 43.2073 71.0276 39.1068 70.5665 38.6979C68.5521 36.9161 68.1335 36.373 67.2234 36.373C64.845 36.3853 64.1533 40.1075 59.1659 48.7358V48.7419Z" fill="#E5E7EA"/>
<path d="M50.0949 91.206C50.3983 92.1701 51.5147 92.7925 53.7414 94.0373C56.132 95.3736 57.3212 96.0388 58.2919 95.752C60.0454 95.2333 59.6814 92.7681 61.7139 88.6065C64.0377 83.853 66.7498 82.474 66.0278 80.7288C65.7426 80.0392 65.2573 80.1125 61.5562 78.1537C58.5407 76.5611 58.3951 76.2621 57.7944 76.378C55.8589 76.738 56.1987 80.0148 53.347 84.9697C51.3145 88.4966 49.5671 89.5706 50.0889 91.206H50.0949Z" fill="#FE5694"/>
<path opacity="0.9" d="M80.2316 42.2207C80.2377 41.8058 80.3166 41.1712 80.6564 40.5121C80.7292 40.3718 81.4997 38.9378 82.9741 38.651C83.7568 38.4985 84.4909 38.7487 84.4909 38.8585C84.4909 38.9805 83.5505 38.8097 82.6161 39.3467C81.7 39.8775 81.2934 40.7928 81.16 41.1223C80.8869 41.7753 80.8081 42.3916 80.802 42.8614C80.6078 42.6479 80.4197 42.4404 80.2256 42.2268L80.2316 42.2207Z" fill="#E4E6E8"/>
<path opacity="0.9" d="M65.6882 65.8643C65.6882 66.0657 65.0329 66.1755 64.6628 66.3098C63.7102 66.6515 63.1096 67.6522 62.2783 70.1418C61.1134 73.6505 60.7918 76.2256 59.8635 76.4269C59.7968 76.4391 59.5844 76.488 59.4509 76.372C59.2447 76.1951 59.366 75.7374 59.6936 74.7245C60.0941 73.4858 60.2822 73.0037 60.2822 73.0037C60.5977 72.186 60.8343 71.6002 61.0831 71.0022C61.9204 68.9703 61.8293 69.1533 62.0296 68.6896C62.7394 67.0542 63.0853 66.5356 63.5889 66.0901C63.959 65.7606 64.3473 65.5409 64.7963 65.5287C65.221 65.5226 65.6882 65.6996 65.6882 65.8704V65.8643Z" fill="#E5E7EA"/>
<path opacity="0.9" d="M50.4529 92.5991C49.5367 92.6479 49.3305 93.8073 47.7469 96.0346C47.1705 96.84 46.7518 97.5845 45.9085 99.0734C45.7507 99.3541 45.4595 99.8849 45.6718 100.282C45.8053 100.526 46.0844 100.629 46.2725 100.678C46.5516 99.9582 46.8004 99.3785 46.9763 98.9818C47.9046 96.9011 49.2759 93.8134 50.8534 93.2276C50.9747 93.1849 51.3812 93.0507 51.3691 92.9042C51.357 92.7395 50.823 92.5808 50.459 92.6052L50.4529 92.5991Z" fill="#E5E7EA"/>
<path d="M43.7186 102.063C43.2878 102.204 43.0451 102.618 42.8813 102.966C42.0744 104.644 42.1593 106.304 41.3645 108.324C41.1885 108.769 40.958 109.264 40.5515 109.331C40.1389 109.404 39.7506 109.007 39.5989 108.836C39.7202 108.598 39.884 108.281 40.0721 107.909C40.4119 107.226 40.8063 106.426 41.1218 105.633C41.7285 104.113 41.7346 103.406 42.4384 102.228C42.6083 101.941 42.8752 101.545 43.3364 101.429C43.7854 101.313 44.204 101.52 44.3314 101.587C44.6955 101.77 45.017 102.1 44.9624 102.197C44.8957 102.319 44.3011 101.88 43.7186 102.063Z" fill="#E5E7EA"/>
<path d="M59.1351 76.6224C58.7043 76.4272 58.4919 76.3356 58.4131 76.3295C57.6061 76.3051 57.2178 78.7825 56.0529 81.3637C55.0396 83.597 54.3965 85.0249 53.001 86.3857C52.4731 86.9043 51.5387 87.7037 51.3628 88.979C51.2718 89.6319 51.3871 90.3764 51.5569 90.3947C51.739 90.4191 51.8967 89.6686 52.2668 88.857C52.8372 87.6 53.5106 87.0691 54.2084 86.2392C55.3976 84.8357 55.9436 83.4384 56.8052 81.2295C57.3998 79.71 58.1036 77.4828 58.8499 77.5438C59.0623 77.5621 59.3474 77.7696 59.7297 77.6476C59.8874 77.5987 60.1483 77.4584 60.1544 77.2875C60.1544 77.0862 59.8086 76.9214 59.1351 76.6224Z" fill="#FF82B0"/>
</svg>
